<svg width="82" height="82" viewBox="0 0 82 82" fill="none" xmlns="http://www.w3.org/2000/svg">
<circle cx="41.3607" cy="41.3587" r="30.4779" fill="#205BC9"/>
<circle cx="41.3691" cy="41.3633" r="35.7832" stroke="#3F7EF3"/>
<circle cx="41" cy="41" r="40.5" stroke="#0054FD"/>
<path d="M53.8672 52.25C53.4791 52.25 53.1641 52.565 53.1641 52.9531C53.1641 53.3412 53.4791 53.6562 53.8672 53.6562C54.2553 53.6562 54.5703 53.3412 54.5703 52.9531C54.5703 52.565 54.2553 52.25 53.8672 52.25Z" fill="white"/>
<path d="M49.4375 52.25C49.0494 52.25 48.7344 52.565 48.7344 52.9531C48.7344 53.3412 49.0494 53.6562 49.4375 53.6562C49.8256 53.6562 50.1406 53.3412 50.1406 52.9531C50.1406 52.565 49.8256 52.25 49.4375 52.25Z" fill="white"/>
<path d="M45.2188 39.5938C44.8306 39.5938 44.5156 39.9087 44.5156 40.2969C44.5156 40.685 44.8306 41 45.2188 41C45.6069 41 45.9219 40.685 45.9219 40.2969C45.9219 39.9087 45.6069 39.5938 45.2188 39.5938Z" fill="white"/>
<path d="M45.2188 52.25C44.8306 52.25 44.5156 52.565 44.5156 52.9531C44.5156 53.3412 44.8306 53.6562 45.2188 53.6562C45.6069 53.6562 45.9219 53.3412 45.9219 52.9531C45.9219 52.565 45.6069 52.25 45.2188 52.25Z" fill="white"/>
<path d="M41 26.9375C40.6119 26.9375 40.2969 27.2525 40.2969 27.6406C40.2969 28.0287 40.6119 28.3438 41 28.3438C41.3881 28.3438 41.7031 28.0287 41.7031 27.6406C41.7031 27.2525 41.3881 26.9375 41 26.9375Z" fill="white"/>
<path d="M53.8672 39.5938H48.0312C47.643 39.5938 47.3281 39.9086 47.3281 40.2969C47.3281 40.6851 47.643 41 48.0312 41H53.8672C54.2555 41 54.5703 40.6851 54.5703 40.2969C54.5703 39.9086 54.2555 39.5938 53.8672 39.5938Z" fill="white"/>
<path d="M53.8672 43.8125H45.2188C44.8305 43.8125 44.5156 44.1274 44.5156 44.5156C44.5156 44.9039 44.8305 45.2188 45.2188 45.2188H53.8672C54.2555 45.2188 54.5703 44.9039 54.5703 44.5156C54.5703 44.1274 54.2555 43.8125 53.8672 43.8125Z" fill="white"/>
<path d="M53.8672 48.0312H45.2188C44.8305 48.0312 44.5156 48.3461 44.5156 48.7344C44.5156 49.1226 44.8305 49.4375 45.2188 49.4375H53.8672C54.2555 49.4375 54.5703 49.1226 54.5703 48.7344C54.5703 48.3461 54.2555 48.0312 53.8672 48.0312Z" fill="white"/>
<path d="M56.8906 29.75H44.5156V27.6406C44.5156 26.702 44.1499 25.8193 43.4856 25.1549C42.8213 24.4908 41.9386 24.125 41 24.125C39.0615 24.125 37.4844 25.7021 37.4844 27.6406V29.75H25.1094C23.9463 29.75 23 30.6963 23 31.8594V55.7656C23 56.9287 23.9463 57.875 25.1094 57.875H56.8906C58.0537 57.875 59 56.9287 59 55.7656V31.8594C59 30.6963 58.0537 29.75 56.8906 29.75ZM38.8906 27.6406C38.8906 26.4775 39.8369 25.5312 41 25.5312C41.5631 25.5312 42.0927 25.7508 42.4913 26.1493C42.8899 26.548 43.1094 27.0776 43.1094 27.6406V31.1562H38.8906V27.6406ZM57.5938 55.7656C57.5938 56.1533 57.2783 56.4688 56.8906 56.4688H25.1094C24.7217 56.4688 24.4062 56.1533 24.4062 55.7656V36.7812H57.5938V55.7656ZM57.5938 35.375H24.4062V31.8594C24.4062 31.4717 24.7217 31.1562 25.1094 31.1562H37.4844V31.8594C37.4844 32.2476 37.7992 32.5625 38.1875 32.5625H43.8125C44.2008 32.5625 44.5156 32.2476 44.5156 31.8594V31.1562H56.8906C57.2783 31.1562 57.5938 31.4717 57.5938 31.8594V35.375Z" fill="white"/>
<path d="M39.5938 38.1875H27.9219C26.7588 38.1875 25.8125 39.1338 25.8125 40.2969V51.5469C25.8125 52.71 26.7588 53.6562 27.9219 53.6562H29.5391H37.9766H39.5938C40.7569 53.6562 41.7031 52.71 41.7031 51.5469V40.2969C41.7031 39.1338 40.7569 38.1875 39.5938 38.1875ZM37.2734 52.25H30.2422V51.5469C30.2422 49.6084 31.8193 48.0312 33.7578 48.0312C34.6966 48.0312 35.5796 48.3969 36.2438 49.0606C36.9077 49.7251 37.2734 50.6081 37.2734 51.5469V52.25ZM31.6484 44.5156C31.6484 43.3525 32.5947 42.4062 33.7578 42.4062C34.9209 42.4062 35.8672 43.3525 35.8672 44.5156C35.8672 45.6787 34.9209 46.625 33.7578 46.625C32.5947 46.625 31.6484 45.6787 31.6484 44.5156ZM40.2969 51.5469C40.2969 51.9346 39.9815 52.25 39.5938 52.25H38.6797V51.5469C38.6797 50.2327 38.1679 48.9967 37.2381 48.0661C36.8803 47.7087 36.477 47.4137 36.0416 47.1851C36.7948 46.5399 37.2734 45.5828 37.2734 44.5156C37.2734 42.5771 35.6963 41 33.7578 41C31.8193 41 30.2422 42.5771 30.2422 44.5156C30.2422 45.5842 30.722 46.5422 31.4768 47.1876C29.9086 48.0115 28.8359 49.6558 28.8359 51.5469V52.25H27.9219C27.5342 52.25 27.2188 51.9346 27.2188 51.5469V40.2969C27.2188 39.9092 27.5342 39.5938 27.9219 39.5938H39.5938C39.9815 39.5938 40.2969 39.9092 40.2969 40.2969V51.5469Z" fill="white"/>
</svg>
