<svg width="158.000000" height="158.000000" viewBox="0 0 158 158" fill="none" xmlns="http://www.w3.org/2000/svg" xmlns:xlink="http://www.w3.org/1999/xlink">
	<desc>
			Created with Pixso.
	</desc>
	<defs>
		<clipPath id="clip874_8434">
			<rect id="File" rx="-0.500000" width="157.000000" height="157.000000" transform="translate(0.500000 0.500000)" fill="white" fill-opacity="0"/>
		</clipPath>
	</defs>
	<rect id="File" rx="-0.500000" width="157.000000" height="157.000000" transform="translate(0.500000 0.500000)" fill="#FFFFFF" fill-opacity="0"/>
	<g clip-path="url(#clip874_8434)">
		<path id="Vector" d="M128.37 158L29.62 158C24.17 158 19.75 153.57 19.75 148.12L19.75 9.87C19.75 4.42 24.17 0 29.62 0L95.45 0C97.27 0 98.75 1.47 98.75 3.29L98.75 36.2C98.75 38.01 100.22 39.5 102.04 39.5L134.95 39.5C136.77 39.5 138.25 40.97 138.25 42.79L138.25 148.12C138.25 153.57 133.82 158 128.37 158ZM29.62 6.58C27.8 6.58 26.33 8.06 26.33 9.87L26.33 148.12C26.33 149.93 27.8 151.41 29.62 151.41L128.37 151.41C130.19 151.41 131.66 149.93 131.66 148.12L131.66 46.08L102.04 46.08C96.59 46.08 92.16 41.65 92.16 36.2L92.16 6.58L29.62 6.58Z" fill="#3F7EF3" fill-opacity="1.000000" fill-rule="nonzero"/>
		<path id="Vector" d="M134.95 46.08C134.11 46.08 133.27 45.76 132.62 45.12L93.12 5.62C91.84 4.33 91.84 2.25 93.12 0.96C94.41 -0.32 96.49 -0.32 97.78 0.96L137.28 40.46C138.56 41.75 138.56 43.83 137.28 45.12C136.64 45.76 135.8 46.08 134.95 46.08Z" fill="#3F7EF3" fill-opacity="1.000000" fill-rule="nonzero"/>
		<path id="Vector" d="M108.62 65.83L49.37 65.83C47.55 65.83 46.08 64.35 46.08 62.54C46.08 60.72 47.55 59.25 49.37 59.25L108.62 59.25C110.44 59.25 111.91 60.72 111.91 62.54C111.91 64.35 110.44 65.83 108.62 65.83Z" fill="#3F7EF3" fill-opacity="1.000000" fill-rule="evenodd"/>
		<path id="Vector" d="M108.62 92.16L49.37 92.16C47.55 92.16 46.08 90.69 46.08 88.87C46.08 87.05 47.55 85.58 49.37 85.58L108.62 85.58C110.44 85.58 111.91 87.05 111.91 88.87C111.91 90.69 110.44 92.16 108.62 92.16Z" fill="#3F7EF3" fill-opacity="1.000000" fill-rule="evenodd"/>
		<path id="Vector" d="M108.62 118.5L49.37 118.5C47.55 118.5 46.08 117.02 46.08 115.2C46.08 113.39 47.55 111.91 49.37 111.91L108.62 111.91C110.44 111.91 111.91 113.39 111.91 115.2C111.91 117.02 110.44 118.5 108.62 118.5Z" fill="#3F7EF3" fill-opacity="1.000000" fill-rule="evenodd"/>
	</g>
</svg>
