<svg width="181.000000" height="181.000000" viewBox="0 0 181 181" fill="none" xmlns="http://www.w3.org/2000/svg" xmlns:xlink="http://www.w3.org/1999/xlink">
	<desc>
			Created with Pixso.
	</desc>
	<defs>
		<clipPath id="clip874_8435">
			<rect id="Active Protection" rx="-0.500000" width="180.000000" height="180.000000" transform="translate(0.500000 0.500000)" fill="white" fill-opacity="0"/>
		</clipPath>
	</defs>
	<rect id="Active Protection" rx="-0.500000" width="180.000000" height="180.000000" transform="translate(0.500000 0.500000)" fill="#FFFFFF" fill-opacity="0"/>
	<g clip-path="url(#clip874_8435)">
		<path id="Vector" d="M84.89 180.52C85.46 180.84 86.09 181 86.71 181C87.34 181 87.98 180.84 88.54 180.53C91.39 178.96 158.36 141.36 158.36 94.27L158.36 12.82C158.41 12.26 158.33 11.68 158.13 11.14C157.18 8.67 153.53 8.13 151.85 9.91C144.27 16.58 134.55 20.25 124.44 20.25C110.5 20.25 97.57 13.31 89.87 1.68C89.17 0.63 88 0 86.73 0C85.47 0 84.29 0.63 83.59 1.68C75.87 13.3 62.94 20.24 49.01 20.24C38.78 20.24 28.96 16.49 21.36 9.68C20.25 8.68 18.67 8.44 17.3 9.05C15.94 9.65 15.07 11 15.07 12.48L15.07 94.26C15.07 141.35 82.04 178.94 84.89 180.52Z" fill="#3F7EF3" fill-opacity="1.000000" fill-rule="evenodd"/>
		<path id="Vector" d="M79.16 105.58C78.16 105.58 77.2 105.18 76.5 104.48L61.44 89.39C59.97 87.92 59.97 85.52 61.44 84.06C62.91 82.59 65.3 82.59 66.77 84.06L79.17 96.48L106.69 68.98C108.16 67.51 110.55 67.51 112.02 68.98C113.5 70.45 113.5 72.84 112.02 74.31L81.83 104.48C81.12 105.18 80.17 105.58 79.16 105.58Z" fill="#FFFFFF" fill-opacity="1.000000" fill-rule="evenodd"/>
	</g>
</svg>
