<svg width="68.000000" height="68.000000" viewBox="0 0 68 68" fill="none" xmlns="http://www.w3.org/2000/svg" xmlns:xlink="http://www.w3.org/1999/xlink">
	<desc>
			Created with Pixso.
	</desc>
	<defs>
		<clipPath id="clip834_5722">
			<rect id="Mobile/ drop" rx="0.000000" width="23.000000" height="23.000000" transform="translate(22.500000 22.500000)" fill="white" fill-opacity="0"/>
		</clipPath>
		<linearGradient x1="45.896549" y1="22.965519" x2="18.655174" y2="48.827583" id="paint_linear_834_5721_0" gradientUnits="userSpaceOnUse">
			<stop offset="0.404729" stop-color="#205BC9" stop-opacity="0.000000"/>
			<stop offset="1.000000" stop-color="#073D95"/>
		</linearGradient>
	</defs>
	<path id="Star 2" d="M19.38 8.67L6.1 16.12C5.14 16.66 4.56 17.68 4.57 18.78L4.75 34L4.57 49.21C4.56 50.31 5.14 51.33 6.1 51.87L19.38 59.32L32.46 67.09C33.41 67.65 34.58 67.65 35.53 67.09L48.61 59.32L61.89 51.87C62.85 51.33 63.43 50.31 63.42 49.21L63.24 34L63.42 18.78C63.43 17.68 62.85 16.66 61.89 16.12L48.61 8.67L35.53 0.9C34.58 0.34 33.41 0.34 32.46 0.9L19.38 8.67ZM19.88 9.54L6.59 17C5.96 17.35 5.57 18.03 5.57 18.76L5.75 34L5.57 49.23C5.57 49.96 5.96 50.64 6.59 51L19.88 58.45L32.97 66.23C33.6 66.6 34.39 66.6 35.02 66.23L48.11 58.45L61.4 51C62.03 50.64 62.42 49.96 62.42 49.23L62.24 34L62.42 18.76C62.42 18.03 62.03 17.35 61.4 17L48.11 9.54L35.02 1.76C34.39 1.39 33.6 1.39 32.97 1.76L19.88 9.54Z" fill="#3F7EF3" fill-opacity="1.000000" fill-rule="evenodd"/>
	<path id="Star 1" d="M32.97 14.6L25.39 19.1L17.71 23.41C17.07 23.77 16.69 24.45 16.69 25.18L16.79 34L16.69 42.81C16.69 43.54 17.07 44.22 17.71 44.58L25.39 48.89L32.97 53.39C33.6 53.76 34.39 53.76 35.02 53.39L42.6 48.89L50.28 44.58C50.92 44.22 51.3 43.54 51.3 42.81L51.2 34L51.3 25.18C51.3 24.45 50.92 23.77 50.28 23.41L42.6 19.1L35.02 14.6C34.39 14.23 33.6 14.23 32.97 14.6Z" fill="#205BC9" fill-opacity="1.000000" fill-rule="evenodd"/>
	<path id="Star 1" d="M32.97 14.6L25.39 19.1L17.71 23.41C17.07 23.77 16.69 24.45 16.69 25.18L16.79 34L16.69 42.81C16.69 43.54 17.07 44.22 17.71 44.58L25.39 48.89L32.97 53.39C33.6 53.76 34.39 53.76 35.02 53.39L42.6 48.89L50.28 44.58C50.92 44.22 51.3 43.54 51.3 42.81L51.2 34L51.3 25.18C51.3 24.45 50.92 23.77 50.28 23.41L42.6 19.1L35.02 14.6C34.39 14.23 33.6 14.23 32.97 14.6Z" fill="url(#paint_linear_834_5721_0)" fill-opacity="1.000000" fill-rule="evenodd"/>
	<rect id="Mobile/ drop" rx="0.000000" width="23.000000" height="23.000000" transform="translate(22.500000 22.500000)" fill="#FFFFFF" fill-opacity="0"/>
	<g clip-path="url(#clip834_5722)">
		<path id="Vector" d="M39.1 30.26L34.5 25L29.89 30.26C28.63 31.72 28 33.66 28 35.52C28 37.38 28.63 39.35 29.89 40.8C31.17 42.26 32.83 43 34.5 43C36.16 43 37.82 42.26 39.1 40.8C40.36 39.35 41 37.38 41 35.52C41 33.66 40.36 31.72 39.1 30.26ZM29.62 35.85C29.63 33.99 30.12 32.81 31.05 31.75L34.5 27.72L37.94 31.8C38.87 32.84 39.36 33.99 39.37 35.85L29.62 35.85Z" fill="#FFFFFF" fill-opacity="1.000000" fill-rule="evenodd"/>
	</g>
</svg>
