<svg width="57.000000" height="57.000000" viewBox="0 0 57 57" fill="none" xmlns="http://www.w3.org/2000/svg" xmlns:xlink="http://www.w3.org/1999/xlink">
	<desc>
			Created with Pixso.
	</desc>
	<defs>
		<clipPath id="clip73_2155">
			<rect id="usdt_cryptocurrencies_icon_188337 1" rx="-0.500000" width="56.000000" height="56.000000" transform="translate(0.500000 0.500000)" fill="white" fill-opacity="0"/>
		</clipPath>
	</defs>
	<rect id="usdt_cryptocurrencies_icon_188337 1" rx="-0.500000" width="56.000000" height="56.000000" transform="translate(0.500000 0.500000)" fill="#FFFFFF" fill-opacity="0"/>
	<g clip-path="url(#clip73_2155)">
		<path id="Fill-692" d="M56.95 28.49C56.95 44.15 44.25 56.84 28.59 56.84C12.92 56.84 0.23 44.15 0.23 28.49C0.23 12.82 12.92 0.13 28.59 0.13C44.25 0.13 56.95 12.82 56.95 28.49Z" fill="#1BA27A" fill-opacity="1.000000" fill-rule="evenodd"/>
		<path id="Fill-694" d="M41.89 14.43L15.04 14.43L15.04 20.91L25.23 20.91L25.23 30.44L31.71 30.44L31.71 20.91L41.89 20.91L41.89 14.43Z" fill="#FFFFFF" fill-opacity="1.000000" fill-rule="evenodd"/>
		<path id="Fill-696" d="M28.53 31.45C20.1 31.45 13.28 30.12 13.28 28.47C13.28 26.83 20.1 25.5 28.53 25.5C36.96 25.5 43.78 26.83 43.78 28.47C43.78 30.12 36.96 31.45 28.53 31.45ZM45.66 28.97C45.66 26.85 38 25.13 28.53 25.13C19.07 25.13 11.4 26.85 11.4 28.97C11.4 30.84 17.35 32.4 25.23 32.74L25.23 46.42L31.71 46.42L31.71 32.75C39.65 32.41 45.66 30.85 45.66 28.97Z" fill="#FFFFFF" fill-opacity="1.000000" fill-rule="evenodd"/>
	</g>
</svg>
