<svg width="57.000000" height="57.000000" viewBox="0 0 57 57" fill="none" xmlns="http://www.w3.org/2000/svg" xmlns:xlink="http://www.w3.org/1999/xlink">
	<desc>
			Created with Pixso.
	</desc>
	<defs/>
	<path id="Fill-435" d="M57 28.5C57 44.24 44.24 57 28.5 57C12.75 57 0 44.24 0 28.5C0 12.75 12.75 0 28.5 0C44.24 0 57 12.75 57 28.5Z" fill="#FF000B" fill-opacity="1.000000" fill-rule="evenodd"/>
	<path id="Fill-436" d="M12.1 10.8L39.52 17.11C39.6 17.13 39.67 17.16 39.73 17.21L45.39 21.11C45.68 21.31 45.75 21.7 45.55 21.99L26.44 49.3C26.15 49.72 25.51 49.64 25.33 49.16L11.37 11.63C11.2 11.16 11.61 10.68 12.1 10.8Z" fill="#FFFFFF" fill-opacity="1.000000" fill-rule="evenodd"/>
	<path id="Fill-437" d="M13.11 13.1L37.93 18.82L43.37 22.57L25.92 47.52L13.11 13.1Z" fill="#FF000B" fill-opacity="1.000000" fill-rule="evenodd"/>
	<path id="Fill-438" d="M25.91 49.63C25.89 49.63 25.88 49.63 25.85 49.63C25.54 49.6 25.32 49.32 25.35 49L27.25 30.08L11.6 12.13C11.39 11.89 11.42 11.53 11.66 11.33C11.89 11.12 12.25 11.14 12.46 11.38L28.28 29.52C28.38 29.64 28.42 29.79 28.41 29.95L26.48 49.12C26.45 49.41 26.2 49.63 25.91 49.63Z" fill="#FFFFFF" fill-opacity="1.000000" fill-rule="evenodd"/>
	<path id="Fill-439" d="M27.85 30.46C27.67 30.46 27.5 30.38 27.39 30.23C27.22 30.01 27.25 29.7 27.43 29.5L38.53 17.57C38.74 17.34 39.1 17.32 39.33 17.54C39.56 17.75 39.57 18.11 39.36 18.34L30.24 28.16L44.6 21.5C44.89 21.37 45.22 21.49 45.35 21.78C45.49 22.06 45.36 22.4 45.07 22.53L28.09 30.41C28.01 30.45 27.92 30.46 27.85 30.46Z" fill="#FFFFFF" fill-opacity="1.000000" fill-rule="evenodd"/>
</svg>
