<svg width="20" height="20" viewBox="0 0 20 20" fill="none" xmlns="http://www.w3.org/2000/svg">
<path d="M13.7449 18.7498C12.1365 18.7498 10.8281 17.4415 10.8281 15.8331C10.8281 14.2247 12.1365 12.9163 13.7449 12.9163H15.4117C15.6417 12.9163 15.8283 13.1029 15.8283 13.3329C15.8283 13.563 15.6417 13.7496 15.4117 13.7496H13.7449C12.5957 13.7496 11.6615 14.6847 11.6615 15.8331C11.6615 16.9814 12.5957 17.9165 13.7449 17.9165C13.9749 17.9165 14.1616 18.1032 14.1616 18.3332C14.1616 18.5632 13.9749 18.7498 13.7449 18.7498Z" fill="white"/>
<path d="M17.0834 18.7494H15.4167C15.1867 18.7494 15 18.5627 15 18.3327C15 18.1027 15.1867 17.916 15.4167 17.916H17.0834C18.2326 17.916 19.1668 16.9809 19.1668 15.8326C19.1668 14.6842 18.2326 13.7491 17.0834 13.7491C16.8534 13.7491 16.6667 13.5625 16.6667 13.3325C16.6667 13.1024 16.8534 12.9158 17.0834 12.9158C18.6918 12.9158 20.0002 14.2242 20.0002 15.8326C20.0002 17.441 18.6918 18.7494 17.0834 18.7494Z" fill="white"/>
<path d="M14.1669 14.9991C14.0602 14.9991 13.9536 14.9583 13.8719 14.8774C13.7094 14.7149 13.7094 14.4508 13.8719 14.2882L14.8278 13.3324L13.8727 12.3773C13.7102 12.2148 13.7102 11.9506 13.8727 11.7881C14.0352 11.6256 14.2994 11.6256 14.4619 11.7881L15.712 13.0382C15.8745 13.2007 15.8745 13.4649 15.712 13.6274L14.4619 14.8774C14.3802 14.9583 14.2736 14.9991 14.1669 14.9991Z" fill="white"/>
<path d="M16.6669 20.0001C16.5603 20.0001 16.4536 19.9593 16.3719 19.8784L15.1219 18.6284C14.9594 18.4659 14.9594 18.2017 15.1219 18.0392L16.3719 16.7891C16.5344 16.6266 16.7986 16.6266 16.9611 16.7891C17.1236 16.9516 17.1236 17.2158 16.9611 17.3783L16.0061 18.3334L16.9611 19.2884C17.1236 19.4509 17.1236 19.7151 16.9611 19.8776C16.8803 19.9593 16.7736 20.0001 16.6669 20.0001Z" fill="white"/>
<path d="M9.58766 19.1677C4.30326 19.1677 0.00390625 14.8684 0.00390625 9.584C0.00390625 4.2996 4.30326 0.000244141 9.58766 0.000244141C14.8721 0.000244141 19.1714 4.2996 19.1714 9.584C19.1714 9.64567 19.1664 11.1041 18.7264 12.2349C18.6422 12.4491 18.4005 12.5558 18.1872 12.4725C17.973 12.3891 17.8664 12.1474 17.9505 11.9333C18.2564 11.1432 18.338 10.0515 18.338 9.584C18.338 4.75879 14.4129 0.833614 9.58766 0.833614C4.76245 0.833614 0.837276 4.75879 0.837276 9.584C0.837276 14.4092 4.76245 18.3344 9.58766 18.3344C9.91267 18.3344 10.2327 18.3135 10.5485 18.2794C10.7735 18.2544 10.9827 18.4185 11.0086 18.6486C11.0336 18.8769 10.8685 19.0827 10.6402 19.1077C10.2685 19.1486 9.92434 19.1677 9.58766 19.1677Z" fill="white"/>
<path d="M9.59268 19.1677C6.55505 19.1677 4.17578 14.9584 4.17578 9.584C4.17578 4.20959 6.55505 0.000244141 9.59268 0.000244141C12.6303 0.000244141 15.0096 4.20959 15.0096 9.584C15.0096 9.81401 14.8229 10.0007 14.5929 10.0007C14.3629 10.0007 14.1762 9.81401 14.1762 9.584C14.1762 4.84129 12.077 0.833614 9.59268 0.833614C7.10841 0.833614 5.00915 4.84129 5.00915 9.584C5.00915 14.3267 7.10841 18.3344 9.59268 18.3344C9.82269 18.3344 10.0094 18.5211 10.0094 18.7511C10.0094 18.9811 9.82269 19.1677 9.59268 19.1677Z" fill="white"/>
<path d="M9.59247 19.1677C9.36246 19.1677 9.17578 18.9811 9.17578 18.7511V0.416929C9.17578 0.186919 9.36246 0.000244141 9.59247 0.000244141C9.82248 0.000244141 10.0092 0.186919 10.0092 0.416929V18.7511C10.0092 18.9811 9.82248 19.1677 9.59247 19.1677Z" fill="white"/>
<path d="M18.7547 10.0009H0.420591C0.190581 10.0009 0.00390625 9.81418 0.00390625 9.58417C0.00390625 9.35416 0.190581 9.16748 0.420591 9.16748H18.7547C18.9847 9.16748 19.1714 9.35416 19.1714 9.58417C19.1714 9.81418 18.9847 10.0009 18.7547 10.0009Z" fill="white"/>
<path d="M17.0931 5.00061H2.09247C1.86246 5.00061 1.67578 4.81393 1.67578 4.58392C1.67578 4.35391 1.86246 4.16724 2.09247 4.16724H17.0931C17.3231 4.16724 17.5098 4.35391 17.5098 4.58392C17.5098 4.81393 17.3231 5.00061 17.0931 5.00061Z" fill="white"/>
<path d="M9.59279 15.0016H2.09247C1.86246 15.0016 1.67578 14.8149 1.67578 14.5849C1.67578 14.3549 1.86246 14.1682 2.09247 14.1682H9.59279C9.8228 14.1682 10.0095 14.3549 10.0095 14.5849C10.0095 14.8149 9.8228 15.0016 9.59279 15.0016Z" fill="white"/>
<path d="M14.5886 10.834C14.3585 10.834 14.1719 10.6473 14.1719 10.4173V9.58392C14.1719 9.35391 14.3585 9.16724 14.5886 9.16724C14.8186 9.16724 15.0052 9.35391 15.0052 9.58392V10.4173C15.0052 10.6473 14.8186 10.834 14.5886 10.834Z" fill="white"/>
</svg>
