<svg width="124.000000" height="52.000000" viewBox="0 0 124 52" fill="none" xmlns="http://www.w3.org/2000/svg" xmlns:xlink="http://www.w3.org/1999/xlink">
	<desc>
			Created with Pixso.
	</desc>
	<defs>
		<filter id="filter_250_71772_dd" x="0.386719" y="27.328094" width="11.339844" height="38.912384" filterUnits="userSpaceOnUse" color-interpolation-filters="sRGB">
			<feFlood flood-opacity="0" result="BackgroundImageFix"/>
			<feColorMatrix in="SourceAlpha" type="matrix" values="0 0 0 0 0 0 0 0 0 0 0 0 0 0 0 0 0 0 127 0" result="hardAlpha"/>
			<feOffset dx="0" dy="15"/>
			<feGaussianBlur stdDeviation="0"/>
			<feComposite in2="hardAlpha" operator="out" k2="-1" k3="1"/>
			<feColorMatrix type="matrix" values="0 0 0 0 0 0 0 0 0 0 0 0 0 0 0 0 0 0 0.25 0"/>
			<feBlend mode="normal" in2="BackgroundImageFix" result="effect_dropShadow_1"/>
			<feBlend mode="normal" in="SourceGraphic" in2="effect_dropShadow_1" result="shape"/>
		</filter>
		<clipPath id="clip250_71770">
			<rect id="Логотип 1" rx="-0.500000" width="123.000000" height="51.000000" transform="translate(0.500000 0.500000)" fill="white" fill-opacity="0"/>
		</clipPath>
		<linearGradient x1="39.059345" y1="17.722038" x2="35.085522" y2="40.349701" id="paint_linear_250_71771_0" gradientUnits="userSpaceOnUse">
			<stop stop-color="#0097FF"/>
			<stop offset="1.000000" stop-color="#005CE0"/>
		</linearGradient>
		<linearGradient x1="6.057449" y1="27.328077" x2="6.057449" y2="51.240486" id="paint_linear_250_71773_0" gradientUnits="userSpaceOnUse">
			<stop stop-color="#3C01BE"/>
			<stop offset="1.000000" stop-color="#7400FF"/>
		</linearGradient>
		<linearGradient x1="39.192707" y1="33.780643" x2="0.008492" y2="33.780643" id="paint_linear_250_71774_0" gradientUnits="userSpaceOnUse">
			<stop stop-color="#5CCEFF"/>
			<stop offset="1.000000" stop-color="#0054FD"/>
		</linearGradient>
	</defs>
	<rect id="Логотип 1" rx="-0.500000" width="123.000000" height="51.000000" transform="translate(0.500000 0.500000)" fill="#FFFFFF" fill-opacity="0"/>
	<g clip-path="url(#clip250_71770)">
		<path id="Vector" d="M32.17 17.27L31.1 16.83C29.77 16.27 29.47 14.47 30.55 13.55L43.42 2.59C44.56 1.63 46.31 2.38 46.49 3.9L48.55 21.36C48.72 22.82 47.31 23.89 46 23.31L45.36 23.03C44.42 22.62 43.35 23.04 42.95 24L42.19 25.81C41.36 28.05 40.42 30.59 39.41 33.41C36 42.86 29.32 39.81 26.71 37.14L30.62 26.86C30.64 26.73 30.67 26.6 30.72 26.47L32.01 23.17L33.25 19.77C33.61 18.79 33.13 17.67 32.17 17.27Z" fill="url(#paint_linear_250_71771_0)" fill-opacity="1.000000" fill-rule="evenodd"/>
		<g filter="url(#filter_250_71772_dd)">
			<path id="Vector" d="M11.72 28.04L11.72 45.54C11.72 48.69 9.18 51.24 6.05 51.24C2.92 51.24 0.38 48.69 0.38 45.54L0.38 35.14C3.07 26.19 9.06 26.77 11.72 28.04Z" fill="url(#paint_linear_250_71773_0)" fill-opacity="1.000000" fill-rule="nonzero"/>
		</g>
		<path id="Vector" d="M12.33 18.41C4.23 13.67 -1.01 20.17 0.16 37.02C4.1 24.51 11.02 30.64 14.44 35.78C15.75 37.74 18.96 41.95 22.54 46.57C26.39 51.53 29.73 51.57 31.23 50.98C37.11 48.6 40.67 35.67 40.82 29.41C36.67 39.47 32.54 41.75 27.7 37.24C26.28 35.92 24.84 34.17 23.44 32.29C21.53 29.71 19.5 27.39 18.1 25.13C17.34 23.92 14.33 19.58 12.33 18.41Z" fill="url(#paint_linear_250_71774_0)" fill-opacity="1.000000" fill-rule="nonzero"/>
	</g>
</svg>
