<svg width="16" height="19" viewBox="0 0 16 19" fill="none" xmlns="http://www.w3.org/2000/svg">
<g clip-path="url(#clip0_36_886)">
<path d="M8.49236 0C8.84218 0.06232 9.19709 0.10336 9.54109 0.19076C10.9847 0.55936 12.1818 1.31936 13.0153 2.62884C13.3949 3.2262 13.6196 3.88664 13.6851 4.60028C13.696 4.71884 13.7309 4.77888 13.8436 4.82448C14.4589 5.073 14.8349 5.64148 14.8407 6.32852C14.8473 7.05812 14.8589 7.78848 14.8378 8.51732C14.8167 9.22184 14.4945 9.74016 13.8538 10.013C13.7418 10.0616 13.6138 10.0791 13.4909 10.089C13.3375 10.1019 13.1818 10.0936 13.0276 10.0928C12.4567 10.089 12.2596 9.95828 12.0029 9.39588C11.5687 10.6468 10.9629 11.7587 9.96582 12.6C10.1709 13.1176 10.4458 13.5812 10.8625 13.9422C11.0545 14.1086 11.2735 14.2029 11.52 14.2515C12.7316 14.4909 13.9156 14.8177 15.0116 15.4318C15.4495 15.6773 15.7396 16.0292 15.8182 16.5399C15.8895 17.0027 15.9353 17.4694 15.9775 17.936C15.9978 18.1572 15.9847 18.3814 15.9847 18.604C15.9847 18.8959 15.8902 18.9962 15.6138 18.997C15.2451 18.9977 14.8764 18.997 14.5076 18.997C9.80945 18.997 5.11127 18.9962 0.413091 19C0.239273 19.0008 0.0996364 18.965 0 18.8115C0 18.4285 0 18.0447 0 17.6616C0.0356364 17.3744 0.0705455 17.0871 0.106909 16.8006C0.191273 16.1424 0.482182 15.6385 1.08873 15.3649C1.24073 15.2965 1.38545 15.2091 1.53745 15.14C2.45018 14.7258 3.40364 14.4453 4.38255 14.2713C4.80873 14.1953 5.13018 13.9779 5.40509 13.6534C5.67127 13.3403 5.86836 12.9846 6.01891 12.5932C5.93527 12.521 5.85164 12.4534 5.77164 12.3796C5.58909 12.2109 5.43273 11.97 5.21964 11.8864C5.00145 11.8013 4.72727 11.8666 4.47782 11.8674C3.66909 11.8682 3.15636 11.4578 2.95855 10.6438C2.91564 10.466 2.88945 10.2836 2.85891 10.1232C2.61818 10.092 2.376 10.1034 2.16436 10.0259C1.52436 9.7926 1.14327 9.1998 1.14109 8.48768C1.13818 7.79532 1.14182 7.10372 1.14109 6.41136C1.14036 5.65288 1.488 5.10492 2.16655 4.81612C2.25891 4.7766 2.28436 4.72796 2.29309 4.62992C2.34255 4.0584 2.49091 3.51272 2.75564 3.00808C3.56145 1.47212 4.84655 0.6042 6.44436 0.19076C6.78764 0.10108 7.14327 0.06232 7.49309 0C7.82618 0 8.15927 0 8.49236 0ZM15.4298 18.3958C15.3913 17.9109 15.3462 17.4504 15.3207 16.989C15.2887 16.4054 14.9956 16.0489 14.4931 15.811C13.6284 15.4022 12.7295 15.1126 11.8022 14.9165C11.3353 14.8177 10.8691 14.7379 10.4895 14.3952C9.94473 13.9042 9.592 13.2818 9.32945 12.597C9.27127 12.4442 9.34982 12.3348 9.46545 12.2307C9.73018 11.9936 10.0044 11.7618 10.2364 11.492C10.8989 10.7228 11.2873 9.79184 11.6 8.82816C11.9665 7.69804 12.0473 6.52992 11.9076 5.34964C11.8211 4.61472 11.5753 3.93528 11.1447 3.33868C9.82545 1.51088 7.296 1.39916 5.77964 2.43352C4.62764 3.21936 4.12582 4.38368 4.032 5.76916C3.93818 7.15692 4.16 8.493 4.73091 9.75384C4.94764 10.2319 5.22327 10.6818 5.47709 11.1416C5.50691 11.1948 5.56945 11.264 5.61745 11.2655C6.02473 11.2754 6.43273 11.2708 6.83564 11.2708C6.93164 10.8406 7.11127 10.6886 7.512 10.6848C7.65455 10.6833 7.79782 10.6841 7.94036 10.6856C8.30545 10.6879 8.56218 10.9311 8.56291 11.2746C8.56364 11.6212 8.312 11.8704 7.94764 11.872C7.40073 11.8742 6.85309 11.8697 6.30618 11.8674C6.24582 11.8674 6.18618 11.8674 6.12582 11.8674C6.25382 12.0232 6.38764 12.1342 6.52655 12.2398C6.65891 12.3401 6.70618 12.4632 6.64291 12.6259C6.40873 13.227 6.10691 13.7834 5.65673 14.2416C5.36145 14.5426 5.01818 14.7455 4.60727 14.8329C4.11927 14.9363 3.63055 15.0457 3.14982 15.181C2.46691 15.3733 1.80436 15.6233 1.18545 15.9904C0.921455 16.147 0.765091 16.3674 0.719273 16.6721C0.674909 16.9708 0.629091 17.271 0.608727 17.572C0.589818 17.8456 0.605091 18.1207 0.605091 18.3958C5.53164 18.3958 10.4596 18.3958 15.4298 18.3958ZM13.1193 4.72036C13.1207 4.71048 13.1244 4.69832 13.1236 4.68616C13.1215 4.655 13.1178 4.6246 13.1142 4.5942C12.9687 3.3744 12.408 2.38944 11.4727 1.66592C9.71055 0.30172 7.77309 0.10792 5.75127 0.91732C4.50764 1.41512 3.58836 2.30888 3.09236 3.6252C2.95782 3.98164 2.88145 4.35176 2.85745 4.7538C2.99273 4.7538 3.11273 4.74088 3.22836 4.7576C3.34182 4.77356 3.45164 4.81916 3.56582 4.85336C4.13673 2.62732 5.49818 1.31632 7.72073 1.21144C10.1862 1.09592 11.7564 2.38032 12.4153 4.81916C12.6524 4.78572 12.8785 4.75456 13.1193 4.72036ZM3.42618 7.43356C3.42618 6.88332 3.42764 6.33308 3.42691 5.7836C3.42618 5.45604 3.31491 5.34356 2.99491 5.34356C2.88218 5.34356 2.76727 5.35876 2.65673 5.34204C2.21091 5.27516 1.73382 5.71216 1.72 6.27076C1.70182 7.03076 1.70691 7.79152 1.71855 8.55152C1.72509 8.98852 1.98982 9.3708 2.37236 9.47112C2.57964 9.52508 2.80873 9.4962 3.02764 9.49772C3.31055 9.50076 3.424 9.38296 3.42545 9.08428C3.42764 8.53404 3.42618 7.9838 3.42618 7.43356ZM12.5571 7.42064C12.5571 7.98304 12.5578 8.54544 12.5571 9.10784C12.5571 9.27732 12.6095 9.45592 12.7709 9.47036C13.0676 9.4962 13.3862 9.52128 13.6655 9.43768C14.0625 9.31836 14.2553 8.95888 14.2655 8.5386C14.2829 7.79152 14.28 7.04292 14.2669 6.29508C14.2575 5.7608 13.8189 5.2706 13.3171 5.33976C13.2 5.35572 13.08 5.34128 12.9607 5.34128C12.6705 5.34204 12.5571 5.46136 12.5571 5.77068C12.5564 6.32016 12.5571 6.8704 12.5571 7.42064ZM3.976 9.47568C3.86982 9.60792 3.75491 9.80172 3.59345 9.93396C3.47127 10.0335 3.43564 10.1133 3.45964 10.263C3.59127 11.0717 3.95345 11.3924 4.79782 11.2465C4.51927 10.6461 4.23636 10.0373 3.976 9.47568Z" fill="white"/>
</g>
<defs>
<clipPath id="clip0_36_886">
<rect width="16" height="19" fill="white"/>
</clipPath>
</defs>
</svg>
