<svg width="24.000000" height="24.000000" viewBox="0 0 24 24" fill="none" xmlns="http://www.w3.org/2000/svg" xmlns:xlink="http://www.w3.org/1999/xlink">
	<desc>
			Created with Pixso.
	</desc>
	<defs/>
	<path id="Shape" d="M12 4.63C14.25 4.63 15.77 5.61 16.64 6.42L20.03 3.12C17.95 1.18 15.24 0 12 0C7.31 0 3.25 2.69 1.28 6.61L5.16 9.62C6.13 6.73 8.83 4.63 12 4.63Z" fill="#EA4335" fill-opacity="1.000000" fill-rule="nonzero"/>
	<path id="Shape" d="M23.51 12.26C23.51 11.27 23.43 10.55 23.26 9.81L11.99 9.81L11.99 14.26L18.6 14.26C18.47 15.37 17.75 17.03 16.15 18.15L19.94 21.09C22.21 18.99 23.51 15.91 23.51 12.26Z" fill="#4285F4" fill-opacity="1.000000" fill-rule="nonzero"/>
	<path id="Shape" d="M5.17 14.37C4.91 13.62 4.77 12.82 4.77 11.99C4.77 11.17 4.91 10.37 5.16 9.62L1.28 6.61C0.46 8.23 0 10.06 0 11.99C0 13.93 0.46 15.75 1.28 17.38L5.17 14.37Z" fill="#FBBC05" fill-opacity="1.000000" fill-rule="nonzero"/>
	<path id="Shape" d="M12 23.99C15.23 23.99 17.96 22.93 19.94 21.09L16.16 18.15C15.14 18.86 13.78 19.35 12 19.35C8.82 19.35 6.13 17.26 5.17 14.37L1.29 17.38C3.26 21.3 7.3 23.99 12 23.99Z" fill="#34A853" fill-opacity="1.000000" fill-rule="nonzero"/>
</svg>
