<svg width="44.000000" height="44.000000" viewBox="0 0 44 44" fill="none" xmlns="http://www.w3.org/2000/svg" xmlns:xlink="http://www.w3.org/1999/xlink">
	<desc>
			Created with Pixso.
	</desc>
	<defs>
		<clipPath id="clip2_2718">
			<rect id="Mobile/ visibility_off" rx="-0.500000" width="43.000000" height="43.000000" transform="translate(0.500000 0.500000)" fill="white" fill-opacity="0"/>
		</clipPath>
	</defs>
	<rect id="Mobile/ visibility_off" rx="-0.500000" width="43.000000" height="43.000000" transform="translate(0.500000 0.500000)" fill="#FFFFFF" fill-opacity="0"/>
	<g clip-path="url(#clip2_2718)">
		<path id="Vector" d="M22 16.21C25.01 16.21 27.46 18.56 27.46 21.47C27.46 22.15 27.32 22.79 27.07 23.4L30.25 26.47C31.9 25.14 33.2 23.43 34 21.47C32.11 16.85 27.45 13.57 21.99 13.57C20.46 13.57 19 13.84 17.65 14.31L20 16.58C20.62 16.34 21.29 16.21 22 16.21ZM11.08 13.33L13.57 15.73L14.08 16.22C12.26 17.57 10.85 19.38 10 21.47C11.88 26.09 16.54 29.36 22 29.36C23.69 29.36 25.31 29.05 26.78 28.48L27.24 28.92L30.44 32L31.82 30.66L12.47 12L11.08 13.33ZM17.12 19.15L18.82 20.78C18.76 21.01 18.73 21.24 18.73 21.47C18.73 23.22 20.19 24.63 22 24.63C22.24 24.63 22.48 24.59 22.71 24.54L24.4 26.17C23.67 26.52 22.86 26.73 22 26.73C18.99 26.73 16.54 24.37 16.54 21.47C16.54 20.64 16.76 19.86 17.12 19.15ZM21.83 18.33L25.26 21.65L25.28 21.48C25.28 19.73 23.82 18.32 22.01 18.32L21.83 18.33Z" fill="#888888" fill-opacity="1.000000" fill-rule="nonzero"/>
	</g>
</svg>
