<svg width="44.000000" height="44.000000" viewBox="0 0 44 44" fill="none" xmlns="http://www.w3.org/2000/svg" xmlns:xlink="http://www.w3.org/1999/xlink">
	<desc>
			Created with Pixso.
	</desc>
	<defs>
		<clipPath id="clip2_2698">
			<rect id="Mobile/ visibility" rx="-0.500000" width="43.000000" height="43.000000" transform="translate(0.500000 0.500000)" fill="white" fill-opacity="0"/>
		</clipPath>
	</defs>
	<rect id="Mobile/ visibility" rx="-0.500000" width="43.000000" height="43.000000" transform="translate(0.500000 0.500000)" fill="#FFFFFF" fill-opacity="0"/>
	<g clip-path="url(#clip2_2698)">
		<path id="Vector" d="M22 14C16.54 14 11.88 17.31 10 22C11.88 26.68 16.54 30 22 30C27.45 30 32.11 26.68 34 22C32.11 17.31 27.45 14 22 14ZM22 27.33C18.98 27.33 16.54 24.94 16.54 22C16.54 19.05 18.98 16.66 22 16.66C25.01 16.66 27.45 19.05 27.45 22C27.45 24.94 25.01 27.33 22 27.33ZM22 18.79C20.18 18.79 18.72 20.22 18.72 22C18.72 23.77 20.18 25.2 22 25.2C23.81 25.2 25.27 23.77 25.27 22C25.27 20.22 23.81 18.79 22 18.79Z" fill="#888888" fill-opacity="1.000000" fill-rule="nonzero"/>
	</g>
</svg>
