<svg width="64" height="64" viewBox="0 0 64 64" fill="none" xmlns="http://www.w3.org/2000/svg">
<path d="M18.5 53C24.299 53 29 48.299 29 42.5C29 36.701 24.299 32 18.5 32C12.701 32 8 36.701 8 42.5C8 48.299 12.701 53 18.5 53Z" fill="#3F7EF3"/>
<path d="M41.5 54C45.0899 54 48 51.0899 48 47.5C48 43.9101 45.0899 41 41.5 41C37.9101 41 35 43.9101 35 47.5C35 51.0899 37.9101 54 41.5 54Z" fill="#3F7EF3"/>
<path d="M42 36C49.732 36 56 29.732 56 22C56 14.268 49.732 8 42 8C34.268 8 28 14.268 28 22C28 29.732 34.268 36 42 36Z" fill="#3F7EF3"/>
</svg>
