<svg width="42" height="52" viewBox="0 0 42 52" fill="none" xmlns="http://www.w3.org/2000/svg">
<path d="M35.8575 15.2149L21 0L6.1425 15.2149C2.0475 19.4158 0 25.0171 0 30.4029C0 35.7887 2.0475 41.4707 6.1425 45.6717C10.2375 49.8726 15.6188 52 21 52C26.3813 52 31.7625 49.8726 35.8575 45.6717C39.9525 41.4707 42 35.7887 42 30.4029C42 25.0171 39.9525 19.4158 35.8575 15.2149ZM5.25 31.3723C5.27625 25.9865 6.8775 22.5665 9.87 19.5236L21 7.86328L32.13 19.6582C35.1225 22.6743 36.7238 25.9865 36.75 31.3723H5.25Z" fill="#3F7EF3"/>
</svg>
