<svg width="48" height="48" viewBox="0 0 48 48" fill="none" xmlns="http://www.w3.org/2000/svg">
<path d="M32 41.3333C25.32 41.3333 19.52 37.5467 16.6267 32H32V26.6667H14.8933C14.76 25.8 14.6667 24.9067 14.6667 24C14.6667 23.0933 14.76 22.2 14.8933 21.3333H32V16H16.6267C19.52 10.4533 25.3067 6.66667 32 6.66667C36.3067 6.66667 40.24 8.24 43.2667 10.84L48 6.13333C43.76 2.33333 38.1467 0 32 0C21.56 0 12.6933 6.68 9.4 16H0V21.3333H8.16C8.05333 22.2133 8 23.0933 8 24C8 24.9067 8.05333 25.7867 8.16 26.6667H0V32H9.4C12.6933 41.32 21.56 48 32 48C38.1467 48 43.76 45.6667 48 41.8667L43.2667 37.1467C40.24 39.7467 36.3067 41.3333 32 41.3333Z" fill="#3F7EF3"/>
</svg>
