<svg width="57" height="57" viewBox="0 0 57 57" fill="none" xmlns="http://www.w3.org/2000/svg">
<g clip-path="url(#clip0_1952_1919)">
<path d="M28.36 56.72C44.0228 56.72 56.72 44.0228 56.72 28.36C56.72 12.6972 44.0228 0 28.36 0C12.6972 0 0 12.6972 0 28.36C0 44.0228 12.6972 56.72 28.36 56.72Z" fill="#627EEA"/>
<path d="M29.2422 7.08984V22.8119L42.5306 28.7498L29.2422 7.08984Z" fill="white" fill-opacity="0.602"/>
<path d="M29.2433 7.08984L15.9531 28.7498L29.2433 22.8119V7.08984Z" fill="white"/>
<path d="M29.2422 38.9385V49.6214L42.5395 31.2246L29.2422 38.9385Z" fill="white" fill-opacity="0.602"/>
<path d="M29.2433 49.6214V38.9368L15.9531 31.2246L29.2433 49.6214Z" fill="white"/>
<path d="M29.2422 36.4664L42.5306 28.7507L29.2422 22.8164V36.4664Z" fill="white" fill-opacity="0.2"/>
<path d="M15.9531 28.7507L29.2433 36.4664V22.8164L15.9531 28.7507Z" fill="white" fill-opacity="0.602"/>
</g>
<defs>
<clipPath id="clip0_1952_1919">
<rect width="56.72" height="56.72" fill="white"/>
</clipPath>
</defs>
</svg>
