<svg width="57" height="57" viewBox="0 0 57 57" fill="none" xmlns="http://www.w3.org/2000/svg">
<path fill-rule="evenodd" clip-rule="evenodd" d="M57 28.5C57 44.2403 44.2403 57 28.5 57C12.7597 57 0 44.2403 0 28.5C0 12.7597 12.7597 0 28.5 0C44.2403 0 57 12.7597 57 28.5Z" fill="#FF000B"/>
<path fill-rule="evenodd" clip-rule="evenodd" d="M12.1065 10.7999L39.521 17.1184C39.5982 17.1361 39.6712 17.1683 39.7364 17.2133L45.3971 21.1138C45.6844 21.3119 45.7556 21.706 45.5556 21.9919L26.4438 49.3086C26.1533 49.7235 25.5164 49.6423 25.3397 49.1675L11.3764 11.6316C11.202 11.1625 11.6189 10.6874 12.1065 10.7999Z" fill="white"/>
<path fill-rule="evenodd" clip-rule="evenodd" d="M13.1172 13.1055L37.937 18.8257L43.3748 22.5729L25.9197 47.5212L13.1172 13.1055Z" fill="#FF000B"/>
<path fill-rule="evenodd" clip-rule="evenodd" d="M25.918 49.6372C25.8989 49.6372 25.8795 49.6363 25.8601 49.6343C25.5469 49.6027 25.3186 49.3231 25.3502 49.0102L27.2572 30.0862L11.609 12.134C11.4023 11.8966 11.4268 11.5367 11.6642 11.3298C11.9017 11.1229 12.2616 11.1477 12.4685 11.3851L28.2789 29.5233C28.3821 29.6422 28.4319 29.7983 28.4163 29.9548L26.4842 49.1242C26.4549 49.418 26.2069 49.6372 25.918 49.6372Z" fill="white"/>
<path fill-rule="evenodd" clip-rule="evenodd" d="M27.8516 30.4682C27.6735 30.4682 27.5002 30.3847 27.3899 30.233C27.23 30.0125 27.2482 29.7098 27.4338 29.5103L38.5291 17.5728C38.7434 17.3422 39.104 17.3285 39.3348 17.5431C39.5654 17.7575 39.5785 18.1183 39.3642 18.3488L30.2444 28.1605L44.6013 21.5055C44.8875 21.3735 45.226 21.4969 45.3583 21.7828C45.4908 22.0684 45.3665 22.4072 45.081 22.5398L28.091 30.4152C28.014 30.4511 27.9322 30.4682 27.8516 30.4682Z" fill="white"/>
</svg>
