<svg width="57" height="57" viewBox="0 0 57 57" fill="none" xmlns="http://www.w3.org/2000/svg">
<path fill-rule="evenodd" clip-rule="evenodd" d="M56.9508 28.491C56.9508 44.153 44.2545 56.8492 28.5926 56.8492C12.9306 56.8492 0.234375 44.153 0.234375 28.491C0.234375 12.8291 12.9306 0.132812 28.5926 0.132812C44.2545 0.132812 56.9508 12.8291 56.9508 28.491Z" fill="#1BA27A"/>
<path fill-rule="evenodd" clip-rule="evenodd" d="M41.8996 14.4336H15.0469V20.916H25.232V30.4444H31.7144V20.916H41.8996V14.4336Z" fill="white"/>
<path fill-rule="evenodd" clip-rule="evenodd" d="M28.5363 31.4595C20.1108 31.4595 13.2804 30.1261 13.2804 28.481C13.2804 26.8362 20.1108 25.5025 28.5363 25.5025C36.9615 25.5025 43.7919 26.8362 43.7919 28.481C43.7919 30.1261 36.9615 31.4595 28.5363 31.4595ZM45.6661 28.9776C45.6661 26.8564 37.9969 25.1367 28.5363 25.1367C19.0757 25.1367 11.4062 26.8564 11.4062 28.9776C11.4062 30.8452 17.3533 32.4015 25.2334 32.7466V46.4249H31.7158V32.752C39.657 32.4177 45.6661 30.8552 45.6661 28.9776Z" fill="white"/>
</svg>
