<svg width="48" height="48" viewBox="0 0 48 48" fill="none" xmlns="http://www.w3.org/2000/svg">
<path d="M0 24C0 10.7452 10.7452 0 24 0C37.2548 0 48 10.7452 48 24C48 37.2548 37.2548 48 24 48C10.7452 48 0 37.2548 0 24Z" fill="#205BC9"/>
<path d="M30.12 11.816H27.672C26.232 11.816 25.512 12.568 25.512 14.072V16.712H30.12V21.464H25.512V41H19.272V21.464H16.68V16.712H19.272V13.688C19.272 12.824 19.416 11.96 19.704 11.096C19.992 10.232 20.424 9.464 21 8.792C21.608 8.12 22.36 7.576 23.256 7.16C24.184 6.744 25.288 6.536 26.568 6.536H30.12V11.816Z" fill="white"/>
</svg>
