<svg width="124" height="52" viewBox="0 0 124 52" fill="none" xmlns="http://www.w3.org/2000/svg">
<g clip-path="url(#clip0_2089_2612)">
<path fill-rule="evenodd" clip-rule="evenodd" d="M32.1786 17.2774L31.1088 16.831C29.7832 16.2777 29.4824 14.4794 30.5617 13.5604L43.435 2.59902C44.5676 1.63457 46.3199 2.38295 46.4991 3.90787L48.5545 21.3702C48.7258 22.8266 47.3198 23.8987 46.002 23.3166L45.3714 23.0381C44.4289 22.6218 43.3549 23.0502 42.9553 24.0017L42.1958 25.8108C41.3659 28.0512 40.4337 30.5967 39.4182 33.4116C36.0071 42.8685 29.3254 39.8153 26.7188 37.1436L30.6252 26.8644C30.6467 26.7339 30.6818 26.6041 30.7313 26.4769L32.0178 23.1722L33.2633 19.7722C33.6223 18.7922 33.1377 17.6778 32.1786 17.2774Z" fill="url(#paint0_linear_2089_2612)"/>
<path d="M12 27.7212V45.2857C12 48.4415 9.31372 51 6 51C2.68629 51 0 48.4415 0 45.2857V34.8409C2.84445 25.8637 9.1852 26.4479 12 27.7212Z" fill="url(#paint1_linear_2089_2612)"/>
<path d="M12.3385 18.4136C4.23563 13.6768 -1.16692 20.1479 0.00270854 37.0009C3.94561 24.4876 11.024 30.6407 14.4468 35.7834C15.7553 37.7494 18.9635 41.9519 22.5498 46.5784C26.3925 51.5351 29.734 51.5719 31.2376 50.9843C37.1185 48.6053 40.6746 35.6789 40.8308 29.4161C36.6731 39.4734 32.5464 41.7519 27.7093 37.2495C26.2892 35.9277 24.8434 34.1801 23.4489 32.2927C21.5421 29.7118 19.5071 27.3962 18.1026 25.1327C17.3508 23.921 14.3375 19.5822 12.3385 18.4136Z" fill="url(#paint2_linear_2089_2612)"/>
<path d="M54.7789 51.7337C48.6923 51.7337 44.6094 47.1031 44.6094 41.4097C44.6094 35.7162 48.8813 31.0097 54.7789 31.0097C60.6764 31.0097 64.7594 35.7162 64.7594 41.4097C64.7594 41.979 64.7216 42.5863 64.6082 43.2316H49.9021C50.4691 45.5469 52.2082 47.179 54.7789 47.179C56.9716 47.179 58.6728 46.0403 59.5801 44.5221L63.5496 47.5206C61.9618 49.9878 58.6728 51.7337 54.7789 51.7337ZM49.9021 39.398H59.6179C59.0508 37.1965 57.1984 35.4126 54.7033 35.4126C52.2838 35.4126 50.4691 37.0447 49.9021 39.398ZM63.2268 51.2403L70.5987 41.3717L63.6048 31.5031H69.6914L73.6987 37.7659L77.8573 31.5031H83.8304L76.8365 41.4476L84.2085 51.2403H78.0085L73.7365 44.9396L69.3133 51.2403H63.2268ZM92.7962 51.2403C88.9023 51.2403 86.7853 49.4184 86.7853 45.1294V35.8681H84.0255V31.5031H86.7853V27.5177L91.8889 26.9863V31.5031H96.0474V35.8681H91.8889V44.8637C91.8889 46.1162 92.4938 46.6856 93.4767 46.6856H95.5938V51.2403H92.7962ZM98.8696 51.2403V24.671H114.407V29.4535H104.162V35.6783H114.218V40.3848H104.162V51.2403H98.8696ZM117.247 51.2403V31.5031H122.35V51.2403H117.247ZM116.717 26.8345C116.717 25.2024 118.04 23.8359 119.779 23.8359C121.556 23.8359 122.842 25.2024 122.842 26.8345C122.842 28.5425 121.556 29.871 119.779 29.871C118.04 29.871 116.717 28.5045 116.717 26.8345Z" fill="#3A3939"/>
</g>
<defs>
<linearGradient id="paint0_linear_2089_2612" x1="39.0633" y1="17.7229" x2="35.0585" y2="40.3451" gradientUnits="userSpaceOnUse">
<stop stop-color="#0097FF"/>
<stop offset="1" stop-color="#005CE0"/>
</linearGradient>
<linearGradient id="paint1_linear_2089_2612" x1="6" y1="27" x2="6" y2="51" gradientUnits="userSpaceOnUse">
<stop stop-color="#3C01BE"/>
<stop offset="1" stop-color="#7400FF"/>
</linearGradient>
<linearGradient id="paint2_linear_2089_2612" x1="39.1927" y1="33.7807" x2="0.00849113" y2="33.7807" gradientUnits="userSpaceOnUse">
<stop stop-color="#5CCEFF"/>
<stop offset="1" stop-color="#0054FD"/>
</linearGradient>
<clipPath id="clip0_2089_2612">
<rect width="124" height="52" fill="white"/>
</clipPath>
</defs>
</svg>
