<svg width="220" height="220" viewBox="0 0 220 220" fill="none" xmlns="http://www.w3.org/2000/svg">
<g clip-path="url(#clip0_1889_11324)">
<path d="M82.0031 10.0098H74.0039V18.009H82.0031V10.0098Z" fill="#205BC9"/>
<path d="M106.003 10.0098H98.0039V18.009H106.003V10.0098Z" fill="#205BC9"/>
<path d="M114.003 10.0098H106.004V18.009H114.003V10.0098Z" fill="#205BC9"/>
<path d="M121.999 10.0098H114V18.009H121.999V10.0098Z" fill="#205BC9"/>
<path d="M90.0031 18.0088H82.0039V26.008H90.0031V18.0088Z" fill="#205BC9"/>
<path d="M98.0031 18.0088H90.0039V26.008H98.0031V18.0088Z" fill="#205BC9"/>
<path d="M106.003 18.0088H98.0039V26.008H106.003V18.0088Z" fill="#205BC9"/>
<path d="M114.003 18.0088H106.004V26.008H114.003V18.0088Z" fill="#205BC9"/>
<path d="M121.999 18.0088H114V26.008H121.999V18.0088Z" fill="#205BC9"/>
<path d="M129.999 18.0088H122V26.008H129.999V18.0088Z" fill="#205BC9"/>
<path d="M137.999 18.0088H130V26.008H137.999V18.0088Z" fill="#205BC9"/>
<path d="M145.999 18.0088H138V26.008H145.999V18.0088Z" fill="#205BC9"/>
<path d="M90.0031 26.0078H82.0039V34.007H90.0031V26.0078Z" fill="#205BC9"/>
<path d="M129.999 26.0078H122V34.007H129.999V26.0078Z" fill="#205BC9"/>
<path d="M145.999 26.0078H138V34.007H145.999V26.0078Z" fill="#205BC9"/>
<path d="M98.0031 34.0078H90.0039V42.007H98.0031V34.0078Z" fill="#205BC9"/>
<path d="M114.003 34.0078H106.004V42.007H114.003V34.0078Z" fill="#205BC9"/>
<path d="M121.999 34.0078H114V42.007H121.999V34.0078Z" fill="#205BC9"/>
<path d="M129.999 34.0078H122V42.007H129.999V34.0078Z" fill="#205BC9"/>
<path d="M82.0031 42.0068H74.0039V50.006H82.0031V42.0068Z" fill="#205BC9"/>
<path d="M98.0031 42.0068H90.0039V50.006H98.0031V42.0068Z" fill="#205BC9"/>
<path d="M106.003 42.0068H98.0039V50.006H106.003V42.0068Z" fill="#205BC9"/>
<path d="M114.003 42.0068H106.004V50.006H114.003V42.0068Z" fill="#205BC9"/>
<path d="M145.999 42.0068H138V50.006H145.999V42.0068Z" fill="#205BC9"/>
<path d="M82.0031 50.0059H74.0039V58.0051H82.0031V50.0059Z" fill="#205BC9"/>
<path d="M98.0031 50.0059H90.0039V58.0051H98.0031V50.0059Z" fill="#205BC9"/>
<path d="M106.003 50.0059H98.0039V58.0051H106.003V50.0059Z" fill="#205BC9"/>
<path d="M129.999 50.0059H122V58.0051H129.999V50.0059Z" fill="#205BC9"/>
<path d="M137.999 50.0059H130V58.0051H137.999V50.0059Z" fill="#205BC9"/>
<path d="M145.999 50.0059H138V58.0051H145.999V50.0059Z" fill="#205BC9"/>
<path d="M82.0031 58.0049H74.0039V66.0041H82.0031V58.0049Z" fill="#205BC9"/>
<path d="M98.0031 58.0049H90.0039V66.0041H98.0031V58.0049Z" fill="#205BC9"/>
<path d="M114.003 58.0049H106.004V66.0041H114.003V58.0049Z" fill="#205BC9"/>
<path d="M129.999 58.0049H122V66.0041H129.999V58.0049Z" fill="#205BC9"/>
<path d="M145.999 58.0049H138V66.0041H145.999V58.0049Z" fill="#205BC9"/>
<path d="M129.999 66.0039H122V74.0031H129.999V66.0039Z" fill="#205BC9"/>
<path d="M137.999 66.0039H130V74.0031H137.999V66.0039Z" fill="#205BC9"/>
<path d="M26.0109 74.0029H18.0117V82.0021H26.0109V74.0029Z" fill="#205BC9"/>
<path d="M34.0109 74.0029H26.0117V82.0021H34.0109V74.0029Z" fill="#205BC9"/>
<path d="M42.007 74.0029H34.0078V82.0021H42.007V74.0029Z" fill="#205BC9"/>
<path d="M50.007 74.0029H42.0078V82.0021H50.007V74.0029Z" fill="#205BC9"/>
<path d="M58.007 74.0029H50.0078V82.0021H58.007V74.0029Z" fill="#205BC9"/>
<path d="M66.007 74.0029H58.0078V82.0021H66.007V74.0029Z" fill="#205BC9"/>
<path d="M74.007 74.0029H66.0078V82.0021H74.007V74.0029Z" fill="#205BC9"/>
<path d="M90.0031 74.0029H82.0039V82.0021H90.0031V74.0029Z" fill="#205BC9"/>
<path d="M106.003 74.0029H98.0039V82.0021H106.003V74.0029Z" fill="#205BC9"/>
<path d="M121.999 74.0029H114V82.0021H121.999V74.0029Z" fill="#205BC9"/>
<path d="M129.999 74.0029H122V82.0021H129.999V74.0029Z" fill="#205BC9"/>
<path d="M169.995 74.0029H161.996V82.0021H169.995V74.0029Z" fill="#205BC9"/>
<path d="M177.995 74.0029H169.996V82.0021H177.995V74.0029Z" fill="#205BC9"/>
<path d="M209.991 74.0029H201.992V82.0021H209.991V74.0029Z" fill="#205BC9"/>
<path d="M18.0109 82.0029H10.0117V90.0021H18.0109V82.0029Z" fill="#205BC9"/>
<path d="M34.0109 82.0029H26.0117V90.0021H34.0109V82.0029Z" fill="#205BC9"/>
<path d="M50.007 82.0029H42.0078V90.0021H50.007V82.0029Z" fill="#205BC9"/>
<path d="M74.007 82.0029H66.0078V90.0021H74.007V82.0029Z" fill="#205BC9"/>
<path d="M98.0031 82.0029H90.0039V90.0021H98.0031V82.0029Z" fill="#205BC9"/>
<path d="M114.003 82.0029H106.004V90.0021H114.003V82.0029Z" fill="#205BC9"/>
<path d="M121.999 82.0029H114V90.0021H121.999V82.0029Z" fill="#205BC9"/>
<path d="M145.999 82.0029H138V90.0021H145.999V82.0029Z" fill="#205BC9"/>
<path d="M169.995 82.0029H161.996V90.0021H169.995V82.0029Z" fill="#205BC9"/>
<path d="M201.991 82.0029H193.992V90.0021H201.991V82.0029Z" fill="#205BC9"/>
<path d="M26.0109 90.002H18.0117V98.0012H26.0109V90.002Z" fill="#205BC9"/>
<path d="M42.007 90.002H34.0078V98.0012H42.007V90.002Z" fill="#205BC9"/>
<path d="M66.007 90.002H58.0078V98.0012H66.007V90.002Z" fill="#205BC9"/>
<path d="M82.0031 90.002H74.0039V98.0012H82.0031V90.002Z" fill="#205BC9"/>
<path d="M90.0031 90.002H82.0039V98.0012H90.0031V90.002Z" fill="#205BC9"/>
<path d="M106.003 90.002H98.0039V98.0012H106.003V90.002Z" fill="#205BC9"/>
<path d="M121.999 90.002H114V98.0012H121.999V90.002Z" fill="#205BC9"/>
<path d="M129.999 90.002H122V98.0012H129.999V90.002Z" fill="#205BC9"/>
<path d="M137.999 90.002H130V98.0012H137.999V90.002Z" fill="#205BC9"/>
<path d="M153.999 90.002H146V98.0012H153.999V90.002Z" fill="#205BC9"/>
<path d="M161.995 90.002H153.996V98.0012H161.995V90.002Z" fill="#205BC9"/>
<path d="M177.995 90.002H169.996V98.0012H177.995V90.002Z" fill="#205BC9"/>
<path d="M185.995 90.002H177.996V98.0012H185.995V90.002Z" fill="#205BC9"/>
<path d="M201.991 90.002H193.992V98.0012H201.991V90.002Z" fill="#205BC9"/>
<path d="M209.991 90.002H201.992V98.0012H209.991V90.002Z" fill="#205BC9"/>
<path d="M34.0109 98.001H26.0117V106H34.0109V98.001Z" fill="#205BC9"/>
<path d="M42.007 98.001H34.0078V106H42.007V98.001Z" fill="#205BC9"/>
<path d="M58.007 98.001H50.0078V106H58.007V98.001Z" fill="#205BC9"/>
<path d="M74.007 98.001H66.0078V106H74.007V98.001Z" fill="#205BC9"/>
<path d="M90.0031 98.001H82.0039V106H90.0031V98.001Z" fill="#205BC9"/>
<path d="M98.0031 98.001H90.0039V106H98.0031V98.001Z" fill="#205BC9"/>
<path d="M145.999 98.001H138V106H145.999V98.001Z" fill="#205BC9"/>
<path d="M153.999 98.001H146V106H153.999V98.001Z" fill="#205BC9"/>
<path d="M161.995 98.001H153.996V106H161.995V98.001Z" fill="#205BC9"/>
<path d="M169.995 98.001H161.996V106H169.995V98.001Z" fill="#205BC9"/>
<path d="M177.995 98.001H169.996V106H177.995V98.001Z" fill="#205BC9"/>
<path d="M209.991 98.001H201.992V106H209.991V98.001Z" fill="#205BC9"/>
<path d="M34.0109 106H26.0117V113.999H34.0109V106Z" fill="#205BC9"/>
<path d="M50.007 106H42.0078V113.999H50.007V106Z" fill="#205BC9"/>
<path d="M66.007 106H58.0078V113.999H66.007V106Z" fill="#205BC9"/>
<path d="M74.007 106H66.0078V113.999H74.007V106Z" fill="#205BC9"/>
<path d="M82.0031 106H74.0039V113.999H82.0031V106Z" fill="#205BC9"/>
<path d="M98.0031 106H90.0039V113.999H98.0031V106Z" fill="#205BC9"/>
<path d="M106.003 106H98.0039V113.999H106.003V106Z" fill="#205BC9"/>
<path d="M114.003 106H106.004V113.999H114.003V106Z" fill="#205BC9"/>
<path d="M153.999 106H146V113.999H153.999V106Z" fill="#205BC9"/>
<path d="M161.995 106H153.996V113.999H161.995V106Z" fill="#205BC9"/>
<path d="M177.995 106H169.996V113.999H177.995V106Z" fill="#205BC9"/>
<path d="M193.991 106H185.992V113.999H193.991V106Z" fill="#205BC9"/>
<path d="M201.991 106H193.992V113.999H201.991V106Z" fill="#205BC9"/>
<path d="M209.991 106H201.992V113.999H209.991V106Z" fill="#205BC9"/>
<path d="M18.0109 113.999H10.0117V121.998H18.0109V113.999Z" fill="#205BC9"/>
<path d="M34.0109 113.999H26.0117V121.998H34.0109V113.999Z" fill="#205BC9"/>
<path d="M50.007 113.999H42.0078V121.998H50.007V113.999Z" fill="#205BC9"/>
<path d="M74.007 113.999H66.0078V121.998H74.007V113.999Z" fill="#205BC9"/>
<path d="M90.0031 113.999H82.0039V121.998H90.0031V113.999Z" fill="#205BC9"/>
<path d="M114.003 113.999H106.004V121.998H114.003V113.999Z" fill="#205BC9"/>
<path d="M153.999 113.999H146V121.998H153.999V113.999Z" fill="#205BC9"/>
<path d="M169.995 113.999H161.996V121.998H169.995V113.999Z" fill="#205BC9"/>
<path d="M185.995 113.999H177.996V121.998H185.995V113.999Z" fill="#205BC9"/>
<path d="M201.991 113.999H193.992V121.998H201.991V113.999Z" fill="#205BC9"/>
<path d="M18.0109 121.999H10.0117V129.998H18.0109V121.999Z" fill="#205BC9"/>
<path d="M42.007 121.999H34.0078V129.998H42.007V121.999Z" fill="#205BC9"/>
<path d="M50.007 121.999H42.0078V129.998H50.007V121.999Z" fill="#205BC9"/>
<path d="M58.007 121.999H50.0078V129.998H58.007V121.999Z" fill="#205BC9"/>
<path d="M66.007 121.999H58.0078V129.998H66.007V121.999Z" fill="#205BC9"/>
<path d="M82.0031 121.999H74.0039V129.998H82.0031V121.999Z" fill="#205BC9"/>
<path d="M106.003 121.999H98.0039V129.998H106.003V121.999Z" fill="#205BC9"/>
<path d="M121.999 121.999H114V129.998H121.999V121.999Z" fill="#205BC9"/>
<path d="M137.999 121.999H130V129.998H137.999V121.999Z" fill="#205BC9"/>
<path d="M145.999 121.999H138V129.998H145.999V121.999Z" fill="#205BC9"/>
<path d="M169.995 121.999H161.996V129.998H169.995V121.999Z" fill="#205BC9"/>
<path d="M177.995 121.999H169.996V129.998H177.995V121.999Z" fill="#205BC9"/>
<path d="M185.995 121.999H177.996V129.998H185.995V121.999Z" fill="#205BC9"/>
<path d="M201.991 121.999H193.992V129.998H201.991V121.999Z" fill="#205BC9"/>
<path d="M209.991 121.999H201.992V129.998H209.991V121.999Z" fill="#205BC9"/>
<path d="M18.0109 129.998H10.0117V137.997H18.0109V129.998Z" fill="#205BC9"/>
<path d="M42.007 129.998H34.0078V137.997H42.007V129.998Z" fill="#205BC9"/>
<path d="M58.007 129.998H50.0078V137.997H58.007V129.998Z" fill="#205BC9"/>
<path d="M74.007 129.998H66.0078V137.997H74.007V129.998Z" fill="#205BC9"/>
<path d="M98.0031 129.998H90.0039V137.997H98.0031V129.998Z" fill="#205BC9"/>
<path d="M106.003 129.998H98.0039V137.997H106.003V129.998Z" fill="#205BC9"/>
<path d="M114.003 129.998H106.004V137.997H114.003V129.998Z" fill="#205BC9"/>
<path d="M129.999 129.998H122V137.997H129.999V129.998Z" fill="#205BC9"/>
<path d="M137.999 129.998H130V137.997H137.999V129.998Z" fill="#205BC9"/>
<path d="M161.995 129.998H153.996V137.997H161.995V129.998Z" fill="#205BC9"/>
<path d="M169.995 129.998H161.996V137.997H169.995V129.998Z" fill="#205BC9"/>
<path d="M177.995 129.998H169.996V137.997H177.995V129.998Z" fill="#205BC9"/>
<path d="M209.991 129.998H201.992V137.997H209.991V129.998Z" fill="#205BC9"/>
<path d="M18.0109 137.997H10.0117V145.996H18.0109V137.997Z" fill="#205BC9"/>
<path d="M34.0109 137.997H26.0117V145.996H34.0109V137.997Z" fill="#205BC9"/>
<path d="M58.007 137.997H50.0078V145.996H58.007V137.997Z" fill="#205BC9"/>
<path d="M66.007 137.997H58.0078V145.996H66.007V137.997Z" fill="#205BC9"/>
<path d="M98.0031 137.997H90.0039V145.996H98.0031V137.997Z" fill="#205BC9"/>
<path d="M106.003 137.997H98.0039V145.996H106.003V137.997Z" fill="#205BC9"/>
<path d="M129.999 137.997H122V145.996H129.999V137.997Z" fill="#205BC9"/>
<path d="M145.999 137.997H138V145.996H145.999V137.997Z" fill="#205BC9"/>
<path d="M153.999 137.997H146V145.996H153.999V137.997Z" fill="#205BC9"/>
<path d="M161.995 137.997H153.996V145.996H161.995V137.997Z" fill="#205BC9"/>
<path d="M169.995 137.997H161.996V145.996H169.995V137.997Z" fill="#205BC9"/>
<path d="M177.995 137.997H169.996V145.996H177.995V137.997Z" fill="#205BC9"/>
<path d="M193.991 137.997H185.992V145.996H193.991V137.997Z" fill="#205BC9"/>
<path d="M82.0031 145.996H74.0039V153.995H82.0031V145.996Z" fill="#205BC9"/>
<path d="M98.0031 145.996H90.0039V153.995H98.0031V145.996Z" fill="#205BC9"/>
<path d="M114.003 145.996H106.004V153.995H114.003V145.996Z" fill="#205BC9"/>
<path d="M137.999 145.996H130V153.995H137.999V145.996Z" fill="#205BC9"/>
<path d="M145.999 145.996H138V153.995H145.999V145.996Z" fill="#205BC9"/>
<path d="M177.995 145.996H169.996V153.995H177.995V145.996Z" fill="#205BC9"/>
<path d="M185.995 145.996H177.996V153.995H185.995V145.996Z" fill="#205BC9"/>
<path d="M82.0031 153.995H74.0039V161.994H82.0031V153.995Z" fill="#205BC9"/>
<path d="M121.999 153.995H114V161.994H121.999V153.995Z" fill="#205BC9"/>
<path d="M129.999 153.995H122V161.994H129.999V153.995Z" fill="#205BC9"/>
<path d="M145.999 153.995H138V161.994H145.999V153.995Z" fill="#205BC9"/>
<path d="M161.995 153.995H153.996V161.994H161.995V153.995Z" fill="#205BC9"/>
<path d="M177.995 153.995H169.996V161.994H177.995V153.995Z" fill="#205BC9"/>
<path d="M193.991 153.995H185.992V161.994H193.991V153.995Z" fill="#205BC9"/>
<path d="M201.991 153.995H193.992V161.994H201.991V153.995Z" fill="#205BC9"/>
<path d="M209.991 153.995H201.992V161.994H209.991V153.995Z" fill="#205BC9"/>
<path d="M82.0031 161.994H74.0039V169.993H82.0031V161.994Z" fill="#205BC9"/>
<path d="M106.003 161.994H98.0039V169.993H106.003V161.994Z" fill="#205BC9"/>
<path d="M129.999 161.994H122V169.993H129.999V161.994Z" fill="#205BC9"/>
<path d="M145.999 161.994H138V169.993H145.999V161.994Z" fill="#205BC9"/>
<path d="M177.995 161.994H169.996V169.993H177.995V161.994Z" fill="#205BC9"/>
<path d="M185.995 161.994H177.996V169.993H185.995V161.994Z" fill="#205BC9"/>
<path d="M209.991 161.994H201.992V169.993H209.991V161.994Z" fill="#205BC9"/>
<path d="M82.0031 169.994H74.0039V177.993H82.0031V169.994Z" fill="#205BC9"/>
<path d="M98.0031 169.994H90.0039V177.993H98.0031V169.994Z" fill="#205BC9"/>
<path d="M106.003 169.994H98.0039V177.993H106.003V169.994Z" fill="#205BC9"/>
<path d="M114.003 169.994H106.004V177.993H114.003V169.994Z" fill="#205BC9"/>
<path d="M137.999 169.994H130V177.993H137.999V169.994Z" fill="#205BC9"/>
<path d="M145.999 169.994H138V177.993H145.999V169.994Z" fill="#205BC9"/>
<path d="M153.999 169.994H146V177.993H153.999V169.994Z" fill="#205BC9"/>
<path d="M161.995 169.994H153.996V177.993H161.995V169.994Z" fill="#205BC9"/>
<path d="M169.995 169.994H161.996V177.993H169.995V169.994Z" fill="#205BC9"/>
<path d="M177.995 169.994H169.996V177.993H177.995V169.994Z" fill="#205BC9"/>
<path d="M193.991 169.994H185.992V177.993H193.991V169.994Z" fill="#205BC9"/>
<path d="M201.991 169.994H193.992V177.993H201.991V169.994Z" fill="#205BC9"/>
<path d="M209.991 169.994H201.992V177.993H209.991V169.994Z" fill="#205BC9"/>
<path d="M82.0031 177.993H74.0039V185.992H82.0031V177.993Z" fill="#205BC9"/>
<path d="M90.0031 177.993H82.0039V185.992H90.0031V177.993Z" fill="#205BC9"/>
<path d="M106.003 177.993H98.0039V185.992H106.003V177.993Z" fill="#205BC9"/>
<path d="M129.999 177.993H122V185.992H129.999V177.993Z" fill="#205BC9"/>
<path d="M137.999 177.993H130V185.992H137.999V177.993Z" fill="#205BC9"/>
<path d="M145.999 177.993H138V185.992H145.999V177.993Z" fill="#205BC9"/>
<path d="M153.999 177.993H146V185.992H153.999V177.993Z" fill="#205BC9"/>
<path d="M161.995 177.993H153.996V185.992H161.995V177.993Z" fill="#205BC9"/>
<path d="M177.995 177.993H169.996V185.992H177.995V177.993Z" fill="#205BC9"/>
<path d="M185.995 177.993H177.996V185.992H185.995V177.993Z" fill="#205BC9"/>
<path d="M193.991 177.993H185.992V185.992H193.991V177.993Z" fill="#205BC9"/>
<path d="M201.991 177.993H193.992V185.992H201.991V177.993Z" fill="#205BC9"/>
<path d="M209.991 177.993H201.992V185.992H209.991V177.993Z" fill="#205BC9"/>
<path d="M82.0031 185.992H74.0039V193.991H82.0031V185.992Z" fill="#205BC9"/>
<path d="M90.0031 185.992H82.0039V193.991H90.0031V185.992Z" fill="#205BC9"/>
<path d="M98.0031 185.992H90.0039V193.991H98.0031V185.992Z" fill="#205BC9"/>
<path d="M153.999 185.992H146V193.991H153.999V185.992Z" fill="#205BC9"/>
<path d="M185.995 185.992H177.996V193.991H185.995V185.992Z" fill="#205BC9"/>
<path d="M193.991 185.992H185.992V193.991H193.991V185.992Z" fill="#205BC9"/>
<path d="M209.991 185.992H201.992V193.991H209.991V185.992Z" fill="#205BC9"/>
<path d="M82.0031 193.991H74.0039V201.99H82.0031V193.991Z" fill="#205BC9"/>
<path d="M121.999 193.991H114V201.99H121.999V193.991Z" fill="#205BC9"/>
<path d="M137.999 193.991H130V201.99H137.999V193.991Z" fill="#205BC9"/>
<path d="M145.999 193.991H138V201.99H145.999V193.991Z" fill="#205BC9"/>
<path d="M153.999 193.991H146V201.99H153.999V193.991Z" fill="#205BC9"/>
<path d="M161.995 193.991H153.996V201.99H161.995V193.991Z" fill="#205BC9"/>
<path d="M169.995 193.991H161.996V201.99H169.995V193.991Z" fill="#205BC9"/>
<path d="M177.995 193.991H169.996V201.99H177.995V193.991Z" fill="#205BC9"/>
<path d="M185.995 193.991H177.996V201.99H185.995V193.991Z" fill="#205BC9"/>
<path d="M209.991 193.991H201.992V201.99H209.991V193.991Z" fill="#205BC9"/>
<path d="M90.0031 201.99H82.0039V209.989H90.0031V201.99Z" fill="#205BC9"/>
<path d="M98.0031 201.99H90.0039V209.989H98.0031V201.99Z" fill="#205BC9"/>
<path d="M106.003 201.99H98.0039V209.989H106.003V201.99Z" fill="#205BC9"/>
<path d="M121.999 201.99H114V209.989H121.999V201.99Z" fill="#205BC9"/>
<path d="M129.999 201.99H122V209.989H129.999V201.99Z" fill="#205BC9"/>
<path d="M161.995 201.99H153.996V209.989H161.995V201.99Z" fill="#205BC9"/>
<path d="M169.995 201.99H161.996V209.989H169.995V201.99Z" fill="#205BC9"/>
<path d="M177.995 201.99H169.996V209.989H177.995V201.99Z" fill="#205BC9"/>
<path d="M185.995 201.99H177.996V209.989H185.995V201.99Z" fill="#205BC9"/>
<path d="M193.991 201.99H185.992V209.989H193.991V201.99Z" fill="#205BC9"/>
<path d="M201.991 201.99H193.992V209.989H201.991V201.99Z" fill="#205BC9"/>
<path d="M209.991 201.99H201.992V209.989H209.991V201.99Z" fill="#205BC9"/>
<path d="M53.996 13.999H21.9992C17.5814 13.999 14 17.5804 14 21.9982V53.995C14 58.4129 17.5814 61.9942 21.9992 61.9942H53.996C58.4138 61.9942 61.9952 58.4129 61.9952 53.995V21.9982C61.9952 17.5804 58.4138 13.999 53.996 13.999Z" stroke="#205BC9" stroke-width="7.9992"/>
<path d="M45.998 25.998H29.9996C27.7907 25.998 26 27.7887 26 29.9976V45.996C26 48.205 27.7907 49.9956 29.9996 49.9956H45.998C48.2069 49.9956 49.9976 48.205 49.9976 45.996V29.9976C49.9976 27.7887 48.2069 25.998 45.998 25.998Z" fill="#205BC9"/>
<path d="M198 13.999H166.003C161.585 13.999 158.004 17.5804 158.004 21.9982V53.995C158.004 58.4129 161.585 61.9942 166.003 61.9942H198C202.418 61.9942 205.999 58.4129 205.999 53.995V21.9982C205.999 17.5804 202.418 13.999 198 13.999Z" stroke="#205BC9" stroke-width="7.9992"/>
<path d="M190.002 25.998H174.004C171.795 25.998 170.004 27.7887 170.004 29.9976V45.996C170.004 48.205 171.795 49.9956 174.004 49.9956H190.002C192.211 49.9956 194.002 48.205 194.002 45.996V29.9976C194.002 27.7887 192.211 25.998 190.002 25.998Z" fill="#205BC9"/>
<path d="M53.996 158.005H21.9992C17.5814 158.005 14 161.586 14 166.004V198.001C14 202.419 17.5814 206 21.9992 206H53.996C58.4138 206 61.9952 202.419 61.9952 198.001V166.004C61.9952 161.586 58.4138 158.005 53.996 158.005Z" stroke="#205BC9" stroke-width="7.9992"/>
<path d="M45.998 170.004H29.9996C27.7907 170.004 26 171.795 26 174.004V190.002C26 192.211 27.7907 194.002 29.9996 194.002H45.998C48.2069 194.002 49.9976 192.211 49.9976 190.002V174.004C49.9976 171.795 48.2069 170.004 45.998 170.004Z" fill="#205BC9"/>
</g>
<defs>
<clipPath id="clip0_1889_11324">
<rect width="220" height="220" fill="white"/>
</clipPath>
</defs>
</svg>
