<svg width="138" height="138" viewBox="0 0 138 138" fill="none" xmlns="http://www.w3.org/2000/svg">
<path d="M49.3421 2.74138C49.3421 3.3803 49.3421 5.48276 49.3421 5.48276C49.3421 5.48276 47.4759 5.48276 46.6008 5.48263C45.9173 5.48276 43.8594 5.48263 43.8594 5.48263C43.8594 5.48263 43.8594 3.57198 43.8594 2.74131C43.8594 1.22738 45.0867 0 46.6007 0C48.1147 0 49.3421 1.22737 49.3421 2.74138Z" fill="#3F7EF3"/>
<path d="M63.0539 0C63.6928 0 65.7953 0 65.7953 0C65.7953 0 65.7953 1.86613 65.7953 2.74138C65.7953 3.42459 65.7953 5.48276 65.7953 5.48276C65.7953 5.48276 63.8849 5.48276 63.0539 5.48276C61.5393 5.48276 60.3125 4.25485 60.3125 2.74138C60.3125 1.22773 61.5393 0 63.0539 0Z" fill="#3F7EF3"/>
<path d="M65.7969 0V5.48276H71.2796C71.2796 2.45466 68.8249 0 65.7969 0Z" fill="#3F7EF3"/>
<path d="M79.4992 0C81.0133 0 82.2406 1.22737 82.2406 2.74138C82.2406 4.25547 81.0133 5.48276 79.4992 5.48276C77.9852 5.48276 76.7578 4.25547 76.7578 2.74138C76.7578 1.22737 77.9852 0 79.4992 0Z" fill="#3F7EF3"/>
<path d="M49.3421 5.48242H43.8594V10.9652H49.3421V5.48242Z" fill="#3F7EF3"/>
<path d="M54.8265 5.48242H49.3438V10.9652H54.8265V5.48242Z" fill="#3F7EF3"/>
<path d="M57.5695 10.9652C56.9305 10.9652 54.8281 10.9652 54.8281 10.9652C54.8281 10.9652 54.8281 9.09877 54.8281 8.2238C54.8281 7.54039 54.8281 5.48242 54.8281 5.48242C54.8281 5.48242 56.739 5.48242 57.5695 5.48242C59.0834 5.48242 60.3109 6.70978 60.3109 8.2238C60.3109 9.73774 59.0834 10.9652 57.5695 10.9652Z" fill="#3F7EF3"/>
<path d="M65.7969 8.2238C65.7969 7.58483 65.7969 5.48242 65.7969 5.48242C65.7969 5.48242 67.6632 5.48242 68.5383 5.48242C69.2217 5.48242 71.2796 5.48242 71.2796 5.48242C71.2796 5.48242 71.2796 7.39328 71.2796 8.2238C71.2796 9.73774 70.0522 10.9652 68.5383 10.9652C67.0242 10.9652 65.7969 9.73774 65.7969 8.2238Z" fill="#3F7EF3"/>
<path d="M93.2093 8.2238C93.2093 8.86272 93.2093 10.9652 93.2093 10.9652C93.2093 10.9652 91.3431 10.9652 90.4679 10.965C89.7845 10.9652 87.7266 10.965 87.7266 10.965C87.7266 10.965 87.7266 9.05441 87.7266 8.22374C87.7266 6.7098 88.9539 5.48242 90.4679 5.48242C91.9819 5.48242 93.2093 6.70979 93.2093 8.2238Z" fill="#3F7EF3"/>
<path d="M43.8594 13.7062C43.8594 13.0673 43.8594 10.9648 43.8594 10.9648C43.8594 10.9648 45.7257 10.9648 46.6008 10.9648C47.2842 10.9648 49.3421 10.9648 49.3421 10.9648C49.3421 10.9648 49.3421 12.8757 49.3421 13.7062C49.3421 15.2202 48.1147 16.4476 46.6008 16.4476C45.0867 16.4476 43.8594 15.2202 43.8594 13.7062Z" fill="#3F7EF3"/>
<path d="M65.7953 13.7062C65.7953 14.3451 65.7953 16.4476 65.7953 16.4476C65.7953 16.4476 63.929 16.4476 63.0539 16.4475C62.3705 16.4476 60.3125 16.4475 60.3125 16.4475C60.3125 16.4475 60.3125 14.5368 60.3125 13.7062C60.3126 12.1922 61.5399 10.9648 63.0538 10.9648C64.5678 10.9648 65.7953 12.1922 65.7953 13.7062Z" fill="#3F7EF3"/>
<path d="M71.2734 16.4476H76.7562V10.9648C73.7282 10.9649 71.2734 13.4195 71.2734 16.4476Z" fill="#3F7EF3"/>
<path d="M79.4992 16.4476C78.8602 16.4476 76.7578 16.4476 76.7578 16.4476C76.7578 16.4476 76.7578 14.5812 76.7578 13.7062C76.7578 13.0228 76.7578 10.9648 76.7578 10.9648C76.7578 10.9648 78.6687 10.9648 79.4992 10.9648C81.0131 10.9648 82.2406 12.1922 82.2406 13.7062C82.2406 15.2202 81.0131 16.4476 79.4992 16.4476Z" fill="#3F7EF3"/>
<path d="M93.2093 10.9648H87.7266V16.4476H93.2093V10.9648Z" fill="#3F7EF3"/>
<path d="M52.0851 16.4492C53.5992 16.4492 54.8265 17.6766 54.8265 19.1906C54.8265 20.7047 53.5992 21.932 52.0851 21.932C50.5711 21.932 49.3438 20.7047 49.3438 19.1906C49.3438 17.6766 50.5711 16.4492 52.0851 16.4492Z" fill="#3F7EF3"/>
<path d="M65.7953 16.4492H60.3125V21.932H65.7953V16.4492Z" fill="#3F7EF3"/>
<path d="M71.2796 16.4492H65.7969V21.932H71.2796V16.4492Z" fill="#3F7EF3"/>
<path d="M76.7562 16.4492H71.2734V21.932H76.7562V16.4492Z" fill="#3F7EF3"/>
<path d="M93.2093 16.4492H87.7266V21.932H93.2093V16.4492Z" fill="#3F7EF3"/>
<path d="M46.6008 21.9316C48.1148 21.9316 49.3421 23.159 49.3421 24.673C49.3421 26.1871 48.1148 27.4144 46.6008 27.4144C45.0867 27.4144 43.8594 26.1871 43.8594 24.673C43.8594 23.159 45.0867 21.9316 46.6008 21.9316Z" fill="#3F7EF3"/>
<path d="M54.8281 27.4144H60.3109V21.9316C57.2829 21.9317 54.8281 24.3863 54.8281 27.4144Z" fill="#3F7EF3"/>
<path d="M65.7953 21.9316H60.3125V27.4144H65.7953V21.9316Z" fill="#3F7EF3"/>
<path d="M76.7562 27.4144V21.9316H71.2734C71.2734 24.9597 73.7281 27.4144 76.7562 27.4144Z" fill="#3F7EF3"/>
<path d="M76.7578 21.9316V27.4144H82.2406C82.2406 24.3863 79.7859 21.9316 76.7578 21.9316Z" fill="#3F7EF3"/>
<path d="M93.2093 21.9316H87.7266V27.4144H93.2093V21.9316Z" fill="#3F7EF3"/>
<path d="M60.3109 27.4141H54.8281V32.8968H60.3109V27.4141Z" fill="#3F7EF3"/>
<path d="M65.7953 27.4141H60.3125V32.8968H65.7953V27.4141Z" fill="#3F7EF3"/>
<path d="M65.7969 27.4141V32.8968H71.2796C71.2796 29.8687 68.8249 27.4141 65.7969 27.4141Z" fill="#3F7EF3"/>
<path d="M82.2406 27.4141H76.7578V32.8968H82.2406V27.4141Z" fill="#3F7EF3"/>
<path d="M93.2093 27.4141H87.7266V32.8968H93.2093V27.4141Z" fill="#3F7EF3"/>
<path d="M46.6008 32.8965C48.1148 32.8965 49.3421 34.1239 49.3421 35.6379C49.3421 37.1519 48.1148 38.3792 46.6008 38.3792C45.0867 38.3792 43.8594 37.1519 43.8594 35.6379C43.8594 34.1239 45.0867 32.8965 46.6008 32.8965Z" fill="#3F7EF3"/>
<path d="M54.8281 35.6379C54.8281 34.9989 54.8281 32.8965 54.8281 32.8965C54.8281 32.8965 56.6945 32.8965 57.5695 32.8965C58.2529 32.8965 60.3109 32.8965 60.3109 32.8965C60.3109 32.8965 60.3109 34.8073 60.3109 35.6379C60.3109 37.1518 59.0834 38.3792 57.5695 38.3792C56.0555 38.3792 54.8281 37.1518 54.8281 35.6379Z" fill="#3F7EF3"/>
<path d="M65.7969 35.6379C65.7969 34.9989 65.7969 32.8965 65.7969 32.8965C65.7969 32.8965 67.6632 32.8965 68.5383 32.8965C69.2217 32.8965 71.2796 32.8965 71.2796 32.8965C71.2796 32.8965 71.2796 34.8073 71.2796 35.6379C71.2796 37.1518 70.0522 38.3792 68.5383 38.3792C67.0242 38.3792 65.7969 37.1518 65.7969 35.6379Z" fill="#3F7EF3"/>
<path d="M76.7578 35.6379C76.7578 34.9989 76.7578 32.8965 76.7578 32.8965C76.7578 32.8965 78.6242 32.8965 79.4992 32.8965C80.1826 32.8965 82.2406 32.8965 82.2406 32.8965C82.2406 32.8965 82.2406 34.8073 82.2406 35.6379C82.2406 37.1518 81.0131 38.3792 79.4992 38.3792C77.9852 38.3792 76.7578 37.1518 76.7578 35.6379Z" fill="#3F7EF3"/>
<path d="M93.2093 32.8965H87.7266V38.3792H93.2093V32.8965Z" fill="#3F7EF3"/>
<path d="M52.0851 38.3789C53.5992 38.3789 54.8265 39.6063 54.8265 41.1203C54.8265 42.6344 53.5992 43.8617 52.0851 43.8617C50.5711 43.8617 49.3438 42.6344 49.3438 41.1203C49.3438 39.6063 50.5711 38.3789 52.0851 38.3789Z" fill="#3F7EF3"/>
<path d="M63.0539 38.3789C64.568 38.3789 65.7953 39.6063 65.7953 41.1203C65.7953 42.6344 64.568 43.8617 63.0539 43.8617C61.5399 43.8617 60.3125 42.6344 60.3125 41.1203C60.3125 39.6063 61.5399 38.3789 63.0539 38.3789Z" fill="#3F7EF3"/>
<path d="M74.0148 38.3789C75.5289 38.3789 76.7562 39.6063 76.7562 41.1203C76.7562 42.6344 75.5289 43.8617 74.0148 43.8617C72.5008 43.8617 71.2734 42.6344 71.2734 41.1203C71.2734 39.6063 72.5008 38.3789 74.0148 38.3789Z" fill="#3F7EF3"/>
<path d="M93.2093 38.3789H87.7266V43.8617H93.2093V38.3789Z" fill="#3F7EF3"/>
<path d="M5.48276 46.6027C5.48276 47.2416 5.48276 49.3441 5.48276 49.3441C5.48276 49.3441 3.61649 49.3441 2.74138 49.344C2.05796 49.3441 0 49.344 0 49.344C0 49.344 0 47.4333 0 46.6026C6.57931e-05 45.0887 1.22736 43.8613 2.74131 43.8613C4.25532 43.8613 5.48276 45.0887 5.48276 46.6027Z" fill="#3F7EF3"/>
<path d="M19.1867 43.8613C19.8257 43.8613 21.9281 43.8613 21.9281 43.8613C21.9281 43.8613 21.9281 45.7275 21.9281 46.6027C21.9281 47.2859 21.9281 49.3441 21.9281 49.3441C21.9281 49.3441 20.0177 49.3441 19.1867 49.3441C17.6721 49.3441 16.4453 48.1162 16.4453 46.6027C16.4453 45.0891 17.6721 43.8613 19.1867 43.8613Z" fill="#3F7EF3"/>
<path d="M27.4124 43.8613H21.9297V49.3441H27.4124V43.8613Z" fill="#3F7EF3"/>
<path d="M32.8968 43.8613H27.4141V49.3441H32.8968V43.8613Z" fill="#3F7EF3"/>
<path d="M38.3812 43.8613H32.8984V49.3441H38.3812V43.8613Z" fill="#3F7EF3"/>
<path d="M43.8656 43.8613H38.3828V49.3441H43.8656V43.8613Z" fill="#3F7EF3"/>
<path d="M46.6008 49.3441C45.9618 49.3441 43.8594 49.3441 43.8594 49.3441C43.8594 49.3441 43.8594 47.4777 43.8594 46.6027C43.8594 45.9193 43.8594 43.8613 43.8594 43.8613C43.8594 43.8613 45.7702 43.8613 46.6008 43.8613C48.1147 43.8613 49.3421 45.0887 49.3421 46.6027C49.3421 48.1167 48.1147 49.3441 46.6008 49.3441Z" fill="#3F7EF3"/>
<path d="M93.2093 43.8613H87.7266V49.3441H93.2093V43.8613Z" fill="#3F7EF3"/>
<path d="M93.2031 43.8613V49.3441H98.6859C98.6859 46.316 96.2312 43.8613 93.2031 43.8613Z" fill="#3F7EF3"/>
<path d="M115.139 46.6027C115.139 47.2416 115.139 49.3441 115.139 49.3441C115.139 49.3441 113.273 49.3441 112.398 49.344C111.714 49.3441 109.656 49.344 109.656 49.344C109.656 49.344 109.656 47.4333 109.656 46.6026C109.656 45.0887 110.884 43.8613 112.398 43.8613C113.912 43.8613 115.139 45.0887 115.139 46.6027Z" fill="#3F7EF3"/>
<path d="M120.617 49.3441H126.1V43.8613C123.072 43.8613 120.617 46.316 120.617 49.3441Z" fill="#3F7EF3"/>
<path d="M131.584 43.8613H126.102V49.3441H131.584V43.8613Z" fill="#3F7EF3"/>
<path d="M134.327 49.3441C133.688 49.3441 131.586 49.3441 131.586 49.3441C131.586 49.3441 131.586 47.4777 131.586 46.6027C131.586 45.9193 131.586 43.8613 131.586 43.8613C131.586 43.8613 133.497 43.8613 134.327 43.8613C135.841 43.8613 137.069 45.0887 137.069 46.6027C137.069 48.1167 135.841 49.3441 134.327 49.3441Z" fill="#3F7EF3"/>
<path d="M5.48276 49.3457H0V54.8285H5.48276V49.3457Z" fill="#3F7EF3"/>
<path d="M8.22575 54.8285C7.58678 54.8285 5.48438 54.8285 5.48438 54.8285C5.48438 54.8285 5.48438 52.9621 5.48438 52.0871C5.48438 51.4037 5.48438 49.3457 5.48438 49.3457C5.48438 49.3457 7.39524 49.3457 8.22575 49.3457C9.7397 49.3457 10.9671 50.5731 10.9671 52.0871C10.9671 53.601 9.7397 54.8285 8.22575 54.8285Z" fill="#3F7EF3"/>
<path d="M38.3828 52.0871C38.3828 51.4481 38.3828 49.3457 38.3828 49.3457C38.3828 49.3457 40.2492 49.3457 41.1242 49.3457C41.8076 49.3457 43.8656 49.3457 43.8656 49.3457C43.8656 49.3457 43.8656 51.2566 43.8656 52.0871C43.8656 53.601 42.6381 54.8285 41.1242 54.8285C39.6102 54.8285 38.3828 53.601 38.3828 52.0871Z" fill="#3F7EF3"/>
<path d="M54.8265 52.0871C54.8265 52.726 54.8265 54.8285 54.8265 54.8285C54.8265 54.8285 52.9602 54.8285 52.0851 54.8283C51.4017 54.8285 49.3438 54.8283 49.3438 54.8283C49.3438 54.8283 49.3438 52.9177 49.3438 52.087C49.3438 50.5731 50.5711 49.3457 52.0851 49.3457C53.5991 49.3457 54.8265 50.5731 54.8265 52.0871Z" fill="#3F7EF3"/>
<path d="M63.0539 49.3457C64.568 49.3457 65.7953 50.5731 65.7953 52.0871C65.7953 53.6012 64.568 54.8285 63.0539 54.8285C61.5399 54.8285 60.3125 53.6012 60.3125 52.0871C60.3125 50.5731 61.5399 49.3457 63.0539 49.3457Z" fill="#3F7EF3"/>
<path d="M71.2734 54.8285H76.7562V49.3457C73.7282 49.3457 71.2734 51.8004 71.2734 54.8285Z" fill="#3F7EF3"/>
<path d="M82.2406 49.3457H76.7578V54.8285H82.2406V49.3457Z" fill="#3F7EF3"/>
<path d="M87.7249 49.3457H82.2422V54.8285H87.7249V49.3457Z" fill="#3F7EF3"/>
<path d="M93.2093 49.3457H87.7266V54.8285H93.2093V49.3457Z" fill="#3F7EF3"/>
<path d="M98.6859 49.3457H93.2031V54.8285C96.2312 54.8285 98.6859 52.3737 98.6859 49.3457Z" fill="#3F7EF3"/>
<path d="M104.172 54.8285H109.655V49.3457C106.627 49.3457 104.172 51.8004 104.172 54.8285Z" fill="#3F7EF3"/>
<path d="M115.139 49.3457H109.656V54.8285H115.139V49.3457Z" fill="#3F7EF3"/>
<path d="M120.623 49.3457H115.141V54.8285H120.623V49.3457Z" fill="#3F7EF3"/>
<path d="M126.1 49.3457H120.617V54.8285H126.1V49.3457Z" fill="#3F7EF3"/>
<path d="M131.584 49.3457H126.102V54.8285C129.13 54.8285 131.584 52.3737 131.584 49.3457Z" fill="#3F7EF3"/>
<path d="M0 57.5695C0 56.9305 0 54.8281 0 54.8281C0 54.8281 1.86634 54.8281 2.74138 54.8281C3.42479 54.8281 5.48276 54.8281 5.48276 54.8281C5.48276 54.8281 5.48276 56.739 5.48276 57.5695C5.48276 59.0834 4.25532 60.3109 2.74138 60.3109C1.22736 60.3109 0 59.0834 0 57.5695Z" fill="#3F7EF3"/>
<path d="M19.1867 54.8281C20.7008 54.8281 21.9281 56.0555 21.9281 57.5695C21.9281 59.0836 20.7008 60.3109 19.1867 60.3109C17.6727 60.3109 16.4453 59.0836 16.4453 57.5695C16.4453 56.0555 17.6727 54.8281 19.1867 54.8281Z" fill="#3F7EF3"/>
<path d="M35.6398 54.8281C37.1539 54.8281 38.3812 56.0555 38.3812 57.5695C38.3812 59.0836 37.1539 60.3109 35.6398 60.3109C34.1258 60.3109 32.8984 59.0836 32.8984 57.5695C32.8984 56.0555 34.1258 54.8281 35.6398 54.8281Z" fill="#3F7EF3"/>
<path d="M54.8265 54.8281H49.3438V60.3109H54.8265V54.8281Z" fill="#3F7EF3"/>
<path d="M71.2734 57.5695C71.2734 56.9305 71.2734 54.8281 71.2734 54.8281C71.2734 54.8281 73.1398 54.8281 74.0148 54.8281C74.6982 54.8281 76.7562 54.8281 76.7562 54.8281C76.7562 54.8281 76.7562 56.739 76.7562 57.5695C76.7562 59.0834 75.5288 60.3109 74.0148 60.3109C72.5008 60.3109 71.2734 59.0834 71.2734 57.5695Z" fill="#3F7EF3"/>
<path d="M82.2422 57.5695C82.2422 56.9305 82.2422 54.8281 82.2422 54.8281C82.2422 54.8281 84.1085 54.8281 84.9836 54.8281C85.667 54.8281 87.7249 54.8281 87.7249 54.8281C87.7249 54.8281 87.7249 56.739 87.7249 57.5695C87.7249 59.0834 86.4975 60.3109 84.9836 60.3109C83.4695 60.3109 82.2422 59.0834 82.2422 57.5695Z" fill="#3F7EF3"/>
<path d="M101.429 54.8281C102.068 54.8281 104.17 54.8281 104.17 54.8281C104.17 54.8281 104.17 56.6943 104.17 57.5695C104.17 58.2527 104.17 60.3109 104.17 60.3109C104.17 60.3109 102.26 60.3109 101.429 60.3109C99.9143 60.3109 98.6875 59.083 98.6875 57.5695C98.6875 56.0559 99.9143 54.8281 101.429 54.8281Z" fill="#3F7EF3"/>
<path d="M109.655 54.8281H104.172V60.3109H109.655V54.8281Z" fill="#3F7EF3"/>
<path d="M120.623 54.8281H115.141V60.3109H120.623V54.8281Z" fill="#3F7EF3"/>
<path d="M137.069 57.5695C137.069 58.2084 137.069 60.3109 137.069 60.3109C137.069 60.3109 135.202 60.3109 134.327 60.3108C133.644 60.3109 131.586 60.3108 131.586 60.3108C131.586 60.3108 131.586 58.4001 131.586 57.5694C131.586 56.0555 132.813 54.8281 134.327 54.8281C135.841 54.8281 137.069 56.0555 137.069 57.5695Z" fill="#3F7EF3"/>
<path d="M8.22575 60.3105C9.73984 60.3105 10.9671 61.5379 10.9671 63.0519C10.9671 64.566 9.73984 65.7933 8.22575 65.7933C6.71175 65.7933 5.48438 64.566 5.48438 63.0519C5.48438 61.5379 6.71175 60.3105 8.22575 60.3105Z" fill="#3F7EF3"/>
<path d="M41.1242 60.3105C42.6383 60.3105 43.8656 61.5379 43.8656 63.0519C43.8656 64.566 42.6383 65.7933 41.1242 65.7933C39.6102 65.7933 38.3828 64.566 38.3828 63.0519C38.3828 61.5379 39.6102 60.3105 41.1242 60.3105Z" fill="#3F7EF3"/>
<path d="M54.8265 60.3105H49.3438V65.7933H54.8265V60.3105Z" fill="#3F7EF3"/>
<path d="M60.3109 60.3105H54.8281V65.7933H60.3109V60.3105Z" fill="#3F7EF3"/>
<path d="M65.7953 60.3105H60.3125V65.7933H65.7953V60.3105Z" fill="#3F7EF3"/>
<path d="M68.5383 65.7933C67.8993 65.7933 65.7969 65.7933 65.7969 65.7933C65.7969 65.7933 65.7969 63.9269 65.7969 63.0519C65.7969 62.3685 65.7969 60.3105 65.7969 60.3105C65.7969 60.3105 67.7077 60.3105 68.5383 60.3105C70.0522 60.3105 71.2796 61.5379 71.2796 63.0519C71.2796 64.5659 70.0522 65.7933 68.5383 65.7933Z" fill="#3F7EF3"/>
<path d="M104.172 63.0519C104.172 62.413 104.172 60.3105 104.172 60.3105C104.172 60.3105 106.038 60.3105 106.913 60.3105C107.597 60.3105 109.655 60.3105 109.655 60.3105C109.655 60.3105 109.655 62.2214 109.655 63.0519C109.655 64.5659 108.427 65.7933 106.913 65.7933C105.399 65.7933 104.172 64.5659 104.172 63.0519Z" fill="#3F7EF3"/>
<path d="M120.623 65.7933V60.3105H115.141C115.141 63.3386 117.595 65.7933 120.623 65.7933Z" fill="#3F7EF3"/>
<path d="M126.1 60.3105H120.617V65.7933H126.1V60.3105Z" fill="#3F7EF3"/>
<path d="M131.584 60.3105H126.102V65.7933H131.584V60.3105Z" fill="#3F7EF3"/>
<path d="M137.069 60.3105H131.586V65.7933H137.069V60.3105Z" fill="#3F7EF3"/>
<path d="M5.48276 68.5343C5.48276 69.1733 5.48276 71.2757 5.48276 71.2757C5.48276 71.2757 3.61649 71.2757 2.74138 71.2756C2.05796 71.2757 0 71.2756 0 71.2756C0 71.2756 0 69.365 0 68.5343C6.57931e-05 67.0203 1.22736 65.793 2.74131 65.793C4.25532 65.793 5.48276 67.0203 5.48276 68.5343Z" fill="#3F7EF3"/>
<path d="M16.4515 68.5343C16.4515 69.1733 16.4515 71.2757 16.4515 71.2757C16.4515 71.2757 14.5852 71.2757 13.7101 71.2756C13.0267 71.2757 10.9688 71.2756 10.9688 71.2756C10.9688 71.2756 10.9688 69.365 10.9688 68.5343C10.9688 67.0203 12.1961 65.793 13.7101 65.793C15.2241 65.793 16.4515 67.0203 16.4515 68.5343Z" fill="#3F7EF3"/>
<path d="M35.6398 65.793C37.1539 65.793 38.3812 67.0203 38.3812 68.5343C38.3812 70.0484 37.1539 71.2757 35.6398 71.2757C34.1258 71.2757 32.8984 70.0484 32.8984 68.5343C32.8984 67.0203 34.1258 65.793 35.6398 65.793Z" fill="#3F7EF3"/>
<path d="M54.8265 65.793H49.3438V71.2757H54.8265V65.793Z" fill="#3F7EF3"/>
<path d="M60.3109 65.793H54.8281V71.2757H60.3109V65.793Z" fill="#3F7EF3"/>
<path d="M65.7953 65.793H60.3125V71.2757C63.3405 71.2757 65.7953 68.821 65.7953 65.793Z" fill="#3F7EF3"/>
<path d="M101.429 65.793C102.943 65.793 104.17 67.0203 104.17 68.5343C104.17 70.0484 102.943 71.2757 101.429 71.2757C99.9149 71.2757 98.6875 70.0484 98.6875 68.5343C98.6875 67.0203 99.9149 65.793 101.429 65.793Z" fill="#3F7EF3"/>
<path d="M131.586 68.5343C131.586 67.8954 131.586 65.793 131.586 65.793C131.586 65.793 133.452 65.793 134.327 65.793C135.011 65.793 137.069 65.793 137.069 65.793C137.069 65.793 137.069 67.7038 137.069 68.5343C137.069 70.0483 135.841 71.2757 134.327 71.2757C132.813 71.2757 131.586 70.0483 131.586 68.5343Z" fill="#3F7EF3"/>
<path d="M5.48276 71.2754H0V76.7581H5.48276V71.2754Z" fill="#3F7EF3"/>
<path d="M16.4515 71.2754H10.9688V76.7581H16.4515V71.2754Z" fill="#3F7EF3"/>
<path d="M32.8968 74.0168C32.8968 74.6557 32.8968 76.7581 32.8968 76.7581C32.8968 76.7581 31.0306 76.7581 30.1554 76.758C29.472 76.7581 27.4141 76.758 27.4141 76.758C27.4141 76.758 27.4141 74.8474 27.4141 74.0167C27.4141 72.5028 28.6414 71.2754 30.1554 71.2754C31.6694 71.2754 32.8968 72.5028 32.8968 74.0168Z" fill="#3F7EF3"/>
<path d="M54.8265 71.2754H49.3438V76.7581H54.8265V71.2754Z" fill="#3F7EF3"/>
<path d="M60.3109 71.2754H54.8281V76.7581H60.3109V71.2754Z" fill="#3F7EF3"/>
<path d="M68.5383 71.2754C69.1772 71.2754 71.2796 71.2754 71.2796 71.2754C71.2796 71.2754 71.2796 73.1415 71.2796 74.0168C71.2796 74.7 71.2796 76.7581 71.2796 76.7581C71.2796 76.7581 69.3692 76.7581 68.5383 76.7581C67.0237 76.7581 65.7969 75.5302 65.7969 74.0168C65.7969 72.5031 67.0237 71.2754 68.5383 71.2754Z" fill="#3F7EF3"/>
<path d="M74.0148 76.7581C73.3758 76.7581 71.2734 76.7581 71.2734 76.7581C71.2734 76.7581 71.2734 74.8917 71.2734 74.0168C71.2734 73.3334 71.2734 71.2754 71.2734 71.2754C71.2734 71.2754 73.1843 71.2754 74.0148 71.2754C75.5288 71.2754 76.7562 72.5027 76.7562 74.0168C76.7562 75.5307 75.5288 76.7581 74.0148 76.7581Z" fill="#3F7EF3"/>
<path d="M82.2422 76.7581H87.7249V71.2754C84.6969 71.2754 82.2422 73.7301 82.2422 76.7581Z" fill="#3F7EF3"/>
<path d="M93.2093 71.2754H87.7266V76.7581H93.2093V71.2754Z" fill="#3F7EF3"/>
<path d="M93.2031 71.2754V76.7581H98.6859C98.6859 73.7301 96.2312 71.2754 93.2031 71.2754Z" fill="#3F7EF3"/>
<path d="M115.139 74.0168C115.139 74.6557 115.139 76.7581 115.139 76.7581C115.139 76.7581 113.273 76.7581 112.398 76.758C111.714 76.7581 109.656 76.758 109.656 76.758C109.656 76.758 109.656 74.8474 109.656 74.0167C109.656 72.5028 110.884 71.2754 112.398 71.2754C113.912 71.2754 115.139 72.5028 115.139 74.0168Z" fill="#3F7EF3"/>
<path d="M131.584 74.0168C131.584 74.6557 131.584 76.7581 131.584 76.7581C131.584 76.7581 129.718 76.7581 128.843 76.758C128.16 76.7581 126.102 76.758 126.102 76.758C126.102 76.758 126.102 74.8474 126.102 74.0167C126.102 72.5028 127.329 71.2754 128.843 71.2754C130.357 71.2754 131.584 72.5028 131.584 74.0168Z" fill="#3F7EF3"/>
<path d="M5.48276 76.7578H0V82.2406H5.48276V76.7578Z" fill="#3F7EF3"/>
<path d="M10.9671 76.7578H5.48438V82.2406H10.9671V76.7578Z" fill="#3F7EF3"/>
<path d="M16.4515 76.7578H10.9688V82.2406H16.4515V76.7578Z" fill="#3F7EF3"/>
<path d="M21.9297 82.2406H27.4124V76.7578C24.3844 76.7578 21.9297 79.2125 21.9297 82.2406Z" fill="#3F7EF3"/>
<path d="M32.8968 76.7578H27.4141V82.2406H32.8968V76.7578Z" fill="#3F7EF3"/>
<path d="M38.3812 76.7578H32.8984V82.2406H38.3812V76.7578Z" fill="#3F7EF3"/>
<path d="M41.1242 82.2406C40.4852 82.2406 38.3828 82.2406 38.3828 82.2406C38.3828 82.2406 38.3828 80.3742 38.3828 79.4992C38.3828 78.8158 38.3828 76.7578 38.3828 76.7578C38.3828 76.7578 40.2937 76.7578 41.1242 76.7578C42.6381 76.7578 43.8656 77.9852 43.8656 79.4992C43.8656 81.0131 42.6381 82.2406 41.1242 82.2406Z" fill="#3F7EF3"/>
<path d="M54.8265 82.2406V76.7578H49.3438C49.3438 79.7859 51.7984 82.2406 54.8265 82.2406Z" fill="#3F7EF3"/>
<path d="M60.3109 76.7578H54.8281V82.2406H60.3109V76.7578Z" fill="#3F7EF3"/>
<path d="M87.7249 76.7578H82.2422V82.2406H87.7249V76.7578Z" fill="#3F7EF3"/>
<path d="M98.6859 76.7578H93.2031V82.2406H98.6859V76.7578Z" fill="#3F7EF3"/>
<path d="M101.429 82.2406C100.79 82.2406 98.6875 82.2406 98.6875 82.2406C98.6875 82.2406 98.6875 80.3742 98.6875 79.4992C98.6875 78.8158 98.6875 76.7578 98.6875 76.7578C98.6875 76.7578 100.598 76.7578 101.429 76.7578C102.943 76.7578 104.17 77.9852 104.17 79.4992C104.17 81.0131 102.943 82.2406 101.429 82.2406Z" fill="#3F7EF3"/>
<path d="M115.139 82.2406V76.7578H109.656C109.656 79.7859 112.111 82.2406 115.139 82.2406Z" fill="#3F7EF3"/>
<path d="M120.623 76.7578H115.141V82.2406H120.623V76.7578Z" fill="#3F7EF3"/>
<path d="M126.1 76.7578H120.617V82.2406H126.1V76.7578Z" fill="#3F7EF3"/>
<path d="M131.584 76.7578H126.102V82.2406H131.584V76.7578Z" fill="#3F7EF3"/>
<path d="M131.586 76.7578V82.2406H137.069C137.069 79.2125 134.614 76.7578 131.586 76.7578Z" fill="#3F7EF3"/>
<path d="M5.48276 82.2422H0V87.7249H5.48276V82.2422Z" fill="#3F7EF3"/>
<path d="M10.9688 84.9836C10.9688 84.3446 10.9688 82.2422 10.9688 82.2422C10.9688 82.2422 12.8351 82.2422 13.7101 82.2422C14.3935 82.2422 16.4515 82.2422 16.4515 82.2422C16.4515 82.2422 16.4515 84.153 16.4515 84.9836C16.4515 86.4975 15.2241 87.7249 13.7101 87.7249C12.1961 87.7249 10.9688 86.4975 10.9688 84.9836Z" fill="#3F7EF3"/>
<path d="M21.9297 84.9836C21.9297 84.3446 21.9297 82.2422 21.9297 82.2422C21.9297 82.2422 23.796 82.2422 24.6711 82.2422C25.3545 82.2422 27.4124 82.2422 27.4124 82.2422C27.4124 82.2422 27.4124 84.153 27.4124 84.9836C27.4124 86.4975 26.185 87.7249 24.6711 87.7249C23.157 87.7249 21.9297 86.4975 21.9297 84.9836Z" fill="#3F7EF3"/>
<path d="M49.3421 84.9836C49.3421 85.6225 49.3421 87.7249 49.3421 87.7249C49.3421 87.7249 47.4759 87.7249 46.6008 87.7248C45.9173 87.7249 43.8594 87.7248 43.8594 87.7248C43.8594 87.7248 43.8594 85.8142 43.8594 84.9835C43.8594 83.4696 45.0867 82.2422 46.6007 82.2422C48.1147 82.2422 49.3421 83.4696 49.3421 84.9836Z" fill="#3F7EF3"/>
<path d="M54.8281 84.9836C54.8281 84.3446 54.8281 82.2422 54.8281 82.2422C54.8281 82.2422 56.6945 82.2422 57.5695 82.2422C58.2529 82.2422 60.3109 82.2422 60.3109 82.2422C60.3109 82.2422 60.3109 84.153 60.3109 84.9836C60.3109 86.4975 59.0834 87.7249 57.5695 87.7249C56.0555 87.7249 54.8281 86.4975 54.8281 84.9836Z" fill="#3F7EF3"/>
<path d="M71.2796 84.9836C71.2796 85.6225 71.2796 87.7249 71.2796 87.7249C71.2796 87.7249 69.4134 87.7249 68.5383 87.7248C67.8548 87.7249 65.7969 87.7248 65.7969 87.7248C65.7969 87.7248 65.7969 85.8142 65.7969 84.9835C65.7969 83.4696 67.0242 82.2422 68.5382 82.2422C70.0522 82.2422 71.2796 83.4696 71.2796 84.9836Z" fill="#3F7EF3"/>
<path d="M79.4992 82.2422C80.1382 82.2422 82.2406 82.2422 82.2406 82.2422C82.2406 82.2422 82.2406 84.1083 82.2406 84.9836C82.2406 85.6668 82.2406 87.7249 82.2406 87.7249C82.2406 87.7249 80.3302 87.7249 79.4992 87.7249C77.9846 87.7249 76.7578 86.497 76.7578 84.9836C76.7578 83.4699 77.9846 82.2422 79.4992 82.2422Z" fill="#3F7EF3"/>
<path d="M87.7249 82.2422H82.2422V87.7249H87.7249V82.2422Z" fill="#3F7EF3"/>
<path d="M93.2093 82.2422H87.7266V87.7249H93.2093V82.2422Z" fill="#3F7EF3"/>
<path d="M98.6859 82.2422H93.2031V87.7249H98.6859V82.2422Z" fill="#3F7EF3"/>
<path d="M120.623 87.7249V82.2422H115.141C115.141 85.2702 117.595 87.7249 120.623 87.7249Z" fill="#3F7EF3"/>
<path d="M126.1 82.2422H120.617V87.7249H126.1V82.2422Z" fill="#3F7EF3"/>
<path d="M131.586 84.9836C131.586 84.3446 131.586 82.2422 131.586 82.2422C131.586 82.2422 133.452 82.2422 134.327 82.2422C135.011 82.2422 137.069 82.2422 137.069 82.2422C137.069 82.2422 137.069 84.153 137.069 84.9836C137.069 86.4975 135.841 87.7249 134.327 87.7249C132.813 87.7249 131.586 86.4975 131.586 84.9836Z" fill="#3F7EF3"/>
<path d="M0 90.466C0 89.827 0 87.7246 0 87.7246C0 87.7246 1.86634 87.7246 2.74138 87.7246C3.42479 87.7246 5.48276 87.7246 5.48276 87.7246C5.48276 87.7246 5.48276 89.6355 5.48276 90.466C5.48276 91.9799 4.25532 93.2074 2.74138 93.2074C1.22736 93.2074 0 91.9799 0 90.466Z" fill="#3F7EF3"/>
<path d="M19.1867 87.7246C20.7008 87.7246 21.9281 88.952 21.9281 90.466C21.9281 91.9801 20.7008 93.2074 19.1867 93.2074C17.6727 93.2074 16.4453 91.9801 16.4453 90.466C16.4453 88.952 17.6727 87.7246 19.1867 87.7246Z" fill="#3F7EF3"/>
<path d="M35.6398 87.7246C36.2788 87.7246 38.3812 87.7246 38.3812 87.7246C38.3812 87.7246 38.3812 89.5907 38.3812 90.466C38.3812 91.1492 38.3812 93.2074 38.3812 93.2074C38.3812 93.2074 36.4708 93.2074 35.6398 93.2074C34.1253 93.2074 32.8984 91.9795 32.8984 90.466C32.8984 88.9523 34.1253 87.7246 35.6398 87.7246Z" fill="#3F7EF3"/>
<path d="M43.8656 87.7246H38.3828V93.2074H43.8656V87.7246Z" fill="#3F7EF3"/>
<path d="M49.3421 87.7246H43.8594V93.2074H49.3421V87.7246Z" fill="#3F7EF3"/>
<path d="M52.0851 93.2074C51.4462 93.2074 49.3438 93.2074 49.3438 93.2074C49.3438 93.2074 49.3438 91.341 49.3438 90.466C49.3438 89.7826 49.3438 87.7246 49.3438 87.7246C49.3438 87.7246 51.2546 87.7246 52.0851 87.7246C53.5991 87.7246 54.8265 88.952 54.8265 90.466C54.8265 91.9799 53.5991 93.2074 52.0851 93.2074Z" fill="#3F7EF3"/>
<path d="M60.3125 93.2074H65.7953V87.7246C62.7673 87.7246 60.3125 90.1793 60.3125 93.2074Z" fill="#3F7EF3"/>
<path d="M71.2796 87.7246H65.7969V93.2074H71.2796V87.7246Z" fill="#3F7EF3"/>
<path d="M74.0148 93.2074C73.3758 93.2074 71.2734 93.2074 71.2734 93.2074C71.2734 93.2074 71.2734 91.341 71.2734 90.466C71.2734 89.7826 71.2734 87.7246 71.2734 87.7246C71.2734 87.7246 73.1843 87.7246 74.0148 87.7246C75.5288 87.7246 76.7562 88.952 76.7562 90.466C76.7562 91.9799 75.5288 93.2074 74.0148 93.2074Z" fill="#3F7EF3"/>
<path d="M93.2093 87.7246H87.7266V93.2074H93.2093V87.7246Z" fill="#3F7EF3"/>
<path d="M98.6859 87.7246H93.2031V93.2074H98.6859V87.7246Z" fill="#3F7EF3"/>
<path d="M104.17 87.7246H98.6875V93.2074H104.17V87.7246Z" fill="#3F7EF3"/>
<path d="M109.655 87.7246H104.172V93.2074H109.655V87.7246Z" fill="#3F7EF3"/>
<path d="M109.656 87.7246V93.2074H115.139C115.139 90.1793 112.684 87.7246 109.656 87.7246Z" fill="#3F7EF3"/>
<path d="M126.1 87.7246H120.617V93.2074H126.1V87.7246Z" fill="#3F7EF3"/>
<path d="M126.102 87.7246V93.2074H131.584C131.584 90.1793 129.13 87.7246 126.102 87.7246Z" fill="#3F7EF3"/>
<path d="M49.3421 93.207H43.8594V98.6898H49.3421V93.207Z" fill="#3F7EF3"/>
<path d="M60.3125 95.9484C60.3125 95.3094 60.3125 93.207 60.3125 93.207C60.3125 93.207 62.1788 93.207 63.0539 93.207C63.7373 93.207 65.7953 93.207 65.7953 93.207C65.7953 93.207 65.7953 95.1179 65.7953 95.9484C65.7953 97.4624 64.5678 98.6898 63.0539 98.6898C61.5399 98.6898 60.3125 97.4624 60.3125 95.9484Z" fill="#3F7EF3"/>
<path d="M79.4992 93.207C81.0133 93.207 82.2406 94.4344 82.2406 95.9484C82.2406 97.4625 81.0133 98.6898 79.4992 98.6898C77.9852 98.6898 76.7578 97.4625 76.7578 95.9484C76.7578 94.4344 77.9852 93.207 79.4992 93.207Z" fill="#3F7EF3"/>
<path d="M93.2093 93.207H87.7266V98.6898H93.2093V93.207Z" fill="#3F7EF3"/>
<path d="M115.139 93.207H109.656V98.6898H115.139V93.207Z" fill="#3F7EF3"/>
<path d="M126.1 98.6898V93.207H120.617C120.617 96.2351 123.072 98.6898 126.1 98.6898Z" fill="#3F7EF3"/>
<path d="M131.584 93.207H126.102V98.6898C129.13 98.6898 131.584 96.2351 131.584 93.207Z" fill="#3F7EF3"/>
<path d="M49.3421 98.6895H43.8594V104.172H49.3421V98.6895Z" fill="#3F7EF3"/>
<path d="M49.3438 98.6895V104.172H54.8265C54.8265 101.144 52.3718 98.6895 49.3438 98.6895Z" fill="#3F7EF3"/>
<path d="M68.5383 98.6895C69.1772 98.6895 71.2796 98.6895 71.2796 98.6895C71.2796 98.6895 71.2796 100.556 71.2796 101.431C71.2796 102.114 71.2796 104.172 71.2796 104.172C71.2796 104.172 69.3692 104.172 68.5383 104.172C67.0237 104.172 65.7969 102.944 65.7969 101.431C65.7969 99.9172 67.0237 98.6895 68.5383 98.6895Z" fill="#3F7EF3"/>
<path d="M71.2734 98.6895V104.172H76.7562C76.7562 101.144 74.3015 98.6895 71.2734 98.6895Z" fill="#3F7EF3"/>
<path d="M93.2093 98.6895H87.7266V104.172H93.2093V98.6895Z" fill="#3F7EF3"/>
<path d="M101.429 98.6895C102.943 98.6895 104.17 99.9168 104.17 101.431C104.17 102.945 102.943 104.172 101.429 104.172C99.9149 104.172 98.6875 102.945 98.6875 101.431C98.6875 99.9168 99.9149 98.6895 101.429 98.6895Z" fill="#3F7EF3"/>
<path d="M115.139 98.6895H109.656V104.172H115.139V98.6895Z" fill="#3F7EF3"/>
<path d="M134.327 98.6895C135.841 98.6895 137.069 99.9168 137.069 101.431C137.069 102.945 135.841 104.172 134.327 104.172C132.813 104.172 131.586 102.945 131.586 101.431C131.586 99.9168 132.813 98.6895 134.327 98.6895Z" fill="#3F7EF3"/>
<path d="M49.3421 104.172H43.8594V109.655H49.3421V104.172Z" fill="#3F7EF3"/>
<path d="M54.8265 104.172H49.3438V109.655H54.8265V104.172Z" fill="#3F7EF3"/>
<path d="M65.7953 106.913C65.7953 107.552 65.7953 109.655 65.7953 109.655C65.7953 109.655 63.929 109.655 63.0539 109.655C62.3705 109.655 60.3125 109.655 60.3125 109.655C60.3125 109.655 60.3125 107.744 60.3125 106.913C60.3126 105.399 61.5399 104.172 63.0538 104.172C64.5678 104.172 65.7953 105.399 65.7953 106.913Z" fill="#3F7EF3"/>
<path d="M76.7562 104.172H71.2734V109.655H76.7562V104.172Z" fill="#3F7EF3"/>
<path d="M82.2422 109.655H87.7249V104.172C84.6969 104.172 82.2422 106.627 82.2422 109.655Z" fill="#3F7EF3"/>
<path d="M93.2093 104.172H87.7266V109.655H93.2093V104.172Z" fill="#3F7EF3"/>
<path d="M115.139 104.172H109.656V109.655H115.139V104.172Z" fill="#3F7EF3"/>
<path d="M49.3421 109.654H43.8594V115.137H49.3421V109.654Z" fill="#3F7EF3"/>
<path d="M54.8265 109.654H49.3438V115.137C52.3718 115.137 54.8265 112.682 54.8265 109.654Z" fill="#3F7EF3"/>
<path d="M60.3125 112.396C60.3125 111.757 60.3125 109.654 60.3125 109.654C60.3125 109.654 62.1788 109.654 63.0539 109.654C63.7373 109.654 65.7953 109.654 65.7953 109.654C65.7953 109.654 65.7953 111.565 65.7953 112.396C65.7953 113.91 64.5678 115.137 63.0539 115.137C61.5399 115.137 60.3125 113.91 60.3125 112.396Z" fill="#3F7EF3"/>
<path d="M76.7562 109.654H71.2734V115.137H76.7562V109.654Z" fill="#3F7EF3"/>
<path d="M87.7249 109.654H82.2422V115.137H87.7249V109.654Z" fill="#3F7EF3"/>
<path d="M93.2093 109.654H87.7266V115.137H93.2093V109.654Z" fill="#3F7EF3"/>
<path d="M98.6859 109.654H93.2031V115.137H98.6859V109.654Z" fill="#3F7EF3"/>
<path d="M104.17 109.654H98.6875V115.137H104.17V109.654Z" fill="#3F7EF3"/>
<path d="M109.655 109.654H104.172V115.137H109.655V109.654Z" fill="#3F7EF3"/>
<path d="M115.139 109.654H109.656V115.137C112.684 115.137 115.139 112.682 115.139 109.654Z" fill="#3F7EF3"/>
<path d="M126.102 115.137H131.584V109.654C128.556 109.654 126.102 112.109 126.102 115.137Z" fill="#3F7EF3"/>
<path d="M131.586 109.654V115.137H137.069C137.069 112.109 134.614 109.654 131.586 109.654Z" fill="#3F7EF3"/>
<path d="M43.8594 117.88C43.8594 117.241 43.8594 115.139 43.8594 115.139C43.8594 115.139 45.7257 115.139 46.6008 115.139C47.2842 115.139 49.3421 115.139 49.3421 115.139C49.3421 115.139 49.3421 117.05 49.3421 117.88C49.3421 119.394 48.1147 120.621 46.6008 120.621C45.0867 120.621 43.8594 119.394 43.8594 117.88Z" fill="#3F7EF3"/>
<path d="M68.5383 115.139C69.1772 115.139 71.2796 115.139 71.2796 115.139C71.2796 115.139 71.2796 117.005 71.2796 117.88C71.2796 118.563 71.2796 120.621 71.2796 120.621C71.2796 120.621 69.3692 120.621 68.5383 120.621C67.0237 120.621 65.7969 119.394 65.7969 117.88C65.7969 116.366 67.0237 115.139 68.5383 115.139Z" fill="#3F7EF3"/>
<path d="M76.7562 115.139H71.2734V120.621H76.7562V115.139Z" fill="#3F7EF3"/>
<path d="M82.2406 115.139H76.7578V120.621H82.2406V115.139Z" fill="#3F7EF3"/>
<path d="M87.7249 115.139H82.2422V120.621C85.2702 120.621 87.7249 118.167 87.7249 115.139Z" fill="#3F7EF3"/>
<path d="M98.6875 117.88C98.6875 117.241 98.6875 115.139 98.6875 115.139C98.6875 115.139 100.554 115.139 101.429 115.139C102.112 115.139 104.17 115.139 104.17 115.139C104.17 115.139 104.17 117.05 104.17 117.88C104.17 119.394 102.943 120.621 101.429 120.621C99.9149 120.621 98.6875 119.394 98.6875 117.88Z" fill="#3F7EF3"/>
<path d="M131.584 115.139H126.102V120.621H131.584V115.139Z" fill="#3F7EF3"/>
<path d="M137.069 115.139H131.586V120.621H137.069V115.139Z" fill="#3F7EF3"/>
<path d="M52.0851 120.621C53.5992 120.621 54.8265 121.848 54.8265 123.362C54.8265 124.877 53.5992 126.104 52.0851 126.104C50.5711 126.104 49.3438 124.877 49.3438 123.362C49.3438 121.848 50.5711 120.621 52.0851 120.621Z" fill="#3F7EF3"/>
<path d="M65.7953 123.362C65.7953 124.001 65.7953 126.104 65.7953 126.104C65.7953 126.104 63.929 126.104 63.0539 126.104C62.3705 126.104 60.3125 126.104 60.3125 126.104C60.3125 126.104 60.3125 124.193 60.3125 123.362C60.3126 121.848 61.5399 120.621 63.0538 120.621C64.5678 120.621 65.7953 121.848 65.7953 123.362Z" fill="#3F7EF3"/>
<path d="M76.7562 120.621H71.2734V126.104H76.7562V120.621Z" fill="#3F7EF3"/>
<path d="M90.4679 120.621C91.1069 120.621 93.2093 120.621 93.2093 120.621C93.2093 120.621 93.2093 122.487 93.2093 123.362C93.2093 124.046 93.2093 126.104 93.2093 126.104C93.2093 126.104 91.2989 126.104 90.4679 126.104C88.9534 126.104 87.7266 124.876 87.7266 123.362C87.7266 121.849 88.9534 120.621 90.4679 120.621Z" fill="#3F7EF3"/>
<path d="M95.9445 126.104C95.3055 126.104 93.2031 126.104 93.2031 126.104C93.2031 126.104 93.2031 124.237 93.2031 123.362C93.2031 122.679 93.2031 120.621 93.2031 120.621C93.2031 120.621 95.114 120.621 95.9445 120.621C97.4584 120.621 98.6859 121.848 98.6859 123.362C98.6859 124.876 97.4584 126.104 95.9445 126.104Z" fill="#3F7EF3"/>
<path d="M109.656 126.104H115.139V120.621C112.111 120.621 109.656 123.076 109.656 126.104Z" fill="#3F7EF3"/>
<path d="M120.623 120.621H115.141V126.104H120.623V120.621Z" fill="#3F7EF3"/>
<path d="M126.1 120.621H120.617V126.104H126.1V120.621Z" fill="#3F7EF3"/>
<path d="M131.584 120.621H126.102V126.104H131.584V120.621Z" fill="#3F7EF3"/>
<path d="M137.069 120.621H131.586V126.104H137.069V120.621Z" fill="#3F7EF3"/>
<path d="M65.7953 126.104H60.3125V131.586H65.7953V126.104Z" fill="#3F7EF3"/>
<path d="M71.2796 126.104H65.7969V131.586H71.2796V126.104Z" fill="#3F7EF3"/>
<path d="M76.7562 126.104H71.2734V131.586H76.7562V126.104Z" fill="#3F7EF3"/>
<path d="M106.913 126.104C107.552 126.104 109.655 126.104 109.655 126.104C109.655 126.104 109.655 127.97 109.655 128.845C109.655 129.528 109.655 131.586 109.655 131.586C109.655 131.586 107.744 131.586 106.913 131.586C105.399 131.586 104.172 130.358 104.172 128.845C104.172 127.331 105.399 126.104 106.913 126.104Z" fill="#3F7EF3"/>
<path d="M115.139 126.104H109.656V131.586C112.684 131.586 115.139 129.132 115.139 126.104Z" fill="#3F7EF3"/>
<path d="M126.1 131.586V126.104H120.617C120.617 129.132 123.072 131.586 126.1 131.586Z" fill="#3F7EF3"/>
<path d="M131.584 126.104H126.102V131.586H131.584V126.104Z" fill="#3F7EF3"/>
<path d="M137.069 126.104H131.586V131.586H137.069V126.104Z" fill="#3F7EF3"/>
<path d="M46.6008 131.586C47.2397 131.586 49.3421 131.586 49.3421 131.586C49.3421 131.586 49.3421 133.452 49.3421 134.327C49.3421 135.011 49.3421 137.069 49.3421 137.069C49.3421 137.069 47.4317 137.069 46.6008 137.069C45.0862 137.069 43.8594 135.841 43.8594 134.327C43.8594 132.814 45.0862 131.586 46.6008 131.586Z" fill="#3F7EF3"/>
<path d="M54.8265 131.586H49.3438V137.069H54.8265V131.586Z" fill="#3F7EF3"/>
<path d="M60.3109 131.586H54.8281V137.069H60.3109V131.586Z" fill="#3F7EF3"/>
<path d="M65.7953 131.586H60.3125V137.069H65.7953V131.586Z" fill="#3F7EF3"/>
<path d="M71.2796 131.586H65.7969V137.069H71.2796V131.586Z" fill="#3F7EF3"/>
<path d="M76.7562 131.586H71.2734V137.069C74.3015 137.069 76.7562 134.614 76.7562 131.586Z" fill="#3F7EF3"/>
<path d="M90.4679 131.586C91.1069 131.586 93.2093 131.586 93.2093 131.586C93.2093 131.586 93.2093 133.452 93.2093 134.327C93.2093 135.011 93.2093 137.069 93.2093 137.069C93.2093 137.069 91.2989 137.069 90.4679 137.069C88.9534 137.069 87.7266 135.841 87.7266 134.327C87.7266 132.814 88.9534 131.586 90.4679 131.586Z" fill="#3F7EF3"/>
<path d="M95.9445 137.069C95.3055 137.069 93.2031 137.069 93.2031 137.069C93.2031 137.069 93.2031 135.202 93.2031 134.327C93.2031 133.644 93.2031 131.586 93.2031 131.586C93.2031 131.586 95.114 131.586 95.9445 131.586C97.4584 131.586 98.6859 132.813 98.6859 134.327C98.6859 135.841 97.4584 137.069 95.9445 137.069Z" fill="#3F7EF3"/>
<path d="M117.882 131.586C119.396 131.586 120.623 132.813 120.623 134.327C120.623 135.841 119.396 137.069 117.882 137.069C116.368 137.069 115.141 135.841 115.141 134.327C115.141 132.813 116.368 131.586 117.882 131.586Z" fill="#3F7EF3"/>
<path d="M131.586 134.327C131.586 133.688 131.586 131.586 131.586 131.586C131.586 131.586 133.452 131.586 134.327 131.586C135.011 131.586 137.069 131.586 137.069 131.586C137.069 131.586 137.069 133.497 137.069 134.327C137.069 135.841 135.841 137.069 134.327 137.069C132.813 137.069 131.586 135.841 131.586 134.327Z" fill="#3F7EF3"/>
<path d="M25.2762 0.00390625H13.1031C7.17041 0.00390625 2.14425 3.92359 0.53731 9.28095C0.371128 9.83515 0.241406 10.4047 0.151214 10.9869C0.0518121 11.6294 0 12.2872 0 12.9569V25.4191C0 32.5649 5.87971 38.3759 13.1031 38.3759L19.1897 38.3771L25.2762 38.3755C32.4992 38.3755 38.3793 32.5645 38.3793 25.4187V12.9569C38.3793 5.81453 32.4996 0.00390625 25.2762 0.00390625ZM32.6224 25.4191C32.6224 29.389 29.3272 32.619 25.2747 32.619L19.1897 32.6202L13.1046 32.6186C9.05215 32.6186 5.7569 29.3886 5.7569 25.4191V12.9569C5.7569 11.7169 6.07852 10.5494 6.64461 9.52927C7.1896 8.54791 7.96064 7.70395 8.88903 7.06493C10.0826 6.24323 11.5361 5.7608 13.1027 5.7608H25.2762C29.3272 5.7608 32.6224 8.98889 32.6224 12.9569V25.4191Z" fill="#3F7EF3"/>
<path d="M123.964 0.00390625H111.791C105.858 0.00390625 100.832 3.92359 99.2248 9.28095C99.0586 9.83515 98.9289 10.4047 98.8387 10.9869C98.7393 11.6294 98.6875 12.2872 98.6875 12.9569V25.4191C98.6875 32.5649 104.567 38.3759 111.791 38.3759L117.877 38.3771L123.964 38.3755C131.187 38.3755 137.067 32.5645 137.067 25.4187V12.9569C137.067 5.81453 131.187 0.00390625 123.964 0.00390625ZM131.31 25.4191C131.31 29.389 128.015 32.619 123.962 32.619L117.877 32.6202L111.792 32.6186C107.74 32.6186 104.444 29.3886 104.444 25.4191V12.9569C104.444 11.7169 104.766 10.5494 105.332 9.52927C105.877 8.54791 106.648 7.70395 107.577 7.06493C108.77 6.24323 110.224 5.7608 111.79 5.7608H123.964C128.015 5.7608 131.31 8.98889 131.31 12.9569V25.4191Z" fill="#3F7EF3"/>
<path d="M25.2762 98.6934H13.1031C7.17041 98.6934 2.14425 102.613 0.53731 107.97C0.371128 108.525 0.241406 109.094 0.151214 109.676C0.0518121 110.319 0 110.977 0 111.646V124.109C0 131.254 5.87971 137.065 13.1031 137.065L19.1897 137.067L25.2762 137.065C32.4992 137.065 38.3793 131.254 38.3793 124.108V111.646C38.3793 104.504 32.4996 98.6934 25.2762 98.6934ZM32.6224 124.109C32.6224 128.078 29.3272 131.308 25.2747 131.308L19.1897 131.31L13.1046 131.308C9.05215 131.308 5.7569 128.078 5.7569 124.109V111.646C5.7569 110.406 6.07852 109.239 6.64461 108.219C7.1896 107.237 7.96064 106.393 8.88903 105.754C10.0826 104.933 11.5361 104.45 13.1027 104.45H25.2762C29.3272 104.45 32.6224 107.678 32.6224 111.646V124.109Z" fill="#3F7EF3"/>
<path d="M15.462 27.4131C12.98 27.4131 10.9609 25.4341 10.9609 23.0037V15.372C10.9609 14.6127 11.1583 13.8982 11.5039 13.273C11.8376 12.6714 12.31 12.1542 12.879 11.7641C13.6098 11.2611 14.5006 10.9648 15.4595 10.9648H22.9151C25.3948 10.9648 27.4138 12.9416 27.4138 15.3718V23.0035C27.4138 25.4337 25.395 27.413 22.9151 27.413H19.1874L15.462 27.4131Z" fill="#3F7EF3"/>
<path d="M114.157 27.4131C111.675 27.4131 109.656 25.4341 109.656 23.0037V15.372C109.656 14.6127 109.854 13.8982 110.199 13.273C110.533 12.6714 111.005 12.1542 111.574 11.7641C112.305 11.2611 113.196 10.9648 114.155 10.9648H121.61C124.09 10.9648 126.109 12.9416 126.109 15.3718V23.0035C126.109 25.4337 124.09 27.413 121.61 27.413H117.883L114.157 27.4131Z" fill="#3F7EF3"/>
<path d="M15.462 126.103C12.98 126.103 10.9609 124.124 10.9609 121.693V114.061C10.9609 113.302 11.1583 112.588 11.5039 111.962C11.8376 111.361 12.31 110.844 12.879 110.454C13.6098 109.951 14.5006 109.654 15.4595 109.654H22.9151C25.3948 109.654 27.4138 111.631 27.4138 114.061V121.693C27.4138 124.123 25.395 126.102 22.9151 126.102H19.1874L15.462 126.103Z" fill="#3F7EF3"/>
</svg>
