<svg width="48" height="48" viewBox="0 0 48 48" fill="none" xmlns="http://www.w3.org/2000/svg">
<path fill-rule="evenodd" clip-rule="evenodd" d="M24 0C10.7452 0 0 10.7452 0 24C0 37.2548 10.7452 48 24 48C37.2548 48 48 37.2548 48 24C48 10.7452 37.2548 0 24 0ZM31.4525 24.8963C31.4854 25.1538 32.2259 28.626 36.8716 30.8749C37.1437 31.0067 37.6066 31.2857 36.7918 31.7311C36.0897 32.1189 35.5165 32.2716 35.0326 32.4005C34.6329 32.507 34.2941 32.5972 33.9942 32.7904C33.6899 32.9864 33.6473 33.3051 33.6076 33.601C33.574 33.8523 33.5425 34.0873 33.3549 34.2168C33.1367 34.3673 32.7333 34.3827 32.1902 34.4035C31.4802 34.4307 30.5316 34.467 29.4458 34.8262C28.9148 35.0019 28.4487 35.2884 27.9556 35.5915C26.9803 36.1909 25.8997 36.8551 24.0037 36.8551C22.1152 36.8551 21.048 36.1991 20.0759 35.6016C19.5787 35.296 19.1063 35.0056 18.5616 34.8262C17.4738 34.467 16.5252 34.4307 15.8159 34.4035C15.2732 34.3827 14.8705 34.3673 14.6526 34.2168C14.4645 34.0872 14.4331 33.8521 14.3995 33.6006C14.3599 33.3048 14.3174 32.9863 14.0133 32.7904C13.7134 32.5972 13.3746 32.507 12.9748 32.4005C12.4908 32.2716 11.9174 32.1189 11.2156 31.7311C10.3993 31.2804 10.8623 31.0014 11.1344 30.8695C15.7793 28.6245 16.5205 25.1523 16.5534 24.8909C16.5547 24.8809 16.556 24.8709 16.5573 24.861C16.5958 24.5631 16.6267 24.3235 16.2944 24.0163C16.0687 23.8073 15.3155 23.3193 14.7281 22.9387C14.4518 22.7597 14.2122 22.6045 14.0815 22.5133C13.4039 22.0411 13.1081 21.5697 13.3273 20.9902C13.4806 20.5917 13.8523 20.4384 14.2471 20.4384C14.3711 20.4388 14.4947 20.4526 14.6158 20.4798C15.0536 20.5747 15.4839 20.7431 15.8486 20.8858C16.102 20.985 16.3238 21.0717 16.4944 21.1129C16.5445 21.1257 16.596 21.1327 16.6477 21.1336C16.87 21.1336 16.9482 21.0217 16.9329 20.7672C16.929 20.7017 16.9248 20.6313 16.9202 20.5562C16.8684 19.701 16.7807 18.2542 16.8984 16.8949C17.0724 14.8606 17.7277 13.8527 18.508 12.9613C18.882 12.5343 20.6273 10.6771 23.9999 10.6771C27.3724 10.6771 29.12 12.5343 29.4964 12.9666C30.2744 13.8581 30.9305 14.866 31.106 16.9003C31.2296 18.3273 31.1311 19.8514 31.0772 20.685C31.0752 20.7151 31.0733 20.7443 31.0715 20.7726C31.0501 21.0401 31.1344 21.1389 31.3567 21.1389C31.4084 21.1381 31.4599 21.1312 31.51 21.1182C31.6811 21.077 31.9035 20.9901 32.1574 20.8908C32.5221 20.7481 32.952 20.58 33.3894 20.4851C33.5104 20.458 33.634 20.4441 33.7581 20.4437C34.1513 20.4437 34.5246 20.5947 34.6779 20.9956C34.8971 21.5751 34.5997 22.0465 33.9244 22.5186C33.7935 22.61 33.5535 22.7655 33.2768 22.9449C32.6896 23.3256 31.9371 23.8133 31.7115 24.0217C31.3791 24.3283 31.41 24.5676 31.4484 24.8648C31.4498 24.8752 31.4511 24.8857 31.4525 24.8963Z" fill="#205BC9"/>
</svg>
