<svg width="48.000000" height="48.000000" viewBox="0 0 48 48" fill="none" xmlns="http://www.w3.org/2000/svg" xmlns:xlink="http://www.w3.org/1999/xlink">
	<desc>
			Created with Pixso.
	</desc>
	<defs/>
	<path id="Combined-Shape" d="M24 0C10.7461 0 0 10.7452 0 24C0 37.2548 10.7461 48 24 48C37.2539 48 48 37.2548 48 24C48 10.7452 37.2539 0 24 0ZM23.9961 11.2L24 11.2C27.4766 11.2 27.9102 11.2152 29.2734 11.2773C30.6367 11.3397 31.5664 11.5555 32.3828 11.872C33.2266 12.1987 33.9375 12.636 34.6523 13.348C35.3633 14.0595 35.8008 14.7736 36.1289 15.6155C36.4414 16.4294 36.6602 17.3596 36.7227 18.7222C36.7852 20.0876 36.8008 20.5238 36.8008 24.0001C36.8008 27.4764 36.7852 27.9116 36.7227 29.277C36.6602 30.6392 36.4414 31.5695 36.1289 32.3837C35.8008 33.2253 35.3633 33.9395 34.6523 34.6509C33.9375 35.3629 33.2266 35.8013 32.3828 36.1282C31.5703 36.4448 30.6406 36.6605 29.2773 36.7229C27.9102 36.785 27.4766 36.8003 24 36.8003C20.5234 36.8003 20.0859 36.785 18.7227 36.7229C17.3594 36.6605 16.4297 36.4448 15.6133 36.1282C14.7734 35.8013 14.0586 35.3629 13.3477 34.6509C12.6367 33.9395 12.1992 33.2253 11.8711 32.3834C11.5547 31.5695 11.3398 30.6394 11.2773 29.2767C11.2148 27.9114 11.1992 27.4764 11.1992 24.0001C11.1992 20.5238 11.2148 20.0873 11.2773 18.7219C11.3398 17.3598 11.5547 16.4294 11.8711 15.6152C12.1992 14.7736 12.6367 14.0595 13.3477 13.348C14.0625 12.6363 14.7734 12.1989 15.6172 11.872C16.4297 11.5555 17.3594 11.3397 18.7227 11.2773C20.0898 11.2152 20.5234 11.2 23.9961 11.2Z" clip-rule="evenodd" fill="#FFFFFF" fill-opacity="1.000000" fill-rule="evenodd"/>
	<path id="Combined-Shape" d="M23.5742 13.5067C23.3164 13.5065 23.0742 13.5065 22.8516 13.5068L22.8516 13.5036C20.4688 13.5063 20.0078 13.5223 18.8281 13.5756C17.582 13.6329 16.9023 13.8409 16.4531 14.017C15.8555 14.2495 15.4297 14.5268 14.9805 14.9748C14.5312 15.4229 14.2539 15.8495 14.0234 16.4468C13.8477 16.898 13.6367 17.5754 13.582 18.8234C13.5195 20.1727 13.5078 20.5759 13.5078 23.9941C13.5078 27.4123 13.5195 27.8176 13.582 29.167C13.6367 30.415 13.8477 31.0923 14.0234 31.543C14.2539 32.1406 14.5312 32.5662 14.9805 33.0142C15.4297 33.4622 15.8555 33.7396 16.4531 33.9716C16.9023 34.1467 17.582 34.3553 18.8281 34.4129C20.1797 34.4742 20.582 34.4875 24 34.4875C27.418 34.4875 27.8242 34.4742 29.1719 34.4129C30.4219 34.3558 31.0977 34.1478 31.5508 33.9718C32.1484 33.7398 32.5742 33.4625 33.0195 33.0145C33.4688 32.5667 33.7461 32.1414 33.9805 31.5441C34.1523 31.0934 34.3633 30.416 34.418 29.168C34.4805 27.8187 34.4961 27.4133 34.4961 23.9973C34.4961 20.5813 34.4805 20.176 34.418 18.8266C34.3633 17.5786 34.1523 16.9012 33.9805 16.4506C33.7461 15.8532 33.4688 15.4266 33.0195 14.9786C32.5742 14.5305 32.1484 14.2532 31.5508 14.0212C31.0977 13.846 30.4219 13.6375 29.1719 13.5804C27.8242 13.519 27.418 13.5068 24 13.5068C23.8555 13.5068 23.7109 13.5067 23.5742 13.5067ZM30.832 15.6321C29.9844 15.6321 29.2969 16.3193 29.2969 17.1677C29.2969 18.0156 29.9844 18.7037 30.832 18.7037C31.6836 18.7037 32.3711 18.0156 32.3711 17.1677C32.3711 16.3196 31.6836 15.6317 30.832 15.6317L30.832 15.6321ZM17.4297 24.0002C17.4297 20.3702 20.3711 17.427 24 17.4268C27.6328 17.4268 30.5742 20.3701 30.5742 24.0002C30.5742 27.6304 27.6328 30.5723 24 30.5723C20.3711 30.5723 17.4297 27.6304 17.4297 24.0002Z" clip-rule="evenodd" fill="#FFFFFF" fill-opacity="1.000000" fill-rule="evenodd"/>
	<path id="Shape" d="M24 19.73C26.35 19.73 28.26 21.64 28.26 24C28.26 26.35 26.35 28.26 24 28.26C21.64 28.26 19.73 26.35 19.73 24C19.73 21.64 21.64 19.73 24 19.73Z" fill="#FFFFFF" fill-opacity="1.000000" fill-rule="nonzero"/>
</svg>
