<svg width="48.000000" height="48.000000" viewBox="0 0 48 48" fill="none" xmlns="http://www.w3.org/2000/svg" xmlns:xlink="http://www.w3.org/1999/xlink">
	<desc>
			Created with Pixso.
	</desc>
	<defs/>
	<rect id="Snapchat/white" rx="-0.500000" width="47.000000" height="47.000000" transform="translate(0.500000 0.500000)" fill="#FFFFFF" fill-opacity="0"/>
	<path id="Subtract" d="M24 0C10.7461 0 0 10.7452 0 24C0 37.2548 10.7461 48 24 48C37.2539 48 48 37.2548 48 24C48 10.7452 37.2539 0 24 0ZM31.4531 24.8963C31.4844 25.1538 32.2266 28.626 36.8711 30.8749C37.1445 31.0067 37.6055 31.2858 36.793 31.7311C35.5078 32.4393 34.6562 32.3634 33.9961 32.7903C33.4297 33.1529 33.7617 33.9348 33.3555 34.2168C33.1367 34.3673 32.7344 34.3827 32.1914 34.4035C31.4805 34.4307 30.5312 34.467 29.4453 34.8262C27.8633 35.3497 26.8594 36.855 24.0039 36.855C21.1484 36.855 20.1719 35.3566 18.5625 34.8262C17.4727 34.467 16.5234 34.4307 15.8164 34.4035C15.2734 34.3828 14.8711 34.3673 14.6523 34.2168C14.2422 33.9348 14.5742 33.1529 14.0117 32.7903C13.3516 32.3634 12.4961 32.4393 11.2148 31.7311C10.3984 31.2804 10.8633 31.0013 11.1328 30.8695C15.7773 28.6245 16.5195 25.1523 16.5547 24.8909C16.5547 24.8809 16.5547 24.8709 16.5586 24.861C16.5977 24.5631 16.625 24.3235 16.293 24.0164C15.9609 23.709 14.4883 22.7984 14.082 22.5132C13.4023 22.0411 13.1094 21.5697 13.3281 20.9902C13.4805 20.5917 13.8516 20.4384 14.2461 20.4384C14.3711 20.4388 14.4961 20.4526 14.6172 20.4797C15.3594 20.6407 16.0781 21.0125 16.4961 21.1129C16.543 21.1257 16.5977 21.1327 16.6484 21.1336C16.8711 21.1336 16.9492 21.0217 16.9336 20.7672C16.9297 20.7017 16.9258 20.6313 16.9219 20.5562C16.8672 19.701 16.7812 18.2542 16.8984 16.8949C17.0742 14.8607 17.7266 13.8527 18.5078 12.9612C18.8828 12.5343 20.6289 10.6771 24 10.6771C27.3711 10.6771 29.1211 12.5343 29.4961 12.9666C30.2734 13.858 30.9297 14.866 31.1055 16.9003C31.2305 18.3273 31.1328 19.8514 31.0781 20.685C31.0742 20.7151 31.0742 20.7443 31.0703 20.7726C31.0508 21.04 31.1328 21.1389 31.3555 21.1389C31.4102 21.1381 31.4609 21.1312 31.5117 21.1182C31.9258 21.0178 32.6484 20.6461 33.3906 20.4851C33.5117 20.458 33.6328 20.4441 33.7578 20.4437C34.1523 20.4437 34.5234 20.5947 34.6797 20.9956C34.8984 21.5751 34.6016 22.0464 33.9258 22.5186C33.5156 22.8038 32.043 23.7151 31.7109 24.0217C31.3789 24.3283 31.4102 24.5676 31.4492 24.8647C31.4492 24.8752 31.4492 24.8857 31.4531 24.8963Z" clip-rule="evenodd" fill="#FFFFFF" fill-opacity="1.000000" fill-rule="evenodd"/>
</svg>
