<svg width="48.000000" height="48.000000" viewBox="0 0 48 48" fill="none" xmlns="http://www.w3.org/2000/svg" xmlns:xlink="http://www.w3.org/1999/xlink">
	<desc>
			Created with Pixso.
	</desc>
	<defs/>
	<path id="Subtract" d="M24 48C37.2539 48 48 37.2548 48 24C48 10.7452 37.2539 0 24 0C10.7461 0 0 10.7452 0 24C0 37.2548 10.7461 48 24 48ZM17.8008 21.0422C14.875 22.3387 11.7422 23.6285 8.9375 25.1739L8.9375 25.1741C7.75781 26.0376 9.32422 26.6484 10.7969 27.2214C11.0273 27.3125 11.2617 27.4026 11.4766 27.4927C11.6602 27.5483 11.8438 27.6069 12.0312 27.6663C13.6641 28.1874 15.4883 28.7685 17.0781 27.8944C20.5391 25.905 23.7461 23.5032 27.0273 21.2396C27.0664 21.2153 27.1094 21.1875 27.1562 21.1572C27.8477 20.7095 29.4023 19.7028 28.8242 21.09C26.5508 23.5768 24.0078 25.5858 21.6094 27.9504C20.7656 28.634 19.8945 30.0087 20.8359 30.9659C23.7109 32.9794 26.6484 34.928 29.5586 36.8958C30.7734 37.8636 32.668 37.0807 32.9336 35.5684C33.707 31.0282 34.5 26.4886 35.1875 21.9334C35.457 19.862 35.8516 17.7906 35.9453 15.707C35.7734 14.235 33.9883 14.5587 32.9922 14.8896C27.8867 16.8323 22.8359 18.9189 17.8008 21.0422Z" clip-rule="evenodd" fill="#FFFFFF" fill-opacity="1.000000" fill-rule="evenodd"/>
</svg>
