<svg width="48.000000" height="48.000000" viewBox="0 0 48 48" fill="none" xmlns="http://www.w3.org/2000/svg" xmlns:xlink="http://www.w3.org/1999/xlink">
	<desc>
			Created with Pixso.
	</desc>
	<defs/>
	<path id="Combined-Shape" d="M24 0C10.7461 0 0 10.7452 0 24C0 37.2548 10.7461 48 24 48C37.2539 48 48 37.2548 48 24C48 10.7452 37.2539 0 24 0ZM23.332 20.338L23.2812 19.5075C23.1289 17.3551 24.457 15.3891 26.5547 14.6265C27.3281 14.3553 28.6367 14.3214 29.4922 14.5587C29.8281 14.6603 30.4648 14.9993 30.918 15.3044L31.7422 15.8636L32.6484 15.5756C33.1523 15.423 33.8242 15.1688 34.125 14.9993C34.4102 14.8468 34.6641 14.762 34.6641 14.8129C34.6641 15.101 34.043 16.084 33.5234 16.6263C32.8164 17.389 33.0195 17.4568 34.4453 16.9484C35.3008 16.6602 35.3164 16.6602 35.1484 16.9822C35.0508 17.1517 34.5273 17.7449 33.9766 18.2872C33.0352 19.2194 32.9844 19.321 32.9844 20.1007C32.9844 21.304 32.4141 23.8123 31.8438 25.1851C30.7852 27.7612 28.5195 30.4221 26.2539 31.7609C23.0625 33.6422 18.8164 34.1167 15.2383 33.0151C14.0469 32.6422 12 31.6931 12 31.5237C12 31.4728 12.6211 31.405 13.375 31.3881C14.9531 31.3542 16.5312 30.9135 17.875 30.1339L18.7812 29.5916L17.7422 29.2357C16.2656 28.7272 14.9375 27.5578 14.6016 26.4562C14.5 26.1003 14.5352 26.0833 15.4766 26.0833L16.4492 26.0664L15.625 25.6766C14.6523 25.1851 13.7617 24.3546 13.3281 23.5073C13.0078 22.8971 12.6055 21.3549 12.7227 21.2362C12.7539 21.1854 13.1094 21.287 13.5117 21.4226C14.668 21.8463 14.8203 21.7446 14.1484 21.0328C12.8906 19.7448 12.5039 17.8297 13.1094 16.0162L13.3945 15.2027L14.5 16.3043C16.7695 18.5245 19.4375 19.8464 22.4922 20.2363L23.332 20.338Z" clip-rule="evenodd" fill="#FFFFFF" fill-opacity="1.000000" fill-rule="evenodd"/>
</svg>
