<svg width="48" height="48" viewBox="0 0 48 48" fill="none" xmlns="http://www.w3.org/2000/svg">
<g filter="url(#filter0_b_568_5060)">
<path d="M0 24C0 10.7452 10.7452 0 24 0C37.2548 0 48 10.7452 48 24C48 37.2548 37.2548 48 24 48C10.7452 48 0 37.2548 0 24Z" fill="#3C3C3C" fill-opacity="0.4"/>
<path d="M36.8664 30.8749C32.2207 28.626 31.4803 25.1538 31.4474 24.8963C31.4075 24.5843 31.3623 24.339 31.7064 24.0217C32.0383 23.7151 33.5107 22.8038 33.9193 22.5186C34.5946 22.0465 34.892 21.5751 34.6727 20.9956C34.5194 20.5947 34.1462 20.4437 33.753 20.4437C33.6289 20.4441 33.5053 20.458 33.3843 20.4851C32.6423 20.6461 31.9218 21.0178 31.5048 21.1183C31.4547 21.1312 31.4033 21.1381 31.3515 21.1389C31.1293 21.1389 31.0449 21.0401 31.0664 20.7726C31.1185 19.9616 31.2289 18.3788 31.1009 16.9003C30.9254 14.866 30.2693 13.8581 29.4913 12.9666C29.1149 12.5343 27.3673 10.6771 23.9948 10.6771C20.6222 10.6771 18.8769 12.5343 18.5029 12.9613C17.7226 13.8527 17.0672 14.8606 16.8932 16.8949C16.7652 18.3735 16.8802 19.9555 16.9277 20.7672C16.9431 21.0217 16.8649 21.1336 16.6426 21.1336C16.5909 21.1327 16.5394 21.1257 16.4893 21.1129C16.0731 21.0125 15.3526 20.6407 14.6106 20.4798C14.4896 20.4526 14.366 20.4388 14.242 20.4384C13.8472 20.4384 13.4755 20.5917 13.3222 20.9902C13.1029 21.5697 13.3988 22.0411 14.0764 22.5133C14.4849 22.7984 15.9574 23.709 16.2892 24.0164C16.6326 24.3337 16.5882 24.579 16.5483 24.8909C16.5154 25.1523 15.7742 28.6245 11.1292 30.8695C10.8571 31.0014 10.3942 31.2804 11.2105 31.7311C12.4921 32.4393 13.3452 32.3634 14.0082 32.7904C14.5708 33.1529 14.2381 33.9347 14.6474 34.2168C15.1502 34.564 16.6365 34.1923 18.5565 34.8262C20.1662 35.3566 21.1442 36.8551 23.9986 36.8551C26.853 36.8551 27.8594 35.3497 29.4407 34.8262C31.3569 34.1923 32.8462 34.564 33.3498 34.2168C33.7583 33.9347 33.4264 33.1529 33.989 32.7904C34.652 32.3634 35.5044 32.4393 36.7867 31.7311C37.6015 31.2857 37.1385 31.0067 36.8664 30.8749Z" fill="white"/>
</g>
<defs>
<filter id="filter0_b_568_5060" x="-6" y="-6" width="60" height="60" filterUnits="userSpaceOnUse" color-interpolation-filters="sRGB">
<feFlood flood-opacity="0" result="BackgroundImageFix"/>
<feGaussianBlur in="BackgroundImageFix" stdDeviation="3"/>
<feComposite in2="SourceAlpha" operator="in" result="effect1_backgroundBlur_568_5060"/>
<feBlend mode="normal" in="SourceGraphic" in2="effect1_backgroundBlur_568_5060" result="shape"/>
</filter>
</defs>
</svg>
