<svg width="44" height="44" viewBox="0 0 44 44" fill="none" xmlns="http://www.w3.org/2000/svg">
<path d="M29.4848 9.0239L29.4847 9.02402L29.4952 9.02992L35.791 12.5643C36.5887 13.0121 37.0781 13.8598 37.067 14.7744L36.98 21.994L36.9799 21.994L36.98 22.006L37.067 29.2256C37.0781 30.1402 36.5887 30.9879 35.791 31.4357L29.4952 34.9701L29.4952 34.97L29.4848 34.9761L23.276 38.6612C22.4894 39.1281 21.5106 39.1281 20.724 38.6612L14.5152 34.9761L14.5153 34.976L14.5048 34.9701L8.20896 31.4357C7.41133 30.9879 6.92194 30.1402 6.93296 29.2256L7.01996 22.006L7.02011 22.006L7.01996 21.994L6.93296 14.7744C6.92194 13.8598 7.41133 13.0121 8.20896 12.5643L14.5048 9.02992L14.5048 9.03005L14.5152 9.0239L20.724 5.33878C21.5106 4.87191 22.4894 4.87191 23.276 5.33878L29.4848 9.0239Z" stroke="#205BC9"/>
<path d="M20.9792 7.60587C21.6085 7.23238 22.3915 7.23238 23.0208 7.60588L28.45 10.8283L33.9553 13.9189C34.5934 14.2771 34.9849 14.9552 34.9761 15.687L34.9 22L34.9761 28.313C34.9849 29.0448 34.5934 29.7229 33.9553 30.0811L28.45 33.1717L23.0208 36.3941C22.3915 36.7676 21.6085 36.7676 20.9792 36.3941L15.55 33.1717L10.0447 30.0811C9.40662 29.7229 9.01511 29.0448 9.02392 28.313L9.1 22L9.02392 15.687C9.01511 14.9552 9.40662 14.2771 10.0447 13.9189L15.55 10.8283L20.9792 7.60587Z" fill="#205BC9"/>
<path d="M20.9792 7.60587C21.6085 7.23238 22.3915 7.23238 23.0208 7.60588L28.45 10.8283L33.9553 13.9189C34.5934 14.2771 34.9849 14.9552 34.9761 15.687L34.9 22L34.9761 28.313C34.9849 29.0448 34.5934 29.7229 33.9553 30.0811L28.45 33.1717L23.0208 36.3941C22.3915 36.7676 21.6085 36.7676 20.9792 36.3941L15.55 33.1717L10.0447 30.0811C9.40662 29.7229 9.01511 29.0448 9.02392 28.313L9.1 22L9.02392 15.687C9.01511 14.9552 9.40662 14.2771 10.0447 13.9189L15.55 10.8283L20.9792 7.60587Z" fill="url(#paint0_linear_2260_3457)"/>
<path d="M19.5422 24.1667H18.7175L19.0989 24.8979C20.146 26.9052 22.2462 28.2778 24.6667 28.2778C26.0602 28.2778 27.3459 27.819 28.3849 27.0511L29.2593 27.923C27.9908 28.9089 26.3963 29.5 24.6667 29.5C21.4059 29.5 18.6344 27.4139 17.6048 24.5001L17.487 24.1667H17.1333H14.5V23.3889H16.72H17.2843L17.2164 22.8287C17.1832 22.5555 17.1667 22.2823 17.1667 22C17.1667 21.7177 17.1832 21.4445 17.2164 21.1713L17.2843 20.6111H16.72H14.5V19.8333H17.1333H17.487L17.6048 19.4999C18.6344 16.5861 21.4059 14.5 24.6667 14.5C26.396 14.5 27.9903 15.0909 29.2587 16.0765L28.3853 16.9449C27.3456 16.1771 26.0596 15.7222 24.6667 15.7222C22.2415 15.7222 20.1459 17.095 19.0989 19.1021L18.7175 19.8333H19.5422H24.1667V20.6111H18.9644H18.5355L18.4703 21.0351C18.4234 21.3396 18.3889 21.6642 18.3889 22C18.3889 22.3358 18.4234 22.6604 18.4703 22.9649L18.5355 23.3889H18.9644H24.1667V24.1667H19.5422Z" fill="#EFEFEF" stroke="#EFEFEF"/>
<defs>
<linearGradient id="paint0_linear_2260_3457" x1="30.9224" y1="13.7241" x2="10.4914" y2="33.1207" gradientUnits="userSpaceOnUse">
<stop offset="0.404729" stop-color="#205BC9" stop-opacity="0"/>
<stop offset="1" stop-color="#073D95"/>
</linearGradient>
</defs>
</svg>
