<svg width="44" height="44" viewBox="0 0 44 44" fill="none" xmlns="http://www.w3.org/2000/svg">
<path d="M29.4848 9.0239L29.4847 9.02402L29.4952 9.02992L35.791 12.5643C36.5887 13.0121 37.0781 13.8598 37.067 14.7744L36.98 21.994L36.9799 21.994L36.98 22.006L37.067 29.2256C37.0781 30.1402 36.5887 30.9879 35.791 31.4357L29.4952 34.9701L29.4952 34.97L29.4848 34.9761L23.276 38.6612C22.4894 39.1281 21.5106 39.1281 20.724 38.6612L14.5152 34.9761L14.5153 34.976L14.5048 34.9701L8.20896 31.4357C7.41133 30.9879 6.92194 30.1402 6.93296 29.2256L7.01996 22.006L7.02011 22.006L7.01996 21.994L6.93296 14.7744C6.92194 13.8598 7.41133 13.0121 8.20896 12.5643L14.5048 9.02992L14.5048 9.03005L14.5152 9.0239L20.724 5.33878C21.5106 4.87191 22.4894 4.87191 23.276 5.33878L29.4848 9.0239Z" stroke="#205BC9"/>
<path d="M20.9792 7.60587C21.6085 7.23238 22.3915 7.23238 23.0208 7.60588L28.45 10.8283L33.9553 13.9189C34.5934 14.2771 34.9849 14.9552 34.9761 15.687L34.9 22L34.9761 28.313C34.9849 29.0448 34.5934 29.7229 33.9553 30.0811L28.45 33.1717L23.0208 36.3941C22.3915 36.7676 21.6085 36.7676 20.9792 36.3941L15.55 33.1717L10.0447 30.0811C9.40662 29.7229 9.01511 29.0448 9.02392 28.313L9.1 22L9.02392 15.687C9.01511 14.9552 9.40662 14.2771 10.0447 13.9189L15.55 10.8283L20.9792 7.60587Z" fill="#205BC9"/>
<path d="M20.9792 7.60587C21.6085 7.23238 22.3915 7.23238 23.0208 7.60588L28.45 10.8283L33.9553 13.9189C34.5934 14.2771 34.9849 14.9552 34.9761 15.687L34.9 22L34.9761 28.313C34.9849 29.0448 34.5934 29.7229 33.9553 30.0811L28.45 33.1717L23.0208 36.3941C22.3915 36.7676 21.6085 36.7676 20.9792 36.3941L15.55 33.1717L10.0447 30.0811C9.40662 29.7229 9.01511 29.0448 9.02392 28.313L9.1 22L9.02392 15.687C9.01511 14.9552 9.40662 14.2771 10.0447 13.9189L15.55 10.8283L20.9792 7.60587Z" fill="url(#paint0_linear_2260_3472)"/>
<path d="M28.7652 24.1751C28.7652 26.2868 27.2245 27.9987 25.324 27.9987C24.7077 27.9987 24.1293 27.8186 23.6289 27.5034C22.748 26.9483 22.1092 25.9739 21.9322 24.8245C21.8997 24.6134 21.8828 24.3965 21.8828 24.1751C21.8828 23.1933 22.2159 22.298 22.7632 21.6209C23.3932 20.8417 24.3071 20.3516 25.324 20.3516C27.2245 20.3516 28.7652 22.0634 28.7652 24.1751Z" stroke="#EFEFEF" stroke-linecap="round" stroke-linejoin="round"/>
<path d="M25.3236 16.9102V19.969V20.3513C24.3067 20.3513 23.3928 20.8415 22.7628 21.6207C22.2154 22.2978 21.8824 23.1931 21.8824 24.1749C21.8824 24.3962 21.8993 24.6132 21.9318 24.8242C22.1088 25.9737 22.7476 26.9481 23.6285 27.5031C22.7123 27.8109 21.4961 27.9984 20.1618 27.9984C17.311 27.9984 15 27.1425 15 26.0867V23.0278V19.969V16.9102" stroke="#EFEFEF" stroke-linecap="round" stroke-linejoin="round"/>
<path d="M25.3236 16.9118C25.3236 17.9676 23.0126 18.8235 20.1618 18.8235C17.311 18.8235 15 17.9676 15 16.9118C15 15.8559 17.311 15 20.1618 15C23.0126 15 25.3236 15.8559 25.3236 16.9118Z" stroke="#EFEFEF" stroke-linecap="round" stroke-linejoin="round"/>
<path d="M15 23.0312C15 24.0871 17.311 24.943 20.1618 24.943C20.7836 24.943 21.3797 24.9023 21.9318 24.8277" stroke="#EFEFEF" stroke-linecap="round" stroke-linejoin="round"/>
<path d="M15 19.9688C15 21.0246 17.311 21.8805 20.1618 21.8805C21.1103 21.8805 21.999 21.7858 22.7628 21.6204" stroke="#EFEFEF" stroke-linecap="round" stroke-linejoin="round"/>
<path d="M26.3577 25.7073L26.7018 25.3249M26.3577 23.0308C25.6694 23.7955 24.9812 24.5602 24.293 25.3249L26.3577 23.0308ZM24.293 23.0308L24.6371 22.6484L24.293 23.0308Z" stroke="#EFEFEF" stroke-linecap="round" stroke-linejoin="round"/>
<defs>
<linearGradient id="paint0_linear_2260_3472" x1="30.9224" y1="13.7241" x2="10.4914" y2="33.1207" gradientUnits="userSpaceOnUse">
<stop offset="0.404729" stop-color="#205BC9" stop-opacity="0"/>
<stop offset="1" stop-color="#073D95"/>
</linearGradient>
</defs>
</svg>
