<svg width="44" height="44" viewBox="0 0 44 44" fill="none" xmlns="http://www.w3.org/2000/svg">
<path d="M16.668 37.9993C16.668 40.9449 19.0558 43.3327 22.0013 43.3327C24.9468 43.3327 27.3346 40.9449 27.3346 37.9994V5.99935C27.3346 3.05384 24.9468 0.666016 22.0013 0.666016C19.0558 0.666016 16.668 3.05383 16.668 5.99935V37.9993ZM0.667969 37.9993C0.667969 40.9449 3.05578 43.3327 6.0013 43.3327C8.94682 43.3327 11.3346 40.9449 11.3346 37.9994V27.3327C11.3346 24.3872 8.94682 21.9993 6.0013 21.9993C3.05578 21.9993 0.667969 24.3872 0.667969 27.3327V37.9993ZM38.0013 13.9993C35.0558 13.9993 32.668 16.3872 32.668 19.3327V37.9993C32.668 40.9449 35.0558 43.3327 38.0013 43.3327C40.9468 43.3327 43.3346 40.9449 43.3346 37.9994V19.3327C43.3346 16.3872 40.9468 13.9993 38.0013 13.9993Z" fill="#3F7EF3"/>
</svg>
