<svg width="40" height="40" viewBox="0 0 40 40" fill="none" xmlns="http://www.w3.org/2000/svg">
<path d="M19.9989 12.7266C15.0403 12.7266 10.8055 15.7423 9.08984 19.9993C10.8055 24.2563 15.0403 27.272 19.9989 27.272C24.9576 27.272 29.1923 24.2563 30.908 19.9993C29.1923 15.7423 24.9576 12.7266 19.9989 12.7266ZM19.9989 24.8478C17.2617 24.8478 15.0403 22.6757 15.0403 19.9993C15.0403 17.3229 17.2617 15.1508 19.9989 15.1508C22.7361 15.1508 24.9576 17.3229 24.9576 19.9993C24.9576 22.6757 22.7361 24.8478 19.9989 24.8478ZM19.9989 17.0902C18.3527 17.0902 17.0237 18.3896 17.0237 19.9993C17.0237 21.609 18.3527 22.9084 19.9989 22.9084C21.6452 22.9084 22.9741 21.609 22.9741 19.9993C22.9741 18.3896 21.6452 17.0902 19.9989 17.0902Z" fill="#205BC9"/>
</svg>
