<svg width="136.000000" height="136.000000" viewBox="0 0 136 136" fill="none" xmlns="http://www.w3.org/2000/svg" xmlns:xlink="http://www.w3.org/1999/xlink">
	<desc>
			Created with Pixso.
	</desc>
	<defs>
		<clipPath id="clip5_1901">
			<rect id="Desktop/ metals" rx="-0.500000" width="63.000000" height="63.000000" transform="translate(36.500000 36.500000)" fill="white" fill-opacity="0"/>
		</clipPath>
		<linearGradient x1="103.545212" y1="35.030067" x2="22.151279" y2="112.302795" id="paint_linear_5_1900_0" gradientUnits="userSpaceOnUse">
			<stop offset="0.404729" stop-color="#205BC9" stop-opacity="0.000000"/>
			<stop offset="1.000000" stop-color="#073D95"/>
		</linearGradient>
	</defs>
	<path id="Star 2" d="M38.76 17.35L13.76 31.38C10.89 32.99 9.13 36.04 9.17 39.34L9.51 68L9.17 96.65C9.13 99.95 10.89 103 13.76 104.61L38.76 118.64L63.4 133.27C66.23 134.95 69.76 134.95 72.59 133.27L97.23 118.64L122.23 104.61C125.1 103 126.86 99.95 126.82 96.65L126.48 68L126.82 39.34C126.86 36.04 125.1 32.99 122.23 31.38L97.23 17.35L72.59 2.72C69.76 1.04 66.23 1.04 63.4 2.72L38.76 17.35ZM39.26 18.22L14.25 32.25C11.7 33.68 10.14 36.4 10.17 39.32L10.51 68L10.17 96.67C10.14 99.59 11.7 102.31 14.25 103.74L39.26 117.77L63.91 132.41C66.43 133.9 69.56 133.9 72.08 132.41L96.73 117.77L121.74 103.74C124.29 102.31 125.85 99.59 125.82 96.67L125.48 68L125.82 39.32C125.85 36.4 124.29 33.68 121.74 32.25L96.73 18.22L72.08 3.58C69.56 2.09 66.43 2.09 63.91 3.58L39.26 18.22Z" fill="#205BC9" fill-opacity="1.000000" fill-rule="evenodd"/>
	<path id="Star 1" d="M63.4 10.96L42.3 23.49L20.9 35.5C18.03 37.11 16.27 40.16 16.31 43.46L16.6 68L16.31 92.53C16.27 95.83 18.03 98.88 20.9 100.49L42.3 112.5L63.4 125.03C66.23 126.71 69.76 126.71 72.59 125.03L93.69 112.5L115.09 100.49C117.96 98.88 119.72 95.83 119.68 92.53L119.39 68L119.68 43.46C119.72 40.16 117.96 37.11 115.09 35.5L93.69 23.49L72.59 10.96C69.76 9.28 66.23 9.28 63.4 10.96Z" fill="#205BC9" fill-opacity="1.000000" fill-rule="evenodd"/>
	<path id="Star 1" d="M63.4 10.96L42.3 23.49L20.9 35.5C18.03 37.11 16.27 40.16 16.31 43.46L16.6 68L16.31 92.53C16.27 95.83 18.03 98.88 20.9 100.49L42.3 112.5L63.4 125.03C66.23 126.71 69.76 126.71 72.59 125.03L93.69 112.5L115.09 100.49C117.96 98.88 119.72 95.83 119.68 92.53L119.39 68L119.68 43.46C119.72 40.16 117.96 37.11 115.09 35.5L93.69 23.49L72.59 10.96C69.76 9.28 66.23 9.28 63.4 10.96Z" fill="url(#paint_linear_5_1900_0)" fill-opacity="1.000000" fill-rule="evenodd"/>
	<rect id="Desktop/ metals" rx="-0.500000" width="63.000000" height="63.000000" transform="translate(36.500000 36.500000)" fill="#FFFFFF" fill-opacity="0"/>
	<g clip-path="url(#clip5_1901)">
		<path id="Vector" d="M65 78.5C65 84.29 60.3 89 54.5 89C48.69 89 44 84.29 44 78.5C44 72.7 48.69 68 54.5 68C60.3 68 65 72.7 65 78.5Z" fill="#FFFFFF" fill-opacity="1.000000" fill-rule="evenodd"/>
		<path id="Vector" d="M84 83.5C84 87.08 81.08 90 77.5 90C73.91 90 71 87.08 71 83.5C71 79.91 73.91 77 77.5 77C81.08 77 84 79.91 84 83.5Z" fill="#FFFFFF" fill-opacity="1.000000" fill-rule="evenodd"/>
		<path id="Vector" d="M92 58C92 65.73 85.73 72 78 72C70.26 72 64 65.73 64 58C64 50.26 70.26 44 78 44C85.73 44 92 50.26 92 58Z" fill="#FFFFFF" fill-opacity="1.000000" fill-rule="evenodd"/>
	</g>
</svg>
