<svg width="113" height="113" viewBox="0 0 113 113" fill="none" xmlns="http://www.w3.org/2000/svg">
<circle cx="57" cy="57" r="42" fill="#205BC9"/>
<circle cx="57" cy="57" r="49.5" stroke="#3F7EF3"/>
<circle cx="56.5" cy="56.5" r="56" stroke="#0054FD"/>
<path d="M39.293 86.707C39.48 86.895 39.735 87 40 87H66.5C68.43 87 70 85.43 70 83.5C70 82.004 69.051 80.734 67.727 80.234C67.899 79.857 68 79.441 68 79C68 77.935 67.438 77.003 66.599 76.471C66.847 76.034 67 75.537 67 75C67 73.346 65.654 72 64 72H48.414L44.707 68.293C44.52 68.105 44.265 68 44 68H27V70H43.586L50.464 76.878C50.809 77.224 51 77.683 51 78.171C51 79.179 50.18 80 49.171 80C48.683 80 48.224 79.81 47.878 79.464L43.707 75.293L42.293 76.707L46.464 80.878C47.146 81.56 48.042 81.94 49 81.983V82H52H65H66.5C67.327 82 68 82.673 68 83.5C68 84.327 67.327 85 66.5 85H40.414L34.707 79.293C34.52 79.105 34.265 79 34 79H27V81H33.586L39.293 86.707ZM50.414 74H64C64.551 74 65 74.449 65 75C65 75.551 64.551 76 64 76H52.319C52.188 75.811 52.044 75.63 51.879 75.464L50.414 74ZM52.514 80C52.814 79.454 53 78.837 53 78.171C53 78.113 52.986 78.057 52.983 78H64H65C65.551 78 66 78.449 66 79C66 79.551 65.551 80 65 80H52.514Z" fill="white"/>
<path d="M74.707 27.293C74.52 27.105 74.265 27 74 27H47.5C45.57 27 44 28.57 44 30.5C44 31.996 44.949 33.267 46.273 33.766C46.101 34.143 46 34.559 46 35C46 36.065 46.562 36.997 47.401 37.529C47.153 37.966 47 38.463 47 39C47 40.654 48.346 42 50 42H65.586L69.293 45.707C69.48 45.895 69.735 46 70 46H87V44H70.414L63.536 37.122C63.19 36.776 63 36.317 63 35.829C63 34.82 63.82 34 64.829 34C65.317 34 65.776 34.19 66.122 34.536L70.293 38.707L71.707 37.293L67.536 33.122C66.854 32.44 65.958 32.06 65 32.017V32H62H49H47.5C46.673 32 46 31.327 46 30.5C46 29.673 46.673 29 47.5 29H73.586L79.293 34.707C79.48 34.895 79.735 35 80 35H87V33H80.414L74.707 27.293ZM63.586 40H50C49.449 40 49 39.551 49 39C49 38.449 49.449 38 50 38H61.681C61.812 38.189 61.956 38.37 62.121 38.536L63.586 40ZM61.486 34C61.186 34.546 61 35.163 61 35.829C61 35.887 61.014 35.943 61.017 36H50H49C48.449 36 48 35.551 48 35C48 34.449 48.449 34 49 34H61.486Z" fill="white"/>
<path d="M33.999 64.8774C34.219 64.8774 34.439 64.8044 34.62 64.6614C34.941 64.4074 35.075 63.9834 34.957 63.5914C34.321 61.4614 33.999 59.2444 33.999 57.0004C33.999 49.6184 37.582 42.6344 43.582 38.3164L42.414 36.6934C35.893 41.3854 31.999 48.9774 31.999 57.0004C31.999 58.6334 32.156 60.2544 32.468 61.8434L29.498 60.1344L28.5 61.8674L33.5 64.7444C33.655 64.8334 33.828 64.8774 33.999 64.8774Z" fill="white"/>
<path d="M70.418 75.6843L71.586 77.3073C78.107 72.6153 82.001 65.0233 82.001 57.0003C82.001 55.6903 81.899 54.3853 81.698 53.0993L84.468 54.8463L85.535 53.1553L80.779 50.1553C80.432 49.9383 79.988 49.9523 79.656 50.1933C79.325 50.4353 79.175 50.8543 79.277 51.2513C79.757 53.1173 80.001 55.0523 80.001 57.0003C80.001 64.3823 76.418 71.3663 70.418 75.6843Z" fill="white"/>
<path d="M57 70C64.168 70 70 64.168 70 57C70 49.832 64.168 44 57 44C49.832 44 44 49.832 44 57C44 64.168 49.832 70 57 70ZM57 46C63.065 46 68 50.935 68 57C68 63.065 63.065 68 57 68C50.935 68 46 63.065 46 57C46 50.935 50.935 46 57 46Z" fill="white"/>
<path d="M55 63H56V65H58V63H59.5C61.43 63 63 61.43 63 59.5C63 58.246 62.331 57.152 61.337 56.534C61.75 55.959 62 55.26 62 54.5C62 52.57 60.43 51 58.5 51H58V49H56V51H55C54.448 51 54 51.448 54 52V57V62C54 62.552 54.448 63 55 63ZM59.5 61H56V58H58.5H59.5C60.327 58 61 58.673 61 59.5C61 60.327 60.327 61 59.5 61ZM56 53H58.5C59.327 53 60 53.673 60 54.5C60 55.327 59.327 56 58.5 56H56V53Z" fill="white"/>
<path d="M50 56H48V58H50V56Z" fill="white"/>
<path d="M66 56H64V58H66V56Z" fill="white"/>
</svg>
