<svg width="136.000000" height="136.000000" viewBox="0 0 136 136" fill="none" xmlns="http://www.w3.org/2000/svg" xmlns:xlink="http://www.w3.org/1999/xlink">
	<desc>
			Created with Pixso.
	</desc>
	<defs>
		<clipPath id="clip5_1909">
			<rect id="Desktop/ drop" rx="-0.500000" width="63.000000" height="63.000000" transform="translate(36.500000 36.500000)" fill="white" fill-opacity="0"/>
		</clipPath>
		<linearGradient x1="103.545212" y1="35.030067" x2="22.151279" y2="112.302795" id="paint_linear_5_1908_0" gradientUnits="userSpaceOnUse">
			<stop offset="0.404729" stop-color="#205BC9" stop-opacity="0.000000"/>
			<stop offset="1.000000" stop-color="#073D95"/>
		</linearGradient>
	</defs>
	<path id="Star 2" d="M38.76 17.35L13.76 31.38C10.89 32.99 9.13 36.04 9.17 39.34L9.51 68L9.17 96.65C9.13 99.95 10.89 103 13.76 104.61L38.76 118.64L63.4 133.27C66.23 134.95 69.76 134.95 72.59 133.27L97.23 118.64L122.23 104.61C125.1 103 126.86 99.95 126.82 96.65L126.48 68L126.82 39.34C126.86 36.04 125.1 32.99 122.23 31.38L97.23 17.35L72.59 2.72C69.76 1.04 66.23 1.04 63.4 2.72L38.76 17.35ZM39.26 18.22L14.25 32.25C11.7 33.68 10.14 36.4 10.17 39.32L10.51 68L10.17 96.67C10.14 99.59 11.7 102.31 14.25 103.74L39.26 117.77L63.91 132.41C66.43 133.9 69.56 133.9 72.08 132.41L96.73 117.77L121.74 103.74C124.29 102.31 125.85 99.59 125.82 96.67L125.48 68L125.82 39.32C125.85 36.4 124.29 33.68 121.74 32.25L96.73 18.22L72.08 3.58C69.56 2.09 66.43 2.09 63.91 3.58L39.26 18.22Z" fill="#205BC9" fill-opacity="1.000000" fill-rule="evenodd"/>
	<path id="Star 1" d="M63.4 10.96L42.3 23.49L20.9 35.5C18.03 37.11 16.27 40.16 16.31 43.46L16.6 68L16.31 92.53C16.27 95.83 18.03 98.88 20.9 100.49L42.3 112.5L63.4 125.03C66.23 126.71 69.76 126.71 72.59 125.03L93.69 112.5L115.09 100.49C117.96 98.88 119.72 95.83 119.68 92.53L119.39 68L119.68 43.46C119.72 40.16 117.96 37.11 115.09 35.5L93.69 23.49L72.59 10.96C69.76 9.28 66.23 9.28 63.4 10.96Z" fill="#205BC9" fill-opacity="1.000000" fill-rule="evenodd"/>
	<path id="Star 1" d="M63.4 10.96L42.3 23.49L20.9 35.5C18.03 37.11 16.27 40.16 16.31 43.46L16.6 68L16.31 92.53C16.27 95.83 18.03 98.88 20.9 100.49L42.3 112.5L63.4 125.03C66.23 126.71 69.76 126.71 72.59 125.03L93.69 112.5L115.09 100.49C117.96 98.88 119.72 95.83 119.68 92.53L119.39 68L119.68 43.46C119.72 40.16 117.96 37.11 115.09 35.5L93.69 23.49L72.59 10.96C69.76 9.28 66.23 9.28 63.4 10.96Z" fill="url(#paint_linear_5_1908_0)" fill-opacity="1.000000" fill-rule="evenodd"/>
	<rect id="Desktop/ drop" rx="-0.500000" width="63.000000" height="63.000000" transform="translate(36.500000 36.500000)" fill="#FFFFFF" fill-opacity="0"/>
	<g clip-path="url(#clip5_1909)">
		<path id="Vector" d="M82.85 57.21L68 42L53.14 57.21C49.04 61.41 47 67.01 47 72.4C47 77.78 49.04 83.47 53.14 87.67C57.23 91.87 62.61 94 68 94C73.38 94 78.76 91.87 82.85 87.67C86.95 83.47 89 77.78 89 72.4C89 67.01 86.95 61.41 82.85 57.21ZM52.25 73.37C52.27 67.98 53.87 64.56 56.87 61.52L68 49.86L79.12 61.65C82.12 64.67 83.72 67.98 83.75 73.37L52.25 73.37Z" fill="#FFFFFF" fill-opacity="1.000000" fill-rule="evenodd"/>
	</g>
</svg>
