<svg width="44" height="44" viewBox="0 0 44 44" fill="none" xmlns="http://www.w3.org/2000/svg">
<path d="M34.8346 22C34.8346 23.0125 34.0138 23.8333 33.0013 23.8333H23.8346V33C23.8346 34.0125 23.0138 34.8333 22.0013 34.8333V34.8333C20.9888 34.8333 20.168 34.0125 20.168 33V23.8333H11.0013C9.98878 23.8333 9.16797 23.0125 9.16797 22V22C9.16797 20.9874 9.98878 20.1666 11.0013 20.1666H20.168V11C20.168 9.98744 20.9888 9.16663 22.0013 9.16663V9.16663C23.0138 9.16663 23.8346 9.98744 23.8346 11V20.1666H33.0013C34.0138 20.1666 34.8346 20.9874 34.8346 22V22Z" fill="#3A3939"/>
</svg>
