<svg width="44" height="44" viewBox="0 0 44 44" fill="none" xmlns="http://www.w3.org/2000/svg">
<path d="M34.8346 21.9998C34.8346 23.0124 34.0138 23.8332 33.0013 23.8332H23.8346V32.9998C23.8346 34.0124 23.0138 34.8332 22.0013 34.8332C20.9888 34.8332 20.168 34.0124 20.168 32.9998V23.8332H11.0013C9.98878 23.8332 9.16797 23.0124 9.16797 21.9998C9.16797 20.9873 9.98878 20.1665 11.0013 20.1665H20.168V10.9998C20.168 9.98732 20.9888 9.1665 22.0013 9.1665C23.0138 9.1665 23.8346 9.98732 23.8346 10.9998V20.1665H33.0013C34.0138 20.1665 34.8346 20.9873 34.8346 21.9998Z" fill="#EFEFEF"/>
</svg>
