<svg width="44" height="44" viewBox="0 0 44 44" fill="none" xmlns="http://www.w3.org/2000/svg">
<path d="M29.4848 9.0239L29.4847 9.02402L29.4952 9.02992L35.791 12.5643C36.5887 13.0121 37.0781 13.8598 37.067 14.7744L36.98 21.994L36.9799 21.994L36.98 22.006L37.067 29.2256C37.0781 30.1402 36.5887 30.9879 35.791 31.4357L29.4952 34.9701L29.4952 34.97L29.4848 34.9761L23.276 38.6612C22.4894 39.1281 21.5106 39.1281 20.724 38.6612L14.5152 34.9761L14.5153 34.976L14.5048 34.9701L8.20896 31.4357C7.41133 30.9879 6.92194 30.1402 6.93296 29.2256L7.01996 22.006L7.02011 22.006L7.01996 21.994L6.93296 14.7744C6.92194 13.8598 7.41133 13.0121 8.20896 12.5643L14.5048 9.02992L14.5048 9.03005L14.5152 9.0239L20.724 5.33878C21.5106 4.87191 22.4894 4.87191 23.276 5.33878L29.4848 9.0239Z" stroke="#205BC9"/>
<path d="M20.9792 7.60587C21.6085 7.23238 22.3915 7.23238 23.0208 7.60588L28.45 10.8283L33.9553 13.9189C34.5934 14.2771 34.9849 14.9552 34.9761 15.687L34.9 22L34.9761 28.313C34.9849 29.0448 34.5934 29.7229 33.9553 30.0811L28.45 33.1717L23.0208 36.3941C22.3915 36.7676 21.6085 36.7676 20.9792 36.3941L15.55 33.1717L10.0447 30.0811C9.40662 29.7229 9.01511 29.0448 9.02392 28.313L9.1 22L9.02392 15.687C9.01511 14.9552 9.40662 14.2771 10.0447 13.9189L15.55 10.8283L20.9792 7.60587Z" fill="#205BC9"/>
<path d="M20.9792 7.60587C21.6085 7.23238 22.3915 7.23238 23.0208 7.60588L28.45 10.8283L33.9553 13.9189C34.5934 14.2771 34.9849 14.9552 34.9761 15.687L34.9 22L34.9761 28.313C34.9849 29.0448 34.5934 29.7229 33.9553 30.0811L28.45 33.1717L23.0208 36.3941C22.3915 36.7676 21.6085 36.7676 20.9792 36.3941L15.55 33.1717L10.0447 30.0811C9.40662 29.7229 9.01511 29.0448 9.02392 28.313L9.1 22L9.02392 15.687C9.01511 14.9552 9.40662 14.2771 10.0447 13.9189L15.55 10.8283L20.9792 7.60587Z" fill="url(#paint0_linear_100_3914)"/>
<path d="M20.5 26.5C20.5 27.3284 21.1716 28 22 28C22.8284 28 23.5 27.3284 23.5 26.5V17.5C23.5 16.6716 22.8284 16 22 16C21.1716 16 20.5 16.6716 20.5 17.5V26.5ZM16 26.5C16 27.3284 16.6716 28 17.5 28C18.3284 28 19 27.3284 19 26.5V23.5C19 22.6716 18.3284 22 17.5 22C16.6716 22 16 22.6716 16 23.5V26.5ZM26.5 19.75C25.6716 19.75 25 20.4216 25 21.25V26.5C25 27.3284 25.6716 28 26.5 28C27.3284 28 28 27.3284 28 26.5V21.25C28 20.4216 27.3284 19.75 26.5 19.75Z" fill="#BDBDBD"/>
<defs>
<linearGradient id="paint0_linear_100_3914" x1="30.9224" y1="13.7241" x2="10.4914" y2="33.1207" gradientUnits="userSpaceOnUse">
<stop offset="0.404729" stop-color="#205BC9" stop-opacity="0"/>
<stop offset="1" stop-color="#073D95"/>
</linearGradient>
</defs>
</svg>
