<svg width="36" height="36" viewBox="0 0 36 36" fill="none" xmlns="http://www.w3.org/2000/svg">
<path d="M25.4848 5.0239L25.4847 5.02402L25.4952 5.02992L31.791 8.56434C32.5887 9.01213 33.0781 9.85978 33.067 10.7744L32.98 17.994L32.9799 17.994L32.98 18.006L33.067 25.2256C33.0781 26.1402 32.5887 26.9879 31.791 27.4357L25.4952 30.9701L25.4952 30.97L25.4848 30.9761L19.276 34.6612C18.4894 35.1281 17.5106 35.1281 16.724 34.6612L10.5152 30.9761L10.5153 30.976L10.5048 30.9701L4.20896 27.4357C3.41133 26.9879 2.92194 26.1402 2.93296 25.2256L3.01996 18.006L3.02011 18.006L3.01996 17.994L2.93296 10.7744C2.92194 9.85978 3.41133 9.01213 4.20896 8.56434L10.5048 5.02992L10.5048 5.03005L10.5152 5.0239L16.724 1.33878C17.5106 0.871908 18.4894 0.871907 19.276 1.33878L25.4848 5.0239Z" stroke="#205BC9"/>
<path d="M16.9792 3.60587C17.6085 3.23238 18.3915 3.23238 19.0208 3.60588L24.45 6.82827L29.9553 9.9189C30.5934 10.2771 30.9849 10.9552 30.9761 11.687L30.9 18L30.9761 24.313C30.9849 25.0448 30.5934 25.7229 29.9553 26.0811L24.45 29.1717L19.0208 32.3941C18.3915 32.7676 17.6085 32.7676 16.9792 32.3941L11.55 29.1717L6.04472 26.0811C5.40662 25.7229 5.01511 25.0448 5.02392 24.313L5.1 18L5.02392 11.687C5.01511 10.9552 5.40662 10.2771 6.04472 9.9189L11.55 6.82827L16.9792 3.60587Z" fill="#205BC9"/>
<path d="M16.9792 3.60587C17.6085 3.23238 18.3915 3.23238 19.0208 3.60588L24.45 6.82827L29.9553 9.9189C30.5934 10.2771 30.9849 10.9552 30.9761 11.687L30.9 18L30.9761 24.313C30.9849 25.0448 30.5934 25.7229 29.9553 26.0811L24.45 29.1717L19.0208 32.3941C18.3915 32.7676 17.6085 32.7676 16.9792 32.3941L11.55 29.1717L6.04472 26.0811C5.40662 25.7229 5.01511 25.0448 5.02392 24.313L5.1 18L5.02392 11.687C5.01511 10.9552 5.40662 10.2771 6.04472 9.9189L11.55 6.82827L16.9792 3.60587Z" fill="url(#paint0_linear_71_3548)"/>
<defs>
<linearGradient id="paint0_linear_71_3548" x1="26.9224" y1="9.72414" x2="6.49138" y2="29.1207" gradientUnits="userSpaceOnUse">
<stop offset="0.404729" stop-color="#205BC9" stop-opacity="0"/>
<stop offset="1" stop-color="#073D95"/>
</linearGradient>
</defs>
</svg>
