<svg width="20" height="12" viewBox="0 0 20 12" fill="none" xmlns="http://www.w3.org/2000/svg">
<path d="M15.2071 0C14.7617 0 14.5386 0.538571 14.8536 0.853553L16.29 2.29L12.1171 6.46289C11.7266 6.85342 11.0934 6.85342 10.7029 6.46289L8.11758 3.87758C7.72687 3.48687 7.09334 3.48709 6.70289 3.87806L0.704287 9.88476C0.315243 10.2743 0.315456 10.9055 0.704762 11.2948C1.09425 11.6843 1.72575 11.6843 2.11524 11.2948L6.70289 6.70711C7.09342 6.31658 7.72658 6.31658 8.11711 6.70711L10.7035 9.29346C11.0938 9.68376 11.7265 9.68401 12.1171 9.29402L17.71 3.71L19.1464 5.14645C19.4614 5.46143 20 5.23835 20 4.79289V1C20 0.447715 19.5523 0 19 0H15.2071Z" fill="#3F7EF3"/>
</svg>
