<svg width="200.000000" height="200.000000" viewBox="0 0 200 200" fill="none" xmlns="http://www.w3.org/2000/svg" xmlns:xlink="http://www.w3.org/1999/xlink">
	<desc>
			Created with Pixso.
	</desc>
	<defs>
		<filter id="filter_100_486_dd" x="13.460938" y="1.465820" width="173.078125" height="197.068359" filterUnits="userSpaceOnUse" color-interpolation-filters="sRGB">
			<feFlood flood-opacity="0" result="BackgroundImageFix"/>
			<feGaussianBlur in="BackgroundImage" stdDeviation="2"/>
			<feComposite in2="SourceAlpha" operator="in" result="effect_backgroundBlur_1"/>
			<feBlend mode="normal" in="SourceGraphic" in2="effect_backgroundBlur_1" result="shape"/>
		</filter>
		<clipPath id="clip5_2084">
			<rect id="Desktop/ ic_touch" rx="-0.500000" width="63.000000" height="63.000000" transform="translate(68.500000 68.500000)" fill="white" fill-opacity="0"/>
		</clipPath>
		<linearGradient x1="135.545212" y1="67.030067" x2="54.151279" y2="144.302795" id="paint_linear_5_2083_0" gradientUnits="userSpaceOnUse">
			<stop offset="0.404729" stop-color="#205BC9" stop-opacity="0.000000"/>
			<stop offset="1.000000" stop-color="#073D95"/>
		</linearGradient>
	</defs>
	<g filter="url(#filter_100_486_dd)">
		<path id="Star 2" d="M95.4 2.72L57 25.52L18.05 47.38C15.18 48.99 13.42 52.04 13.46 55.34L14 100L13.46 144.65C13.42 147.95 15.18 151 18.05 152.61L57 174.47L95.4 197.27C98.23 198.95 101.76 198.95 104.59 197.27L143 174.47L181.94 152.61C184.81 151 186.57 147.95 186.53 144.65L186 100L186.53 55.34C186.57 52.04 184.81 48.99 181.94 47.38L143 25.52L104.59 2.72C101.76 1.04 98.23 1.04 95.4 2.72Z" fill="#1B55BD" fill-opacity="0.600000" fill-rule="evenodd"/>
	</g>
	<path id="Star 2" d="M95.4 34.72L70.76 49.35L45.76 63.38C42.89 64.99 41.13 68.04 41.17 71.34L41.51 100L41.17 128.65C41.13 131.95 42.89 135 45.76 136.61L70.76 150.64L95.4 165.27C98.23 166.95 101.76 166.95 104.59 165.27L129.23 150.64L154.23 136.61C157.1 135 158.86 131.95 158.82 128.65L158.48 100L158.82 71.34C158.86 68.04 157.1 64.99 154.23 63.38L129.23 49.35L104.59 34.72C101.76 33.04 98.23 33.04 95.4 34.72Z" fill="#FFFFFF" fill-opacity="1.000000" fill-rule="evenodd"/>
	<path id="Star 2" d="M70.76 49.35L45.76 63.38C42.89 64.99 41.13 68.04 41.17 71.34L41.51 100L41.17 128.65C41.13 131.95 42.89 135 45.76 136.61L70.76 150.64L95.4 165.27C98.23 166.95 101.76 166.95 104.59 165.27L129.23 150.64L154.23 136.61C157.1 135 158.86 131.95 158.82 128.65L158.48 100L158.82 71.34C158.86 68.04 157.1 64.99 154.23 63.38L129.23 49.35L104.59 34.72C101.76 33.04 98.23 33.04 95.4 34.72L70.76 49.35ZM71.26 50.22L46.25 64.25C43.7 65.68 42.14 68.4 42.17 71.32L42.51 100L42.17 128.67C42.14 131.59 43.7 134.31 46.25 135.74L71.26 149.77L95.91 164.41C98.43 165.9 101.56 165.9 104.08 164.41L128.73 149.77L153.74 135.74C156.29 134.31 157.85 131.59 157.82 128.67L157.48 100L157.82 71.32C157.85 68.4 156.29 65.68 153.74 64.25L128.73 50.22L104.08 35.58C101.56 34.09 98.43 34.09 95.91 35.58L71.26 50.22Z" fill="#205BC9" fill-opacity="1.000000" fill-rule="evenodd"/>
	<path id="Star 1" d="M95.4 42.96L74.3 55.49L52.9 67.5C50.03 69.11 48.27 72.16 48.31 75.46L48.6 100L48.31 124.53C48.27 127.83 50.03 130.88 52.9 132.49L74.3 144.5L95.4 157.03C98.23 158.71 101.76 158.71 104.59 157.03L125.69 144.5L147.09 132.49C149.96 130.88 151.72 127.83 151.68 124.53L151.39 100L151.68 75.46C151.72 72.16 149.96 69.11 147.09 67.5L125.69 55.49L104.59 42.96C101.76 41.28 98.23 41.28 95.4 42.96Z" fill="#205BC9" fill-opacity="1.000000" fill-rule="evenodd"/>
	<path id="Star 1" d="M95.4 42.96L74.3 55.49L52.9 67.5C50.03 69.11 48.27 72.16 48.31 75.46L48.6 100L48.31 124.53C48.27 127.83 50.03 130.88 52.9 132.49L74.3 144.5L95.4 157.03C98.23 158.71 101.76 158.71 104.59 157.03L125.69 144.5L147.09 132.49C149.96 130.88 151.72 127.83 151.68 124.53L151.39 100L151.68 75.46C151.72 72.16 149.96 69.11 147.09 67.5L125.69 55.49L104.59 42.96C101.76 41.28 98.23 41.28 95.4 42.96Z" fill="url(#paint_linear_5_2083_0)" fill-opacity="1.000000" fill-rule="evenodd"/>
	<rect id="Desktop/ ic_touch" rx="-0.500000" width="63.000000" height="63.000000" transform="translate(68.500000 68.500000)" fill="#FFFFFF" fill-opacity="0"/>
	<g clip-path="url(#clip5_2084)">
		<path id="Vector" d="M91.32 97.97L91.32 88C91.32 84.31 94.3 81.33 97.98 81.33C101.66 81.33 104.65 84.31 104.65 88L104.65 97.97C107.86 95.82 109.98 92.16 109.98 88C109.98 81.37 104.61 76 97.98 76C91.35 76 85.98 81.37 85.98 88C85.98 92.16 88.1 95.82 91.32 97.97ZM117.54 110.32L105.44 104.29C104.98 104.1 104.5 104 103.98 104L101.98 104L101.98 88C101.98 85.78 100.19 84 97.98 84C95.77 84 93.98 85.78 93.98 88L93.98 116.62L84.85 114.72C84.65 114.68 84.44 114.65 84.22 114.65C83.39 114.65 82.65 115 82.1 115.53L80 117.66L93.17 130.84C93.9 131.56 94.9 132.01 96 132.01L114.12 132.01C116.13 132.01 117.66 130.53 117.94 128.6L119.96 114.54C119.98 114.36 120 114.18 120 114C119.98 112.34 118.97 110.92 117.54 110.32Z" fill="#FFFFFF" fill-opacity="1.000000" fill-rule="evenodd"/>
	</g>
</svg>
