<svg width="36" height="36" viewBox="0 0 36 36" fill="none" xmlns="http://www.w3.org/2000/svg">
<g id="arrows_down_up_icon_175415 1">
<path id="Vector" d="M16.9424 25.8067C17.0991 25.9634 17.2234 26.1495 17.3083 26.3542C17.3931 26.559 17.4367 26.7784 17.4367 27C17.4367 27.2216 17.3931 27.441 17.3083 27.6458C17.2234 27.8505 17.0991 28.0366 16.9424 28.1933L12.4424 32.6933C12.4398 32.6959 12.4369 32.6981 12.4343 32.7007C12.3974 32.737 12.3591 32.7719 12.3191 32.8048C12.2983 32.8218 12.2765 32.8367 12.2551 32.8526C12.2323 32.8696 12.2101 32.8872 12.1864 32.9031C12.1617 32.9196 12.136 32.9341 12.1105 32.9492C12.0887 32.9622 12.0674 32.976 12.0449 32.988C12.0192 33.0017 11.9928 33.0134 11.9667 33.0257C11.9428 33.0369 11.9195 33.0488 11.8951 33.0589C11.8698 33.0693 11.844 33.0778 11.8183 33.087C11.792 33.0965 11.7661 33.1065 11.7392 33.1146C11.7136 33.1224 11.6875 33.1281 11.6617 33.1346C11.6342 33.1415 11.607 33.1493 11.579 33.1548C11.5493 33.1607 11.5194 33.1642 11.4896 33.1684C11.4649 33.172 11.4407 33.1767 11.4157 33.1791C11.3603 33.1845 11.3047 33.1875 11.2492 33.1875C11.1936 33.1875 11.1381 33.1845 11.0827 33.1791C11.0577 33.1767 11.0334 33.172 11.0087 33.1684C10.9789 33.1642 10.949 33.1607 10.9195 33.1548C10.8914 33.1493 10.8642 33.1415 10.8366 33.1346C10.8108 33.1281 10.7847 33.1224 10.7591 33.1147C10.7323 33.1066 10.7064 33.0965 10.6802 33.087C10.6544 33.0778 10.6286 33.0693 10.6033 33.0589C10.5789 33.0488 10.5556 33.0369 10.5318 33.0257C10.5056 33.0134 10.4792 33.0018 10.4535 32.988C10.431 32.976 10.4095 32.9621 10.3876 32.9491C10.3623 32.934 10.3366 32.9196 10.3119 32.9031C10.2882 32.8872 10.2659 32.8695 10.243 32.8524C10.2217 32.8366 10.2 32.8217 10.1792 32.8048C10.1392 32.7719 10.101 32.737 10.0641 32.7007C10.0614 32.6981 10.0585 32.6959 10.0559 32.6933L5.55593 28.1933C5.23982 27.8767 5.06234 27.4476 5.0625 27.0003C5.06266 26.5529 5.24044 26.1239 5.55676 25.8076C5.87309 25.4913 6.30207 25.3135 6.74942 25.3133C7.19677 25.3132 7.62588 25.4907 7.94243 25.8068L9.56168 27.426V4.5C9.56168 4.05245 9.73947 3.62322 10.0559 3.30676C10.3724 2.99029 10.8016 2.8125 11.2492 2.8125C11.6967 2.8125 12.126 2.99029 12.4424 3.30676C12.7589 3.62322 12.9367 4.05245 12.9367 4.5V27.426L14.5559 25.8067C14.8724 25.4903 15.3016 25.3125 15.7492 25.3125C16.1967 25.3125 16.626 25.4903 16.9424 25.8067ZM30.4424 7.80675L25.9424 3.30675C25.9398 3.30414 25.9369 3.30194 25.9343 3.29933C25.8974 3.26301 25.8591 3.22813 25.8191 3.19524C25.7983 3.17821 25.7765 3.16331 25.7551 3.14745C25.7323 3.13042 25.7101 3.11277 25.6864 3.09691C25.6617 3.08043 25.6361 3.06601 25.6108 3.05097C25.5888 3.03786 25.5674 3.02405 25.5448 3.01197C25.5193 2.99831 25.493 2.9867 25.4669 2.97441C25.443 2.96315 25.4195 2.95127 25.3951 2.94111C25.3699 2.93067 25.3441 2.92223 25.3185 2.91309C25.2922 2.90362 25.2661 2.89352 25.2391 2.88528C25.2138 2.87766 25.1882 2.8721 25.1626 2.86565C25.1347 2.85864 25.1072 2.85081 25.0788 2.84518C25.0499 2.83948 25.0207 2.83612 24.9916 2.83186C24.9662 2.82822 24.9412 2.82342 24.9155 2.82088C24.8623 2.81566 24.8089 2.81298 24.7554 2.81284C24.7533 2.81278 24.7513 2.8125 24.7492 2.8125C24.747 2.8125 24.7451 2.81278 24.7429 2.81284C24.6895 2.81305 24.6362 2.81573 24.5829 2.82088C24.5571 2.82342 24.5321 2.82822 24.5067 2.83186C24.4775 2.83612 24.4484 2.83948 24.4196 2.84518C24.3912 2.85081 24.3636 2.85864 24.3357 2.86565C24.3101 2.8721 24.2845 2.87766 24.2593 2.88528C24.2323 2.89352 24.2062 2.90362 24.1799 2.91309C24.1543 2.92223 24.1285 2.93067 24.1032 2.94111C24.0788 2.95127 24.0554 2.96315 24.0316 2.97441C24.0055 2.98663 23.9792 2.99831 23.9536 3.01197C23.9309 3.02412 23.9094 3.03793 23.8874 3.05104C23.8622 3.06608 23.8366 3.08043 23.8119 3.09691C23.7882 3.11284 23.7659 3.13055 23.743 3.14758C23.7218 3.16345 23.7 3.17821 23.6792 3.19524C23.6392 3.22813 23.601 3.26301 23.5641 3.29933C23.5614 3.30194 23.5585 3.30414 23.5559 3.30675L19.0559 7.80675C18.7398 8.12329 18.5623 8.5524 18.5625 8.99975C18.5627 9.44711 18.7404 9.87609 19.0568 10.1924C19.3731 10.5087 19.8021 10.6865 20.2494 10.6867C20.6968 10.6868 21.1259 10.5094 21.4424 10.1933L23.0617 8.574V31.5C23.0617 31.9476 23.2395 32.3768 23.5559 32.6932C23.8724 33.0097 24.3016 33.1875 24.7492 33.1875C25.1967 33.1875 25.626 33.0097 25.9424 32.6932C26.2589 32.3768 26.4367 31.9476 26.4367 31.5V8.574L28.0559 10.1933C28.3725 10.5094 28.8016 10.6868 29.2489 10.6867C29.6963 10.6865 30.1253 10.5087 30.4416 10.1924C30.7579 9.87609 30.9357 9.44711 30.9359 8.99975C30.936 8.5524 30.7585 8.12329 30.4424 7.80675Z" fill="#EFEFEF"/>
</g>
</svg>
