<svg width="60" height="60" viewBox="0 0 60 60" fill="none" xmlns="http://www.w3.org/2000/svg">
<path d="M30 5C43.785 5 55 16.2125 55 30C55 43.785 43.785 55 30 55C22.18 55 14.9575 51.4425 10.1825 45.245C9.57 44.4475 9.7175 43.305 10.5125 42.695C11.3075 42.08 12.4475 42.2325 13.0625 43.025C17.1425 48.325 23.3175 51.365 30 51.365C41.78 51.365 51.3625 41.7825 51.3625 30C51.3625 18.22 41.78 8.635 30 8.635C18.22 8.635 8.635 18.22 8.635 30C8.635 31.095 8.7175 32.1825 8.88 33.2475C9.03 34.2375 8.3475 35.165 7.3575 35.3175C6.36 35.4825 5.4375 34.79 5.285 33.7975C5.095 32.5525 5 31.275 5 30C5 16.2125 16.215 5 30 5ZM18.8005 27.01C20.453 27.01 21.7955 28.3525 21.7955 30C21.7955 31.65 20.453 32.9925 18.8005 32.9925C17.1505 32.9925 15.8055 31.65 15.8055 30C15.8055 28.3525 17.1505 27.01 18.8005 27.01ZM29.9992 27.01C31.6492 27.01 32.9942 28.3525 32.9942 30C32.9942 31.65 31.6492 32.9925 29.9992 32.9925C28.3467 32.9925 27.0042 31.65 27.0042 30C27.0042 28.3525 28.3467 27.01 29.9992 27.01ZM41.1968 27.01C42.8493 27.01 44.1917 28.3525 44.1917 30C44.1917 31.65 42.8493 32.9925 41.1968 32.9925C39.5467 32.9925 38.2017 31.65 38.2017 30C38.2017 28.3525 39.5467 27.01 41.1968 27.01Z" fill="#205BC9"/>
</svg>
