<svg width="60" height="60" viewBox="0 0 60 60" fill="none" xmlns="http://www.w3.org/2000/svg">
<path d="M23.875 15H7V18.75H23.875V15Z" fill="#205BC9"/>
<path d="M23.875 41.25H7V45H23.875V41.25Z" fill="#205BC9"/>
<path d="M12.625 28.125H7V31.875H12.625V28.125Z" fill="#205BC9"/>
<path d="M29.1841 49.3688C28.8166 49.366 28.458 49.2551 28.1529 49.0501C27.8276 48.8361 27.577 48.5262 27.4359 48.1633C27.2948 47.8004 27.2701 47.4026 27.3654 47.0251L30.2716 35.4001L17.7279 31.8751C17.3977 31.7781 17.1005 31.5921 16.869 31.3374C16.6375 31.0827 16.4806 30.7693 16.4154 30.4313C16.3424 30.0852 16.3687 29.7255 16.4915 29.3937C16.6143 29.0619 16.8284 28.7716 17.1091 28.5563L39.9466 11.0251C40.2512 10.8034 40.6154 10.6786 40.9919 10.6669C41.3684 10.6552 41.7397 10.7572 42.0574 10.9596C42.3751 11.1619 42.6245 11.4553 42.773 11.8014C42.9216 12.1475 42.9625 12.5304 42.8904 12.9001L39.9841 24.5251L52.5279 28.1251C52.8581 28.2221 53.1552 28.4081 53.3867 28.6628C53.6182 28.9175 53.7752 29.2309 53.8404 29.5688C53.9134 29.915 53.887 30.2747 53.7643 30.6065C53.6415 30.9383 53.4274 31.2286 53.1466 31.4438L30.3091 48.9751C29.9869 49.2252 29.592 49.3634 29.1841 49.3688ZM22.3404 29.2313L33.0466 32.2876C33.5108 32.4234 33.9046 32.7333 34.1457 33.1526C34.3868 33.5719 34.4566 34.0681 34.3404 34.5376L32.2966 42.7313L47.9154 30.7688L37.2091 27.7126C36.7449 27.5768 36.3511 27.2669 36.11 26.8476C35.8689 26.4283 35.7992 25.9321 35.9154 25.4626L37.9591 17.2688L22.3404 29.2313Z" fill="#205BC9"/>
</svg>
