<svg width="60" height="60" viewBox="0 0 60 60" fill="none" xmlns="http://www.w3.org/2000/svg">
<path d="M38.4574 22.8613L20.3374 37.2613C19.9774 37.5613 19.8574 38.1613 20.2174 38.5213C20.3974 38.7613 20.6374 38.8813 20.9374 38.8813C21.1174 38.8813 21.3574 38.8213 21.4774 38.7013L39.5974 24.3013C39.9574 24.0013 40.0774 23.4013 39.7174 23.0413C39.4174 22.6213 38.8774 22.5613 38.4574 22.8613Z" fill="#205BC9"/>
<path d="M25.1995 29.2804C25.4395 29.2804 25.6795 29.2804 25.9195 29.2204C28.3795 28.8604 30.1195 26.5204 29.6995 24.0004C29.5195 22.8004 28.8595 21.7204 27.8995 21.0004C26.9395 20.2804 25.7395 19.9804 24.5395 20.1604C23.3395 20.3404 22.2595 21.0004 21.5395 21.9604C20.8195 22.9204 20.5195 24.1204 20.6995 25.3204C21.0595 27.6604 23.0395 29.2804 25.1995 29.2804ZM24.7795 22.0204C24.8995 22.0204 25.0795 21.9604 25.1995 21.9604C26.5195 21.9604 27.7195 22.9204 27.8995 24.3004C28.1395 25.8004 27.1195 27.1804 25.6195 27.4204C24.1195 27.6604 22.7395 26.6404 22.4995 25.1404C22.2595 23.6404 23.3395 22.2604 24.7795 22.0204Z" fill="#205BC9"/>
<path d="M34.8022 32.2812C32.2822 32.2812 30.2422 34.3213 30.2422 36.8413C30.2422 39.3613 32.2822 41.4013 34.8022 41.4013C37.3222 41.4013 39.3622 39.3613 39.3622 36.8413C39.3022 34.3213 37.2622 32.2812 34.8022 32.2812ZM34.8022 39.5413C33.3022 39.5413 32.0422 38.2812 32.0422 36.7812C32.0422 35.2812 33.3022 34.0213 34.8022 34.0213C36.3022 34.0213 37.5622 35.2812 37.5622 36.7812C37.5022 38.3413 36.3022 39.5413 34.8022 39.5413Z" fill="#205BC9"/>
<path d="M57.2406 30.1806C57.2406 30.1206 57.3006 30.0006 57.3006 29.9406C57.3006 27.3606 54.6006 26.0406 52.2606 24.9006C50.5806 24.0606 48.7806 23.1606 48.3006 22.0806C47.8206 20.9406 48.4806 19.0806 49.1406 17.3406C50.0406 14.8806 50.9406 12.3606 49.2606 10.6806C47.5806 9.00063 45.1806 9.60063 42.7806 10.1406C41.1006 10.5006 39.3606 10.9206 38.2206 10.4406C37.0806 9.96063 36.1206 8.46063 35.2206 7.02063C33.9006 4.98062 32.4606 2.64062 29.9406 2.64062C27.4206 2.64062 25.9806 4.98063 24.7206 7.08063C23.8206 8.58063 22.9206 10.0806 21.7806 10.5606C20.6406 11.0406 18.8406 10.6206 17.1606 10.2006C14.7606 9.60063 12.3006 9.00063 10.6806 10.6206C9.00063 12.3006 9.84063 14.8206 10.6206 17.2806C11.2206 19.0806 11.7606 20.8806 11.2806 22.0806C10.8006 23.2206 9.12063 24.0606 7.50063 24.9006C5.22063 26.1006 2.64062 27.4206 2.64062 29.9406C2.64062 30.0006 2.64062 30.1206 2.70062 30.1806C2.70062 30.2406 2.64062 30.3606 2.64062 30.4206C2.64062 32.9406 5.22063 34.3206 7.50063 35.4606C9.12063 36.3006 10.8006 37.1406 11.2806 38.2806C11.7606 39.4206 11.1606 41.2806 10.6206 43.0806C9.84063 45.5406 9.00063 48.0606 10.6806 49.7406C12.3606 51.4206 14.8206 50.7606 17.1606 50.1606C18.8406 49.7406 20.6406 49.3206 21.7806 49.8006C22.9206 50.2806 23.8206 51.7806 24.7206 53.2806C25.9806 55.3806 27.4206 57.7206 29.9406 57.7206C32.4606 57.7206 33.9606 55.3806 35.2206 53.3406C36.1206 51.9006 37.0806 50.4006 38.2206 49.9206C39.4206 49.4406 41.1006 49.8006 42.7806 50.2206C45.1206 50.7606 47.5806 51.3606 49.2606 49.6806C50.9406 48.0006 50.0406 45.4806 49.1406 43.0206C48.4806 41.2206 47.8206 39.4206 48.3006 38.2806C48.7806 37.1406 50.5206 36.3006 52.2606 35.4606C54.6006 34.2606 57.3006 32.9406 57.3006 30.4206C57.3006 30.3006 57.2406 30.2406 57.2406 30.1806ZM51.4206 33.8406C49.4406 34.8606 47.3406 35.8806 46.6206 37.6206C45.8406 39.4206 46.6806 41.5806 47.4006 43.6806C48.1206 45.6606 48.8406 47.5806 47.9406 48.4206C46.9806 49.3806 45.1206 48.9606 43.1406 48.4806C41.1606 48.0006 39.1806 47.5806 37.4406 48.3006C35.7606 49.0206 34.6806 50.7006 33.6606 52.3806C32.5206 54.1806 31.4406 55.9206 29.8806 55.9206C28.3806 55.9206 27.3006 54.1806 26.1606 52.3206C25.1406 50.5806 24.0606 48.8406 22.3806 48.1206C20.6406 47.4006 18.6006 47.8806 16.6206 48.4206C14.6406 48.9006 12.7806 49.3806 11.8206 48.4806C10.9206 47.5806 11.5206 45.6606 12.1806 43.6806C12.8406 41.5806 13.5606 39.4206 12.7806 37.6806C12.0606 35.9406 10.0806 34.9206 8.16063 33.9606C6.18063 32.9406 4.32062 31.9806 4.32062 30.4806C4.32062 30.4206 4.32062 30.3006 4.26063 30.2406C4.26063 30.1806 4.32062 30.0606 4.32062 30.0006C4.32062 28.5606 6.18063 27.6006 8.16063 26.5206C10.0806 25.5606 12.0606 24.5406 12.7806 22.8006C13.5006 21.0006 12.8406 18.8406 12.1806 16.8006C11.5206 14.7606 10.9206 12.8406 11.8206 12.0006C12.7806 11.0406 14.6406 11.5206 16.6206 12.0606C18.6006 12.5406 20.6406 13.0806 22.3806 12.3606C24.0606 11.6406 25.1406 9.90063 26.1606 8.16063C27.3006 6.30063 28.3206 4.56062 29.8806 4.56062C31.4406 4.56062 32.5206 6.30063 33.6606 8.10063C34.7406 9.78063 35.8206 11.4606 37.4406 12.1806C39.1806 12.9006 41.1606 12.4206 43.1406 12.0006C45.1206 11.5206 46.9806 11.1006 47.9406 12.0606C48.8406 12.9006 48.1206 14.8206 47.4006 16.8006C46.6206 18.9006 45.8406 21.0606 46.6206 22.8606C47.3406 24.6006 49.4406 25.6206 51.4206 26.6406C53.5206 27.6606 55.4406 28.6806 55.4406 30.1206C55.4406 30.1806 55.4406 30.3006 55.5006 30.3606C55.5006 30.4206 55.4406 30.5406 55.4406 30.6006C55.5006 31.8006 53.5206 32.8206 51.4206 33.8406Z" fill="#205BC9"/>
</svg>
