<svg width="19.000000" height="20.460938" viewBox="0 0 19 20.4609" fill="none" xmlns="http://www.w3.org/2000/svg" xmlns:xlink="http://www.w3.org/1999/xlink">
	<desc>
			Created with Pixso.
	</desc>
	<defs/>
	<path id="Vector" d="M14.53 20.46L4.46 20.46C2 20.46 0 18.73 0 16.61L0 11.17C0 9.94 0.7 8.78 1.86 8.06C1.75 7.6 1.7 7.15 1.7 6.7C1.7 3 5.2 0 9.5 0C13.8 0 17.3 3 17.3 6.7C17.3 7.15 17.24 7.6 17.13 8.06C18.29 8.78 19 9.94 19 11.17L19 16.61C19 18.73 16.99 20.46 14.53 20.46ZM9.5 1.09C5.9 1.09 2.97 3.61 2.97 6.7C2.97 7.18 3.05 7.67 3.21 8.17C3.28 8.41 3.16 8.67 2.91 8.79C1.9 9.28 1.27 10.19 1.27 11.17L1.27 16.61C1.27 18.13 2.71 19.36 4.46 19.36L14.53 19.36C16.28 19.36 17.72 18.13 17.72 16.61L17.72 11.17C17.72 10.19 17.1 9.28 16.09 8.79C15.83 8.67 15.71 8.41 15.78 8.17C15.94 7.67 16.02 7.18 16.02 6.7C16.02 3.61 13.09 1.09 9.5 1.09ZM14.49 8.42L4.46 8.42C4.18 8.42 3.89 8.26 3.82 8.03C3.64 7.51 3.57 7.07 3.57 6.63C3.57 3.84 6.21 1.57 9.46 1.57C12.71 1.57 15.35 3.84 15.35 6.63C15.35 7.07 15.27 7.51 15.1 8.03C15.02 8.26 14.77 8.42 14.49 8.42ZM9.46 2.66C6.91 2.66 4.84 4.44 4.84 6.63C4.84 6.85 4.87 7.08 4.92 7.33L13.99 7.33C14.04 7.08 14.07 6.85 14.07 6.63C14.07 4.44 12 2.66 9.46 2.66Z" fill="#A3A3A3" fill-opacity="1.000000" fill-rule="evenodd"/>
	<path id="Vector" d="M11.73 17.5L7.26 17.5C7.05 17.5 6.86 17.42 6.74 17.27C6.62 17.13 6.59 16.95 6.65 16.78L7.57 14.47C7.07 14.04 6.78 13.46 6.78 12.85C6.78 11.58 7.98 10.55 9.46 10.55C10.93 10.55 12.13 11.58 12.13 12.85C12.13 13.44 11.87 13.99 11.4 14.41L12.33 16.78C12.4 16.95 12.37 17.13 12.25 17.27C12.13 17.42 11.93 17.5 11.73 17.5ZM8.15 16.41L10.84 16.41L10.06 14.42C9.97 14.2 10.06 13.95 10.28 13.81C10.64 13.58 10.85 13.23 10.85 12.85C10.85 12.18 10.22 11.65 9.46 11.65C8.68 11.65 8.06 12.18 8.06 12.85C8.06 13.24 8.28 13.61 8.67 13.84C8.9 13.98 9 14.23 8.91 14.47L8.15 16.41Z" fill="#A3A3A3" fill-opacity="1.000000" fill-rule="evenodd"/>
</svg>
