<svg width="44.000000" height="44.000000" viewBox="0 0 44 44" fill="none" xmlns="http://www.w3.org/2000/svg" xmlns:xlink="http://www.w3.org/1999/xlink">
	<desc>
			Created with Pixso.
	</desc>
	<defs>
		<clipPath id="clip6_5275">
			<rect id="Mobile/ ic_equalizer" rx="-0.500000" width="23.000000" height="23.000000" transform="translate(10.500000 10.500000)" fill="white" fill-opacity="0"/>
		</clipPath>
		<clipPath id="clip6_5276">
			<rect id="infosign_83743 1" rx="-0.500000" width="11.000000" height="11.000000" transform="translate(16.500000 16.500000)" fill="white" fill-opacity="0"/>
		</clipPath>
		<linearGradient x1="30.922411" y1="13.724141" x2="10.491375" y2="33.120693" id="paint_linear_5_1083_0" gradientUnits="userSpaceOnUse">
			<stop offset="0.404729" stop-color="#205BC9" stop-opacity="0.000000"/>
			<stop offset="1.000000" stop-color="#073D95"/>
		</linearGradient>
	</defs>
	<path id="Star 2" d="M14.26 8.59L7.96 12.12C7 12.66 6.41 13.68 6.43 14.78L6.51 22L6.43 29.21C6.41 30.31 7 31.33 7.96 31.87L14.26 35.4L20.46 39.09C21.41 39.65 22.58 39.65 23.53 39.09L29.73 35.4L36.03 31.87C36.99 31.33 37.58 30.31 37.56 29.21L37.48 22L37.56 14.78C37.58 13.68 36.99 12.66 36.03 12.12L29.73 8.59L23.53 4.9C22.58 4.34 21.41 4.34 20.46 4.9L14.26 8.59ZM14.76 9.45L8.45 13C7.81 13.35 7.43 14.03 7.43 14.76L7.51 22L7.43 29.23C7.43 29.96 7.81 30.64 8.45 31L14.76 34.54L20.98 38.23C21.6 38.6 22.39 38.6 23.01 38.23L29.23 34.54L35.54 31C36.18 30.64 36.56 29.96 36.56 29.23L36.48 22L36.56 14.76C36.56 14.03 36.18 13.35 35.54 13L29.23 9.45L23.01 5.76C22.39 5.39 21.6 5.39 20.98 5.76L14.76 9.45Z" fill="#205BC9" fill-opacity="1.000000" fill-rule="evenodd"/>
	<path id="Star 1" d="M20.98 7.6L15.55 10.82L10.04 13.91C9.4 14.27 9.02 14.95 9.02 15.68L9.1 22L9.02 28.31C9.02 29.04 9.4 29.72 10.04 30.08L15.55 33.17L20.98 36.39C21.6 36.76 22.39 36.76 23.01 36.39L28.44 33.17L33.95 30.08C34.59 29.72 34.97 29.04 34.97 28.31L34.89 22L34.97 15.68C34.97 14.95 34.59 14.27 33.95 13.91L28.44 10.82L23.01 7.6C22.39 7.23 21.6 7.23 20.98 7.6Z" fill="#205BC9" fill-opacity="1.000000" fill-rule="evenodd"/>
	<path id="Star 1" d="M20.98 7.6L15.55 10.82L10.04 13.91C9.4 14.27 9.02 14.95 9.02 15.68L9.1 22L9.02 28.31C9.02 29.04 9.4 29.72 10.04 30.08L15.55 33.17L20.98 36.39C21.6 36.76 22.39 36.76 23.01 36.39L28.44 33.17L33.95 30.08C34.59 29.72 34.97 29.04 34.97 28.31L34.89 22L34.97 15.68C34.97 14.95 34.59 14.27 33.95 13.91L28.44 10.82L23.01 7.6C22.39 7.23 21.6 7.23 20.98 7.6Z" fill="url(#paint_linear_5_1083_0)" fill-opacity="1.000000" fill-rule="evenodd"/>
	<g clip-path="url(#clip6_5275)"/>
	<g clip-path="url(#clip6_5276)">
		<path id="Vector" d="M23.45 16C24.26 16 24.66 16.54 24.66 17.17C24.66 17.95 23.96 18.68 23.05 18.68C22.29 18.68 21.85 18.23 21.87 17.48C21.87 16.86 22.39 16 23.45 16ZM20.98 28C20.34 28 19.88 27.6 20.32 25.88L21.05 22.83C21.18 22.34 21.2 22.14 21.05 22.14C20.86 22.14 20.04 22.48 19.55 22.81L19.23 22.28C20.78 20.97 22.55 20.2 23.32 20.2C23.95 20.2 24.05 20.97 23.74 22.14L22.9 25.35C22.76 25.92 22.82 26.12 22.97 26.12C23.16 26.12 23.78 25.88 24.39 25.39L24.75 25.88C23.25 27.41 21.61 28 20.98 28Z" fill="#FFFFFF" fill-opacity="1.000000" fill-rule="nonzero"/>
	</g>
</svg>
