<svg width="23.906250" height="23.914062" viewBox="0 0 23.9062 23.9141" fill="none" xmlns="http://www.w3.org/2000/svg" xmlns:xlink="http://www.w3.org/1999/xlink">
	
	<defs/>
	<path id="Vector" d="M20.14 0.64L11.95 8.83L3.76 0.64C2.9 -0.22 1.5 -0.22 0.64 0.64C-0.22 1.5 -0.22 2.9 0.64 3.76L8.83 11.95L0.64 20.15C-0.22 21 -0.22 22.41 0.64 23.27C1.5 24.12 2.9 24.12 3.76 23.27L11.95 15.07L20.14 23.27C21 24.12 22.41 24.12 23.26 23.27C24.12 22.41 24.12 21 23.26 20.15L15.07 11.95L23.26 3.76C24.12 2.9 24.12 1.5 23.26 0.64C22.41 -0.22 21 -0.22 20.14 0.64Z" fill="currentColor" fill-opacity="1.000000" fill-rule="nonzero"/>
</svg>
