<svg width="36.000000" height="36.000000" viewBox="0 0 36 36" fill="none" xmlns="http://www.w3.org/2000/svg" xmlns:xlink="http://www.w3.org/1999/xlink">

	<defs>
		<clipPath id="clip41_10143">
			<rect id="level_up_icon_144256 1" rx="-0.500000" width="19.000000" height="19.000000" transform="translate(8.500000 8.500000)" fill="white" fill-opacity="0"/>
		</clipPath>
		<linearGradient x1="26.922411" y1="9.724141" x2="6.491375" y2="29.120693" id="paint_linear_43_1169_0" gradientUnits="userSpaceOnUse">
			<stop offset="0.404729" stop-color="#205BC9" stop-opacity="0.000000"/>
			<stop offset="1.000000" stop-color="#073D95"/>
		</linearGradient>
	</defs>
	<path id="Star 2" d="M10.25 4.59L3.96 8.12C3 8.66 2.42 9.68 2.42 10.78L2.52 18L2.42 25.21C2.42 26.31 3 27.33 3.96 27.87L10.25 31.4L16.46 35.09C17.41 35.65 18.58 35.65 19.53 35.09L25.74 31.4L32.03 27.87C32.99 27.33 33.57 26.31 33.57 25.21L33.47 18L33.57 10.78C33.57 9.68 32.99 8.66 32.03 8.12L25.74 4.59L19.53 0.9C18.58 0.34 17.41 0.34 16.46 0.9L10.25 4.59ZM10.75 5.46L4.45 9C3.81 9.35 3.42 10.03 3.42 10.76L3.52 18L3.42 25.23C3.42 25.96 3.81 26.64 4.45 27L10.75 30.53L16.97 34.23C17.6 34.6 18.39 34.6 19.02 34.23L25.24 30.53L31.54 27C32.18 26.64 32.57 25.96 32.57 25.23L32.47 18L32.57 10.76C32.57 10.03 32.18 9.35 31.54 9L25.24 5.46L19.02 1.76C18.39 1.39 17.6 1.39 16.97 1.76L10.75 5.46Z" fill="#205BC9" fill-opacity="1.000000" fill-rule="evenodd"/>
	<path id="Star 1" d="M16.97 3.6L11.54 6.82L6.04 9.91C5.4 10.27 5.02 10.95 5.02 11.68L5.1 18L5.02 24.31C5.02 25.04 5.4 25.72 6.04 26.08L11.54 29.17L16.97 32.39C17.6 32.76 18.39 32.76 19.02 32.39L24.45 29.17L29.95 26.08C30.59 25.72 30.97 25.04 30.97 24.31L30.89 18L30.97 11.68C30.97 10.95 30.59 10.27 29.95 9.91L24.45 6.82L19.02 3.6C18.39 3.23 17.6 3.23 16.97 3.6Z" fill="#205BC9" fill-opacity="1.000000" fill-rule="evenodd"/>
	<path id="Star 1" d="M16.97 3.6L11.54 6.82L6.04 9.91C5.4 10.27 5.02 10.95 5.02 11.68L5.1 18L5.02 24.31C5.02 25.04 5.4 25.72 6.04 26.08L11.54 29.17L16.97 32.39C17.6 32.76 18.39 32.76 19.02 32.39L24.45 29.17L29.95 26.08C30.59 25.72 30.97 25.04 30.97 24.31L30.89 18L30.97 11.68C30.97 10.95 30.59 10.27 29.95 9.91L24.45 6.82L19.02 3.6C18.39 3.23 17.6 3.23 16.97 3.6Z" fill="url(#paint_linear_43_1169_0)" fill-opacity="1.000000" fill-rule="evenodd"/>
	<g clip-path="url(#clip41_10143)">
		<path id="Vector" d="M11.12 23L11.12 24.25L19.56 24.25L19.56 11.07L22.86 14.37L23.75 13.49L18.93 8.67L14.11 13.49L15 14.37L18.31 11.07L18.31 23L11.12 23Z" fill="#FFFFFF" fill-opacity="1.000000" fill-rule="nonzero"/>
	</g>
</svg>
