<svg width="48.000000" height="48.000000" viewBox="0 0 48 48" fill="none" xmlns="http://www.w3.org/2000/svg" xmlns:xlink="http://www.w3.org/1999/xlink">
	<desc>
			Created with Pixso.
	</desc>
	<defs>
		<clipPath id="clip35_1016">
			<rect id="Mobile/ ic_equalizer" rx="-0.500000" width="23.000000" height="23.000000" transform="translate(12.500000 12.500000)" fill="white" fill-opacity="0"/>
		</clipPath>
		<clipPath id="clip41_10143">
			<rect id="level_up_icon_144256 1" rx="-0.500000" width="19.000000" height="19.000000" transform="translate(11.500000 14.500000)" fill="white" fill-opacity="0"/>
		</clipPath>
		<linearGradient x1="29.922411" y1="15.724141" x2="9.491375" y2="35.120693" id="paint_linear_43_1169_0" gradientUnits="userSpaceOnUse">
			<stop offset="0.404729" stop-color="#205BC9" stop-opacity="0.000000"/>
			<stop offset="1.000000" stop-color="#073D95"/>
		</linearGradient>
	</defs>
	<path id="Star 2" d="M13.25 10.59L6.96 14.12C6 14.66 5.42 15.68 5.42 16.78L5.52 24L5.42 31.21C5.42 32.31 6 33.33 6.96 33.87L13.25 37.4L19.46 41.09C20.41 41.65 21.58 41.65 22.53 41.09L28.74 37.4L35.03 33.87C35.99 33.33 36.57 32.31 36.57 31.21L36.47 24L36.57 16.78C36.57 15.68 35.99 14.66 35.03 14.12L28.74 10.59L22.53 6.9C21.58 6.34 20.41 6.34 19.46 6.9L13.25 10.59ZM13.75 11.46L7.45 15C6.81 15.35 6.42 16.03 6.42 16.76L6.52 24L6.42 31.23C6.42 31.96 6.81 32.64 7.45 33L13.75 36.53L19.97 40.23C20.6 40.6 21.39 40.6 22.02 40.23L28.24 36.53L34.54 33C35.18 32.64 35.57 31.96 35.57 31.23L35.47 24L35.57 16.76C35.57 16.03 35.18 15.35 34.54 15L28.24 11.46L22.02 7.76C21.39 7.39 20.6 7.39 19.97 7.76L13.75 11.46Z" fill="#205BC9" fill-opacity="1.000000" fill-rule="evenodd"/>
	<path id="Star 1" d="M19.97 9.6L14.54 12.82L9.04 15.91C8.4 16.27 8.02 16.95 8.02 17.68L8.1 24L8.02 30.31C8.02 31.04 8.4 31.72 9.04 32.08L14.54 35.17L19.97 38.39C20.6 38.76 21.39 38.76 22.02 38.39L27.45 35.17L32.95 32.08C33.59 31.72 33.97 31.04 33.97 30.31L33.89 24L33.97 17.68C33.97 16.95 33.59 16.27 32.95 15.91L27.45 12.82L22.02 9.6C21.39 9.23 20.6 9.23 19.97 9.6Z" fill="#205BC9" fill-opacity="1.000000" fill-rule="evenodd"/>
	<path id="Star 1" d="M19.97 9.6L14.54 12.82L9.04 15.91C8.4 16.27 8.02 16.95 8.02 17.68L8.1 24L8.02 30.31C8.02 31.04 8.4 31.72 9.04 32.08L14.54 35.17L19.97 38.39C20.6 38.76 21.39 38.76 22.02 38.39L27.45 35.17L32.95 32.08C33.59 31.72 33.97 31.04 33.97 30.31L33.89 24L33.97 17.68C33.97 16.95 33.59 16.27 32.95 15.91L27.45 12.82L22.02 9.6C21.39 9.23 20.6 9.23 19.97 9.6Z" fill="url(#paint_linear_43_1169_0)" fill-opacity="1.000000" fill-rule="evenodd"/>
	<g clip-path="url(#clip35_1016)"/>
	<g clip-path="url(#clip41_10143)">
		<path id="Vector" d="M14.12 29L14.12 30.25L22.56 30.25L22.56 17.07L25.86 20.37L26.75 19.49L21.93 14.67L17.11 19.49L18 20.37L21.31 17.07L21.31 29L14.12 29Z" fill="#FFFFFF" fill-opacity="1.000000" fill-rule="nonzero"/>
	</g>
</svg>
