<svg width="38.000000" height="36.000000" viewBox="0 0 38 36" fill="none" xmlns="http://www.w3.org/2000/svg" xmlns:xlink="http://www.w3.org/1999/xlink">
	<desc>
			Created with Pixso.
	</desc>
	<defs>
		<linearGradient x1="26.922411" y1="9.724141" x2="6.491375" y2="29.120693" id="paint_linear_43_1160_0" gradientUnits="userSpaceOnUse">
			<stop offset="0.404729" stop-color="#205BC9" stop-opacity="0.000000"/>
			<stop offset="1.000000" stop-color="#073D95"/>
		</linearGradient>
	</defs>
	<path id="Star 2" d="M10.25 4.59L3.96 8.12C3 8.66 2.42 9.68 2.42 10.78L2.52 18L2.42 25.21C2.42 26.31 3 27.33 3.96 27.87L10.25 31.4L16.46 35.09C17.41 35.65 18.58 35.65 19.53 35.09L25.74 31.4L32.03 27.87C32.99 27.33 33.57 26.31 33.57 25.21L33.47 18L33.57 10.78C33.57 9.68 32.99 8.66 32.03 8.12L25.74 4.59L19.53 0.9C18.58 0.34 17.41 0.34 16.46 0.9L10.25 4.59ZM10.75 5.46L4.45 9C3.81 9.35 3.42 10.03 3.42 10.76L3.52 18L3.42 25.23C3.42 25.96 3.81 26.64 4.45 27L10.75 30.53L16.97 34.23C17.6 34.6 18.39 34.6 19.02 34.23L25.24 30.53L31.54 27C32.18 26.64 32.57 25.96 32.57 25.23L32.47 18L32.57 10.76C32.57 10.03 32.18 9.35 31.54 9L25.24 5.46L19.02 1.76C18.39 1.39 17.6 1.39 16.97 1.76L10.75 5.46Z" fill="#205BC9" fill-opacity="1.000000" fill-rule="evenodd"/>
	<path id="Star 1" d="M16.97 3.6L11.54 6.82L6.04 9.91C5.4 10.27 5.02 10.95 5.02 11.68L5.1 18L5.02 24.31C5.02 25.04 5.4 25.72 6.04 26.08L11.54 29.17L16.97 32.39C17.6 32.76 18.39 32.76 19.02 32.39L24.45 29.17L29.95 26.08C30.59 25.72 30.97 25.04 30.97 24.31L30.89 18L30.97 11.68C30.97 10.95 30.59 10.27 29.95 9.91L24.45 6.82L19.02 3.6C18.39 3.23 17.6 3.23 16.97 3.6Z" fill="#205BC9" fill-opacity="1.000000" fill-rule="evenodd"/>
	<path id="Star 1" d="M16.97 3.6L11.54 6.82L6.04 9.91C5.4 10.27 5.02 10.95 5.02 11.68L5.1 18L5.02 24.31C5.02 25.04 5.4 25.72 6.04 26.08L11.54 29.17L16.97 32.39C17.6 32.76 18.39 32.76 19.02 32.39L24.45 29.17L29.95 26.08C30.59 25.72 30.97 25.04 30.97 24.31L30.89 18L30.97 11.68C30.97 10.95 30.59 10.27 29.95 9.91L24.45 6.82L19.02 3.6C18.39 3.23 17.6 3.23 16.97 3.6Z" fill="url(#paint_linear_43_1160_0)" fill-opacity="1.000000" fill-rule="evenodd"/>
	<path id="Vector" d="M18 27C22.96 27 27 22.97 27 18C27 13.02 22.96 9 18 9C13.03 9 9 13.02 9 18C9 22.97 13.03 27 18 27ZM18 9.87C22.5 9.87 26.12 13.52 26.12 18C26.12 22.47 22.5 26.12 18 26.12C13.5 26.12 9.87 22.47 9.87 18C9.87 13.52 13.52 9.87 18 9.87ZM14.46 18.87C14.29 18.7 14.29 18.42 14.46 18.25C14.56 18.16 14.65 18.14 14.77 18.14C14.89 18.14 14.98 18.18 15.07 18.25L17.57 20.75L17.57 13.85C17.57 13.61 17.76 13.43 18 13.43C18.23 13.43 18.42 13.61 18.42 13.85L18.42 20.75L20.89 18.28C21.06 18.11 21.34 18.11 21.51 18.28C21.67 18.44 21.67 18.73 21.51 18.89L18.3 22.09C18.28 22.12 18.25 22.14 18.23 22.14L18.21 22.16C18.18 22.16 18.18 22.19 18.16 22.19C18.14 22.19 18.14 22.19 18.11 22.21C18.09 22.21 18.09 22.21 18.07 22.21C18.02 22.21 17.95 22.21 17.9 22.21C17.88 22.21 17.88 22.21 17.85 22.21C17.82 22.21 17.82 22.21 17.8 22.19C17.78 22.19 17.78 22.16 17.75 22.16C17.75 22.16 17.73 22.16 17.73 22.14C17.71 22.12 17.68 22.12 17.66 22.09L14.46 18.87Z" fill="#FFFFFF" fill-opacity="1.000000" fill-rule="nonzero"/>
</svg>
