<svg width="48.000000" height="48.000000" viewBox="0 0 48 48" fill="none" xmlns="http://www.w3.org/2000/svg" xmlns:xlink="http://www.w3.org/1999/xlink">
	<desc>
			Created with Pixso.
	</desc>
	<defs>
		<clipPath id="clip35_989">
			<rect id="Mobile/ ic_equalizer" rx="-0.500000" width="23.000000" height="23.000000" transform="translate(12.500000 12.500000)" fill="white" fill-opacity="0"/>
		</clipPath>
		<clipPath id="clip41_10121">
			<rect id="uparrowinsidecircle_121998 1" rx="-0.500000" width="17.000000" height="17.000000" transform="translate(31.500000 33.500000) rotate(-179.999985)" fill="white" fill-opacity="0"/>
		</clipPath>
		<linearGradient x1="30.922411" y1="15.724141" x2="10.491375" y2="35.120693" id="paint_linear_43_1160_0" gradientUnits="userSpaceOnUse">
			<stop offset="0.404729" stop-color="#205BC9" stop-opacity="0.000000"/>
			<stop offset="1.000000" stop-color="#073D95"/>
		</linearGradient>
	</defs>
	<path id="Star 2" d="M14.25 10.59L7.96 14.12C7 14.66 6.42 15.68 6.42 16.78L6.52 24L6.42 31.21C6.42 32.31 7 33.33 7.96 33.87L14.25 37.4L20.46 41.09C21.41 41.65 22.58 41.65 23.53 41.09L29.74 37.4L36.03 33.87C36.99 33.33 37.57 32.31 37.57 31.21L37.47 24L37.57 16.78C37.57 15.68 36.99 14.66 36.03 14.12L29.74 10.59L23.53 6.9C22.58 6.34 21.41 6.34 20.46 6.9L14.25 10.59ZM14.75 11.46L8.45 15C7.81 15.35 7.42 16.03 7.42 16.76L7.52 24L7.42 31.23C7.42 31.96 7.81 32.64 8.45 33L14.75 36.53L20.97 40.23C21.6 40.6 22.39 40.6 23.02 40.23L29.24 36.53L35.54 33C36.18 32.64 36.57 31.96 36.57 31.23L36.47 24L36.57 16.76C36.57 16.03 36.18 15.35 35.54 15L29.24 11.46L23.02 7.76C22.39 7.39 21.6 7.39 20.97 7.76L14.75 11.46Z" fill="#205BC9" fill-opacity="1.000000" fill-rule="evenodd"/>
	<path id="Star 1" d="M20.97 9.6L15.54 12.82L10.04 15.91C9.4 16.27 9.02 16.95 9.02 17.68L9.1 24L9.02 30.31C9.02 31.04 9.4 31.72 10.04 32.08L15.54 35.17L20.97 38.39C21.6 38.76 22.39 38.76 23.02 38.39L28.45 35.17L33.95 32.08C34.59 31.72 34.97 31.04 34.97 30.31L34.89 24L34.97 17.68C34.97 16.95 34.59 16.27 33.95 15.91L28.45 12.82L23.02 9.6C22.39 9.23 21.6 9.23 20.97 9.6Z" fill="#205BC9" fill-opacity="1.000000" fill-rule="evenodd"/>
	<path id="Star 1" d="M20.97 9.6L15.54 12.82L10.04 15.91C9.4 16.27 9.02 16.95 9.02 17.68L9.1 24L9.02 30.31C9.02 31.04 9.4 31.72 10.04 32.08L15.54 35.17L20.97 38.39C21.6 38.76 22.39 38.76 23.02 38.39L28.45 35.17L33.95 32.08C34.59 31.72 34.97 31.04 34.97 30.31L34.89 24L34.97 17.68C34.97 16.95 34.59 16.27 33.95 15.91L28.45 12.82L23.02 9.6C22.39 9.23 21.6 9.23 20.97 9.6Z" fill="url(#paint_linear_43_1160_0)" fill-opacity="1.000000" fill-rule="evenodd"/>
	<g clip-path="url(#clip35_989)"/>
	<g clip-path="url(#clip41_10121)">
		<path id="Vector" d="M22 33C26.96 33 31 28.97 31 24C31 19.02 26.96 15 22 15C17.03 15 13 19.02 13 24C13 28.97 17.03 33 22 33ZM22 15.87C26.5 15.87 30.12 19.52 30.12 24C30.12 28.47 26.5 32.12 22 32.12C17.5 32.12 13.87 28.47 13.87 24C13.87 19.52 17.52 15.87 22 15.87ZM18.46 24.87C18.29 24.7 18.29 24.42 18.46 24.25C18.56 24.16 18.65 24.14 18.77 24.14C18.89 24.14 18.98 24.18 19.07 24.25L21.57 26.75L21.57 19.85C21.57 19.61 21.76 19.43 22 19.43C22.23 19.43 22.42 19.61 22.42 19.85L22.42 26.75L24.89 24.28C25.06 24.11 25.34 24.11 25.51 24.28C25.67 24.44 25.67 24.73 25.51 24.89L22.3 28.09C22.28 28.12 22.25 28.14 22.23 28.14L22.21 28.16C22.18 28.16 22.18 28.19 22.16 28.19C22.14 28.19 22.14 28.19 22.11 28.21C22.09 28.21 22.09 28.21 22.07 28.21C22.02 28.21 21.95 28.21 21.9 28.21C21.88 28.21 21.88 28.21 21.85 28.21C21.82 28.21 21.82 28.21 21.8 28.19C21.78 28.19 21.78 28.16 21.75 28.16C21.75 28.16 21.73 28.16 21.73 28.14C21.71 28.12 21.68 28.12 21.66 28.09L18.46 24.87Z" fill="#FFFFFF" fill-opacity="1.000000" fill-rule="nonzero"/>
	</g>
</svg>
