<svg width="36.000000" height="36.000000" viewBox="0 0 36 36" fill="none" xmlns="http://www.w3.org/2000/svg" xmlns:xlink="http://www.w3.org/1999/xlink">
	<desc>
			Created with Pixso.
	</desc>
	<defs>
		<clipPath id="clip36_923">
			<rect id="responsive_devices_icon_123444 1" rx="-0.500000" width="17.000000" height="17.000000" transform="translate(9.500000 9.500000)" fill="white" fill-opacity="0"/>
		</clipPath>
		<linearGradient x1="26.922411" y1="9.724141" x2="6.491375" y2="29.120693" id="paint_linear_43_1157_0" gradientUnits="userSpaceOnUse">
			<stop offset="0.404729" stop-color="#205BC9" stop-opacity="0.000000"/>
			<stop offset="1.000000" stop-color="#073D95"/>
		</linearGradient>
	</defs>
	<path id="Star 2" d="M10.25 4.59L3.96 8.12C3 8.66 2.42 9.68 2.42 10.78L2.52 18L2.42 25.21C2.42 26.31 3 27.33 3.96 27.87L10.25 31.4L16.46 35.09C17.41 35.65 18.58 35.65 19.53 35.09L25.74 31.4L32.03 27.87C32.99 27.33 33.57 26.31 33.57 25.21L33.47 18L33.57 10.78C33.57 9.68 32.99 8.66 32.03 8.12L25.74 4.59L19.53 0.9C18.58 0.34 17.41 0.34 16.46 0.9L10.25 4.59ZM10.75 5.46L4.45 9C3.81 9.35 3.42 10.03 3.42 10.76L3.52 18L3.42 25.23C3.42 25.96 3.81 26.64 4.45 27L10.75 30.53L16.97 34.23C17.6 34.6 18.39 34.6 19.02 34.23L25.24 30.53L31.54 27C32.18 26.64 32.57 25.96 32.57 25.23L32.47 18L32.57 10.76C32.57 10.03 32.18 9.35 31.54 9L25.24 5.46L19.02 1.76C18.39 1.39 17.6 1.39 16.97 1.76L10.75 5.46Z" fill="#205BC9" fill-opacity="1.000000" fill-rule="evenodd"/>
	<path id="Star 1" d="M16.97 3.6L11.54 6.82L6.04 9.91C5.4 10.27 5.02 10.95 5.02 11.68L5.1 18L5.02 24.31C5.02 25.04 5.4 25.72 6.04 26.08L11.54 29.17L16.97 32.39C17.6 32.76 18.39 32.76 19.02 32.39L24.45 29.17L29.95 26.08C30.59 25.72 30.97 25.04 30.97 24.31L30.89 18L30.97 11.68C30.97 10.95 30.59 10.27 29.95 9.91L24.45 6.82L19.02 3.6C18.39 3.23 17.6 3.23 16.97 3.6Z" fill="#205BC9" fill-opacity="1.000000" fill-rule="evenodd"/>
	<path id="Star 1" d="M16.97 3.6L11.54 6.82L6.04 9.91C5.4 10.27 5.02 10.95 5.02 11.68L5.1 18L5.02 24.31C5.02 25.04 5.4 25.72 6.04 26.08L11.54 29.17L16.97 32.39C17.6 32.76 18.39 32.76 19.02 32.39L24.45 29.17L29.95 26.08C30.59 25.72 30.97 25.04 30.97 24.31L30.89 18L30.97 11.68C30.97 10.95 30.59 10.27 29.95 9.91L24.45 6.82L19.02 3.6C18.39 3.23 17.6 3.23 16.97 3.6Z" fill="url(#paint_linear_43_1157_0)" fill-opacity="1.000000" fill-rule="evenodd"/>
	<g clip-path="url(#clip36_923)">
		<path id="Vector" d="M26.99 18.67C26.98 18.65 26.97 18.62 26.96 18.6C26.96 18.58 26.95 18.56 26.93 18.54C26.92 18.52 26.9 18.5 26.89 18.48C26.87 18.46 26.85 18.45 26.83 18.43C26.81 18.42 26.79 18.41 26.77 18.4C26.75 18.39 26.72 18.38 26.7 18.38C26.67 18.37 26.64 18.37 26.62 18.37L25.5 18.37L25.5 11.62L12 11.62L12 16.87L9 16.87L9 24.37L19.5 24.37L19.5 22.12L24 22.12L24 23.25C24 23.27 24 23.3 24 23.32C24.01 23.34 24.02 23.37 24.03 23.39C24.03 23.41 24.04 23.43 24.06 23.45C24.07 23.48 24.09 23.49 24.1 23.51C24.12 23.53 24.14 23.54 24.16 23.56C24.18 23.57 24.2 23.58 24.22 23.59C24.25 23.6 24.27 23.61 24.29 23.61C24.32 23.62 24.35 23.62 24.37 23.62L26.62 23.62C26.64 23.62 26.67 23.62 26.7 23.61C26.72 23.61 26.75 23.6 26.77 23.59C26.79 23.58 26.81 23.57 26.83 23.56C26.85 23.54 26.87 23.53 26.89 23.51C26.9 23.49 26.92 23.48 26.93 23.45C26.95 23.43 26.96 23.41 26.96 23.39C26.97 23.37 26.98 23.34 26.99 23.32C27 23.3 27 23.27 27 23.25L27 18.75C27 18.72 27 18.69 26.99 18.67ZM18 23.62L9.75 23.62L9.75 17.62L12 17.62L12.75 17.62L18 17.62L18 21.37L18 22.12L18 23.62ZM18.45 20.62C18.45 20.45 18.58 20.32 18.75 20.32C18.91 20.32 19.04 20.45 19.04 20.62C19.04 20.79 18.91 20.92 18.75 20.92C18.58 20.92 18.45 20.79 18.45 20.62ZM24 21.37L19.5 21.37L19.5 21.22L19.5 16.87L18.82 16.87L18.67 16.87L15.85 16.87L15.71 16.87L12.89 16.87L12.75 16.87L12.75 12.37L24.75 12.37L24.75 18.37L24.6 18.37L24.37 18.37C24.35 18.37 24.32 18.37 24.29 18.38C24.27 18.38 24.25 18.39 24.22 18.4C24.2 18.41 24.18 18.42 24.16 18.43C24.14 18.45 24.12 18.46 24.1 18.48C24.09 18.5 24.07 18.52 24.06 18.54C24.04 18.56 24.03 18.58 24.03 18.6C24.02 18.62 24.01 18.65 24 18.67C24 18.69 24 18.72 24 18.75L24 21.22L24 21.37ZM26.62 22.87L26.47 22.87L24.52 22.87L24.37 22.87L24.37 22.12L24.37 21.37L24.37 21.22L24.37 19.12L24.6 19.12L24.75 19.12L25.5 19.12L26.62 19.12L26.62 22.87Z" fill="#FFFFFF" fill-opacity="1.000000" fill-rule="nonzero"/>
	</g>
</svg>
