<svg width="44.000000" height="44.000000" viewBox="0 0 44 44" fill="none" xmlns="http://www.w3.org/2000/svg" xmlns:xlink="http://www.w3.org/1999/xlink">
	<desc>
			Created with Pixso.
	</desc>
	<defs>
		<clipPath id="clip38_1317">
			<rect id="Mobile/ ic_equalizer" rx="-0.500000" width="23.000000" height="23.000000" transform="translate(10.500000 10.500000)" fill="white" fill-opacity="0"/>
		</clipPath>
		<clipPath id="clip38_1318">
			<rect id="3586359-device-mobile-phone-smartphone_107936 1" rx="-0.500000" width="19.000000" height="19.000000" transform="translate(12.500000 12.500000)" fill="white" fill-opacity="0"/>
		</clipPath>
		<linearGradient x1="30.922411" y1="13.724141" x2="10.491375" y2="33.120693" id="paint_linear_13_650_0" gradientUnits="userSpaceOnUse">
			<stop offset="0.404729" stop-color="#205BC9" stop-opacity="0.000000"/>
			<stop offset="1.000000" stop-color="#073D95"/>
		</linearGradient>
	</defs>
	<path id="Star 2" d="M14.25 8.59L7.96 12.12C7 12.66 6.42 13.68 6.42 14.78L6.52 22L6.42 29.21C6.42 30.31 7 31.33 7.96 31.87L14.25 35.4L20.46 39.09C21.41 39.65 22.58 39.65 23.53 39.09L29.74 35.4L36.03 31.87C36.99 31.33 37.57 30.31 37.57 29.21L37.47 22L37.57 14.78C37.57 13.68 36.99 12.66 36.03 12.12L29.74 8.59L23.53 4.9C22.58 4.34 21.41 4.34 20.46 4.9L14.25 8.59ZM14.75 9.46L8.45 13C7.81 13.35 7.42 14.03 7.42 14.76L7.52 22L7.42 29.23C7.42 29.96 7.81 30.64 8.45 31L14.75 34.53L20.97 38.23C21.6 38.6 22.39 38.6 23.02 38.23L29.24 34.53L35.54 31C36.18 30.64 36.57 29.96 36.57 29.23L36.47 22L36.57 14.76C36.57 14.03 36.18 13.35 35.54 13L29.24 9.46L23.02 5.76C22.39 5.39 21.6 5.39 20.97 5.76L14.75 9.46Z" fill="#205BC9" fill-opacity="1.000000" fill-rule="evenodd"/>
	<path id="Star 1" d="M20.97 7.6L15.54 10.82L10.04 13.91C9.4 14.27 9.02 14.95 9.02 15.68L9.1 22L9.02 28.31C9.02 29.04 9.4 29.72 10.04 30.08L15.54 33.17L20.97 36.39C21.6 36.76 22.39 36.76 23.02 36.39L28.45 33.17L33.95 30.08C34.59 29.72 34.97 29.04 34.97 28.31L34.89 22L34.97 15.68C34.97 14.95 34.59 14.27 33.95 13.91L28.45 10.82L23.02 7.6C22.39 7.23 21.6 7.23 20.97 7.6Z" fill="#205BC9" fill-opacity="1.000000" fill-rule="evenodd"/>
	<path id="Star 1" d="M20.97 7.6L15.54 10.82L10.04 13.91C9.4 14.27 9.02 14.95 9.02 15.68L9.1 22L9.02 28.31C9.02 29.04 9.4 29.72 10.04 30.08L15.54 33.17L20.97 36.39C21.6 36.76 22.39 36.76 23.02 36.39L28.45 33.17L33.95 30.08C34.59 29.72 34.97 29.04 34.97 28.31L34.89 22L34.97 15.68C34.97 14.95 34.59 14.27 33.95 13.91L28.45 10.82L23.02 7.6C22.39 7.23 21.6 7.23 20.97 7.6Z" fill="url(#paint_linear_13_650_0)" fill-opacity="1.000000" fill-rule="evenodd"/>
	<g clip-path="url(#clip38_1317)"/>
	<g clip-path="url(#clip38_1318)">
		<path id="Vector" d="M25.8 13.71L17.57 13.71C16.52 13.71 15.64 14.57 15.64 15.62L15.64 28.81C15.64 29.86 16.5 30.72 17.57 30.72L25.8 30.72C26.86 30.72 27.74 29.86 27.74 28.81L27.74 15.62C27.74 14.57 26.88 13.71 25.8 13.71ZM27.14 28.81C27.14 29.54 26.54 30.12 25.8 30.12L17.57 30.12C16.84 30.12 16.24 29.52 16.24 28.81L16.24 15.62C16.24 14.88 16.84 14.31 17.57 14.31L25.8 14.31C26.54 14.31 27.14 14.9 27.14 15.62L27.14 28.81Z" fill="#FFFFFF" fill-opacity="1.000000" fill-rule="nonzero"/>
		<path id="Vector" d="M24.13 15.6L19.21 15.6C19.05 15.6 18.91 15.74 18.91 15.9C18.91 16.06 19.05 16.2 19.21 16.2L24.13 16.2C24.28 16.2 24.42 16.06 24.42 15.9C24.42 15.74 24.28 15.6 24.13 15.6Z" fill="#FFFFFF" fill-opacity="1.000000" fill-rule="nonzero"/>
		<path id="Vector" d="M21.67 27.01C21.12 27.01 20.68 27.47 20.68 28.01C20.68 28.27 20.78 28.53 20.98 28.71C21.16 28.89 21.42 28.99 21.67 28.99C22.24 28.99 22.67 28.53 22.67 27.99C22.67 27.45 22.24 27.01 21.67 27.01ZM21.7 28.41C21.6 28.41 21.5 28.37 21.42 28.29C21.34 28.21 21.3 28.11 21.3 28.01C21.3 27.79 21.48 27.61 21.7 27.61C21.92 27.61 22.1 27.79 22.1 28.01C22.1 28.23 21.92 28.41 21.7 28.41Z" fill="#FFFFFF" fill-opacity="1.000000" fill-rule="nonzero"/>
	</g>
</svg>
