<svg width="48.000000" height="48.000000" viewBox="0 0 48 48" fill="none" xmlns="http://www.w3.org/2000/svg" xmlns:xlink="http://www.w3.org/1999/xlink">
	<desc>
			Created with Pixso.
	</desc>
	<defs>
		<clipPath id="clip35_969">
			<rect id="Mobile/ ic_equalizer" rx="-0.500000" width="23.000000" height="23.000000" transform="translate(12.500000 12.500000)" fill="white" fill-opacity="0"/>
		</clipPath>
		<clipPath id="clip36_923">
			<rect id="responsive_devices_icon_123444 1" rx="-0.500000" width="17.000000" height="17.000000" transform="translate(15.500000 16.000000)" fill="white" fill-opacity="0"/>
		</clipPath>
		<linearGradient x1="32.922409" y1="15.724141" x2="12.491375" y2="35.120693" id="paint_linear_43_1157_0" gradientUnits="userSpaceOnUse">
			<stop offset="0.404729" stop-color="#205BC9" stop-opacity="0.000000"/>
			<stop offset="1.000000" stop-color="#073D95"/>
		</linearGradient>
	</defs>
	<path id="Star 2" d="M16.25 10.59L9.96 14.12C9 14.66 8.42 15.68 8.42 16.78L8.52 24L8.42 31.21C8.42 32.31 9 33.33 9.96 33.87L16.25 37.4L22.46 41.09C23.41 41.65 24.58 41.65 25.53 41.09L31.74 37.4L38.03 33.87C38.99 33.33 39.57 32.31 39.57 31.21L39.47 24L39.57 16.78C39.57 15.68 38.99 14.66 38.03 14.12L31.74 10.59L25.53 6.9C24.58 6.34 23.41 6.34 22.46 6.9L16.25 10.59ZM16.75 11.46L10.45 15C9.81 15.35 9.42 16.03 9.42 16.76L9.52 24L9.42 31.23C9.42 31.96 9.81 32.64 10.45 33L16.75 36.53L22.97 40.23C23.6 40.6 24.39 40.6 25.02 40.23L31.24 36.53L37.54 33C38.18 32.64 38.57 31.96 38.57 31.23L38.47 24L38.57 16.76C38.57 16.03 38.18 15.35 37.54 15L31.24 11.46L25.02 7.76C24.39 7.39 23.6 7.39 22.97 7.76L16.75 11.46Z" fill="#205BC9" fill-opacity="1.000000" fill-rule="evenodd"/>
	<path id="Star 1" d="M22.97 9.6L17.54 12.82L12.04 15.91C11.4 16.27 11.02 16.95 11.02 17.68L11.1 24L11.02 30.31C11.02 31.04 11.4 31.72 12.04 32.08L17.54 35.17L22.97 38.39C23.6 38.76 24.39 38.76 25.02 38.39L30.45 35.17L35.95 32.08C36.59 31.72 36.97 31.04 36.97 30.31L36.89 24L36.97 17.68C36.97 16.95 36.59 16.27 35.95 15.91L30.45 12.82L25.02 9.6C24.39 9.23 23.6 9.23 22.97 9.6Z" fill="#205BC9" fill-opacity="1.000000" fill-rule="evenodd"/>
	<path id="Star 1" d="M22.97 9.6L17.54 12.82L12.04 15.91C11.4 16.27 11.02 16.95 11.02 17.68L11.1 24L11.02 30.31C11.02 31.04 11.4 31.72 12.04 32.08L17.54 35.17L22.97 38.39C23.6 38.76 24.39 38.76 25.02 38.39L30.45 35.17L35.95 32.08C36.59 31.72 36.97 31.04 36.97 30.31L36.89 24L36.97 17.68C36.97 16.95 36.59 16.27 35.95 15.91L30.45 12.82L25.02 9.6C24.39 9.23 23.6 9.23 22.97 9.6Z" fill="url(#paint_linear_43_1157_0)" fill-opacity="1.000000" fill-rule="evenodd"/>
	<g clip-path="url(#clip35_969)"/>
	<g clip-path="url(#clip36_923)">
		<path id="Vector" d="M32.99 25.17C32.98 25.15 32.97 25.12 32.96 25.1C32.96 25.08 32.95 25.06 32.93 25.04C32.92 25.02 32.9 25 32.89 24.98C32.87 24.96 32.85 24.95 32.83 24.93C32.81 24.92 32.79 24.91 32.77 24.9C32.75 24.89 32.72 24.88 32.7 24.88C32.67 24.87 32.64 24.87 32.62 24.87L31.5 24.87L31.5 18.12L18 18.12L18 23.37L15 23.37L15 30.87L25.5 30.87L25.5 28.62L30 28.62L30 29.75C30 29.77 30 29.8 30 29.82C30.01 29.84 30.02 29.87 30.03 29.89C30.03 29.91 30.04 29.93 30.06 29.95C30.07 29.98 30.09 29.99 30.1 30.01C30.12 30.03 30.14 30.04 30.16 30.06C30.18 30.07 30.2 30.08 30.22 30.09C30.25 30.1 30.27 30.11 30.29 30.11C30.32 30.12 30.35 30.12 30.37 30.12L32.62 30.12C32.64 30.12 32.67 30.12 32.7 30.11C32.72 30.11 32.75 30.1 32.77 30.09C32.79 30.08 32.81 30.07 32.83 30.06C32.85 30.04 32.87 30.03 32.89 30.01C32.9 29.99 32.92 29.98 32.93 29.95C32.95 29.93 32.96 29.91 32.96 29.89C32.97 29.87 32.98 29.84 32.99 29.82C33 29.8 33 29.77 33 29.75L33 25.25C33 25.22 33 25.19 32.99 25.17ZM24 30.12L15.75 30.12L15.75 24.12L18 24.12L18.75 24.12L24 24.12L24 27.87L24 28.62L24 30.12ZM24.45 27.12C24.45 26.95 24.58 26.82 24.75 26.82C24.91 26.82 25.04 26.95 25.04 27.12C25.04 27.29 24.91 27.42 24.75 27.42C24.58 27.42 24.45 27.29 24.45 27.12ZM30 27.87L25.5 27.87L25.5 27.72L25.5 23.37L24.82 23.37L24.67 23.37L21.85 23.37L21.71 23.37L18.89 23.37L18.75 23.37L18.75 18.87L30.75 18.87L30.75 24.87L30.6 24.87L30.37 24.87C30.35 24.87 30.32 24.87 30.29 24.88C30.27 24.88 30.25 24.89 30.22 24.9C30.2 24.91 30.18 24.92 30.16 24.93C30.14 24.95 30.12 24.96 30.1 24.98C30.09 25 30.07 25.02 30.06 25.04C30.04 25.06 30.03 25.08 30.03 25.1C30.02 25.12 30.01 25.15 30 25.17C30 25.19 30 25.22 30 25.25L30 27.72L30 27.87ZM32.62 29.37L32.47 29.37L30.52 29.37L30.37 29.37L30.37 28.62L30.37 27.87L30.37 27.72L30.37 25.62L30.6 25.62L30.75 25.62L31.5 25.62L32.62 25.62L32.62 29.37Z" fill="#FFFFFF" fill-opacity="1.000000" fill-rule="nonzero"/>
	</g>
</svg>
