<svg width="44.000000" height="44.000000" viewBox="0 0 44 44" fill="none" xmlns="http://www.w3.org/2000/svg" xmlns:xlink="http://www.w3.org/1999/xlink">
	<desc>
			Created with Pixso.
	</desc>
	<defs>
		<clipPath id="clip38_1334">
			<rect id="Mobile/ ic_equalizer" rx="-0.500000" width="23.000000" height="23.000000" transform="translate(10.500000 10.500000)" fill="white" fill-opacity="0"/>
		</clipPath>
		<clipPath id="clip38_1335">
			<rect id="3586361-location-map-navigation-pointer_107948 (1) 1" rx="-0.500000" width="19.000000" height="18.999802" transform="translate(12.500000 12.500000)" fill="white" fill-opacity="0"/>
		</clipPath>
		<linearGradient x1="30.922411" y1="13.724141" x2="10.491375" y2="33.120693" id="paint_linear_13_652_0" gradientUnits="userSpaceOnUse">
			<stop offset="0.404729" stop-color="#205BC9" stop-opacity="0.000000"/>
			<stop offset="1.000000" stop-color="#073D95"/>
		</linearGradient>
	</defs>
	<path id="Star 2" d="M14.25 8.59L7.96 12.12C7 12.66 6.42 13.68 6.42 14.78L6.52 22L6.42 29.21C6.42 30.31 7 31.33 7.96 31.87L14.25 35.4L20.46 39.09C21.41 39.65 22.58 39.65 23.53 39.09L29.74 35.4L36.03 31.87C36.99 31.33 37.57 30.31 37.57 29.21L37.47 22L37.57 14.78C37.57 13.68 36.99 12.66 36.03 12.12L29.74 8.59L23.53 4.9C22.58 4.34 21.41 4.34 20.46 4.9L14.25 8.59ZM14.75 9.46L8.45 13C7.81 13.35 7.42 14.03 7.42 14.76L7.52 22L7.42 29.23C7.42 29.96 7.81 30.64 8.45 31L14.75 34.53L20.97 38.23C21.6 38.6 22.39 38.6 23.02 38.23L29.24 34.53L35.54 31C36.18 30.64 36.57 29.96 36.57 29.23L36.47 22L36.57 14.76C36.57 14.03 36.18 13.35 35.54 13L29.24 9.46L23.02 5.76C22.39 5.39 21.6 5.39 20.97 5.76L14.75 9.46Z" fill="#205BC9" fill-opacity="1.000000" fill-rule="evenodd"/>
	<path id="Star 1" d="M20.97 7.6L15.54 10.82L10.04 13.91C9.4 14.27 9.02 14.95 9.02 15.68L9.1 22L9.02 28.31C9.02 29.04 9.4 29.72 10.04 30.08L15.54 33.17L20.97 36.39C21.6 36.76 22.39 36.76 23.02 36.39L28.45 33.17L33.95 30.08C34.59 29.72 34.97 29.04 34.97 28.31L34.89 22L34.97 15.68C34.97 14.95 34.59 14.27 33.95 13.91L28.45 10.82L23.02 7.6C22.39 7.23 21.6 7.23 20.97 7.6Z" fill="#205BC9" fill-opacity="1.000000" fill-rule="evenodd"/>
	<path id="Star 1" d="M20.97 7.6L15.54 10.82L10.04 13.91C9.4 14.27 9.02 14.95 9.02 15.68L9.1 22L9.02 28.31C9.02 29.04 9.4 29.72 10.04 30.08L15.54 33.17L20.97 36.39C21.6 36.76 22.39 36.76 23.02 36.39L28.45 33.17L33.95 30.08C34.59 29.72 34.97 29.04 34.97 28.31L34.89 22L34.97 15.68C34.97 14.95 34.59 14.27 33.95 13.91L28.45 10.82L23.02 7.6C22.39 7.23 21.6 7.23 20.97 7.6Z" fill="url(#paint_linear_13_652_0)" fill-opacity="1.000000" fill-rule="evenodd"/>
	<g clip-path="url(#clip38_1334)"/>
	<g clip-path="url(#clip38_1335)">
		<path id="Vector" d="M23.6 25.94L26.59 21.14C26.6 21.12 26.6 21.11 26.61 21.09C27.13 20.25 27.4 19.29 27.4 18.31C27.4 15.36 25 12.97 22.06 12.97C19.12 12.97 16.72 15.36 16.72 18.31C16.72 19.29 17 20.25 17.51 21.09C17.52 21.11 17.53 21.12 17.53 21.14L20.41 25.96C18.17 26.27 16.71 27.19 16.71 28.31C16.71 29.69 19.06 30.77 22.05 30.77C25.05 30.77 27.4 29.69 27.4 28.31C27.4 27.19 25.86 26.25 23.6 25.94ZM18.05 20.82C17.57 20.07 17.32 19.19 17.32 18.31C17.32 15.69 19.45 13.57 22.06 13.57C24.67 13.57 26.8 15.69 26.8 18.31C26.8 19.19 26.55 20.07 26.07 20.82C26.07 20.84 26.06 20.85 26.05 20.87L22.89 25.95C22.85 26.02 22.84 26.04 22.78 26.13L21.98 27.41L18.07 20.88C18.07 20.86 18.06 20.84 18.05 20.82ZM22.05 30.17C19.25 30.17 17.31 29.19 17.31 28.31C17.31 27.51 18.78 26.75 20.75 26.52L21.72 28.14C21.78 28.23 21.87 28.29 21.97 28.29C21.97 28.29 21.97 28.29 21.98 28.29C22.08 28.29 22.17 28.23 22.23 28.15L23.25 26.5C25.26 26.72 26.8 27.5 26.8 28.31C26.8 29.19 24.85 30.17 22.05 30.17Z" fill="#FFFFFF" fill-opacity="1.000000" fill-rule="nonzero"/>
		<path id="Vector" d="M24 18.31C24 17.24 23.13 16.37 22.05 16.37C20.98 16.37 20.11 17.24 20.11 18.31C20.11 19.38 20.98 20.25 22.05 20.25C23.13 20.25 24 19.38 24 18.31ZM20.71 18.31C20.71 17.57 21.32 16.96 22.05 16.96C22.79 16.96 23.39 17.57 23.39 18.31C23.39 19.05 22.79 19.65 22.05 19.65C21.32 19.65 20.71 19.05 20.71 18.31Z" fill="#FFFFFF" fill-opacity="1.000000" fill-rule="nonzero"/>
	</g>
</svg>
