<svg width="20.000000" height="20.000000" viewBox="0 0 20 20" fill="none" xmlns="http://www.w3.org/2000/svg" xmlns:xlink="http://www.w3.org/1999/xlink">
	<desc>
			Created with Pixso.
	</desc>
	<defs/>
	<path id="Vector" d="M20 10C20 4.47 15.52 0 10 0C4.47 0 0 4.47 0 10C0 15.52 4.47 20 10 20C15.52 20 20 15.52 20 10ZM10.22 4.54C10.85 4.54 11.36 5.05 11.36 5.68C11.36 6.3 10.85 6.81 10.22 6.81C9.6 6.81 9.09 6.3 9.09 5.68C9.09 5.05 9.6 4.54 10.22 4.54ZM7.72 15L9.09 15L9.09 8.63L7.72 8.63L7.72 7.72L11.36 7.72L11.36 15L12.72 15L12.72 15.9L7.72 15.9L7.72 15Z" fill="#205BC9" fill-opacity="1.000000" fill-rule="nonzero"/>
</svg>
