<svg width="63.632812" height="63.630859" viewBox="0 0 63.6328 63.6309" fill="none" xmlns="http://www.w3.org/2000/svg" xmlns:xlink="http://www.w3.org/1999/xlink">
	<desc>
			Created with Pixso.
	</desc>
	<defs/>
	<path id="Vector" d="M5.3 63.63C5.3 63.63 0 63.63 0 58.32C0 53.02 5.3 37.11 31.81 37.11C58.32 37.11 63.63 53.02 63.63 58.32C63.63 63.63 58.32 63.63 58.32 63.63L5.3 63.63ZM31.81 31.81C36.03 31.81 40.07 30.14 43.06 27.15C46.04 24.17 47.72 20.12 47.72 15.9C47.72 11.68 46.04 7.64 43.06 4.66C40.07 1.67 36.03 0 31.81 0C27.59 0 23.54 1.67 20.57 4.66C17.58 7.64 15.9 11.68 15.9 15.9C15.9 20.12 17.58 24.17 20.57 27.15C23.54 30.14 27.59 31.81 31.81 31.81Z" fill="#C1C1C1" fill-opacity="1.000000" fill-rule="evenodd"/>
</svg>
