<svg width="36.000000" height="36.000000" viewBox="0 0 36 36" fill="none" xmlns="http://www.w3.org/2000/svg" xmlns:xlink="http://www.w3.org/1999/xlink">
	<desc>
			Created with Pixso.
	</desc>
	<defs>
		<linearGradient x1="26.922411" y1="9.724141" x2="6.491375" y2="29.120693" id="paint_linear_43_1151_0" gradientUnits="userSpaceOnUse">
			<stop offset="0.404729" stop-color="#205BC9" stop-opacity="0.000000"/>
			<stop offset="1.000000" stop-color="#073D95"/>
		</linearGradient>
	</defs>
	<rect id="фрейм 2" width="36.000000" height="36.000000" fill="#FFFFFF" fill-opacity="0"/>
	<path id="Star 2" d="M10.25 4.59L3.96 8.12C3 8.66 2.42 9.68 2.42 10.78L2.52 18L2.42 25.21C2.42 26.31 3 27.33 3.96 27.87L10.25 31.4L16.46 35.09C17.41 35.65 18.58 35.65 19.53 35.09L25.74 31.4L32.03 27.87C32.99 27.33 33.57 26.31 33.57 25.21L33.47 18L33.57 10.78C33.57 9.68 32.99 8.66 32.03 8.12L25.74 4.59L19.53 0.9C18.58 0.34 17.41 0.34 16.46 0.9L10.25 4.59ZM10.75 5.46L4.45 9C3.81 9.35 3.42 10.03 3.42 10.76L3.52 18L3.42 25.23C3.42 25.96 3.81 26.64 4.45 27L10.75 30.53L16.97 34.23C17.6 34.6 18.39 34.6 19.02 34.23L25.24 30.53L31.54 27C32.18 26.64 32.57 25.96 32.57 25.23L32.47 18L32.57 10.76C32.57 10.03 32.18 9.35 31.54 9L25.24 5.46L19.02 1.76C18.39 1.39 17.6 1.39 16.97 1.76L10.75 5.46Z" fill="#205BC9" fill-opacity="1.000000" fill-rule="evenodd"/>
	<path id="Star 1" d="M16.97 3.6L11.54 6.82L6.04 9.91C5.4 10.27 5.02 10.95 5.02 11.68L5.1 18L5.02 24.31C5.02 25.04 5.4 25.72 6.04 26.08L11.54 29.17L16.97 32.39C17.6 32.76 18.39 32.76 19.02 32.39L24.45 29.17L29.95 26.08C30.59 25.72 30.97 25.04 30.97 24.31L30.89 18L30.97 11.68C30.97 10.95 30.59 10.27 29.95 9.91L24.45 6.82L19.02 3.6C18.39 3.23 17.6 3.23 16.97 3.6Z" fill="#205BC9" fill-opacity="1.000000" fill-rule="evenodd"/>
	<path id="Star 1" d="M16.97 3.6L11.54 6.82L6.04 9.91C5.4 10.27 5.02 10.95 5.02 11.68L5.1 18L5.02 24.31C5.02 25.04 5.4 25.72 6.04 26.08L11.54 29.17L16.97 32.39C17.6 32.76 18.39 32.76 19.02 32.39L24.45 29.17L29.95 26.08C30.59 25.72 30.97 25.04 30.97 24.31L30.89 18L30.97 11.68C30.97 10.95 30.59 10.27 29.95 9.91L24.45 6.82L19.02 3.6C18.39 3.23 17.6 3.23 16.97 3.6Z" fill="url(#paint_linear_43_1151_0)" fill-opacity="1.000000" fill-rule="evenodd"/>
	<path id="Vector" d="M18.39 17.55C17.4 17.55 16.63 18.32 16.63 19.31C16.63 19.87 16.91 20.36 17.33 20.72L17.33 22.12C17.33 22.69 17.82 23.18 18.39 23.18C18.95 23.18 19.44 22.69 19.44 22.12L19.44 20.72C19.86 20.36 20.14 19.87 20.14 19.31C20.14 18.32 19.37 17.55 18.39 17.55ZM18.74 20.29L18.74 22.12C18.74 22.33 18.6 22.48 18.39 22.48C18.17 22.48 18.03 22.33 18.03 22.12L18.03 20.29C17.61 20.15 17.33 19.73 17.33 19.31C17.33 18.75 17.82 18.25 18.39 18.25C18.95 18.25 19.44 18.75 19.44 19.31C19.44 19.8 19.16 20.15 18.74 20.29Z" fill="#FFFFFF" fill-opacity="1.000000" fill-rule="nonzero"/>
	<path id="Vector" d="M23.66 14.74L23.66 12.27C23.66 9.39 21.27 7 18.39 7C15.5 7 13.1 9.39 13.1 12.27L13.1 14.74C11.91 14.74 11 15.65 11 16.85L11 23.88C11 25.08 11.91 26 13.1 26L23.66 26C24.85 26 25.78 25.08 25.78 23.88L25.78 16.85C25.78 15.72 24.85 14.74 23.66 14.74ZM13.81 12.27C13.81 9.74 15.85 7.7 18.39 7.7C20.92 7.7 22.96 9.74 22.96 12.27L22.96 14.74L22.25 14.74L22.25 12.27C22.25 10.16 20.5 8.4 18.39 8.4C16.28 8.4 14.51 10.16 14.51 12.27L14.51 14.74L13.81 14.74L13.81 12.27ZM21.55 12.27L21.55 14.74L15.21 14.74L15.21 12.27C15.21 10.51 16.63 9.11 18.39 9.11C20.14 9.11 21.55 10.51 21.55 12.27ZM25.07 23.88C25.07 24.66 24.43 25.29 23.66 25.29L13.1 25.29C12.33 25.29 11.7 24.66 11.7 23.88L11.7 16.85C11.7 16.07 12.33 15.44 13.1 15.44L23.66 15.44C24.43 15.44 25.07 16.07 25.07 16.85L25.07 23.88Z" fill="#FFFFFF" fill-opacity="1.000000" fill-rule="nonzero"/>
</svg>
