<svg width="48.000000" height="48.000000" viewBox="0 0 48 48" fill="none" xmlns="http://www.w3.org/2000/svg" xmlns:xlink="http://www.w3.org/1999/xlink">
	<desc>
			Created with Pixso.
	</desc>
	<defs>
		<clipPath id="clip35_943">
			<rect id="Mobile/ ic_equalizer" rx="-0.500000" width="23.000000" height="23.000000" transform="translate(12.500000 12.500000)" fill="white" fill-opacity="0"/>
		</clipPath>
		<clipPath id="clip36_888">
			<rect id="lock-outlined-padlock-symbol-for-security-interface_icon-icons.com_57803 1" rx="-0.500000" width="18.000000" height="18.000000" transform="translate(12.500000 14.500000)" fill="white" fill-opacity="0"/>
		</clipPath>
		<linearGradient x1="30.922411" y1="15.724141" x2="10.491375" y2="35.120693" id="paint_linear_43_1151_0" gradientUnits="userSpaceOnUse">
			<stop offset="0.404729" stop-color="#205BC9" stop-opacity="0.000000"/>
			<stop offset="1.000000" stop-color="#073D95"/>
		</linearGradient>
	</defs>
	<path id="Star 2" d="M14.25 10.59L7.96 14.12C7 14.66 6.42 15.68 6.42 16.78L6.52 24L6.42 31.21C6.42 32.31 7 33.33 7.96 33.87L14.25 37.4L20.46 41.09C21.41 41.65 22.58 41.65 23.53 41.09L29.74 37.4L36.03 33.87C36.99 33.33 37.57 32.31 37.57 31.21L37.47 24L37.57 16.78C37.57 15.68 36.99 14.66 36.03 14.12L29.74 10.59L23.53 6.9C22.58 6.34 21.41 6.34 20.46 6.9L14.25 10.59ZM14.75 11.46L8.45 15C7.81 15.35 7.42 16.03 7.42 16.76L7.52 24L7.42 31.23C7.42 31.96 7.81 32.64 8.45 33L14.75 36.53L20.97 40.23C21.6 40.6 22.39 40.6 23.02 40.23L29.24 36.53L35.54 33C36.18 32.64 36.57 31.96 36.57 31.23L36.47 24L36.57 16.76C36.57 16.03 36.18 15.35 35.54 15L29.24 11.46L23.02 7.76C22.39 7.39 21.6 7.39 20.97 7.76L14.75 11.46Z" fill="#205BC9" fill-opacity="1.000000" fill-rule="evenodd"/>
	<path id="Star 1" d="M20.97 9.6L15.54 12.82L10.04 15.91C9.4 16.27 9.02 16.95 9.02 17.68L9.1 24L9.02 30.31C9.02 31.04 9.4 31.72 10.04 32.08L15.54 35.17L20.97 38.39C21.6 38.76 22.39 38.76 23.02 38.39L28.45 35.17L33.95 32.08C34.59 31.72 34.97 31.04 34.97 30.31L34.89 24L34.97 17.68C34.97 16.95 34.59 16.27 33.95 15.91L28.45 12.82L23.02 9.6C22.39 9.23 21.6 9.23 20.97 9.6Z" fill="#205BC9" fill-opacity="1.000000" fill-rule="evenodd"/>
	<path id="Star 1" d="M20.97 9.6L15.54 12.82L10.04 15.91C9.4 16.27 9.02 16.95 9.02 17.68L9.1 24L9.02 30.31C9.02 31.04 9.4 31.72 10.04 32.08L15.54 35.17L20.97 38.39C21.6 38.76 22.39 38.76 23.02 38.39L28.45 35.17L33.95 32.08C34.59 31.72 34.97 31.04 34.97 30.31L34.89 24L34.97 17.68C34.97 16.95 34.59 16.27 33.95 15.91L28.45 12.82L23.02 9.6C22.39 9.23 21.6 9.23 20.97 9.6Z" fill="url(#paint_linear_43_1151_0)" fill-opacity="1.000000" fill-rule="evenodd"/>
	<g clip-path="url(#clip35_943)"/>
	<g clip-path="url(#clip36_888)">
		<path id="Vector" d="M21.5 24.55C20.51 24.55 19.74 25.32 19.74 26.31C19.74 26.87 20.02 27.36 20.44 27.72L20.44 29.12C20.44 29.69 20.93 30.18 21.5 30.18C22.06 30.18 22.55 29.69 22.55 29.12L22.55 27.72C22.97 27.36 23.25 26.87 23.25 26.31C23.25 25.32 22.48 24.55 21.5 24.55ZM21.85 27.29L21.85 29.12C21.85 29.33 21.71 29.48 21.5 29.48C21.28 29.48 21.14 29.33 21.14 29.12L21.14 27.29C20.72 27.15 20.44 26.73 20.44 26.31C20.44 25.75 20.93 25.25 21.5 25.25C22.06 25.25 22.55 25.75 22.55 26.31C22.55 26.8 22.27 27.15 21.85 27.29Z" fill="#FFFFFF" fill-opacity="1.000000" fill-rule="nonzero"/>
		<path id="Vector" d="M26.77 21.74L26.77 19.27C26.77 16.39 24.38 14 21.5 14C18.6 14 16.21 16.39 16.21 19.27L16.21 21.74C15.02 21.74 14.1 22.65 14.1 23.85L14.1 30.88C14.1 32.08 15.02 33 16.21 33L26.77 33C27.96 33 28.89 32.08 28.89 30.88L28.89 23.85C28.89 22.72 27.96 21.74 26.77 21.74ZM16.92 19.27C16.92 16.74 18.96 14.7 21.5 14.7C24.03 14.7 26.07 16.74 26.07 19.27L26.07 21.74L25.36 21.74L25.36 19.27C25.36 17.16 23.6 15.4 21.5 15.4C19.39 15.4 17.62 17.16 17.62 19.27L17.62 21.74L16.92 21.74L16.92 19.27ZM24.66 19.27L24.66 21.74L18.32 21.74L18.32 19.27C18.32 17.51 19.74 16.11 21.5 16.11C23.25 16.11 24.66 17.51 24.66 19.27ZM28.17 30.88C28.17 31.66 27.54 32.29 26.77 32.29L16.21 32.29C15.44 32.29 14.81 31.66 14.81 30.88L14.81 23.85C14.81 23.07 15.44 22.44 16.21 22.44L26.77 22.44C27.54 22.44 28.17 23.07 28.17 23.85L28.17 30.88Z" fill="#FFFFFF" fill-opacity="1.000000" fill-rule="nonzero"/>
	</g>
</svg>
