<svg width="44.000000" height="44.000000" viewBox="0 0 44 44" fill="none" xmlns="http://www.w3.org/2000/svg" xmlns:xlink="http://www.w3.org/1999/xlink">
	<desc>
			Created with Pixso.
	</desc>
	<defs>
		<clipPath id="clip6_5312">
			<rect id="account_cog_icon_137995 1" rx="-0.500000" width="15.000000" height="15.000000" transform="translate(14.500000 14.500000)" fill="white" fill-opacity="0"/>
		</clipPath>
		<linearGradient x1="30.922411" y1="13.724141" x2="10.491375" y2="33.120693" id="paint_linear_5_1087_0" gradientUnits="userSpaceOnUse">
			<stop offset="0.404729" stop-color="#205BC9" stop-opacity="0.000000"/>
			<stop offset="1.000000" stop-color="#073D95"/>
		</linearGradient>
	</defs>
	<path id="Star 2" d="M14.26 8.59L7.96 12.12C7 12.66 6.41 13.68 6.43 14.78L6.51 22L6.43 29.21C6.41 30.31 7 31.33 7.96 31.87L14.26 35.4L20.46 39.09C21.41 39.65 22.58 39.65 23.53 39.09L29.73 35.4L36.03 31.87C36.99 31.33 37.58 30.31 37.56 29.21L37.48 22L37.56 14.78C37.58 13.68 36.99 12.66 36.03 12.12L29.73 8.59L23.53 4.9C22.58 4.34 21.41 4.34 20.46 4.9L14.26 8.59ZM14.76 9.45L8.45 13C7.81 13.35 7.43 14.03 7.43 14.76L7.51 22L7.43 29.23C7.43 29.96 7.81 30.64 8.45 31L14.76 34.54L20.98 38.23C21.6 38.6 22.39 38.6 23.01 38.23L29.23 34.54L35.54 31C36.18 30.64 36.56 29.96 36.56 29.23L36.48 22L36.56 14.76C36.56 14.03 36.18 13.35 35.54 13L29.23 9.45L23.01 5.76C22.39 5.39 21.6 5.39 20.98 5.76L14.76 9.45Z" fill="#205BC9" fill-opacity="1.000000" fill-rule="evenodd"/>
	<path id="Star 1" d="M20.98 7.6L15.55 10.82L10.04 13.91C9.4 14.27 9.02 14.95 9.02 15.68L9.1 22L9.02 28.31C9.02 29.04 9.4 29.72 10.04 30.08L15.55 33.17L20.98 36.39C21.6 36.76 22.39 36.76 23.01 36.39L28.44 33.17L33.95 30.08C34.59 29.72 34.97 29.04 34.97 28.31L34.89 22L34.97 15.68C34.97 14.95 34.59 14.27 33.95 13.91L28.44 10.82L23.01 7.6C22.39 7.23 21.6 7.23 20.98 7.6Z" fill="#205BC9" fill-opacity="1.000000" fill-rule="evenodd"/>
	<path id="Star 1" d="M20.98 7.6L15.55 10.82L10.04 13.91C9.4 14.27 9.02 14.95 9.02 15.68L9.1 22L9.02 28.31C9.02 29.04 9.4 29.72 10.04 30.08L15.55 33.17L20.98 36.39C21.6 36.76 22.39 36.76 23.01 36.39L28.44 33.17L33.95 30.08C34.59 29.72 34.97 29.04 34.97 28.31L34.89 22L34.97 15.68C34.97 14.95 34.59 14.27 33.95 13.91L28.44 10.82L23.01 7.6C22.39 7.23 21.6 7.23 20.98 7.6Z" fill="url(#paint_linear_5_1087_0)" fill-opacity="1.000000" fill-rule="evenodd"/>
	<g clip-path="url(#clip6_5312)">
		<path id="Vector" d="M20.66 16.66C19.95 16.66 19.28 16.94 18.78 17.44C18.28 17.94 18 18.62 18 19.33C18 20.04 18.28 20.71 18.78 21.21C19.28 21.71 19.95 22 20.66 22C21.37 22 22.05 21.71 22.55 21.21C23.05 20.71 23.33 20.04 23.33 19.33C23.33 18.62 23.05 17.94 22.55 17.44C22.05 16.94 21.37 16.66 20.66 16.66ZM25.33 22C25.24 22 25.17 22.06 25.16 22.14L25.03 23.02C24.83 23.1 24.64 23.21 24.46 23.33L23.64 23C23.56 23 23.48 23 23.43 23.08L22.76 24.24C22.72 24.31 22.73 24.4 22.8 24.45L23.51 25C23.5 25.11 23.49 25.22 23.49 25.33C23.49 25.44 23.5 25.55 23.51 25.66L22.8 26.21C22.74 26.26 22.72 26.35 22.76 26.42L23.43 27.58C23.47 27.66 23.55 27.66 23.64 27.66L24.46 27.33C24.64 27.45 24.82 27.56 25.03 27.64L25.16 28.52C25.17 28.6 25.23 28.66 25.33 28.66L26.66 28.66C26.73 28.66 26.81 28.6 26.82 28.52L26.95 27.64C27.15 27.56 27.33 27.45 27.51 27.33L28.33 27.66C28.41 27.66 28.5 27.66 28.55 27.58L29.21 26.42C29.25 26.35 29.23 26.26 29.17 26.21L28.46 25.66C28.48 25.55 28.49 25.44 28.49 25.33C28.49 25.22 28.48 25.11 28.46 25L29.17 24.45C29.23 24.4 29.25 24.31 29.21 24.24L28.54 23.08C28.5 23 28.41 23 28.33 23L27.51 23.33C27.33 23.21 27.15 23.1 26.94 23.02L26.82 22.14C26.81 22.06 26.73 22 26.66 22L25.33 22ZM20.66 23.33C17.71 23.33 15.33 24.52 15.33 26L15.33 27.33L21.78 27.33C21.48 26.7 21.33 26.02 21.33 25.33C21.33 24.66 21.48 24 21.75 23.39C21.4 23.35 21.03 23.33 20.66 23.33ZM26 24.33C26.55 24.33 27 24.78 27 25.33C27 25.88 26.55 26.33 26 26.33C25.43 26.33 25 25.88 25 25.33C25 24.78 25.44 24.33 26 24.33Z" fill="#FFFFFF" fill-opacity="1.000000" fill-rule="nonzero"/>
	</g>
</svg>
