<svg width="48.000000" height="48.000000" viewBox="0 0 48 48" fill="none" xmlns="http://www.w3.org/2000/svg" xmlns:xlink="http://www.w3.org/1999/xlink">
	<desc>
			Created with Pixso.
	</desc>
	<defs>
		<clipPath id="clip35_843">
			<rect id="Mobile/ ic_equalizer" rx="-0.500000" width="23.000000" height="23.000000" transform="translate(12.500000 12.500000)" fill="white" fill-opacity="0"/>
		</clipPath>
		<clipPath id="clip36_886">
			<rect id="consultant_96680 1" rx="-0.500000" width="15.000000" height="18.000000" transform="translate(16.500000 14.500000)" fill="white" fill-opacity="0"/>
		</clipPath>
		<linearGradient x1="32.922409" y1="15.724141" x2="12.491375" y2="35.120693" id="paint_linear_43_1148_0" gradientUnits="userSpaceOnUse">
			<stop offset="0.404729" stop-color="#205BC9" stop-opacity="0.000000"/>
			<stop offset="1.000000" stop-color="#073D95"/>
		</linearGradient>
	</defs>
	<path id="Star 2" d="M16.25 10.59L9.96 14.12C9 14.66 8.42 15.68 8.42 16.78L8.52 24L8.42 31.21C8.42 32.31 9 33.33 9.96 33.87L16.25 37.4L22.46 41.09C23.41 41.65 24.58 41.65 25.53 41.09L31.74 37.4L38.03 33.87C38.99 33.33 39.57 32.31 39.57 31.21L39.47 24L39.57 16.78C39.57 15.68 38.99 14.66 38.03 14.12L31.74 10.59L25.53 6.9C24.58 6.34 23.41 6.34 22.46 6.9L16.25 10.59ZM16.75 11.46L10.45 15C9.81 15.35 9.42 16.03 9.42 16.76L9.52 24L9.42 31.23C9.42 31.96 9.81 32.64 10.45 33L16.75 36.53L22.97 40.23C23.6 40.6 24.39 40.6 25.02 40.23L31.24 36.53L37.54 33C38.18 32.64 38.57 31.96 38.57 31.23L38.47 24L38.57 16.76C38.57 16.03 38.18 15.35 37.54 15L31.24 11.46L25.02 7.76C24.39 7.39 23.6 7.39 22.97 7.76L16.75 11.46Z" fill="#205BC9" fill-opacity="1.000000" fill-rule="evenodd"/>
	<path id="Star 1" d="M22.97 9.6L17.54 12.82L12.04 15.91C11.4 16.27 11.02 16.95 11.02 17.68L11.1 24L11.02 30.31C11.02 31.04 11.4 31.72 12.04 32.08L17.54 35.17L22.97 38.39C23.6 38.76 24.39 38.76 25.02 38.39L30.45 35.17L35.95 32.08C36.59 31.72 36.97 31.04 36.97 30.31L36.89 24L36.97 17.68C36.97 16.95 36.59 16.27 35.95 15.91L30.45 12.82L25.02 9.6C24.39 9.23 23.6 9.23 22.97 9.6Z" fill="#205BC9" fill-opacity="1.000000" fill-rule="evenodd"/>
	<path id="Star 1" d="M22.97 9.6L17.54 12.82L12.04 15.91C11.4 16.27 11.02 16.95 11.02 17.68L11.1 24L11.02 30.31C11.02 31.04 11.4 31.72 12.04 32.08L17.54 35.17L22.97 38.39C23.6 38.76 24.39 38.76 25.02 38.39L30.45 35.17L35.95 32.08C36.59 31.72 36.97 31.04 36.97 30.31L36.89 24L36.97 17.68C36.97 16.95 36.59 16.27 35.95 15.91L30.45 12.82L25.02 9.6C24.39 9.23 23.6 9.23 22.97 9.6Z" fill="url(#paint_linear_43_1148_0)" fill-opacity="1.000000" fill-rule="evenodd"/>
	<g clip-path="url(#clip35_843)"/>
	<g clip-path="url(#clip36_886)">
		<path id="Consultant" d="M24.49 14C24.84 14.06 25.19 14.1 25.53 14.19C26.98 14.55 28.17 15.32 29.01 16.62C29.39 17.22 29.61 17.88 29.68 18.59C29.69 18.71 29.73 18.77 29.84 18.82C30.46 19.07 30.83 19.64 30.84 20.32C30.84 21.05 30.85 21.78 30.83 22.51C30.82 23.22 30.49 23.74 29.85 24.01C29.74 24.06 29.61 24.08 29.49 24.08C29.33 24.1 29.17 24.09 29.03 24.09C28.45 24.08 28.25 23.95 28 23.39C27.57 24.64 26.96 25.75 25.96 26.59C26.17 27.11 26.44 27.58 26.85 27.94C27.05 28.1 27.27 28.2 27.52 28.25C28.73 28.49 29.91 28.81 31 29.43C31.45 29.67 31.74 30.02 31.82 30.53C31.89 31 31.93 31.46 31.97 31.93C32 32.15 31.98 32.38 31.98 32.6C31.98 32.89 31.89 32.99 31.61 32.99C31.24 32.99 30.87 32.99 30.5 32.99C25.81 32.99 21.1 32.99 16.41 33C16.24 33 16.1 32.96 16 32.81C16 32.42 16 32.04 16 31.66C16.03 31.37 16.07 31.08 16.1 30.8C16.18 30.14 16.48 29.63 17.08 29.36C17.24 29.29 17.38 29.2 17.53 29.14C18.45 28.72 19.4 28.44 20.38 28.27C20.81 28.19 21.13 27.97 21.4 27.65C21.67 27.33 21.86 26.98 22.01 26.59C21.93 26.52 21.85 26.45 21.77 26.37C21.58 26.21 21.42 25.97 21.21 25.88C21 25.8 20.72 25.86 20.47 25.86C19.67 25.86 19.15 25.45 18.96 24.64C18.91 24.46 18.89 24.28 18.85 24.12C18.61 24.09 18.37 24.1 18.16 24.02C17.52 23.79 17.14 23.19 17.14 22.48C17.14 21.79 17.14 21.1 17.14 20.41C17.14 19.65 17.48 19.1 18.16 18.81C18.25 18.77 18.28 18.72 18.29 18.63C18.34 18.05 18.49 17.51 18.75 17C19.56 15.47 20.84 14.6 22.44 14.19C22.78 14.1 23.14 14.06 23.49 14C23.82 14 24.15 14 24.49 14ZM31.42 32.39C31.39 31.91 31.34 31.45 31.32 30.98C31.28 30.4 30.99 30.04 30.49 29.81C29.62 29.4 28.72 29.11 27.8 28.91C27.33 28.81 26.86 28.73 26.49 28.39C25.94 27.9 25.59 27.28 25.32 26.59C25.27 26.44 25.35 26.33 25.46 26.23C25.72 25.99 26 25.76 26.23 25.49C26.89 24.72 27.28 23.79 27.6 22.82C27.96 21.69 28.04 20.52 27.9 19.34C27.82 18.61 27.57 17.93 27.14 17.33C25.82 15.51 23.29 15.39 21.78 16.43C20.62 17.21 20.12 18.38 20.03 19.76C19.93 21.15 20.15 22.49 20.73 23.75C20.94 24.23 21.22 24.68 21.47 25.14C21.5 25.19 21.57 25.26 21.61 25.26C22.02 25.27 22.42 25.27 22.83 25.27C22.92 24.83 23.1 24.68 23.51 24.68C23.65 24.68 23.79 24.68 23.93 24.68C24.3 24.68 24.56 24.93 24.56 25.27C24.56 25.62 24.31 25.87 23.94 25.87C23.39 25.87 22.85 25.86 22.3 25.86C22.24 25.86 22.18 25.86 22.12 25.86C22.25 26.02 22.39 26.13 22.52 26.24C22.65 26.33 22.7 26.46 22.64 26.62C22.4 27.22 22.1 27.78 21.65 28.24C21.35 28.54 21.01 28.74 20.6 28.83C20.11 28.93 19.63 29.04 19.14 29.18C18.46 29.37 17.8 29.62 17.18 29.99C16.92 30.14 16.76 30.36 16.71 30.67C16.67 30.97 16.63 31.27 16.6 31.57C16.58 31.84 16.6 32.12 16.6 32.39C21.53 32.39 26.46 32.39 31.42 32.39ZM29.11 18.72C29.11 18.71 29.12 18.69 29.12 18.68C29.12 18.65 29.11 18.62 29.11 18.59C28.96 17.37 28.4 16.38 27.47 15.66C25.71 14.3 23.77 14.1 21.75 14.91C20.5 15.41 19.58 16.3 19.09 17.62C18.96 17.98 18.88 18.35 18.85 18.75C18.99 18.75 19.1 18.74 19.22 18.75C19.34 18.77 19.45 18.81 19.56 18.85C20.14 16.62 21.5 15.31 23.71 15.21C26.18 15.09 27.75 16.38 28.41 18.81C28.65 18.78 28.87 18.75 29.11 18.72ZM19.42 21.43C19.42 20.88 19.42 20.33 19.42 19.78C19.42 19.45 19.31 19.34 18.99 19.34C18.88 19.34 18.76 19.35 18.65 19.34C18.21 19.27 17.73 19.71 17.71 20.27C17.7 21.03 17.7 21.79 17.71 22.55C17.72 22.98 17.99 23.37 18.37 23.47C18.57 23.52 18.81 23.49 19.03 23.49C19.31 23.5 19.42 23.38 19.42 23.08C19.42 22.53 19.42 21.98 19.42 21.43ZM28.55 21.41C28.55 21.98 28.55 22.54 28.55 23.1C28.55 23.27 28.6 23.45 28.77 23.47C29.07 23.49 29.38 23.52 29.66 23.43C30.06 23.31 30.25 22.95 30.26 22.53C30.28 21.79 30.28 21.04 30.26 20.29C30.25 19.76 29.82 19.27 29.32 19.33C29.2 19.35 29.07 19.34 28.96 19.34C28.67 19.34 28.55 19.46 28.55 19.77C28.55 20.32 28.55 20.87 28.55 21.41ZM19.97 23.47C19.86 23.6 19.75 23.8 19.59 23.93C19.46 24.03 19.43 24.11 19.46 24.26C19.59 25.07 19.95 25.39 20.79 25.24C20.51 24.64 20.23 24.03 19.97 23.47Z" fill="#FFFFFF" fill-opacity="1.000000" fill-rule="nonzero"/>
	</g>
</svg>
