<svg width="36.000000" height="36.000000" viewBox="0 0 36 36" fill="none" xmlns="http://www.w3.org/2000/svg" xmlns:xlink="http://www.w3.org/1999/xlink">
	<desc>
			Created with Pixso.
	</desc>
	<defs>
		<clipPath id="clip36_886">
			<rect id="consultant_96680 1" rx="-0.500000" width="15.000000" height="18.000000" transform="translate(10.500000 8.500000)" fill="white" fill-opacity="0"/>
		</clipPath>
		<linearGradient x1="26.922411" y1="9.724141" x2="6.491375" y2="29.120693" id="paint_linear_43_1148_0" gradientUnits="userSpaceOnUse">
			<stop offset="0.404729" stop-color="#205BC9" stop-opacity="0.000000"/>
			<stop offset="1.000000" stop-color="#073D95"/>
		</linearGradient>
	</defs>
	<path id="Star 2" d="M10.25 4.59L3.96 8.12C3 8.66 2.42 9.68 2.42 10.78L2.52 18L2.42 25.21C2.42 26.31 3 27.33 3.96 27.87L10.25 31.4L16.46 35.09C17.41 35.65 18.58 35.65 19.53 35.09L25.74 31.4L32.03 27.87C32.99 27.33 33.57 26.31 33.57 25.21L33.47 18L33.57 10.78C33.57 9.68 32.99 8.66 32.03 8.12L25.74 4.59L19.53 0.9C18.58 0.34 17.41 0.34 16.46 0.9L10.25 4.59ZM10.75 5.46L4.45 9C3.81 9.35 3.42 10.03 3.42 10.76L3.52 18L3.42 25.23C3.42 25.96 3.81 26.64 4.45 27L10.75 30.53L16.97 34.23C17.6 34.6 18.39 34.6 19.02 34.23L25.24 30.53L31.54 27C32.18 26.64 32.57 25.96 32.57 25.23L32.47 18L32.57 10.76C32.57 10.03 32.18 9.35 31.54 9L25.24 5.46L19.02 1.76C18.39 1.39 17.6 1.39 16.97 1.76L10.75 5.46Z" fill="#205BC9" fill-opacity="1.000000" fill-rule="evenodd"/>
	<path id="Star 1" d="M16.97 3.6L11.54 6.82L6.04 9.91C5.4 10.27 5.02 10.95 5.02 11.68L5.1 18L5.02 24.31C5.02 25.04 5.4 25.72 6.04 26.08L11.54 29.17L16.97 32.39C17.6 32.76 18.39 32.76 19.02 32.39L24.45 29.17L29.95 26.08C30.59 25.72 30.97 25.04 30.97 24.31L30.89 18L30.97 11.68C30.97 10.95 30.59 10.27 29.95 9.91L24.45 6.82L19.02 3.6C18.39 3.23 17.6 3.23 16.97 3.6Z" fill="#205BC9" fill-opacity="1.000000" fill-rule="evenodd"/>
	<path id="Star 1" d="M16.97 3.6L11.54 6.82L6.04 9.91C5.4 10.27 5.02 10.95 5.02 11.68L5.1 18L5.02 24.31C5.02 25.04 5.4 25.72 6.04 26.08L11.54 29.17L16.97 32.39C17.6 32.76 18.39 32.76 19.02 32.39L24.45 29.17L29.95 26.08C30.59 25.72 30.97 25.04 30.97 24.31L30.89 18L30.97 11.68C30.97 10.95 30.59 10.27 29.95 9.91L24.45 6.82L19.02 3.6C18.39 3.23 17.6 3.23 16.97 3.6Z" fill="url(#paint_linear_43_1148_0)" fill-opacity="1.000000" fill-rule="evenodd"/>
	<g clip-path="url(#clip36_886)">
		<path id="Consultant" d="M18.49 8C18.84 8.06 19.19 8.1 19.53 8.19C20.98 8.55 22.17 9.32 23.01 10.62C23.39 11.22 23.61 11.88 23.68 12.59C23.69 12.71 23.73 12.77 23.84 12.82C24.46 13.07 24.83 13.64 24.84 14.32C24.84 15.05 24.85 15.78 24.83 16.51C24.82 17.22 24.49 17.74 23.85 18.01C23.74 18.06 23.61 18.08 23.49 18.08C23.33 18.1 23.17 18.09 23.03 18.09C22.45 18.08 22.25 17.95 22 17.39C21.57 18.64 20.96 19.75 19.96 20.59C20.17 21.11 20.44 21.58 20.85 21.94C21.05 22.1 21.27 22.2 21.52 22.25C22.73 22.49 23.91 22.81 25 23.43C25.45 23.67 25.74 24.02 25.82 24.53C25.89 25 25.93 25.46 25.97 25.93C26 26.15 25.98 26.38 25.98 26.6C25.98 26.89 25.89 26.99 25.61 26.99C25.24 26.99 24.87 26.99 24.5 26.99C19.81 26.99 15.1 26.99 10.41 27C10.24 27 10.1 26.96 10 26.81C10 26.42 10 26.04 10 25.66C10.03 25.37 10.07 25.08 10.1 24.8C10.18 24.14 10.48 23.63 11.08 23.36C11.24 23.29 11.38 23.2 11.53 23.14C12.45 22.72 13.4 22.44 14.38 22.27C14.81 22.19 15.13 21.97 15.4 21.65C15.67 21.33 15.86 20.98 16.01 20.59C15.93 20.52 15.85 20.45 15.77 20.37C15.58 20.21 15.42 19.97 15.21 19.88C15 19.8 14.72 19.86 14.47 19.86C13.67 19.86 13.15 19.45 12.96 18.64C12.91 18.46 12.89 18.28 12.85 18.12C12.61 18.09 12.37 18.1 12.16 18.02C11.52 17.79 11.14 17.19 11.14 16.48C11.14 15.79 11.14 15.1 11.14 14.41C11.14 13.65 11.48 13.1 12.16 12.81C12.25 12.77 12.28 12.72 12.29 12.63C12.34 12.05 12.49 11.51 12.75 11C13.56 9.47 14.84 8.6 16.44 8.19C16.78 8.1 17.14 8.06 17.49 8C17.82 8 18.15 8 18.49 8ZM25.42 26.39C25.39 25.91 25.34 25.45 25.32 24.98C25.28 24.4 24.99 24.04 24.49 23.81C23.62 23.4 22.72 23.11 21.8 22.91C21.33 22.81 20.86 22.73 20.49 22.39C19.94 21.9 19.59 21.28 19.32 20.59C19.27 20.44 19.35 20.33 19.46 20.23C19.72 19.99 20 19.76 20.23 19.49C20.89 18.72 21.28 17.79 21.6 16.82C21.96 15.69 22.04 14.52 21.9 13.34C21.82 12.61 21.57 11.93 21.14 11.33C19.82 9.51 17.29 9.39 15.78 10.43C14.62 11.21 14.12 12.38 14.03 13.76C13.93 15.15 14.15 16.49 14.73 17.75C14.94 18.23 15.22 18.68 15.47 19.14C15.5 19.19 15.57 19.26 15.61 19.26C16.02 19.27 16.42 19.27 16.83 19.27C16.92 18.83 17.1 18.68 17.51 18.68C17.65 18.68 17.79 18.68 17.93 18.68C18.3 18.68 18.56 18.93 18.56 19.27C18.56 19.62 18.31 19.87 17.94 19.87C17.39 19.87 16.85 19.86 16.3 19.86C16.24 19.86 16.18 19.86 16.12 19.86C16.25 20.02 16.39 20.13 16.52 20.24C16.65 20.33 16.7 20.46 16.64 20.62C16.4 21.22 16.1 21.78 15.65 22.24C15.35 22.54 15.01 22.74 14.6 22.83C14.11 22.93 13.63 23.04 13.14 23.18C12.46 23.37 11.8 23.62 11.18 23.99C10.92 24.14 10.76 24.36 10.71 24.67C10.67 24.97 10.63 25.27 10.6 25.57C10.58 25.84 10.6 26.12 10.6 26.39C15.53 26.39 20.46 26.39 25.42 26.39ZM23.11 12.72C23.11 12.71 23.12 12.69 23.12 12.68C23.12 12.65 23.11 12.62 23.11 12.59C22.96 11.37 22.4 10.38 21.47 9.66C19.71 8.3 17.77 8.1 15.75 8.91C14.5 9.41 13.58 10.3 13.09 11.62C12.96 11.98 12.88 12.35 12.85 12.75C12.99 12.75 13.1 12.74 13.22 12.75C13.34 12.77 13.45 12.81 13.56 12.85C14.14 10.62 15.5 9.31 17.71 9.21C20.18 9.09 21.75 10.38 22.41 12.81C22.65 12.78 22.87 12.75 23.11 12.72ZM13.42 15.43C13.42 14.88 13.42 14.33 13.42 13.78C13.42 13.45 13.31 13.34 12.99 13.34C12.88 13.34 12.76 13.35 12.65 13.34C12.21 13.27 11.73 13.71 11.71 14.27C11.7 15.03 11.7 15.79 11.71 16.55C11.72 16.98 11.99 17.37 12.37 17.47C12.57 17.52 12.81 17.49 13.03 17.49C13.31 17.5 13.42 17.38 13.42 17.08C13.42 16.53 13.42 15.98 13.42 15.43ZM22.55 15.41C22.55 15.98 22.55 16.54 22.55 17.1C22.55 17.27 22.6 17.45 22.77 17.47C23.07 17.49 23.38 17.52 23.66 17.43C24.06 17.31 24.25 16.95 24.26 16.53C24.28 15.79 24.28 15.04 24.26 14.29C24.25 13.76 23.82 13.27 23.32 13.33C23.2 13.35 23.07 13.34 22.96 13.34C22.67 13.34 22.55 13.46 22.55 13.77C22.55 14.32 22.55 14.87 22.55 15.41ZM13.97 17.47C13.86 17.6 13.75 17.8 13.59 17.93C13.46 18.03 13.43 18.11 13.46 18.26C13.59 19.07 13.95 19.39 14.79 19.24C14.51 18.64 14.23 18.03 13.97 17.47Z" fill="#FFFFFF" fill-opacity="1.000000" fill-rule="nonzero"/>
	</g>
</svg>
