<svg width="36.000000" height="36.000000" viewBox="0 0 36 36" fill="none" xmlns="http://www.w3.org/2000/svg" xmlns:xlink="http://www.w3.org/1999/xlink">
	<desc>
			Created with Pixso.
	</desc>
	<defs>
		<clipPath id="clip36_908">
			<rect id="verification_identification_security_identity_card_personal_information_icon_262951 1" rx="-0.500000" width="20.000000" height="20.000000" transform="translate(8.500000 7.500000)" fill="white" fill-opacity="0"/>
		</clipPath>
		<linearGradient x1="26.922411" y1="9.724141" x2="6.491375" y2="29.120693" id="paint_linear_43_1154_0" gradientUnits="userSpaceOnUse">
			<stop offset="0.404729" stop-color="#205BC9" stop-opacity="0.000000"/>
			<stop offset="1.000000" stop-color="#073D95"/>
		</linearGradient>
	</defs>
	<path id="Star 2" d="M10.25 4.59L3.96 8.12C3 8.66 2.42 9.68 2.42 10.78L2.52 18L2.42 25.21C2.42 26.31 3 27.33 3.96 27.87L10.25 31.4L16.46 35.09C17.41 35.65 18.58 35.65 19.53 35.09L25.74 31.4L32.03 27.87C32.99 27.33 33.57 26.31 33.57 25.21L33.47 18L33.57 10.78C33.57 9.68 32.99 8.66 32.03 8.12L25.74 4.59L19.53 0.9C18.58 0.34 17.41 0.34 16.46 0.9L10.25 4.59ZM10.75 5.46L4.45 9C3.81 9.35 3.42 10.03 3.42 10.76L3.52 18L3.42 25.23C3.42 25.96 3.81 26.64 4.45 27L10.75 30.53L16.97 34.23C17.6 34.6 18.39 34.6 19.02 34.23L25.24 30.53L31.54 27C32.18 26.64 32.57 25.96 32.57 25.23L32.47 18L32.57 10.76C32.57 10.03 32.18 9.35 31.54 9L25.24 5.46L19.02 1.76C18.39 1.39 17.6 1.39 16.97 1.76L10.75 5.46Z" fill="#205BC9" fill-opacity="1.000000" fill-rule="evenodd"/>
	<path id="Star 1" d="M16.97 3.6L11.54 6.82L6.04 9.91C5.4 10.27 5.02 10.95 5.02 11.68L5.1 18L5.02 24.31C5.02 25.04 5.4 25.72 6.04 26.08L11.54 29.17L16.97 32.39C17.6 32.76 18.39 32.76 19.02 32.39L24.45 29.17L29.95 26.08C30.59 25.72 30.97 25.04 30.97 24.31L30.89 18L30.97 11.68C30.97 10.95 30.59 10.27 29.95 9.91L24.45 6.82L19.02 3.6C18.39 3.23 17.6 3.23 16.97 3.6Z" fill="#205BC9" fill-opacity="1.000000" fill-rule="evenodd"/>
	<path id="Star 1" d="M16.97 3.6L11.54 6.82L6.04 9.91C5.4 10.27 5.02 10.95 5.02 11.68L5.1 18L5.02 24.31C5.02 25.04 5.4 25.72 6.04 26.08L11.54 29.17L16.97 32.39C17.6 32.76 18.39 32.76 19.02 32.39L24.45 29.17L29.95 26.08C30.59 25.72 30.97 25.04 30.97 24.31L30.89 18L30.97 11.68C30.97 10.95 30.59 10.27 29.95 9.91L24.45 6.82L19.02 3.6C18.39 3.23 17.6 3.23 16.97 3.6Z" fill="url(#paint_linear_43_1154_0)" fill-opacity="1.000000" fill-rule="evenodd"/>
	<g clip-path="url(#clip36_908)">
		<path id="Vector" d="M22.68 24.01L9.55 24.01C9.27 24.01 9 23.9 8.8 23.71C8.6 23.51 8.49 23.24 8.49 22.96L8.49 13.03C8.49 12.75 8.6 12.48 8.8 12.28C9 12.08 9.27 11.97 9.55 11.97L15.85 11.97C15.89 11.97 15.93 11.99 15.96 12.02C16 12.05 16.01 12.09 16.01 12.14C16.01 12.18 16 12.22 15.96 12.25C15.93 12.28 15.89 12.3 15.85 12.3L9.55 12.3C9.35 12.3 9.17 12.38 9.03 12.51C8.89 12.65 8.82 12.84 8.82 13.03L8.82 22.96C8.82 23.16 8.89 23.34 9.03 23.48C9.17 23.61 9.35 23.69 9.55 23.69L22.68 23.69C22.73 23.69 22.77 23.7 22.8 23.73C22.83 23.76 22.85 23.81 22.85 23.85C22.85 23.89 22.83 23.93 22.8 23.97C22.77 24 22.73 24.01 22.68 24.01Z" fill="#FFFFFF" fill-opacity="1.000000" fill-rule="nonzero"/>
		<path id="Vector" d="M26.44 20.76C26.39 20.76 26.35 20.75 26.32 20.72C26.29 20.68 26.28 20.64 26.28 20.6L26.28 13.03C26.28 12.84 26.2 12.65 26.06 12.51C25.92 12.38 25.74 12.3 25.54 12.3L19.25 12.3C19.2 12.3 19.16 12.28 19.13 12.25C19.1 12.22 19.08 12.18 19.08 12.14C19.08 12.09 19.1 12.05 19.13 12.02C19.16 11.99 19.2 11.97 19.25 11.97L25.54 11.97C25.82 11.97 26.1 12.08 26.29 12.28C26.5 12.48 26.6 12.75 26.6 13.03L26.6 20.6C26.6 20.64 26.59 20.68 26.56 20.72C26.53 20.75 26.48 20.76 26.44 20.76Z" fill="#FFFFFF" fill-opacity="1.000000" fill-rule="nonzero"/>
		<path id="Vector" d="M20.23 14.45L14.87 14.45C14.82 14.45 14.78 14.43 14.75 14.4C14.72 14.37 14.71 14.33 14.71 14.29C14.71 14.25 14.72 14.2 14.75 14.17C14.78 14.14 14.82 14.12 14.87 14.12L20.23 14.12C20.27 14.12 20.32 14.14 20.35 14.17C20.38 14.2 20.39 14.25 20.39 14.29C20.39 14.33 20.38 14.37 20.35 14.4C20.32 14.43 20.27 14.45 20.23 14.45Z" fill="#FFFFFF" fill-opacity="1.000000" fill-rule="nonzero"/>
		<path id="Vector" d="M19.25 14.45L15.85 14.45C15.83 14.45 15.81 14.45 15.78 14.44C15.77 14.43 15.75 14.42 15.74 14.4C15.72 14.39 15.71 14.37 15.7 14.35C15.69 14.33 15.69 14.31 15.69 14.29L15.69 10.55C15.67 10.29 15.71 10.04 15.79 9.8C15.88 9.56 16.01 9.33 16.18 9.15C16.36 8.96 16.57 8.81 16.81 8.71C17.04 8.61 17.29 8.56 17.55 8.56C17.8 8.56 18.06 8.61 18.29 8.71C18.53 8.81 18.74 8.96 18.91 9.15C19.08 9.33 19.21 9.56 19.3 9.8C19.39 10.04 19.42 10.29 19.41 10.55L19.41 14.29C19.41 14.33 19.39 14.37 19.36 14.4C19.33 14.43 19.29 14.45 19.25 14.45ZM16.02 14.12L19.08 14.12L19.08 10.55C19.08 10.14 18.92 9.75 18.63 9.46C18.34 9.18 17.96 9.02 17.55 9.02C17.14 9.02 16.75 9.18 16.46 9.46C16.17 9.75 16.02 10.14 16.02 10.55L16.02 14.12Z" fill="#FFFFFF" fill-opacity="1.000000" fill-rule="nonzero"/>
		<path id="Vector" d="M19.25 14.45L15.85 14.45C15.83 14.45 15.81 14.45 15.78 14.44C15.77 14.43 15.75 14.42 15.74 14.4C15.72 14.39 15.71 14.37 15.7 14.35C15.69 14.33 15.69 14.31 15.69 14.29L15.69 10.55C15.67 10.29 15.71 10.04 15.79 9.8C15.88 9.56 16.01 9.33 16.18 9.15C16.36 8.96 16.57 8.81 16.81 8.71C17.04 8.61 17.29 8.56 17.55 8.56C17.8 8.56 18.06 8.61 18.29 8.71C18.53 8.81 18.74 8.96 18.91 9.15C19.08 9.33 19.21 9.56 19.3 9.8C19.39 10.04 19.42 10.29 19.41 10.55L19.41 14.29C19.41 14.33 19.39 14.37 19.36 14.4C19.33 14.43 19.29 14.45 19.25 14.45ZM16.02 14.12L19.08 14.12L19.08 10.55C19.08 10.14 18.92 9.75 18.63 9.46C18.34 9.18 17.96 9.02 17.55 9.02C17.14 9.02 16.75 9.18 16.46 9.46C16.17 9.75 16.02 10.14 16.02 10.55L16.02 14.12Z" fill="#FFFFFF" fill-opacity="1.000000" fill-rule="nonzero"/>
		<path id="Vector" d="M12.64 21.4C12.08 21.41 11.51 21.32 10.98 21.14C10.28 20.89 10.14 20.52 10.14 20.27C10.14 19.8 10.26 19.35 10.5 18.95C10.74 18.56 11.08 18.24 11.5 18.02C11.51 18.01 11.53 18.01 11.56 18C11.58 18 11.6 18 11.62 18.01C11.64 18.01 11.67 18.03 11.68 18.04C11.7 18.05 11.71 18.07 11.72 18.09C11.73 18.11 11.74 18.13 11.74 18.15C11.75 18.18 11.74 18.2 11.73 18.22C11.72 18.24 11.71 18.26 11.7 18.28C11.68 18.29 11.67 18.31 11.64 18.32C11.28 18.5 10.99 18.78 10.78 19.12C10.57 19.46 10.46 19.86 10.46 20.26C10.46 20.72 11.39 21.07 12.64 21.07C13.89 21.07 14.83 20.72 14.83 20.26C14.83 19.86 14.72 19.46 14.51 19.12C14.31 18.78 14 18.5 13.64 18.32C13.62 18.31 13.6 18.29 13.59 18.28C13.57 18.26 13.56 18.24 13.55 18.22C13.54 18.2 13.54 18.18 13.54 18.15C13.54 18.13 13.55 18.11 13.56 18.09C13.57 18.07 13.58 18.05 13.6 18.04C13.62 18.02 13.64 18.01 13.66 18C13.68 18 13.71 18 13.73 18C13.75 18 13.78 18.01 13.79 18.02C14.21 18.23 14.55 18.55 14.79 18.95C15.03 19.34 15.16 19.8 15.16 20.26C15.16 21.04 13.9 21.4 12.64 21.4Z" fill="#FFFFFF" fill-opacity="1.000000" fill-rule="nonzero"/>
		<path id="Vector" d="M23.94 16.86L16.46 16.86C16.41 16.86 16.37 16.84 16.34 16.81C16.31 16.78 16.29 16.74 16.29 16.7C16.29 16.66 16.31 16.61 16.34 16.58C16.37 16.55 16.41 16.53 16.46 16.53L23.94 16.53C23.99 16.53 24.03 16.55 24.06 16.58C24.09 16.61 24.1 16.66 24.1 16.7C24.1 16.74 24.09 16.78 24.06 16.81C24.03 16.84 23.99 16.86 23.94 16.86Z" fill="#FFFFFF" fill-opacity="1.000000" fill-rule="nonzero"/>
		<path id="Vector" d="M23.94 18.65L16.46 18.65C16.41 18.65 16.37 18.63 16.34 18.6C16.31 18.57 16.29 18.53 16.29 18.49C16.29 18.44 16.31 18.4 16.34 18.37C16.37 18.34 16.41 18.32 16.46 18.32L23.94 18.32C23.99 18.32 24.03 18.34 24.06 18.37C24.09 18.4 24.1 18.44 24.1 18.49C24.1 18.53 24.09 18.57 24.06 18.6C24.03 18.63 23.99 18.65 23.94 18.65Z" fill="#FFFFFF" fill-opacity="1.000000" fill-rule="nonzero"/>
		<path id="Vector" d="M20.21 20.44L16.46 20.44C16.41 20.44 16.37 20.42 16.34 20.39C16.31 20.36 16.29 20.32 16.29 20.28C16.29 20.24 16.31 20.19 16.34 20.16C16.37 20.13 16.41 20.11 16.46 20.11L20.21 20.11C20.25 20.11 20.29 20.13 20.32 20.16C20.35 20.19 20.37 20.24 20.37 20.28C20.37 20.32 20.35 20.36 20.32 20.39C20.29 20.42 20.25 20.44 20.21 20.44Z" fill="#FFFFFF" fill-opacity="1.000000" fill-rule="nonzero"/>
		<path id="Vector" d="M25.1 24.18C25.06 24.18 25.01 24.17 24.99 24.14L24.28 23.48C24.25 23.45 24.25 23.41 24.25 23.38C24.25 23.34 24.26 23.3 24.29 23.27C24.32 23.24 24.35 23.23 24.39 23.22C24.42 23.22 24.46 23.22 24.5 23.25L25.09 23.8L26.46 22.45C26.49 22.42 26.53 22.4 26.57 22.4C26.61 22.4 26.65 22.42 26.68 22.45C26.71 22.48 26.74 22.52 26.74 22.57C26.74 22.61 26.71 22.65 26.68 22.68L25.21 24.15C25.17 24.17 25.14 24.19 25.1 24.18Z" fill="#FFFFFF" fill-opacity="1.000000" fill-rule="nonzero"/>
		<path id="Vector" d="M17.55 11.11C17.4 11.11 17.26 11.07 17.14 10.99C17.01 10.91 16.92 10.8 16.86 10.66C16.8 10.53 16.78 10.38 16.82 10.23C16.84 10.09 16.91 9.96 17.01 9.85C17.12 9.75 17.25 9.67 17.39 9.65C17.53 9.62 17.68 9.63 17.82 9.69C17.96 9.74 18.07 9.84 18.15 9.96C18.24 10.08 18.28 10.23 18.28 10.37C18.28 10.57 18.2 10.75 18.07 10.89C17.93 11.03 17.75 11.11 17.55 11.11ZM17.55 9.96C17.47 9.96 17.39 9.99 17.32 10.03C17.25 10.08 17.2 10.14 17.17 10.21C17.14 10.29 17.13 10.37 17.14 10.45C17.16 10.53 17.2 10.61 17.25 10.66C17.32 10.72 17.39 10.76 17.46 10.78C17.55 10.79 17.63 10.78 17.71 10.75C17.78 10.72 17.85 10.67 17.89 10.6C17.93 10.53 17.96 10.45 17.96 10.37C17.96 10.26 17.92 10.16 17.84 10.08C17.76 10.01 17.66 9.96 17.55 9.96Z" fill="#FFFFFF" fill-opacity="1.000000" fill-rule="nonzero"/>
		<path id="Vector" d="M12.65 18.98C11.73 18.98 10.99 17.87 10.99 16.94C10.99 16.5 11.16 16.08 11.47 15.77C11.78 15.46 12.21 15.28 12.65 15.28C13.09 15.28 13.51 15.46 13.82 15.77C14.14 16.08 14.31 16.5 14.31 16.94C14.31 17.87 13.57 18.98 12.65 18.98ZM12.65 15.61C12.29 15.61 11.96 15.75 11.71 16C11.46 16.25 11.32 16.59 11.32 16.94C11.32 17.71 11.93 18.65 12.65 18.65C13.36 18.65 13.98 17.71 13.98 16.94C13.98 16.59 13.84 16.25 13.59 16C13.34 15.75 13 15.61 12.65 15.61Z" fill="#FFFFFF" fill-opacity="1.000000" fill-rule="nonzero"/>
		<path id="Vector" d="M25.5 26.31C24.9 26.31 24.32 26.13 23.82 25.8C23.32 25.47 22.94 24.99 22.71 24.44C22.48 23.89 22.42 23.28 22.53 22.7C22.65 22.11 22.94 21.57 23.36 21.15C23.78 20.73 24.32 20.44 24.91 20.33C25.5 20.21 26.1 20.27 26.65 20.5C27.21 20.73 27.67 21.11 28.01 21.61C28.34 22.11 28.52 22.69 28.52 23.29C28.52 24.09 28.2 24.86 27.63 25.42C27.07 25.99 26.3 26.31 25.5 26.31ZM25.5 20.6C24.96 20.6 24.45 20.76 24 21.05C23.56 21.35 23.21 21.77 23.01 22.26C22.81 22.75 22.75 23.29 22.86 23.81C22.96 24.34 23.22 24.82 23.6 25.19C23.97 25.57 24.45 25.83 24.97 25.93C25.5 26.03 26.03 25.98 26.53 25.77C27.02 25.57 27.44 25.23 27.74 24.78C28.03 24.34 28.19 23.82 28.19 23.29C28.19 22.58 27.9 21.89 27.4 21.39C26.89 20.88 26.21 20.6 25.5 20.6Z" fill="#FFFFFF" fill-opacity="1.000000" fill-rule="nonzero"/>
	</g>
</svg>
