<svg width="48.000000" height="48.000000" viewBox="0 0 48 48" fill="none" xmlns="http://www.w3.org/2000/svg" xmlns:xlink="http://www.w3.org/1999/xlink">
	
	<defs>
		<clipPath id="clip35_956">
			<rect id="Mobile/ ic_equalizer" rx="-0.500000" width="23.000000" height="23.000000" transform="translate(12.500000 12.500000)" fill="white" fill-opacity="0"/>
		</clipPath>
		<clipPath id="clip36_908">
			<rect id="verification_identification_security_identity_card_personal_information_icon_262951 1" rx="-0.500000" width="20.000000" height="20.000000" transform="translate(12.500000 12.500000)" fill="white" fill-opacity="0"/>
		</clipPath>
		<linearGradient x1="30.922411" y1="14.724141" x2="10.491375" y2="34.120693" id="paint_linear_43_1154_0" gradientUnits="userSpaceOnUse">
			<stop offset="0.404729" stop-color="#205BC9" stop-opacity="0.000000"/>
			<stop offset="1.000000" stop-color="#073D95"/>
		</linearGradient>
	</defs>
	<path id="Star 2" d="M14.25 9.59L7.96 13.12C7 13.66 6.42 14.68 6.42 15.78L6.52 23L6.42 30.21C6.42 31.31 7 32.33 7.96 32.87L14.25 36.4L20.46 40.09C21.41 40.65 22.58 40.65 23.53 40.09L29.74 36.4L36.03 32.87C36.99 32.33 37.57 31.31 37.57 30.21L37.47 23L37.57 15.78C37.57 14.68 36.99 13.66 36.03 13.12L29.74 9.59L23.53 5.9C22.58 5.34 21.41 5.34 20.46 5.9L14.25 9.59ZM14.75 10.46L8.45 14C7.81 14.35 7.42 15.03 7.42 15.76L7.52 23L7.42 30.23C7.42 30.96 7.81 31.64 8.45 32L14.75 35.53L20.97 39.23C21.6 39.6 22.39 39.6 23.02 39.23L29.24 35.53L35.54 32C36.18 31.64 36.57 30.96 36.57 30.23L36.47 23L36.57 15.76C36.57 15.03 36.18 14.35 35.54 14L29.24 10.46L23.02 6.76C22.39 6.39 21.6 6.39 20.97 6.76L14.75 10.46Z" fill="#205BC9" fill-opacity="1.000000" fill-rule="evenodd"/>
	<path id="Star 1" d="M20.97 8.6L15.54 11.82L10.04 14.91C9.4 15.27 9.02 15.95 9.02 16.68L9.1 23L9.02 29.31C9.02 30.04 9.4 30.72 10.04 31.08L15.54 34.17L20.97 37.39C21.6 37.76 22.39 37.76 23.02 37.39L28.45 34.17L33.95 31.08C34.59 30.72 34.97 30.04 34.97 29.31L34.89 23L34.97 16.68C34.97 15.95 34.59 15.27 33.95 14.91L28.45 11.82L23.02 8.6C22.39 8.23 21.6 8.23 20.97 8.6Z" fill="#205BC9" fill-opacity="1.000000" fill-rule="evenodd"/>
	<path id="Star 1" d="M20.97 8.6L15.54 11.82L10.04 14.91C9.4 15.27 9.02 15.95 9.02 16.68L9.1 23L9.02 29.31C9.02 30.04 9.4 30.72 10.04 31.08L15.54 34.17L20.97 37.39C21.6 37.76 22.39 37.76 23.02 37.39L28.45 34.17L33.95 31.08C34.59 30.72 34.97 30.04 34.97 29.31L34.89 23L34.97 16.68C34.97 15.95 34.59 15.27 33.95 14.91L28.45 11.82L23.02 8.6C22.39 8.23 21.6 8.23 20.97 8.6Z" fill="url(#paint_linear_43_1154_0)" fill-opacity="1.000000" fill-rule="evenodd"/>
	<g clip-path="url(#clip35_956)"/>
	<g clip-path="url(#clip36_908)">
		<path id="Vector" d="M26.68 29.01L13.55 29.01C13.27 29.01 13 28.9 12.8 28.71C12.6 28.51 12.49 28.24 12.49 27.96L12.49 18.03C12.49 17.75 12.6 17.48 12.8 17.28C13 17.08 13.27 16.97 13.55 16.97L19.85 16.97C19.89 16.97 19.93 16.99 19.96 17.02C20 17.05 20.01 17.09 20.01 17.14C20.01 17.18 20 17.22 19.96 17.25C19.93 17.28 19.89 17.3 19.85 17.3L13.55 17.3C13.35 17.3 13.17 17.38 13.03 17.51C12.89 17.65 12.82 17.84 12.82 18.03L12.82 27.96C12.82 28.16 12.89 28.34 13.03 28.48C13.17 28.61 13.35 28.69 13.55 28.69L26.68 28.69C26.73 28.69 26.77 28.7 26.8 28.73C26.83 28.76 26.85 28.81 26.85 28.85C26.85 28.89 26.83 28.93 26.8 28.97C26.77 29 26.73 29.01 26.68 29.01Z" fill="#FFFFFF" fill-opacity="1.000000" fill-rule="nonzero"/>
		<path id="Vector" d="M30.44 25.76C30.39 25.76 30.35 25.75 30.32 25.72C30.29 25.68 30.28 25.64 30.28 25.6L30.28 18.03C30.28 17.84 30.2 17.65 30.06 17.51C29.92 17.38 29.74 17.3 29.54 17.3L23.25 17.3C23.2 17.3 23.16 17.28 23.13 17.25C23.1 17.22 23.08 17.18 23.08 17.14C23.08 17.09 23.1 17.05 23.13 17.02C23.16 16.99 23.2 16.97 23.25 16.97L29.54 16.97C29.82 16.97 30.1 17.08 30.29 17.28C30.5 17.48 30.6 17.75 30.6 18.03L30.6 25.6C30.6 25.64 30.59 25.68 30.56 25.72C30.53 25.75 30.48 25.76 30.44 25.76Z" fill="#FFFFFF" fill-opacity="1.000000" fill-rule="nonzero"/>
		<path id="Vector" d="M24.23 19.45L18.87 19.45C18.82 19.45 18.78 19.43 18.75 19.4C18.72 19.37 18.71 19.33 18.71 19.29C18.71 19.25 18.72 19.2 18.75 19.17C18.78 19.14 18.82 19.12 18.87 19.12L24.23 19.12C24.27 19.12 24.32 19.14 24.35 19.17C24.38 19.2 24.39 19.25 24.39 19.29C24.39 19.33 24.38 19.37 24.35 19.4C24.32 19.43 24.27 19.45 24.23 19.45Z" fill="#FFFFFF" fill-opacity="1.000000" fill-rule="nonzero"/>
		<path id="Vector" d="M23.25 19.45L19.85 19.45C19.83 19.45 19.81 19.45 19.78 19.44C19.77 19.43 19.75 19.42 19.74 19.4C19.72 19.39 19.71 19.37 19.7 19.35C19.69 19.33 19.69 19.31 19.69 19.29L19.69 15.55C19.67 15.29 19.71 15.04 19.79 14.8C19.88 14.56 20.01 14.33 20.18 14.15C20.36 13.96 20.57 13.81 20.81 13.71C21.04 13.61 21.29 13.56 21.55 13.56C21.8 13.56 22.06 13.61 22.29 13.71C22.53 13.81 22.74 13.96 22.91 14.15C23.08 14.33 23.21 14.56 23.3 14.8C23.39 15.04 23.42 15.29 23.41 15.55L23.41 19.29C23.41 19.33 23.39 19.37 23.36 19.4C23.33 19.43 23.29 19.45 23.25 19.45ZM20.02 19.12L23.08 19.12L23.08 15.55C23.08 15.14 22.92 14.75 22.63 14.46C22.34 14.18 21.96 14.02 21.55 14.02C21.14 14.02 20.75 14.18 20.46 14.46C20.17 14.75 20.02 15.14 20.02 15.55L20.02 19.12Z" fill="#FFFFFF" fill-opacity="1.000000" fill-rule="nonzero"/>
		<path id="Vector" d="M23.25 19.45L19.85 19.45C19.83 19.45 19.81 19.45 19.78 19.44C19.77 19.43 19.75 19.42 19.74 19.4C19.72 19.39 19.71 19.37 19.7 19.35C19.69 19.33 19.69 19.31 19.69 19.29L19.69 15.55C19.67 15.29 19.71 15.04 19.79 14.8C19.88 14.56 20.01 14.33 20.18 14.15C20.36 13.96 20.57 13.81 20.81 13.71C21.04 13.61 21.29 13.56 21.55 13.56C21.8 13.56 22.06 13.61 22.29 13.71C22.53 13.81 22.74 13.96 22.91 14.15C23.08 14.33 23.21 14.56 23.3 14.8C23.39 15.04 23.42 15.29 23.41 15.55L23.41 19.29C23.41 19.33 23.39 19.37 23.36 19.4C23.33 19.43 23.29 19.45 23.25 19.45ZM20.02 19.12L23.08 19.12L23.08 15.55C23.08 15.14 22.92 14.75 22.63 14.46C22.34 14.18 21.96 14.02 21.55 14.02C21.14 14.02 20.75 14.18 20.46 14.46C20.17 14.75 20.02 15.14 20.02 15.55L20.02 19.12Z" fill="#FFFFFF" fill-opacity="1.000000" fill-rule="nonzero"/>
		<path id="Vector" d="M16.64 26.4C16.08 26.41 15.51 26.32 14.98 26.14C14.28 25.89 14.14 25.52 14.14 25.27C14.14 24.8 14.26 24.35 14.5 23.95C14.74 23.56 15.08 23.24 15.5 23.02C15.51 23.01 15.53 23.01 15.56 23C15.58 23 15.6 23 15.62 23.01C15.64 23.01 15.67 23.03 15.68 23.04C15.7 23.05 15.71 23.07 15.72 23.09C15.73 23.11 15.74 23.13 15.74 23.15C15.75 23.18 15.74 23.2 15.73 23.22C15.72 23.24 15.71 23.26 15.7 23.28C15.68 23.29 15.67 23.31 15.64 23.32C15.28 23.5 14.99 23.78 14.78 24.12C14.57 24.46 14.46 24.86 14.46 25.26C14.46 25.72 15.39 26.07 16.64 26.07C17.89 26.07 18.83 25.72 18.83 25.26C18.83 24.86 18.72 24.46 18.51 24.12C18.31 23.78 18 23.5 17.64 23.32C17.62 23.31 17.6 23.29 17.59 23.28C17.57 23.26 17.56 23.24 17.55 23.22C17.54 23.2 17.54 23.18 17.54 23.15C17.54 23.13 17.55 23.11 17.56 23.09C17.57 23.07 17.58 23.05 17.6 23.04C17.62 23.02 17.64 23.01 17.66 23C17.68 23 17.71 23 17.73 23C17.75 23 17.78 23.01 17.79 23.02C18.21 23.23 18.55 23.55 18.79 23.95C19.03 24.34 19.16 24.8 19.16 25.26C19.16 26.04 17.9 26.4 16.64 26.4Z" fill="#FFFFFF" fill-opacity="1.000000" fill-rule="nonzero"/>
		<path id="Vector" d="M27.94 21.86L20.46 21.86C20.41 21.86 20.37 21.84 20.34 21.81C20.31 21.78 20.29 21.74 20.29 21.7C20.29 21.66 20.31 21.61 20.34 21.58C20.37 21.55 20.41 21.53 20.46 21.53L27.94 21.53C27.99 21.53 28.03 21.55 28.06 21.58C28.09 21.61 28.1 21.66 28.1 21.7C28.1 21.74 28.09 21.78 28.06 21.81C28.03 21.84 27.99 21.86 27.94 21.86Z" fill="#FFFFFF" fill-opacity="1.000000" fill-rule="nonzero"/>
		<path id="Vector" d="M27.94 23.65L20.46 23.65C20.41 23.65 20.37 23.63 20.34 23.6C20.31 23.57 20.29 23.53 20.29 23.49C20.29 23.44 20.31 23.4 20.34 23.37C20.37 23.34 20.41 23.32 20.46 23.32L27.94 23.32C27.99 23.32 28.03 23.34 28.06 23.37C28.09 23.4 28.1 23.44 28.1 23.49C28.1 23.53 28.09 23.57 28.06 23.6C28.03 23.63 27.99 23.65 27.94 23.65Z" fill="#FFFFFF" fill-opacity="1.000000" fill-rule="nonzero"/>
		<path id="Vector" d="M24.21 25.44L20.46 25.44C20.41 25.44 20.37 25.42 20.34 25.39C20.31 25.36 20.29 25.32 20.29 25.28C20.29 25.24 20.31 25.19 20.34 25.16C20.37 25.13 20.41 25.11 20.46 25.11L24.21 25.11C24.25 25.11 24.29 25.13 24.32 25.16C24.35 25.19 24.37 25.24 24.37 25.28C24.37 25.32 24.35 25.36 24.32 25.39C24.29 25.42 24.25 25.44 24.21 25.44Z" fill="#FFFFFF" fill-opacity="1.000000" fill-rule="nonzero"/>
		<path id="Vector" d="M29.1 29.18C29.06 29.18 29.01 29.17 28.99 29.14L28.28 28.48C28.25 28.45 28.25 28.41 28.25 28.38C28.25 28.34 28.26 28.3 28.29 28.27C28.32 28.24 28.35 28.23 28.39 28.22C28.42 28.22 28.46 28.22 28.5 28.25L29.09 28.8L30.46 27.45C30.49 27.42 30.53 27.4 30.57 27.4C30.61 27.4 30.65 27.42 30.68 27.45C30.71 27.48 30.74 27.52 30.74 27.57C30.74 27.61 30.71 27.65 30.68 27.68L29.21 29.15C29.17 29.17 29.14 29.19 29.1 29.18Z" fill="#FFFFFF" fill-opacity="1.000000" fill-rule="nonzero"/>
		<path id="Vector" d="M21.55 16.11C21.4 16.11 21.26 16.07 21.14 15.99C21.01 15.91 20.92 15.8 20.86 15.66C20.8 15.53 20.78 15.38 20.82 15.23C20.84 15.09 20.91 14.96 21.01 14.85C21.12 14.75 21.25 14.67 21.39 14.65C21.53 14.62 21.68 14.63 21.82 14.69C21.96 14.74 22.07 14.84 22.15 14.96C22.24 15.08 22.28 15.23 22.28 15.37C22.28 15.57 22.2 15.75 22.07 15.89C21.93 16.03 21.75 16.11 21.55 16.11ZM21.55 14.96C21.47 14.96 21.39 14.99 21.32 15.03C21.25 15.08 21.2 15.14 21.17 15.21C21.14 15.29 21.13 15.37 21.14 15.45C21.16 15.53 21.2 15.61 21.25 15.66C21.32 15.72 21.39 15.76 21.46 15.78C21.55 15.79 21.63 15.78 21.71 15.75C21.78 15.72 21.85 15.67 21.89 15.6C21.93 15.53 21.96 15.45 21.96 15.37C21.96 15.26 21.92 15.16 21.84 15.08C21.76 15.01 21.66 14.96 21.55 14.96Z" fill="#FFFFFF" fill-opacity="1.000000" fill-rule="nonzero"/>
		<path id="Vector" d="M16.65 23.98C15.73 23.98 14.99 22.87 14.99 21.94C14.99 21.5 15.16 21.08 15.47 20.77C15.78 20.46 16.21 20.28 16.65 20.28C17.09 20.28 17.51 20.46 17.82 20.77C18.14 21.08 18.31 21.5 18.31 21.94C18.31 22.87 17.57 23.98 16.65 23.98ZM16.65 20.61C16.29 20.61 15.96 20.75 15.71 21C15.46 21.25 15.32 21.59 15.32 21.94C15.32 22.71 15.93 23.65 16.65 23.65C17.36 23.65 17.98 22.71 17.98 21.94C17.98 21.59 17.84 21.25 17.59 21C17.34 20.75 17 20.61 16.65 20.61Z" fill="#FFFFFF" fill-opacity="1.000000" fill-rule="nonzero"/>
		<path id="Vector" d="M29.5 31.31C28.9 31.31 28.32 31.13 27.82 30.8C27.32 30.47 26.94 29.99 26.71 29.44C26.48 28.89 26.42 28.28 26.53 27.7C26.65 27.11 26.94 26.57 27.36 26.15C27.78 25.73 28.32 25.44 28.91 25.33C29.5 25.21 30.1 25.27 30.65 25.5C31.21 25.73 31.67 26.11 32.01 26.61C32.34 27.11 32.52 27.69 32.52 28.29C32.52 29.09 32.2 29.86 31.63 30.42C31.07 30.99 30.3 31.31 29.5 31.31ZM29.5 25.6C28.96 25.6 28.45 25.76 28 26.05C27.56 26.35 27.21 26.77 27.01 27.26C26.81 27.75 26.75 28.29 26.86 28.81C26.96 29.34 27.22 29.82 27.6 30.19C27.97 30.57 28.45 30.83 28.97 30.93C29.5 31.03 30.03 30.98 30.53 30.77C31.02 30.57 31.44 30.23 31.74 29.78C32.03 29.34 32.19 28.82 32.19 28.29C32.19 27.58 31.9 26.89 31.4 26.39C30.89 25.88 30.21 25.6 29.5 25.6Z" fill="#FFFFFF" fill-opacity="1.000000" fill-rule="nonzero"/>
	</g>
</svg>
