<svg width="550.703125" height="205.91.896484" viewBox="0 0 444.703 206.896" fill="none" xmlns="http://www.w3.org/2000/svg" xmlns:xlink="http://www.w3.org/1999/xlink">
	
	<defs>
		<filter id="filter_41_10078_dd" x="0.117188" y="0.000000" width="500.585938" height="97.902344" filterUnits="userSpaceOnUse" color-interpolation-filters="sRGB">
			<feFlood flood-opacity="0" result="BackgroundImageFix"/>
			<feBlend mode="normal" in="SourceGraphic" in2="BackgroundImageFix" result="shape"/>
			<feGaussianBlur stdDeviation="0" result="effect_layerBlur_1"/>
		</filter>
		<filter id="filter_41_10079_dd" x="0.000000" y="79.669922" width="444.703125" height="127.226562" filterUnits="userSpaceOnUse" color-interpolation-filters="sRGB">
			<feFlood flood-opacity="0" result="BackgroundImageFix"/>
			<feBlend mode="normal" in="SourceGraphic" in2="BackgroundImageFix" result="shape"/>
			<feGaussianBlur stdDeviation="0" result="effect_layerBlur_1"/>
		</filter>
		<filter id="filter_41_10080_dd" x="0.117188" y="1.943359" width="430.921875" height="98.615234" filterUnits="userSpaceOnUse" color-interpolation-filters="sRGB">
			<feFlood flood-opacity="0" result="BackgroundImageFix"/>
			<feBlend mode="normal" in="SourceGraphic" in2="BackgroundImageFix" result="shape"/>
			<feGaussianBlur stdDeviation="0" result="effect_layerBlur_1"/>
		</filter>
		<filter id="filter_41_10081_dd" x="0.109375" y="3.886719" width="431.273438" height="99.330078" filterUnits="userSpaceOnUse" color-interpolation-filters="sRGB">
			<feFlood flood-opacity="0" result="BackgroundImageFix"/>
			<feBlend mode="normal" in="SourceGraphic" in2="BackgroundImageFix" result="shape"/>
			<feGaussianBlur stdDeviation="0" result="effect_layerBlur_1"/>
		</filter>
		<filter id="filter_41_10082_dd" x="0.109375" y="5.828125" width="431.617188" height="100.048828" filterUnits="userSpaceOnUse" color-interpolation-filters="sRGB">
			<feFlood flood-opacity="0" result="BackgroundImageFix"/>
			<feBlend mode="normal" in="SourceGraphic" in2="BackgroundImageFix" result="shape"/>
			<feGaussianBlur stdDeviation="0" result="effect_layerBlur_1"/>
		</filter>
		<filter id="filter_41_10083_dd" x="0.101562" y="7.771484" width="431.960938" height="100.759766" filterUnits="userSpaceOnUse" color-interpolation-filters="sRGB">
			<feFlood flood-opacity="0" result="BackgroundImageFix"/>
			<feBlend mode="normal" in="SourceGraphic" in2="BackgroundImageFix" result="shape"/>
			<feGaussianBlur stdDeviation="0" result="effect_layerBlur_1"/>
		</filter>
		<filter id="filter_41_10084_dd" x="0.101562" y="9.712891" width="432.304688" height="101.474609" filterUnits="userSpaceOnUse" color-interpolation-filters="sRGB">
			<feFlood flood-opacity="0" result="BackgroundImageFix"/>
			<feBlend mode="normal" in="SourceGraphic" in2="BackgroundImageFix" result="shape"/>
			<feGaussianBlur stdDeviation="0" result="effect_layerBlur_1"/>
		</filter>
		<filter id="filter_41_10085_dd" x="0.093750" y="11.654297" width="432.656250" height="102.189453" filterUnits="userSpaceOnUse" color-interpolation-filters="sRGB">
			<feFlood flood-opacity="0" result="BackgroundImageFix"/>
			<feBlend mode="normal" in="SourceGraphic" in2="BackgroundImageFix" result="shape"/>
			<feGaussianBlur stdDeviation="0" result="effect_layerBlur_1"/>
		</filter>
		<filter id="filter_41_10086_dd" x="0.093750" y="13.593750" width="433.000000" height="102.906250" filterUnits="userSpaceOnUse" color-interpolation-filters="sRGB">
			<feFlood flood-opacity="0" result="BackgroundImageFix"/>
			<feBlend mode="normal" in="SourceGraphic" in2="BackgroundImageFix" result="shape"/>
			<feGaussianBlur stdDeviation="0" result="effect_layerBlur_1"/>
		</filter>
		<filter id="filter_41_10087_dd" x="0.085938" y="15.533203" width="433.343750" height="103.623047" filterUnits="userSpaceOnUse" color-interpolation-filters="sRGB">
			<feFlood flood-opacity="0" result="BackgroundImageFix"/>
			<feBlend mode="normal" in="SourceGraphic" in2="BackgroundImageFix" result="shape"/>
			<feGaussianBlur stdDeviation="0" result="effect_layerBlur_1"/>
		</filter>
		<filter id="filter_41_10088_dd" x="0.085938" y="17.476562" width="433.687500" height="104.335938" filterUnits="userSpaceOnUse" color-interpolation-filters="sRGB">
			<feFlood flood-opacity="0" result="BackgroundImageFix"/>
			<feBlend mode="normal" in="SourceGraphic" in2="BackgroundImageFix" result="shape"/>
			<feGaussianBlur stdDeviation="0" result="effect_layerBlur_1"/>
		</filter>
		<filter id="filter_41_10089_dd" x="0.078125" y="19.416016" width="434.039062" height="105.052734" filterUnits="userSpaceOnUse" color-interpolation-filters="sRGB">
			<feFlood flood-opacity="0" result="BackgroundImageFix"/>
			<feBlend mode="normal" in="SourceGraphic" in2="BackgroundImageFix" result="shape"/>
			<feGaussianBlur stdDeviation="0" result="effect_layerBlur_1"/>
		</filter>
		<filter id="filter_41_10090_dd" x="0.078125" y="21.359375" width="434.382812" height="105.765625" filterUnits="userSpaceOnUse" color-interpolation-filters="sRGB">
			<feFlood flood-opacity="0" result="BackgroundImageFix"/>
			<feBlend mode="normal" in="SourceGraphic" in2="BackgroundImageFix" result="shape"/>
			<feGaussianBlur stdDeviation="0" result="effect_layerBlur_1"/>
		</filter>
		<filter id="filter_41_10091_dd" x="0.070312" y="23.298828" width="434.726562" height="106.482422" filterUnits="userSpaceOnUse" color-interpolation-filters="sRGB">
			<feFlood flood-opacity="0" result="BackgroundImageFix"/>
			<feBlend mode="normal" in="SourceGraphic" in2="BackgroundImageFix" result="shape"/>
			<feGaussianBlur stdDeviation="0" result="effect_layerBlur_1"/>
		</filter>
		<filter id="filter_41_10092_dd" x="0.070312" y="25.242188" width="435.070312" height="107.195312" filterUnits="userSpaceOnUse" color-interpolation-filters="sRGB">
			<feFlood flood-opacity="0" result="BackgroundImageFix"/>
			<feBlend mode="normal" in="SourceGraphic" in2="BackgroundImageFix" result="shape"/>
			<feGaussianBlur stdDeviation="0" result="effect_layerBlur_1"/>
		</filter>
		<filter id="filter_41_10093_dd" x="0.062500" y="27.181641" width="435.421875" height="107.912109" filterUnits="userSpaceOnUse" color-interpolation-filters="sRGB">
			<feFlood flood-opacity="0" result="BackgroundImageFix"/>
			<feBlend mode="normal" in="SourceGraphic" in2="BackgroundImageFix" result="shape"/>
			<feGaussianBlur stdDeviation="0" result="effect_layerBlur_1"/>
		</filter>
		<filter id="filter_41_10094_dd" x="0.062500" y="29.125000" width="435.765625" height="108.625000" filterUnits="userSpaceOnUse" color-interpolation-filters="sRGB">
			<feFlood flood-opacity="0" result="BackgroundImageFix"/>
			<feBlend mode="normal" in="SourceGraphic" in2="BackgroundImageFix" result="shape"/>
			<feGaussianBlur stdDeviation="0" result="effect_layerBlur_1"/>
		</filter>
		<filter id="filter_41_10095_dd" x="0.054688" y="31.064453" width="436.109375" height="109.343750" filterUnits="userSpaceOnUse" color-interpolation-filters="sRGB">
			<feFlood flood-opacity="0" result="BackgroundImageFix"/>
			<feBlend mode="normal" in="SourceGraphic" in2="BackgroundImageFix" result="shape"/>
			<feGaussianBlur stdDeviation="0" result="effect_layerBlur_1"/>
		</filter>
		<filter id="filter_41_10096_dd" x="0.054688" y="33.007812" width="436.453125" height="110.056641" filterUnits="userSpaceOnUse" color-interpolation-filters="sRGB">
			<feFlood flood-opacity="0" result="BackgroundImageFix"/>
			<feBlend mode="normal" in="SourceGraphic" in2="BackgroundImageFix" result="shape"/>
			<feGaussianBlur stdDeviation="0" result="effect_layerBlur_1"/>
		</filter>
		<filter id="filter_41_10097_dd" x="0.054688" y="34.947266" width="436.796875" height="110.773438" filterUnits="userSpaceOnUse" color-interpolation-filters="sRGB">
			<feFlood flood-opacity="0" result="BackgroundImageFix"/>
			<feBlend mode="normal" in="SourceGraphic" in2="BackgroundImageFix" result="shape"/>
			<feGaussianBlur stdDeviation="0" result="effect_layerBlur_1"/>
		</filter>
		<filter id="filter_41_10098_dd" x="0.046875" y="36.890625" width="437.140625" height="111.486328" filterUnits="userSpaceOnUse" color-interpolation-filters="sRGB">
			<feFlood flood-opacity="0" result="BackgroundImageFix"/>
			<feBlend mode="normal" in="SourceGraphic" in2="BackgroundImageFix" result="shape"/>
			<feGaussianBlur stdDeviation="0" result="effect_layerBlur_1"/>
		</filter>
		<filter id="filter_41_10099_dd" x="0.046875" y="38.830078" width="437.484375" height="112.205078" filterUnits="userSpaceOnUse" color-interpolation-filters="sRGB">
			<feFlood flood-opacity="0" result="BackgroundImageFix"/>
			<feBlend mode="normal" in="SourceGraphic" in2="BackgroundImageFix" result="shape"/>
			<feGaussianBlur stdDeviation="0" result="effect_layerBlur_1"/>
		</filter>
		<filter id="filter_41_10100_dd" x="0.046875" y="40.771484" width="437.828125" height="112.916016" filterUnits="userSpaceOnUse" color-interpolation-filters="sRGB">
			<feFlood flood-opacity="0" result="BackgroundImageFix"/>
			<feBlend mode="normal" in="SourceGraphic" in2="BackgroundImageFix" result="shape"/>
			<feGaussianBlur stdDeviation="0" result="effect_layerBlur_1"/>
		</filter>
		<filter id="filter_41_10101_dd" x="0.039062" y="42.710938" width="438.179688" height="113.632812" filterUnits="userSpaceOnUse" color-interpolation-filters="sRGB">
			<feFlood flood-opacity="0" result="BackgroundImageFix"/>
			<feBlend mode="normal" in="SourceGraphic" in2="BackgroundImageFix" result="shape"/>
			<feGaussianBlur stdDeviation="0" result="effect_layerBlur_1"/>
		</filter>
		<filter id="filter_41_10102_dd" x="0.039062" y="44.654297" width="438.515625" height="114.347656" filterUnits="userSpaceOnUse" color-interpolation-filters="sRGB">
			<feFlood flood-opacity="0" result="BackgroundImageFix"/>
			<feBlend mode="normal" in="SourceGraphic" in2="BackgroundImageFix" result="shape"/>
			<feGaussianBlur stdDeviation="0" result="effect_layerBlur_1"/>
		</filter>
		<filter id="filter_41_10103_dd" x="0.039062" y="46.593750" width="438.859375" height="115.064453" filterUnits="userSpaceOnUse" color-interpolation-filters="sRGB">
			<feFlood flood-opacity="0" result="BackgroundImageFix"/>
			<feBlend mode="normal" in="SourceGraphic" in2="BackgroundImageFix" result="shape"/>
			<feGaussianBlur stdDeviation="0" result="effect_layerBlur_1"/>
		</filter>
		<filter id="filter_41_10104_dd" x="0.031250" y="48.537109" width="439.210938" height="115.777344" filterUnits="userSpaceOnUse" color-interpolation-filters="sRGB">
			<feFlood flood-opacity="0" result="BackgroundImageFix"/>
			<feBlend mode="normal" in="SourceGraphic" in2="BackgroundImageFix" result="shape"/>
			<feGaussianBlur stdDeviation="0" result="effect_layerBlur_1"/>
		</filter>
		<filter id="filter_41_10105_dd" x="0.031250" y="50.476562" width="439.554688" height="116.496094" filterUnits="userSpaceOnUse" color-interpolation-filters="sRGB">
			<feFlood flood-opacity="0" result="BackgroundImageFix"/>
			<feBlend mode="normal" in="SourceGraphic" in2="BackgroundImageFix" result="shape"/>
			<feGaussianBlur stdDeviation="0" result="effect_layerBlur_1"/>
		</filter>
		<filter id="filter_41_10106_dd" x="0.031250" y="52.417969" width="439.890625" height="117.210938" filterUnits="userSpaceOnUse" color-interpolation-filters="sRGB">
			<feFlood flood-opacity="0" result="BackgroundImageFix"/>
			<feBlend mode="normal" in="SourceGraphic" in2="BackgroundImageFix" result="shape"/>
			<feGaussianBlur stdDeviation="0" result="effect_layerBlur_1"/>
		</filter>
		<filter id="filter_41_10107_dd" x="0.023438" y="54.359375" width="440.242188" height="117.925781" filterUnits="userSpaceOnUse" color-interpolation-filters="sRGB">
			<feFlood flood-opacity="0" result="BackgroundImageFix"/>
			<feBlend mode="normal" in="SourceGraphic" in2="BackgroundImageFix" result="shape"/>
			<feGaussianBlur stdDeviation="0" result="effect_layerBlur_1"/>
		</filter>
		<filter id="filter_41_10108_dd" x="0.023438" y="56.300781" width="440.585938" height="118.642578" filterUnits="userSpaceOnUse" color-interpolation-filters="sRGB">
			<feFlood flood-opacity="0" result="BackgroundImageFix"/>
			<feBlend mode="normal" in="SourceGraphic" in2="BackgroundImageFix" result="shape"/>
			<feGaussianBlur stdDeviation="0" result="effect_layerBlur_1"/>
		</filter>
		<filter id="filter_41_10109_dd" x="0.023438" y="58.244141" width="440.921875" height="119.355469" filterUnits="userSpaceOnUse" color-interpolation-filters="sRGB">
			<feFlood flood-opacity="0" result="BackgroundImageFix"/>
			<feBlend mode="normal" in="SourceGraphic" in2="BackgroundImageFix" result="shape"/>
			<feGaussianBlur stdDeviation="0" result="effect_layerBlur_1"/>
		</filter>
		<filter id="filter_41_10110_dd" x="0.015625" y="60.183594" width="441.273438" height="120.070312" filterUnits="userSpaceOnUse" color-interpolation-filters="sRGB">
			<feFlood flood-opacity="0" result="BackgroundImageFix"/>
			<feBlend mode="normal" in="SourceGraphic" in2="BackgroundImageFix" result="shape"/>
			<feGaussianBlur stdDeviation="0" result="effect_layerBlur_1"/>
		</filter>
		<filter id="filter_41_10111_dd" x="0.015625" y="62.125000" width="441.617188" height="120.787109" filterUnits="userSpaceOnUse" color-interpolation-filters="sRGB">
			<feFlood flood-opacity="0" result="BackgroundImageFix"/>
			<feBlend mode="normal" in="SourceGraphic" in2="BackgroundImageFix" result="shape"/>
			<feGaussianBlur stdDeviation="0" result="effect_layerBlur_1"/>
		</filter>
		<filter id="filter_41_10112_dd" x="0.015625" y="64.066406" width="441.960938" height="121.501953" filterUnits="userSpaceOnUse" color-interpolation-filters="sRGB">
			<feFlood flood-opacity="0" result="BackgroundImageFix"/>
			<feBlend mode="normal" in="SourceGraphic" in2="BackgroundImageFix" result="shape"/>
			<feGaussianBlur stdDeviation="0" result="effect_layerBlur_1"/>
		</filter>
		<filter id="filter_41_10113_dd" x="0.015625" y="66.007812" width="442.296875" height="122.216797" filterUnits="userSpaceOnUse" color-interpolation-filters="sRGB">
			<feFlood flood-opacity="0" result="BackgroundImageFix"/>
			<feBlend mode="normal" in="SourceGraphic" in2="BackgroundImageFix" result="shape"/>
			<feGaussianBlur stdDeviation="0" result="effect_layerBlur_1"/>
		</filter>
		<filter id="filter_41_10114_dd" x="0.007812" y="67.949219" width="442.648438" height="122.931641" filterUnits="userSpaceOnUse" color-interpolation-filters="sRGB">
			<feFlood flood-opacity="0" result="BackgroundImageFix"/>
			<feBlend mode="normal" in="SourceGraphic" in2="BackgroundImageFix" result="shape"/>
			<feGaussianBlur stdDeviation="0" result="effect_layerBlur_1"/>
		</filter>
		<filter id="filter_41_10115_dd" x="0.007812" y="69.888672" width="442.992188" height="123.648438" filterUnits="userSpaceOnUse" color-interpolation-filters="sRGB">
			<feFlood flood-opacity="0" result="BackgroundImageFix"/>
			<feBlend mode="normal" in="SourceGraphic" in2="BackgroundImageFix" result="shape"/>
			<feGaussianBlur stdDeviation="0" result="effect_layerBlur_1"/>
		</filter>
		<filter id="filter_41_10116_dd" x="0.007812" y="71.832031" width="443.328125" height="124.365234" filterUnits="userSpaceOnUse" color-interpolation-filters="sRGB">
			<feFlood flood-opacity="0" result="BackgroundImageFix"/>
			<feBlend mode="normal" in="SourceGraphic" in2="BackgroundImageFix" result="shape"/>
			<feGaussianBlur stdDeviation="0" result="effect_layerBlur_1"/>
		</filter>
		<filter id="filter_41_10117_dd" x="0.007812" y="73.775391" width="443.671875" height="125.080078" filterUnits="userSpaceOnUse" color-interpolation-filters="sRGB">
			<feFlood flood-opacity="0" result="BackgroundImageFix"/>
			<feBlend mode="normal" in="SourceGraphic" in2="BackgroundImageFix" result="shape"/>
			<feGaussianBlur stdDeviation="0" result="effect_layerBlur_1"/>
		</filter>
		<filter id="filter_41_10118_dd" x="0.000000" y="75.718750" width="444.023438" height="125.794922" filterUnits="userSpaceOnUse" color-interpolation-filters="sRGB">
			<feFlood flood-opacity="0" result="BackgroundImageFix"/>
			<feBlend mode="normal" in="SourceGraphic" in2="BackgroundImageFix" result="shape"/>
			<feGaussianBlur stdDeviation="0" result="effect_layerBlur_1"/>
		</filter>
		<filter id="filter_41_10119_dd" x="0.000000" y="77.662109" width="444.367188" height="126.511719" filterUnits="userSpaceOnUse" color-interpolation-filters="sRGB">
			<feFlood flood-opacity="0" result="BackgroundImageFix"/>
			<feBlend mode="normal" in="SourceGraphic" in2="BackgroundImageFix" result="shape"/>
			<feGaussianBlur stdDeviation="0" result="effect_layerBlur_1"/>
		</filter>
	</defs>
	<g filter="url(#filter_41_10078_dd)">
		<path id="Vector 18" d="M0.42 37.66C0.42 37.66 45.77 3.22 79.92 0.66C143.12 -4.09 147.28 91.57 210.42 97.16C264.56 101.95 286.66 35.31 339.92 46.16C362.01 50.66 369.9 71.33 392.42 70.16C408.43 69.32 430.42 54.66 430.42 54.66" stroke="#205BC9" stroke-opacity="0.600000" stroke-width="1.000000"/>
	</g>
	<g filter="url(#filter_41_10079_dd)">
		<path id="Vector 19" d="M0.42 147.97C0.42 147.97 41.77 82.86 75.92 80.29C139.12 75.54 101.78 200.54 164.92 206.13C219.06 210.92 283.66 150.95 336.92 161.8C359.01 166.3 369.9 181.64 392.42 180.47C408.43 179.63 444.42 154.79 444.42 154.79" stroke="#205BC9" stroke-opacity="0.600000" stroke-width="1.000000"/>
	</g>
	<g filter="url(#filter_41_10080_dd)">
		<path id="Vector 18 - Vector 19 - 24" d="M0.42 40.35C0.42 40.35 45.67 5.16 79.82 2.6C143.03 -2.15 146.17 94.23 209.31 99.82C263.45 104.61 286.58 38.13 339.85 48.98C361.93 53.48 369.9 74.02 392.42 72.85C408.43 72.01 430.76 57.1 430.76 57.1" stroke="#205BC9" stroke-opacity="0.600000" stroke-width="1.000000"/>
	</g>
	<g filter="url(#filter_41_10081_dd)">
		<path id="Vector 18 - Vector 19 - 49" d="M0.42 43.04C0.42 43.04 45.57 7.11 79.72 4.54C142.92 -0.2 145.06 96.88 208.2 102.47C262.34 107.27 286.51 40.95 339.77 51.8C361.86 56.3 369.9 76.71 392.42 75.54C408.43 74.7 431.1 59.54 431.1 59.54" stroke="#205BC9" stroke-opacity="0.600000" stroke-width="1.000000"/>
	</g>
	<g filter="url(#filter_41_10082_dd)">
		<path id="Vector 18 - Vector 19 - 73" d="M0.42 45.73C0.42 45.73 45.48 9.05 79.63 6.49C142.83 1.74 143.95 99.54 207.09 105.13C261.23 109.93 286.44 43.77 339.7 54.62C361.78 59.12 369.9 79.41 392.42 78.23C408.43 77.39 431.44 61.99 431.44 61.99" stroke="#205BC9" stroke-opacity="0.600000" stroke-width="1.000000"/>
	</g>
	<g filter="url(#filter_41_10083_dd)">
		<path id="Vector 18 - Vector 19 - 98" d="M0.42 48.42C0.42 48.42 45.38 10.99 79.53 8.42C142.73 3.68 142.84 102.2 205.98 107.79C260.12 112.58 286.36 46.59 339.63 57.44C361.71 61.94 369.9 82.09 392.42 80.92C408.43 80.08 431.78 64.42 431.78 64.42" stroke="#205BC9" stroke-opacity="0.600000" stroke-width="1.000000"/>
	</g>
	<g filter="url(#filter_41_10084_dd)">
		<path id="Vector 18 - Vector 19 - 122" d="M0.42 51.11C0.42 51.11 45.28 12.93 79.43 10.36C142.64 5.62 141.73 104.85 204.87 110.44C259.01 115.24 286.29 49.41 339.55 60.26C361.64 64.75 369.9 84.78 392.42 83.61C408.43 82.77 432.13 66.87 432.13 66.87" stroke="#205BC9" stroke-opacity="0.600000" stroke-width="1.000000"/>
	</g>
	<g filter="url(#filter_41_10085_dd)">
		<path id="Vector 18 - Vector 19 - 146" d="M0.42 53.79C0.42 53.79 45.18 14.87 79.33 12.31C142.53 7.56 140.62 107.51 203.76 113.1C257.9 117.89 286.21 52.23 339.48 63.08C361.57 67.57 369.9 87.47 392.42 86.29C408.43 85.46 432.46 69.31 432.46 69.31" stroke="#205BC9" stroke-opacity="0.600000" stroke-width="1.000000"/>
	</g>
	<g filter="url(#filter_41_10086_dd)">
		<path id="Vector 18 - Vector 19 - 171" d="M0.42 56.48C0.42 56.48 45.09 16.81 79.24 14.24C142.44 9.5 139.51 110.16 202.65 115.75C256.79 120.55 286.14 55.05 339.4 65.89C361.5 70.39 369.9 90.16 392.42 88.98C408.43 88.15 432.81 71.74 432.81 71.74" stroke="#205BC9" stroke-opacity="0.600000" stroke-width="1.000000"/>
	</g>
	<g filter="url(#filter_41_10087_dd)">
		<path id="Vector 18 - Vector 19 - 195" d="M0.42 59.17C0.42 59.17 44.99 18.75 79.14 16.18C142.34 11.44 138.4 112.82 201.54 118.41C255.68 123.2 286.07 57.86 339.33 68.71C361.43 73.21 369.9 92.84 392.42 91.67C408.43 90.83 433.15 74.18 433.15 74.18" stroke="#205BC9" stroke-opacity="0.600000" stroke-width="1.000000"/>
	</g>
	<g filter="url(#filter_41_10088_dd)">
		<path id="Vector 18 - Vector 19 - 220" d="M0.42 61.86C0.42 61.86 44.89 20.69 79.04 18.12C142.25 13.38 137.29 115.47 200.43 121.06C254.57 125.86 286 60.68 339.26 71.53C361.35 76.03 369.9 95.53 392.42 94.36C408.43 93.52 433.49 76.62 433.49 76.62" stroke="#205BC9" stroke-opacity="0.600000" stroke-width="1.000000"/>
	</g>
	<g filter="url(#filter_41_10089_dd)">
		<path id="Vector 18 - Vector 19 - 244" d="M0.42 64.55C0.42 64.55 44.79 22.63 78.94 20.07C142.14 15.32 136.18 118.13 199.32 123.72C253.46 128.51 285.93 63.5 339.18 74.35C361.28 78.84 369.9 98.22 392.42 97.05C408.43 96.21 433.83 79.07 433.83 79.07" stroke="#205BC9" stroke-opacity="0.600000" stroke-width="1.000000"/>
	</g>
	<g filter="url(#filter_41_10090_dd)">
		<path id="Vector 18 - Vector 19 - 268" d="M0.42 67.24C0.42 67.24 44.7 24.57 78.85 22C142.05 17.26 135.07 120.79 198.21 126.38C252.35 131.17 285.85 66.32 339.11 77.16C361.2 81.66 369.9 100.91 392.42 99.74C408.43 98.9 434.18 81.5 434.18 81.5" stroke="#205BC9" stroke-opacity="0.600000" stroke-width="1.000000"/>
	</g>
	<g filter="url(#filter_41_10091_dd)">
		<path id="Vector 18 - Vector 19 - 293" d="M0.42 69.92C0.42 69.92 44.6 26.51 78.75 23.95C141.95 19.2 133.96 123.44 197.1 129.03C251.25 133.83 285.78 69.14 339.04 79.98C361.13 84.48 369.9 103.6 392.42 102.42C408.43 101.59 434.51 83.95 434.51 83.95" stroke="#205BC9" stroke-opacity="0.600000" stroke-width="1.000000"/>
	</g>
	<g filter="url(#filter_41_10092_dd)">
		<path id="Vector 18 - Vector 19 - 317" d="M0.42 72.61C0.42 72.61 44.5 28.45 78.65 25.89C141.85 21.14 132.85 126.1 195.99 131.69C250.13 136.48 285.71 71.96 338.96 82.8C361.06 87.3 369.9 106.29 392.42 105.11C408.43 104.28 434.85 86.39 434.85 86.39" stroke="#205BC9" stroke-opacity="0.600000" stroke-width="1.000000"/>
	</g>
	<g filter="url(#filter_41_10093_dd)">
		<path id="Vector 18 - Vector 19 - 341" d="M0.42 75.3C0.42 75.3 44.4 30.39 78.55 27.83C141.75 23.08 131.75 128.75 194.88 134.34C249.02 139.14 285.64 74.78 338.89 85.62C360.98 90.12 369.9 108.98 392.42 107.8C408.43 106.97 435.2 88.83 435.2 88.83" stroke="#205BC9" stroke-opacity="0.600000" stroke-width="1.000000"/>
	</g>
	<g filter="url(#filter_41_10094_dd)">
		<path id="Vector 18 - Vector 19 - 366" d="M0.42 77.99C0.42 77.99 44.31 32.33 78.46 29.77C141.66 25.02 130.64 131.41 193.77 137C247.91 141.79 285.56 77.59 338.82 88.44C360.91 92.94 369.9 111.67 392.42 110.49C408.43 109.65 435.54 91.27 435.54 91.27" stroke="#205BC9" stroke-opacity="0.600000" stroke-width="1.000000"/>
	</g>
	<g filter="url(#filter_41_10095_dd)">
		<path id="Vector 18 - Vector 19 - 390" d="M0.42 80.68C0.42 80.68 44.21 34.27 78.35 31.71C141.57 26.96 129.53 134.07 192.66 139.66C246.8 144.45 285.49 80.41 338.75 91.26C360.84 95.76 369.9 114.35 392.42 113.18C408.43 112.34 435.88 93.71 435.88 93.71" stroke="#205BC9" stroke-opacity="0.600000" stroke-width="1.000000"/>
	</g>
	<g filter="url(#filter_41_10096_dd)">
		<path id="Vector 18 - Vector 19 - 415" d="M0.42 83.37C0.42 83.37 44.11 36.21 78.26 33.65C141.46 28.9 128.42 136.72 191.55 142.31C245.69 147.1 285.41 83.23 338.68 94.08C360.76 98.58 369.9 117.04 392.42 115.87C408.43 115.03 436.22 96.15 436.22 96.15" stroke="#205BC9" stroke-opacity="0.600000" stroke-width="1.000000"/>
	</g>
	<g filter="url(#filter_41_10097_dd)">
		<path id="Vector 18 - Vector 19 - 439" d="M0.42 86.06C0.42 86.06 44.01 38.15 78.16 35.59C141.37 30.84 127.31 139.38 190.44 144.97C244.58 149.76 285.34 86.05 338.6 96.9C360.69 101.39 369.9 119.73 392.42 118.56C408.43 117.72 436.57 98.59 436.57 98.59" stroke="#205BC9" stroke-opacity="0.600000" stroke-width="1.000000"/>
	</g>
	<g filter="url(#filter_41_10098_dd)">
		<path id="Vector 18 - Vector 19 - 463" d="M0.42 88.74C0.42 88.74 43.92 40.09 78.07 37.53C141.27 32.78 126.2 142.03 189.33 147.62C243.47 152.42 285.27 88.87 338.53 99.71C360.62 104.21 369.9 122.42 392.42 121.24C408.43 120.41 436.9 101.03 436.9 101.03" stroke="#205BC9" stroke-opacity="0.600000" stroke-width="1.000000"/>
	</g>
	<g filter="url(#filter_41_10099_dd)">
		<path id="Vector 18 - Vector 19 - 488" d="M0.42 91.43C0.42 91.43 43.82 42.03 77.96 39.47C141.17 34.72 125.09 144.69 188.22 150.28C242.36 155.07 285.19 91.69 338.46 102.53C360.54 107.03 369.9 125.11 392.42 123.93C408.43 123.1 437.25 103.47 437.25 103.47" stroke="#205BC9" stroke-opacity="0.600000" stroke-width="1.000000"/>
	</g>
	<g filter="url(#filter_41_10100_dd)">
		<path id="Vector 18 - Vector 19 - 512" d="M0.42 94.12C0.42 94.12 43.72 43.97 77.87 41.41C141.07 36.66 123.97 147.34 187.11 152.93C241.25 157.73 285.12 94.5 338.38 105.35C360.47 109.85 369.9 127.79 392.42 126.62C408.43 125.78 437.59 105.91 437.59 105.91" stroke="#205BC9" stroke-opacity="0.600000" stroke-width="1.000000"/>
	</g>
	<g filter="url(#filter_41_10101_dd)">
		<path id="Vector 18 - Vector 19 - 537" d="M0.42 96.81C0.42 96.81 43.62 45.91 77.77 43.35C140.98 38.6 122.86 150 186 155.59C240.14 160.38 285.05 97.32 338.31 108.17C360.39 112.67 369.9 130.48 392.42 129.31C408.43 128.47 437.93 108.35 437.93 108.35" stroke="#205BC9" stroke-opacity="0.600000" stroke-width="1.000000"/>
	</g>
	<g filter="url(#filter_41_10102_dd)">
		<path id="Vector 18 - Vector 19 - 561" d="M0.42 99.5C0.42 99.5 43.53 47.85 77.67 45.29C140.88 40.54 121.75 152.66 184.89 158.25C239.03 163.04 284.97 100.14 338.24 110.99C360.32 115.49 369.9 133.17 392.42 132C408.43 131.16 438.27 110.79 438.27 110.79" stroke="#205BC9" stroke-opacity="0.600000" stroke-width="1.000000"/>
	</g>
	<g filter="url(#filter_41_10103_dd)">
		<path id="Vector 18 - Vector 19 - 585" d="M0.42 102.18C0.42 102.18 43.42 49.79 77.57 47.23C140.78 42.48 120.64 155.31 183.78 160.9C237.93 165.69 284.9 102.96 338.16 113.81C360.25 118.3 369.9 135.86 392.42 134.68C408.43 133.85 438.61 113.23 438.61 113.23" stroke="#205BC9" stroke-opacity="0.600000" stroke-width="1.000000"/>
	</g>
	<g filter="url(#filter_41_10104_dd)">
		<path id="Vector 18 - Vector 19 - 610" d="M0.42 104.87C0.42 104.87 43.33 51.73 77.48 49.17C140.68 44.42 119.53 157.97 182.68 163.56C236.82 168.35 284.83 105.78 338.09 116.62C360.18 121.12 369.9 138.55 392.42 137.37C408.43 136.54 438.96 115.67 438.96 115.67" stroke="#205BC9" stroke-opacity="0.600000" stroke-width="1.000000"/>
	</g>
	<g filter="url(#filter_41_10105_dd)">
		<path id="Vector 18 - Vector 19 - 634" d="M0.42 107.56C0.42 107.56 43.23 53.67 77.38 51.11C140.59 46.36 118.43 160.62 181.57 166.21C235.71 171.01 284.75 108.6 338.01 119.44C360.1 123.94 369.9 141.24 392.42 140.06C408.43 139.23 439.29 118.11 439.29 118.11" stroke="#205BC9" stroke-opacity="0.600000" stroke-width="1.000000"/>
	</g>
	<g filter="url(#filter_41_10106_dd)">
		<path id="Vector 18 - Vector 19 - 659" d="M0.42 110.25C0.42 110.25 43.14 55.61 77.28 53.05C140.49 48.3 117.32 163.28 180.46 168.87C234.6 173.66 284.68 111.42 337.94 122.26C360.03 126.76 369.9 143.93 392.42 142.75C408.43 141.92 439.64 120.55 439.64 120.55" stroke="#205BC9" stroke-opacity="0.600000" stroke-width="1.000000"/>
	</g>
	<g filter="url(#filter_41_10107_dd)">
		<path id="Vector 18 - Vector 19 - 683" d="M0.42 112.94C0.42 112.94 43.03 57.56 77.18 54.99C140.39 50.24 116.21 165.94 179.35 171.53C233.49 176.32 284.6 114.24 337.87 125.08C359.96 129.58 369.9 146.61 392.42 145.44C408.43 144.6 439.98 122.99 439.98 122.99" stroke="#205BC9" stroke-opacity="0.600000" stroke-width="1.000000"/>
	</g>
	<g filter="url(#filter_41_10108_dd)">
		<path id="Vector 18 - Vector 19 - 707" d="M0.42 115.63C0.42 115.63 42.94 59.5 77.09 56.93C140.29 52.18 115.1 168.59 178.24 174.18C232.38 178.98 284.53 117.05 337.79 127.9C359.89 132.4 369.9 149.3 392.42 148.13C408.43 147.29 440.32 125.43 440.32 125.43" stroke="#205BC9" stroke-opacity="0.600000" stroke-width="1.000000"/>
	</g>
	<g filter="url(#filter_41_10109_dd)">
		<path id="Vector 18 - Vector 19 - 732" d="M0.42 118.32C0.42 118.32 42.84 61.44 76.99 58.87C140.2 54.12 113.99 171.25 177.13 176.84C231.27 181.63 284.46 119.87 337.72 130.72C359.82 135.22 369.9 151.99 392.42 150.82C408.43 149.98 440.66 127.87 440.66 127.87" stroke="#205BC9" stroke-opacity="0.600000" stroke-width="1.000000"/>
	</g>
	<g filter="url(#filter_41_10110_dd)">
		<path id="Vector 18 - Vector 19 - 756" d="M0.42 121.01C0.42 121.01 42.75 63.38 76.89 60.81C140.1 56.07 112.88 173.9 176.01 179.49C230.16 184.29 284.39 122.69 337.65 133.54C359.74 138.04 369.9 154.68 392.42 153.51C408.43 152.67 441 130.31 441 130.31" stroke="#205BC9" stroke-opacity="0.600000" stroke-width="1.000000"/>
	</g>
	<g filter="url(#filter_41_10111_dd)">
		<path id="Vector 18 - Vector 19 - 780" d="M0.42 123.69C0.42 123.69 42.64 65.32 76.79 62.75C140 58 111.77 176.56 174.9 182.15C229.05 186.94 284.32 125.51 337.57 136.36C359.67 140.85 369.9 157.37 392.42 156.19C408.43 155.36 441.35 132.75 441.35 132.75" stroke="#205BC9" stroke-opacity="0.600000" stroke-width="1.000000"/>
	</g>
	<g filter="url(#filter_41_10112_dd)">
		<path id="Vector 18 - Vector 19 - 805" d="M0.42 126.38C0.42 126.38 42.55 67.26 76.7 64.69C139.9 59.95 110.66 179.22 173.79 184.81C227.94 189.6 284.25 128.33 337.5 139.17C359.59 143.67 369.9 160.06 392.42 158.88C408.43 158.05 441.68 135.19 441.68 135.19" stroke="#205BC9" stroke-opacity="0.600000" stroke-width="1.000000"/>
	</g>
	<g filter="url(#filter_41_10113_dd)">
		<path id="Vector 18 - Vector 19 - 829" d="M0.42 129.07C0.42 129.07 42.45 69.2 76.6 66.63C139.81 61.89 109.55 181.87 172.68 187.46C226.82 192.26 284.17 131.15 337.43 141.99C359.52 146.49 369.9 162.75 392.42 161.57C408.43 160.74 442.03 137.64 442.03 137.64" stroke="#205BC9" stroke-opacity="0.600000" stroke-width="1.000000"/>
	</g>
	<g filter="url(#filter_41_10114_dd)">
		<path id="Vector 18 - Vector 19 - 854" d="M0.42 131.76C0.42 131.76 42.35 71.14 76.5 68.57C139.71 63.83 108.44 184.53 171.57 190.12C225.71 194.91 284.1 133.96 337.35 144.81C359.45 149.31 369.9 165.43 392.42 164.26C408.43 163.42 442.37 140.07 442.37 140.07" stroke="#205BC9" stroke-opacity="0.600000" stroke-width="1.000000"/>
	</g>
	<g filter="url(#filter_41_10115_dd)">
		<path id="Vector 18 - Vector 19 - 878" d="M0.42 134.45C0.42 134.45 42.25 73.08 76.4 70.51C139.61 65.77 107.33 187.18 170.46 192.77C224.6 197.57 284.03 136.78 337.28 147.63C359.37 152.13 369.9 168.12 392.42 166.95C408.43 166.11 442.71 142.52 442.71 142.52" stroke="#205BC9" stroke-opacity="0.600000" stroke-width="1.000000"/>
	</g>
	<g filter="url(#filter_41_10116_dd)">
		<path id="Vector 18 - Vector 19 - 902" d="M0.42 137.14C0.42 137.14 42.16 75.02 76.31 72.46C139.51 67.71 106.22 189.84 169.35 195.43C223.5 200.22 283.95 139.6 337.21 150.45C359.3 154.95 369.9 170.81 392.42 169.64C408.43 168.8 443.05 144.96 443.05 144.96" stroke="#205BC9" stroke-opacity="0.600000" stroke-width="1.000000"/>
	</g>
	<g filter="url(#filter_41_10117_dd)">
		<path id="Vector 18 - Vector 19 - 927" d="M0.42 139.83C0.42 139.83 42.06 76.96 76.21 74.4C139.42 69.65 105.11 192.5 168.25 198.09C222.39 202.88 283.88 142.42 337.14 153.27C359.23 157.77 369.9 173.51 392.42 172.33C408.43 171.49 443.39 147.4 443.39 147.4" stroke="#205BC9" stroke-opacity="0.600000" stroke-width="1.000000"/>
	</g>
	<g filter="url(#filter_41_10118_dd)">
		<path id="Vector 18 - Vector 19 - 951" d="M0.42 142.52C0.42 142.52 41.96 78.91 76.11 76.34C139.32 71.59 104 195.16 167.14 200.75C221.28 205.54 283.8 145.25 337.07 156.09C359.15 160.59 369.9 176.2 392.42 175.02C408.43 174.18 443.74 149.84 443.74 149.84" stroke="#205BC9" stroke-opacity="0.600000" stroke-width="1.000000"/>
	</g>
	<g filter="url(#filter_41_10119_dd)">
		<path id="Vector 18 - Vector 19 - 976" d="M0.42 145.21C0.42 145.21 41.87 80.85 76.01 78.28C139.22 73.54 102.89 197.82 166.03 203.41C220.17 208.2 283.73 148.07 336.99 158.91C359.08 163.41 369.9 178.89 392.42 177.71C408.43 176.88 444.07 152.28 444.07 152.28" stroke="#205BC9" stroke-opacity="0.600000" stroke-width="1.000000"/>
	</g>
</svg>
