<svg width="48.000000" height="48.000000" viewBox="0 0 48 48" fill="none" xmlns="http://www.w3.org/2000/svg" xmlns:xlink="http://www.w3.org/1999/xlink">
	<desc>
			Created with Pixso.
	</desc>
	<defs>
		<clipPath id="clip35_998">
			<rect id="Mobile/ ic_equalizer" rx="-0.500000" width="23.000000" height="23.000000" transform="translate(12.500000 12.500000)" fill="white" fill-opacity="0"/>
		</clipPath>
		<clipPath id="clip41_10139">
			<rect id="uparrowinsidecircle_121998 2" rx="-0.500000" width="17.000000" height="17.000000" transform="translate(15.500000 15.500000)" fill="white" fill-opacity="0"/>
		</clipPath>
		<linearGradient x1="32.922409" y1="15.724141" x2="12.491375" y2="35.120693" id="paint_linear_43_1163_0" gradientUnits="userSpaceOnUse">
			<stop offset="0.404729" stop-color="#205BC9" stop-opacity="0.000000"/>
			<stop offset="1.000000" stop-color="#073D95"/>
		</linearGradient>
	</defs>
	<path id="Star 2" d="M16.25 10.59L9.96 14.12C9 14.66 8.42 15.68 8.42 16.78L8.52 24L8.42 31.21C8.42 32.31 9 33.33 9.96 33.87L16.25 37.4L22.46 41.09C23.41 41.65 24.58 41.65 25.53 41.09L31.74 37.4L38.03 33.87C38.99 33.33 39.57 32.31 39.57 31.21L39.47 24L39.57 16.78C39.57 15.68 38.99 14.66 38.03 14.12L31.74 10.59L25.53 6.9C24.58 6.34 23.41 6.34 22.46 6.9L16.25 10.59ZM16.75 11.46L10.45 15C9.81 15.35 9.42 16.03 9.42 16.76L9.52 24L9.42 31.23C9.42 31.96 9.81 32.64 10.45 33L16.75 36.53L22.97 40.23C23.6 40.6 24.39 40.6 25.02 40.23L31.24 36.53L37.54 33C38.18 32.64 38.57 31.96 38.57 31.23L38.47 24L38.57 16.76C38.57 16.03 38.18 15.35 37.54 15L31.24 11.46L25.02 7.76C24.39 7.39 23.6 7.39 22.97 7.76L16.75 11.46Z" fill="#205BC9" fill-opacity="1.000000" fill-rule="evenodd"/>
	<path id="Star 1" d="M22.97 9.6L17.54 12.82L12.04 15.91C11.4 16.27 11.02 16.95 11.02 17.68L11.1 24L11.02 30.31C11.02 31.04 11.4 31.72 12.04 32.08L17.54 35.17L22.97 38.39C23.6 38.76 24.39 38.76 25.02 38.39L30.45 35.17L35.95 32.08C36.59 31.72 36.97 31.04 36.97 30.31L36.89 24L36.97 17.68C36.97 16.95 36.59 16.27 35.95 15.91L30.45 12.82L25.02 9.6C24.39 9.23 23.6 9.23 22.97 9.6Z" fill="#205BC9" fill-opacity="1.000000" fill-rule="evenodd"/>
	<path id="Star 1" d="M22.97 9.6L17.54 12.82L12.04 15.91C11.4 16.27 11.02 16.95 11.02 17.68L11.1 24L11.02 30.31C11.02 31.04 11.4 31.72 12.04 32.08L17.54 35.17L22.97 38.39C23.6 38.76 24.39 38.76 25.02 38.39L30.45 35.17L35.95 32.08C36.59 31.72 36.97 31.04 36.97 30.31L36.89 24L36.97 17.68C36.97 16.95 36.59 16.27 35.95 15.91L30.45 12.82L25.02 9.6C24.39 9.23 23.6 9.23 22.97 9.6Z" fill="url(#paint_linear_43_1163_0)" fill-opacity="1.000000" fill-rule="evenodd"/>
	<g clip-path="url(#clip35_998)"/>
	<g clip-path="url(#clip41_10139)">
		<path id="Vector" d="M24 15C19.03 15 15 19.02 15 24C15 28.97 19.03 33 24 33C28.96 33 33 28.97 33 24C33 19.02 28.96 15 24 15ZM24 32.12C19.5 32.12 15.87 28.47 15.87 24C15.87 19.52 19.5 15.87 24 15.87C28.5 15.87 32.12 19.52 32.12 24C32.12 28.47 28.47 32.12 24 32.12ZM27.53 23.12C27.7 23.29 27.7 23.57 27.53 23.74C27.43 23.83 27.34 23.85 27.22 23.85C27.1 23.85 27.01 23.81 26.92 23.74L24.42 21.24L24.42 28.14C24.42 28.38 24.23 28.56 24 28.56C23.76 28.56 23.57 28.38 23.57 28.14L23.57 21.24L21.1 23.71C20.93 23.88 20.65 23.88 20.48 23.71C20.32 23.55 20.32 23.26 20.48 23.1L23.69 19.9C23.71 19.87 23.74 19.85 23.76 19.85L23.78 19.83C23.81 19.83 23.81 19.8 23.83 19.8C23.85 19.8 23.85 19.8 23.88 19.78C23.9 19.78 23.9 19.78 23.92 19.78C23.97 19.78 24.04 19.78 24.09 19.78C24.11 19.78 24.11 19.78 24.14 19.78C24.17 19.78 24.17 19.78 24.19 19.8C24.21 19.8 24.21 19.83 24.24 19.83C24.24 19.83 24.26 19.83 24.26 19.85C24.28 19.87 24.31 19.87 24.33 19.9L27.53 23.12Z" fill="#FFFFFF" fill-opacity="1.000000" fill-rule="nonzero"/>
	</g>
</svg>
