<svg width="152" height="152" viewBox="0 0 152 152" fill="none" xmlns="http://www.w3.org/2000/svg">
<g clip-path="url(#clip0_2052_1712)">
<rect width="152" height="152" rx="76" fill="white"/>
<rect x="100.699" y="-12.2773" width="89.2456" height="173.531" transform="rotate(20.8832 100.699 -12.2773)" fill="#EFEFEF"/>
<path d="M75.4999 117.864C75.1391 117.864 74.793 117.704 74.5623 117.427L35.2896 70.7907C34.9214 70.3538 34.9017 69.7205 35.2454 69.264L49.9726 49.6276C50.2034 49.3184 50.5691 49.1367 50.9545 49.1367H100.045C100.431 49.1367 100.796 49.3184 101.027 49.6276L115.754 69.264C116.098 69.7205 116.078 70.3538 115.71 70.7907L76.4376 117.427C76.2068 117.704 75.8607 117.864 75.4999 117.864ZM37.7956 69.9562L75.4999 114.732L113.204 69.9562L99.4317 51.5913H51.5681L37.7956 69.9562Z" fill="#205BC9"/>
<path d="M114.773 71.2241H36.2273C35.5498 71.2241 35 70.6767 35 69.9968C35 69.3169 35.5498 68.7695 36.2273 68.7695H114.773C115.45 68.7695 116 69.3193 116 69.9968C116 70.6743 115.45 71.2241 114.773 71.2241Z" fill="#205BC9"/>
<path d="M75.5001 117.861C75.3773 117.861 75.2522 117.843 75.1319 117.804C74.4839 117.6 74.1255 116.911 74.3317 116.265L89.059 69.6287C89.2627 68.9831 89.9573 68.6199 90.598 68.8285C91.246 69.0322 91.6043 69.722 91.3982 70.3675L76.6709 117.004C76.5064 117.527 76.0204 117.861 75.5001 117.861Z" fill="#205BC9"/>
<path d="M75.4982 117.863C74.9778 117.863 74.4918 117.529 74.3274 117.004L59.6001 70.3675C59.3964 69.722 59.7547 69.0322 60.4003 68.8285C61.0483 68.6199 61.7356 68.9831 61.9393 69.6287L76.6666 116.265C76.8703 116.911 76.5119 117.6 75.8664 117.804C75.7461 117.846 75.6209 117.863 75.4982 117.863Z" fill="#205BC9"/>
<path d="M60.7735 71.2266C60.3219 71.2266 59.8899 70.9787 59.6739 70.5492L49.8557 50.9128C49.5538 50.3066 49.7992 49.5702 50.4055 49.2658C51.0142 48.9639 51.7481 49.2094 52.0525 49.8156L61.8707 69.452C62.175 70.0583 61.9271 70.7946 61.3209 71.099C61.1466 71.1849 60.96 71.2266 60.7735 71.2266Z" fill="#205BC9"/>
<path d="M60.7722 71.227C60.5169 71.227 60.2592 71.146 60.0383 70.9816C59.4958 70.5741 59.3853 69.8059 59.7928 69.2634L74.5201 49.627C74.9275 49.0846 75.6958 48.9766 76.2383 49.3816C76.7807 49.789 76.8912 50.5573 76.4837 51.0998L61.7564 70.7361C61.5134 71.0577 61.1453 71.227 60.7722 71.227Z" fill="#205BC9"/>
<path d="M90.2284 71.226C89.8554 71.226 89.4872 71.0566 89.2466 70.7351L74.5194 51.0987C74.1119 50.5562 74.2224 49.788 74.7648 49.3805C75.3048 48.9706 76.0755 49.0811 76.483 49.626L91.2103 69.2623C91.6177 69.8048 91.5073 70.5731 90.9648 70.9805C90.7439 71.1474 90.4862 71.226 90.2284 71.226Z" fill="#205BC9"/>
<path d="M90.2263 71.2252C90.0422 71.2252 89.8557 71.1835 89.6789 71.0951C89.0727 70.7907 88.8272 70.0544 89.1291 69.4481L98.9473 49.8117C99.2517 49.2055 99.9856 48.96 100.594 49.2619C101.201 49.5663 101.446 50.3027 101.144 50.9089L91.3259 70.5453C91.1075 70.9773 90.6755 71.2252 90.2263 71.2252Z" fill="#205BC9"/>
</g>
<defs>
<clipPath id="clip0_2052_1712">
<rect width="152" height="152" rx="76" fill="white"/>
</clipPath>
</defs>
</svg>
