<svg width="44.000000" height="44.000000" viewBox="0 0 44 44" fill="none" xmlns="http://www.w3.org/2000/svg" xmlns:xlink="http://www.w3.org/1999/xlink">
	<desc>
			Created with Pixso.
	</desc>
	<defs>
		<clipPath id="clip19_5696">
			<rect id="Mobile/ ic_equalizer" rx="-0.500000" width="23.000000" height="23.000000" transform="translate(10.500000 10.500000)" fill="white" fill-opacity="0"/>
		</clipPath>
		<clipPath id="clip19_5697">
			<rect id="account_lock_icon_135994 1" rx="-0.500000" width="17.000000" height="17.000000" transform="translate(13.500000 13.500000)" fill="white" fill-opacity="0"/>
		</clipPath>
		<linearGradient x1="30.922411" y1="13.724141" x2="10.491375" y2="33.120693" id="paint_linear_6_1111_0" gradientUnits="userSpaceOnUse">
			<stop offset="0.404729" stop-color="#205BC9" stop-opacity="0.000000"/>
			<stop offset="1.000000" stop-color="#073D95"/>
		</linearGradient>
	</defs>
	<path id="Star 2" d="M14.25 8.59L7.96 12.12C7 12.66 6.42 13.68 6.42 14.78L6.52 22L6.42 29.21C6.42 30.31 7 31.33 7.96 31.87L14.25 35.4L20.46 39.09C21.41 39.65 22.58 39.65 23.53 39.09L29.74 35.4L36.03 31.87C36.99 31.33 37.57 30.31 37.57 29.21L37.47 22L37.57 14.78C37.57 13.68 36.99 12.66 36.03 12.12L29.74 8.59L23.53 4.9C22.58 4.34 21.41 4.34 20.46 4.9L14.25 8.59ZM14.75 9.45L8.45 13C7.81 13.35 7.42 14.03 7.42 14.76L7.52 22L7.42 29.23C7.42 29.96 7.81 30.64 8.45 31L14.75 34.54L20.97 38.23C21.6 38.6 22.39 38.6 23.02 38.23L29.24 34.54L35.54 31C36.18 30.64 36.57 29.96 36.57 29.23L36.47 22L36.57 14.76C36.57 14.03 36.18 13.35 35.54 13L29.24 9.45L23.02 5.76C22.39 5.39 21.6 5.39 20.97 5.76L14.75 9.45Z" fill="#205BC9" fill-opacity="1.000000" fill-rule="evenodd"/>
	<path id="Star 1" d="M20.97 7.6L15.54 10.82L10.04 13.91C9.4 14.27 9.02 14.95 9.02 15.68L9.1 22L9.02 28.31C9.02 29.04 9.4 29.72 10.04 30.08L15.54 33.17L20.97 36.39C21.6 36.76 22.39 36.76 23.02 36.39L28.45 33.17L33.95 30.08C34.59 29.72 34.97 29.04 34.97 28.31L34.89 22L34.97 15.68C34.97 14.95 34.59 14.27 33.95 13.91L28.45 10.82L23.02 7.6C22.39 7.23 21.6 7.23 20.97 7.6Z" fill="#205BC9" fill-opacity="1.000000" fill-rule="evenodd"/>
	<path id="Star 1" d="M20.97 7.6L15.54 10.82L10.04 13.91C9.4 14.27 9.02 14.95 9.02 15.68L9.1 22L9.02 28.31C9.02 29.04 9.4 29.72 10.04 30.08L15.54 33.17L20.97 36.39C21.6 36.76 22.39 36.76 23.02 36.39L28.45 33.17L33.95 30.08C34.59 29.72 34.97 29.04 34.97 28.31L34.89 22L34.97 15.68C34.97 14.95 34.59 14.27 33.95 13.91L28.45 10.82L23.02 7.6C22.39 7.23 21.6 7.23 20.97 7.6Z" fill="url(#paint_linear_6_1111_0)" fill-opacity="1.000000" fill-rule="evenodd"/>
	<g clip-path="url(#clip19_5696)"/>
	<g clip-path="url(#clip19_5697)">
		<path id="Vector" d="M29.5 25.75L29.5 25.37C29.5 24.33 28.65 23.5 27.62 23.5C26.59 23.5 25.75 24.33 25.75 25.37L25.75 25.75C25.33 25.75 25 26.08 25 26.5L25 29.5C25 29.91 25.33 30.25 25.75 30.25L29.5 30.25C29.91 30.25 30.25 29.91 30.25 29.5L30.25 26.5C30.25 26.08 29.91 25.75 29.5 25.75ZM28.75 25.75L26.5 25.75L26.5 25.37C26.5 24.75 27 24.25 27.62 24.25C28.25 24.25 28.75 24.75 28.75 25.37L28.75 25.75ZM19 19C19 17.34 20.34 16 22 16C23.65 16 25 17.34 25 19C25 20.65 23.65 22 22 22C20.34 22 19 20.65 19 19ZM23.5 28L16 28L16 26.5C16 24.84 18.68 23.5 22 23.5C22.95 23.5 23.84 23.61 24.64 23.8C24.49 24.11 24.35 24.43 24.3 24.78C23.81 25.19 23.5 25.8 23.5 26.5L23.5 28Z" fill="#FFFFFF" fill-opacity="1.000000" fill-rule="nonzero"/>
	</g>
</svg>
