<svg width="44.000000" height="44.000000" viewBox="0 0 44 44" fill="none" xmlns="http://www.w3.org/2000/svg" xmlns:xlink="http://www.w3.org/1999/xlink">
	<desc>
			Created with Pixso.
	</desc>
	<defs>
		<clipPath id="clip19_5677">
			<rect id="Mobile/ ic_equalizer" rx="-0.500000" width="23.000000" height="23.000000" transform="translate(10.500000 10.500000)" fill="white" fill-opacity="0"/>
		</clipPath>
		<clipPath id="clip19_5678">
			<rect id="view_app_grid_icon_180904 1" rx="-0.500000" width="15.000000" height="15.000000" transform="translate(14.500000 14.500000)" fill="white" fill-opacity="0"/>
		</clipPath>
		<linearGradient x1="30.922411" y1="13.724141" x2="10.491375" y2="33.120693" id="paint_linear_6_1107_0" gradientUnits="userSpaceOnUse">
			<stop offset="0.404729" stop-color="#205BC9" stop-opacity="0.000000"/>
			<stop offset="1.000000" stop-color="#073D95"/>
		</linearGradient>
	</defs>
	<path id="Star 2" d="M14.25 8.59L7.96 12.12C7 12.66 6.42 13.68 6.42 14.78L6.52 22L6.42 29.21C6.42 30.31 7 31.33 7.96 31.87L14.25 35.4L20.46 39.09C21.41 39.65 22.58 39.65 23.53 39.09L29.74 35.4L36.03 31.87C36.99 31.33 37.57 30.31 37.57 29.21L37.47 22L37.57 14.78C37.57 13.68 36.99 12.66 36.03 12.12L29.74 8.59L23.53 4.9C22.58 4.34 21.41 4.34 20.46 4.9L14.25 8.59ZM14.75 9.45L8.45 13C7.81 13.35 7.42 14.03 7.42 14.76L7.52 22L7.42 29.23C7.42 29.96 7.81 30.64 8.45 31L14.75 34.54L20.97 38.23C21.6 38.6 22.39 38.6 23.02 38.23L29.24 34.54L35.54 31C36.18 30.64 36.57 29.96 36.57 29.23L36.47 22L36.57 14.76C36.57 14.03 36.18 13.35 35.54 13L29.24 9.45L23.02 5.76C22.39 5.39 21.6 5.39 20.97 5.76L14.75 9.45Z" fill="#205BC9" fill-opacity="1.000000" fill-rule="evenodd"/>
	<path id="Star 1" d="M20.97 7.6L15.54 10.82L10.04 13.91C9.4 14.27 9.02 14.95 9.02 15.68L9.1 22L9.02 28.31C9.02 29.04 9.4 29.72 10.04 30.08L15.54 33.17L20.97 36.39C21.6 36.76 22.39 36.76 23.02 36.39L28.45 33.17L33.95 30.08C34.59 29.72 34.97 29.04 34.97 28.31L34.89 22L34.97 15.68C34.97 14.95 34.59 14.27 33.95 13.91L28.45 10.82L23.02 7.6C22.39 7.23 21.6 7.23 20.97 7.6Z" fill="#205BC9" fill-opacity="1.000000" fill-rule="evenodd"/>
	<path id="Star 1" d="M20.97 7.6L15.54 10.82L10.04 13.91C9.4 14.27 9.02 14.95 9.02 15.68L9.1 22L9.02 28.31C9.02 29.04 9.4 29.72 10.04 30.08L15.54 33.17L20.97 36.39C21.6 36.76 22.39 36.76 23.02 36.39L28.45 33.17L33.95 30.08C34.59 29.72 34.97 29.04 34.97 28.31L34.89 22L34.97 15.68C34.97 14.95 34.59 14.27 33.95 13.91L28.45 10.82L23.02 7.6C22.39 7.23 21.6 7.23 20.97 7.6Z" fill="url(#paint_linear_6_1107_0)" fill-opacity="1.000000" fill-rule="evenodd"/>
	<g clip-path="url(#clip19_5677)"/>
	<g clip-path="url(#clip19_5678)">
		<path id="Vector" d="M17.99 17C18.54 17 18.99 17.44 18.99 18C18.99 18.55 18.54 19 17.99 19C17.43 19 16.99 18.55 16.99 18C16.99 17.44 17.43 17 17.99 17ZM21.99 17C22.54 17 22.99 17.44 22.99 18C22.99 18.55 22.54 19 21.99 19C21.43 19 20.99 18.55 20.99 18C20.99 17.44 21.43 17 21.99 17ZM25.99 17C26.54 17 26.99 17.44 26.99 18C26.99 18.55 26.54 19 25.99 19C25.43 19 24.99 18.55 24.99 18C24.99 17.44 25.43 17 25.99 17ZM17.99 21C18.54 21 18.99 21.44 18.99 22C18.99 22.55 18.54 23 17.99 23C17.43 23 16.99 22.55 16.99 22C16.99 21.44 17.43 21 17.99 21ZM21.99 21C22.54 21 22.99 21.44 22.99 22C22.99 22.55 22.54 23 21.99 23C21.43 23 20.99 22.55 20.99 22C20.99 21.44 21.43 21 21.99 21ZM25.99 21C26.54 21 26.99 21.44 26.99 22C26.99 22.55 26.54 23 25.99 23C25.43 23 24.99 22.55 24.99 22C24.99 21.44 25.43 21 25.99 21ZM17.99 25C18.54 25 18.99 25.44 18.99 26C18.99 26.55 18.54 27 17.99 27C17.43 27 16.99 26.55 16.99 26C16.99 25.44 17.43 25 17.99 25ZM21.99 25C22.54 25 22.99 25.44 22.99 26C22.99 26.55 22.54 27 21.99 27C21.43 27 20.99 26.55 20.99 26C20.99 25.44 21.43 25 21.99 25ZM25.99 25C26.54 25 26.99 25.44 26.99 26C26.99 26.55 26.54 27 25.99 27C25.43 27 24.99 26.55 24.99 26C24.99 25.44 25.43 25 25.99 25Z" fill="#FFFFFF" fill-opacity="1.000000" fill-rule="nonzero"/>
	</g>
</svg>
