<svg width="44.000000" height="44.000000" viewBox="0 0 44 44" fill="none" xmlns="http://www.w3.org/2000/svg" xmlns:xlink="http://www.w3.org/1999/xlink">
	<desc>
			Created with Pixso.
	</desc>
	<defs>
		<clipPath id="clip19_5686">
			<rect id="Mobile/ ic_equalizer" rx="-0.500000" width="23.000000" height="23.000000" transform="translate(10.500000 10.500000)" fill="white" fill-opacity="0"/>
		</clipPath>
		<clipPath id="clip19_5687">
			<rect id="icons8authentication_101568 1" rx="-0.500000" width="17.000000" height="17.000000" transform="translate(13.500000 13.500000)" fill="white" fill-opacity="0"/>
		</clipPath>
		<linearGradient x1="30.922411" y1="13.724141" x2="10.491375" y2="33.120693" id="paint_linear_6_1109_0" gradientUnits="userSpaceOnUse">
			<stop offset="0.404729" stop-color="#205BC9" stop-opacity="0.000000"/>
			<stop offset="1.000000" stop-color="#073D95"/>
		</linearGradient>
	</defs>
	<path id="Star 2" d="M14.25 8.59L7.96 12.12C7 12.66 6.42 13.68 6.42 14.78L6.52 22L6.42 29.21C6.42 30.31 7 31.33 7.96 31.87L14.25 35.4L20.46 39.09C21.41 39.65 22.58 39.65 23.53 39.09L29.74 35.4L36.03 31.87C36.99 31.33 37.57 30.31 37.57 29.21L37.47 22L37.57 14.78C37.57 13.68 36.99 12.66 36.03 12.12L29.74 8.59L23.53 4.9C22.58 4.34 21.41 4.34 20.46 4.9L14.25 8.59ZM14.75 9.45L8.45 13C7.81 13.35 7.42 14.03 7.42 14.76L7.52 22L7.42 29.23C7.42 29.96 7.81 30.64 8.45 31L14.75 34.54L20.97 38.23C21.6 38.6 22.39 38.6 23.02 38.23L29.24 34.54L35.54 31C36.18 30.64 36.57 29.96 36.57 29.23L36.47 22L36.57 14.76C36.57 14.03 36.18 13.35 35.54 13L29.24 9.45L23.02 5.76C22.39 5.39 21.6 5.39 20.97 5.76L14.75 9.45Z" fill="#205BC9" fill-opacity="1.000000" fill-rule="evenodd"/>
	<path id="Star 1" d="M20.97 7.6L15.54 10.82L10.04 13.91C9.4 14.27 9.02 14.95 9.02 15.68L9.1 22L9.02 28.31C9.02 29.04 9.4 29.72 10.04 30.08L15.54 33.17L20.97 36.39C21.6 36.76 22.39 36.76 23.02 36.39L28.45 33.17L33.95 30.08C34.59 29.72 34.97 29.04 34.97 28.31L34.89 22L34.97 15.68C34.97 14.95 34.59 14.27 33.95 13.91L28.45 10.82L23.02 7.6C22.39 7.23 21.6 7.23 20.97 7.6Z" fill="#205BC9" fill-opacity="1.000000" fill-rule="evenodd"/>
	<path id="Star 1" d="M20.97 7.6L15.54 10.82L10.04 13.91C9.4 14.27 9.02 14.95 9.02 15.68L9.1 22L9.02 28.31C9.02 29.04 9.4 29.72 10.04 30.08L15.54 33.17L20.97 36.39C21.6 36.76 22.39 36.76 23.02 36.39L28.45 33.17L33.95 30.08C34.59 29.72 34.97 29.04 34.97 28.31L34.89 22L34.97 15.68C34.97 14.95 34.59 14.27 33.95 13.91L28.45 10.82L23.02 7.6C22.39 7.23 21.6 7.23 20.97 7.6Z" fill="url(#paint_linear_6_1109_0)" fill-opacity="1.000000" fill-rule="evenodd"/>
	<g clip-path="url(#clip19_5686)"/>
	<g clip-path="url(#clip19_5687)">
		<path id="Vector" d="M18.62 14.79C18 14.79 17.5 15.3 17.5 15.92L17.5 28.07C17.5 28.69 18 29.2 18.62 29.2L25.37 29.2C25.99 29.2 26.5 28.69 26.5 28.07L26.5 24.47L26.04 24.47L26.04 26.5L17.95 26.5L17.95 17.04L26.04 17.04L26.04 17.95L26.5 17.95L26.5 15.92C26.5 15.3 25.99 14.79 25.37 14.79L18.62 14.79ZM18.62 15.25L25.37 15.25C25.75 15.25 26.04 15.54 26.04 15.92L26.04 16.59L17.95 16.59L17.95 15.92C17.95 15.54 18.25 15.25 18.62 15.25ZM21.1 15.7C21.01 15.69 20.94 15.74 20.89 15.81C20.85 15.88 20.85 15.96 20.89 16.03C20.94 16.1 21.01 16.15 21.1 16.14L22.89 16.14C22.98 16.15 23.05 16.1 23.1 16.03C23.14 15.96 23.14 15.88 23.1 15.81C23.05 15.74 22.98 15.69 22.89 15.7L21.1 15.7ZM20.18 15.7C20.06 15.7 19.96 15.8 19.96 15.92C19.96 16.04 20.06 16.14 20.18 16.14C20.25 16.15 20.3 16.12 20.34 16.08C20.39 16.04 20.41 15.98 20.41 15.92C20.41 15.8 20.31 15.7 20.18 15.7ZM18.85 17.5C18.72 17.5 18.62 17.6 18.62 17.72C18.62 17.84 18.72 17.95 18.85 17.95C18.97 17.95 19.07 17.84 19.07 17.72C19.07 17.6 18.97 17.5 18.85 17.5ZM18.85 18.39C18.72 18.39 18.62 18.5 18.62 18.62C18.62 18.74 18.72 18.84 18.85 18.84C18.97 18.84 19.07 18.74 19.07 18.62C19.07 18.5 18.97 18.39 18.85 18.39ZM22 18.39C21.5 18.39 21.1 18.8 21.1 19.29L21.1 23.12C21.1 23.61 21.5 24.02 22 24.02L23.12 24.02L23.12 25.46L24.57 24.02L28.97 24.02C29.46 24.02 29.87 23.61 29.87 23.12L29.87 19.29C29.87 18.8 29.46 18.39 28.97 18.39L22 18.39ZM22 18.84L28.97 18.84C29.22 18.84 29.42 19.04 29.42 19.29L29.42 23.12C29.42 23.37 29.22 23.57 28.97 23.57L24.38 23.57L23.57 24.38L23.57 23.57L22 23.57C21.75 23.57 21.54 23.37 21.54 23.12L21.54 19.29C21.54 19.04 21.75 18.84 22 18.84ZM18.85 19.29C18.72 19.29 18.62 19.4 18.62 19.52C18.62 19.64 18.72 19.75 18.85 19.75C18.97 19.75 19.07 19.64 19.07 19.52C19.07 19.4 18.97 19.29 18.85 19.29ZM18.85 20.2C18.72 20.2 18.62 20.3 18.62 20.42C18.62 20.54 18.72 20.64 18.85 20.64C18.97 20.64 19.07 20.54 19.07 20.42C19.07 20.3 18.97 20.2 18.85 20.2ZM23.12 20.42L23.12 20.82L22.78 20.62L22.55 21.01L22.89 21.21L22.55 21.41L22.78 21.8L23.12 21.6L23.12 22L23.57 22L23.57 21.6L23.92 21.8L24.14 21.41L23.79 21.21L24.14 21.01L23.92 20.62L23.57 20.82L23.57 20.42L23.12 20.42ZM25.37 20.42L25.37 20.82L25.03 20.62L24.8 21.01L25.14 21.21L24.8 21.41L25.03 21.8L25.37 21.6L25.37 22L25.82 22L25.82 21.6L26.17 21.8L26.39 21.41L26.04 21.21L26.39 21.01L26.17 20.62L25.82 20.82L25.82 20.42L25.37 20.42ZM27.62 20.42L27.62 20.82L27.28 20.62L27.05 21.01L27.39 21.21L27.05 21.41L27.28 21.8L27.62 21.6L27.62 22L28.07 22L28.07 21.6L28.42 21.8L28.64 21.41L28.29 21.21L28.64 21.01L28.42 20.62L28.07 20.82L28.07 20.42L27.62 20.42ZM18.85 21.09C18.72 21.09 18.62 21.2 18.62 21.32C18.62 21.44 18.72 21.54 18.85 21.54C18.97 21.54 19.07 21.44 19.07 21.32C19.07 21.2 18.97 21.09 18.85 21.09ZM18.85 22C18.72 22 18.62 22.1 18.62 22.22C18.62 22.34 18.72 22.45 18.85 22.45C18.97 22.45 19.07 22.34 19.07 22.22C19.07 22.1 18.97 22 18.85 22ZM18.85 22.89C18.72 22.89 18.62 23 18.62 23.12C18.62 23.24 18.72 23.34 18.85 23.34C18.97 23.34 19.07 23.24 19.07 23.12C19.07 23 18.97 22.89 18.85 22.89ZM18.85 23.79C18.72 23.79 18.62 23.9 18.62 24.02C18.62 24.14 18.72 24.25 18.85 24.25C18.97 24.25 19.07 24.14 19.07 24.02C19.07 23.9 18.97 23.79 18.85 23.79ZM18.85 24.7C18.72 24.7 18.62 24.8 18.62 24.92C18.62 25.04 18.72 25.14 18.85 25.14C18.97 25.14 19.07 25.04 19.07 24.92C19.07 24.8 18.97 24.7 18.85 24.7ZM18.85 25.59C18.72 25.59 18.62 25.7 18.62 25.82C18.62 25.94 18.72 26.04 18.85 26.04C18.97 26.04 19.07 25.94 19.07 25.82C19.07 25.7 18.97 25.59 18.85 25.59ZM17.95 26.95L26.04 26.95L26.04 28.07C26.04 28.45 25.75 28.75 25.37 28.75L18.62 28.75C18.25 28.75 17.95 28.45 17.95 28.07L17.95 26.95ZM22 27.39C21.75 27.39 21.54 27.6 21.54 27.84C21.54 28.09 21.75 28.29 22 28.29C22.25 28.29 22.45 28.09 22.45 27.84C22.45 27.6 22.25 27.39 22 27.39Z" fill="#FFFFFF" fill-opacity="1.000000" fill-rule="nonzero"/>
	</g>
</svg>
