<svg width="18" height="18" viewBox="0 0 18 18" fill="none" xmlns="http://www.w3.org/2000/svg">
<path d="M0.953125 5.00911C1.52294 3.84868 2.32804 2.86788 3.34268 2.05234C4.71759 0.942205 6.29469 0.273968 8.06296 0.0691853C10.14 -0.171524 12.0921 0.212892 13.8971 1.26914C14.3456 1.5314 14.7647 1.82959 15.1654 2.15294C15.2647 2.23197 15.2537 2.27868 15.1691 2.35772C14.3493 3.15529 13.5295 3.95286 12.7171 4.75762C12.6215 4.85103 12.57 4.84385 12.4671 4.7684C10.0849 2.97566 6.61085 3.46067 4.83523 5.83183C4.52275 6.24858 4.26909 6.69767 4.09263 7.18627C4.07792 7.22938 4.04851 7.2689 4.02645 7.31201C3.55222 6.95993 3.07431 6.60785 2.60375 6.25217C2.05232 5.83902 1.50088 5.42586 0.953125 5.00911Z" fill="#205BC9"/>
<path d="M4.02622 10.6836C4.1843 11.0249 4.31665 11.3806 4.51516 11.7003C5.34967 13.0368 6.54077 13.8954 8.11052 14.2008C9.52587 14.4775 10.8861 14.2906 12.1544 13.5973C12.1985 13.5757 12.2426 13.5541 12.283 13.5326C12.3051 13.5541 12.3235 13.5793 12.3455 13.5973C13.294 14.3158 14.2462 15.0343 15.1946 15.7529C14.7388 16.1948 14.2204 16.5504 13.669 16.8594C12.0698 17.7504 10.3383 18.1096 8.5149 17.9731C6.24299 17.8007 4.28356 16.9241 2.66602 15.3433C1.95651 14.6499 1.37199 13.8667 0.949219 12.9721C1.34258 12.6775 1.73593 12.3865 2.12929 12.0919C2.7616 11.6213 3.39391 11.1542 4.02622 10.6836Z" fill="#205BC9"/>
<path d="M15.1956 15.7509C14.2472 15.0324 13.295 14.3138 12.3465 13.5953C12.3245 13.5773 12.3024 13.5522 12.2841 13.5306C12.6112 13.2828 12.9458 13.042 13.2141 12.7259C13.6626 12.2014 13.9604 11.6086 14.1148 10.9439C14.1332 10.8613 14.1185 10.8325 14.0339 10.8361C13.9898 10.8397 13.9494 10.8361 13.9053 10.8361C12.4054 10.8361 10.9018 10.8325 9.40188 10.8397C9.23645 10.8397 9.19969 10.7966 9.20337 10.6421C9.21072 9.60026 9.21072 8.55839 9.20337 7.51651C9.20337 7.38358 9.24013 7.34766 9.37615 7.34766C12.126 7.35125 14.8758 7.35125 17.6293 7.34766C17.7469 7.34766 17.7947 7.3764 17.8241 7.49855C18.0484 8.48653 18.0337 9.47811 17.8977 10.4769C17.7874 11.2744 17.5889 12.0469 17.2837 12.7941C16.8315 13.8971 16.1662 14.8599 15.2912 15.6862C15.2581 15.7114 15.225 15.7294 15.1956 15.7509Z" fill="#205BC9"/>
<path d="M4.02631 10.681C3.39399 11.1516 2.76168 11.6186 2.12937 12.0893C1.73601 12.3803 1.34266 12.6749 0.949301 12.9695C0.644174 12.4162 0.445657 11.8306 0.283903 11.227C-0.0249005 10.0594 -0.0726916 8.87384 0.0964151 7.68467C0.228759 6.75057 0.504477 5.8524 0.949301 5.01172C1.50074 5.42488 2.04849 5.84163 2.59993 6.25478C3.07416 6.61046 3.5484 6.96254 4.02263 7.31462C3.94175 7.69904 3.82779 8.07627 3.79103 8.47146C3.72486 9.19 3.7947 9.89057 4.00425 10.5804C4.01895 10.6091 4.02263 10.645 4.02631 10.681Z" fill="#205BC9"/>
</svg>
