<svg width="18" height="18" viewBox="0 0 18 18" fill="none" xmlns="http://www.w3.org/2000/svg">
<path d="M0 1.125V14.625H8.72888C9.63675 15.9812 11.1819 16.8744 12.9375 16.875C14.6925 16.8744 16.2377 15.9812 17.145 14.625H18V1.125H0ZM7.875 11.8125C7.875 12.4059 7.98188 12.9718 8.16862 13.4994H1.125V2.85806L8.75419 8.96175C8.20012 9.77344 7.875 10.7544 7.875 11.8125ZM2.16619 2.25H15.8333L8.99887 7.71694L2.16619 2.25ZM12.9375 15.6842C10.7994 15.6791 9.06975 13.9494 9.06469 11.8125C9.06975 9.67444 10.7994 7.94475 12.9375 7.94025C15.0744 7.94475 16.8041 9.67444 16.8092 11.8125C16.8041 13.9494 15.0744 15.6791 12.9375 15.6842ZM16.8744 8.63325C15.9469 7.48519 14.5288 6.75 12.9375 6.75C12.5679 6.75 12.2085 6.79219 11.8614 6.867L16.8744 2.85806V8.63325Z" fill="#205BC9"/>
<path d="M13.5 11.8125V14.0625L15.75 11.8125L13.5 9.5625V11.8125Z" fill="#205BC9"/>
<path d="M11.25 14.0625L13.5 11.8125L11.25 9.5625V14.0625Z" fill="#205BC9"/>
</svg>
