<svg width="48.000000" height="48.000000" viewBox="0 0 48 48" fill="none" xmlns="http://www.w3.org/2000/svg" xmlns:xlink="http://www.w3.org/1999/xlink">
	<desc>
			Created with Pixso.
	</desc>
	<defs/>
	<path id="Combined-Shape" d="M0 24C0 10.7452 10.7422 0 24 0C37.2578 0 48 10.7452 48 24C48 37.2548 37.2578 48 24 48C10.7422 48 0 37.2548 0 24Z" clip-rule="evenodd" fill="#BDBDBD" fill-opacity="1.000000" fill-rule="evenodd"/>
	<path id="Combined-Shape-path" d="M23.8 11C20.32 11 19.89 11.01 18.52 11.07C17.16 11.13 16.22 11.35 15.41 11.67C14.57 11.99 13.85 12.43 13.14 13.14C12.43 13.85 12 14.57 11.67 15.41C11.35 16.22 11.14 17.15 11.07 18.52C11.01 19.88 11 20.32 11 23.8C11 27.27 11.01 27.71 11.07 29.07C11.14 30.43 11.35 31.36 11.67 32.18C12 33.02 12.43 33.73 13.14 34.45C13.85 35.16 14.57 35.6 15.41 35.92C16.22 36.24 17.15 36.46 18.52 36.52C19.89 36.58 20.32 36.6 23.79 36.6C27.27 36.6 27.71 36.58 29.07 36.52C30.43 36.46 31.36 36.24 32.18 35.92C33.02 35.6 33.74 35.16 34.45 34.45C35.16 33.73 35.6 33.02 35.92 32.18C36.24 31.36 36.46 30.43 36.52 29.07C36.58 27.71 36.6 27.27 36.6 23.8C36.6 20.32 36.58 19.88 36.52 18.52C36.46 17.15 36.24 16.22 35.92 15.41C35.6 14.57 35.16 13.85 34.45 13.14C33.74 12.43 33.02 11.99 32.18 11.67C31.36 11.35 30.43 11.13 29.07 11.07C27.71 11.01 27.27 11 23.79 11L23.8 11Z" fill="#FFFFFF" fill-opacity="1.000000" fill-rule="evenodd"/>
	<path id="Combined-Shape" d="M23.5781 13.5067C23.3125 13.5065 23.0781 13.5065 22.8516 13.5068L22.8516 13.5036C20.4688 13.5063 20.0078 13.5223 18.8281 13.5756C17.5781 13.6329 16.9062 13.8409 16.4531 14.017C15.8516 14.2495 15.4297 14.5268 14.9766 14.9748C14.5312 15.4229 14.2578 15.8495 14.0234 16.4468C13.8438 16.898 13.6406 17.5754 13.5781 18.8234C13.5234 20.1727 13.5078 20.5759 13.5078 23.9941C13.5078 27.4123 13.5234 27.8176 13.5781 29.167C13.6406 30.415 13.8438 31.0923 14.0234 31.543C14.2578 32.1406 14.5312 32.5662 14.9766 33.0142C15.4297 33.4622 15.8516 33.7396 16.4531 33.9716C16.9062 34.1467 17.5781 34.3553 18.8281 34.4129C20.1797 34.4742 20.5859 34.4875 24 34.4875C27.4219 34.4875 27.8281 34.4742 29.1719 34.4129C30.4219 34.3558 31.1016 34.1478 31.5469 33.9718C32.1484 33.7398 32.5703 33.4625 33.0234 33.0145C33.4688 32.5667 33.75 32.1414 33.9766 31.5441C34.1562 31.0934 34.3594 30.416 34.4219 29.168C34.4844 27.8187 34.4922 27.4133 34.4922 23.9973C34.4922 20.5813 34.4844 20.176 34.4219 18.8266C34.3594 17.5786 34.1562 16.9012 33.9766 16.4506C33.75 15.8532 33.4688 15.4266 33.0234 14.9786C32.5703 14.5305 32.1484 14.2532 31.5469 14.0212C31.1016 13.846 30.4219 13.6375 29.1719 13.5804C27.8203 13.519 27.4219 13.5068 24 13.5068C23.8516 13.5068 23.7109 13.5067 23.5781 13.5067Z" clip-rule="evenodd" fill="#BDBDBD" fill-opacity="1.000000" fill-rule="evenodd"/>
	<path id="Combined-Shape-path" d="M30.83 15.63C29.98 15.63 29.29 16.31 29.29 17.16C29.29 18.01 29.98 18.7 30.83 18.7C31.67 18.7 32.36 18.01 32.36 17.16C32.36 16.31 31.67 15.63 30.83 15.63L30.83 15.63Z" fill="#FFFFFF" fill-opacity="1.000000" fill-rule="nonzero"/>
	<path id="Combined-Shape-path" d="M24 17.42C20.37 17.42 17.42 20.37 17.42 24C17.42 27.63 20.37 30.57 24 30.57C27.63 30.57 30.57 27.63 30.57 24C30.57 20.37 27.63 17.42 24 17.42L24 17.42Z" fill="#FFFFFF" fill-opacity="1.000000" fill-rule="evenodd"/>
	<path id="Shape" d="M24 19.73C26.35 19.73 28.26 21.64 28.26 24C28.26 26.35 26.35 28.26 24 28.26C21.64 28.26 19.73 26.35 19.73 24C19.73 21.64 21.64 19.73 24 19.73Z" fill="#BDBDBD" fill-opacity="1.000000" fill-rule="nonzero"/>
</svg>
