<svg width="48.000000" height="48.000000" viewBox="0 0 48 48" fill="none" xmlns="http://www.w3.org/2000/svg" xmlns:xlink="http://www.w3.org/1999/xlink">
	<desc>
			Created with Pixso.
	</desc>
	<defs/>
	<path id="Combined-Shape" d="M24 0C10.7461 0 0 10.7451 0 24C0 37.2549 10.7461 48 24 48C37.2539 48 48 37.2549 48 24C48 10.7451 37.2539 0 24 0ZM23.9961 11.2002L24 11.2002C27.4766 11.2002 27.9102 11.2148 29.2734 11.2773C30.6367 11.3398 31.5664 11.5557 32.3828 11.8721C33.2266 12.1982 33.9375 12.6357 34.6523 13.3477C35.3633 14.0596 35.8008 14.7734 36.1289 15.6152C36.4414 16.4297 36.6602 17.3594 36.7227 18.7227C36.7852 20.0879 36.8008 20.5234 36.8008 24C36.8008 27.4766 36.7852 27.9121 36.7227 29.2773C36.6602 30.6387 36.4414 31.5693 36.1289 32.3838C35.8008 33.2256 35.3633 33.9395 34.6523 34.6514C33.9375 35.3633 33.2266 35.8018 32.3828 36.1279C31.5703 36.4443 30.6406 36.6602 29.2773 36.7227C27.9102 36.7852 27.4766 36.7998 24 36.7998C20.5234 36.7998 20.0859 36.7852 18.7227 36.7227C17.3594 36.6602 16.4297 36.4443 15.6133 36.1279C14.7734 35.8018 14.0586 35.3633 13.3477 34.6514C12.6367 33.9395 12.1992 33.2256 11.8711 32.3838C11.5547 31.5693 11.3398 30.6396 11.2773 29.2764C11.2148 27.9111 11.1992 27.4766 11.1992 24C11.1992 20.5234 11.2148 20.0869 11.2773 18.7217C11.3398 17.3594 11.5547 16.4297 11.8711 15.6152C12.1992 14.7734 12.6367 14.0596 13.3477 13.3477C14.0625 12.6367 14.7734 12.1992 15.6172 11.8721C16.4297 11.5557 17.3594 11.3398 18.7227 11.2773C20.0898 11.2148 20.5234 11.2002 23.9961 11.2002Z" clip-rule="evenodd" fill="#FFFFFF" fill-opacity="1.000000" fill-rule="evenodd"/>
	<path id="Combined-Shape" d="M23.5742 13.5068C23.3164 13.5068 23.0742 13.5068 22.8516 13.5068L22.8516 13.5039C20.4688 13.5068 20.0078 13.5225 18.8281 13.5762C17.582 13.6328 16.9023 13.8408 16.4531 14.0176C15.8555 14.25 15.4297 14.5273 14.9805 14.9756C14.5312 15.4229 14.2539 15.8496 14.0234 16.4473C13.8477 16.8984 13.6367 17.5752 13.582 18.8232C13.5195 20.1729 13.5078 20.5762 13.5078 23.9941C13.5078 27.4121 13.5195 27.8184 13.582 29.167C13.6367 30.415 13.8477 31.0928 14.0234 31.543C14.2539 32.1406 14.5312 32.5664 14.9805 33.0146C15.4297 33.4629 15.8555 33.7402 16.4531 33.9717C16.9023 34.1475 17.582 34.3555 18.8281 34.4131C20.1797 34.4746 20.582 34.4883 24 34.4883C27.418 34.4883 27.8242 34.4746 29.1719 34.4131C30.4219 34.3564 31.0977 34.1484 31.5508 33.9717C32.1484 33.7402 32.5742 33.4629 33.0195 33.0146C33.4688 32.5674 33.7461 32.1416 33.9805 31.5439C34.1523 31.0938 34.3633 30.416 34.418 29.168C34.4805 27.8193 34.4961 27.4141 34.4961 23.998C34.4961 20.582 34.4805 20.1758 34.418 18.8271C34.3633 17.5791 34.1523 16.9014 33.9805 16.4512C33.7461 15.8535 33.4688 15.4268 33.0195 14.9785C32.5742 14.5312 32.1484 14.2539 31.5508 14.0215C31.0977 13.8467 30.4219 13.6377 29.1719 13.5811C27.8242 13.5195 27.418 13.5068 24 13.5068C23.8555 13.5068 23.7109 13.5068 23.5742 13.5068ZM30.832 15.6328C29.9844 15.6328 29.2969 16.3193 29.2969 17.168C29.2969 18.0156 29.9844 18.7041 30.832 18.7041C31.6836 18.7041 32.3711 18.0156 32.3711 17.168C32.3711 16.3203 31.6836 15.6318 30.832 15.6318L30.832 15.6328ZM17.4297 24.001C17.4297 20.3701 20.3711 17.4277 24 17.4268C27.6328 17.4268 30.5742 20.3701 30.5742 24.001C30.5742 27.6309 27.6328 30.5723 24 30.5723C20.3711 30.5723 17.4297 27.6309 17.4297 24.001Z" clip-rule="evenodd" fill="#FFFFFF" fill-opacity="1.000000" fill-rule="evenodd"/>
	<path id="Shape" d="M24 19.73C26.35 19.73 28.26 21.64 28.26 24C28.26 26.35 26.35 28.26 24 28.26C21.64 28.26 19.73 26.35 19.73 24C19.73 21.64 21.64 19.73 24 19.73Z" fill="#FFFFFF" fill-opacity="1.000000" fill-rule="nonzero"/>
</svg>
