<svg width="48.000000" height="48.000000" viewBox="0 0 48 48" fill="none" xmlns="http://www.w3.org/2000/svg" xmlns:xlink="http://www.w3.org/1999/xlink">
	<desc>
			Created with Pixso.
	</desc>
	<defs/>
	<rect id="Snapchat/white" rx="-0.500000" width="47.000000" height="47.000000" transform="translate(0.500000 0.500000)" fill="#FFFFFF" fill-opacity="0"/>
	<path id="Subtract" d="M24 0C10.7461 0 0 10.7451 0 24C0 37.2549 10.7461 48 24 48C37.2539 48 48 37.2549 48 24C48 10.7451 37.2539 0 24 0ZM31.4531 24.8965C31.4844 25.1543 32.2266 28.626 36.8711 30.875C37.1445 31.0068 37.6055 31.2861 36.793 31.7314C35.5078 32.4395 34.6562 32.3633 33.9961 32.79C33.4297 33.1533 33.7617 33.9346 33.3555 34.2168C33.1367 34.3672 32.7344 34.3828 32.1914 34.4033C31.4805 34.4307 30.5312 34.4668 29.4453 34.8262C27.8633 35.3496 26.8594 36.8555 24.0039 36.8555C21.1484 36.8555 20.1719 35.3564 18.5625 34.8262C17.4727 34.4668 16.5234 34.4307 15.8164 34.4033C15.2734 34.3828 14.8711 34.3672 14.6523 34.2168C14.2422 33.9346 14.5742 33.1533 14.0117 32.79C13.3516 32.3633 12.4961 32.4395 11.2148 31.7314C10.3984 31.2803 10.8633 31.001 11.1328 30.8691C15.7773 28.624 16.5195 25.1523 16.5547 24.8906C16.5547 24.8809 16.5547 24.8711 16.5586 24.8613C16.5977 24.5635 16.625 24.3232 16.293 24.0166C15.9609 23.709 14.4883 22.7988 14.082 22.5137C13.4023 22.041 13.1094 21.5693 13.3281 20.9902C13.4805 20.5918 13.8516 20.4385 14.2461 20.4385C14.3711 20.4385 14.4961 20.4521 14.6172 20.4795C15.3594 20.6406 16.0781 21.0127 16.4961 21.1133C16.543 21.126 16.5977 21.1328 16.6484 21.1338C16.8711 21.1338 16.9492 21.0215 16.9336 20.7676C16.9297 20.7021 16.9258 20.6309 16.9219 20.5566C16.8672 19.7012 16.7812 18.2539 16.8984 16.8945C17.0742 14.8604 17.7266 13.8525 18.5078 12.9609C18.8828 12.5342 20.6289 10.6768 24 10.6768C27.3711 10.6768 29.1211 12.5342 29.4961 12.9668C30.2734 13.8584 30.9297 14.8662 31.1055 16.9004C31.2305 18.3271 31.1328 19.8516 31.0781 20.6846C31.0742 20.7148 31.0742 20.7441 31.0703 20.7725C31.0508 21.04 31.1328 21.1387 31.3555 21.1387C31.4102 21.1377 31.4609 21.1309 31.5117 21.1182C31.9258 21.0176 32.6484 20.6465 33.3906 20.4854C33.5117 20.458 33.6328 20.4443 33.7578 20.4434C34.1523 20.4434 34.5234 20.5947 34.6797 20.9961C34.8984 21.5752 34.6016 22.0469 33.9258 22.5186C33.5156 22.8037 32.043 23.7148 31.7109 24.0215C31.3789 24.3281 31.4102 24.5674 31.4492 24.8652C31.4492 24.875 31.4492 24.8857 31.4531 24.8965Z" clip-rule="evenodd" fill="#FFFFFF" fill-opacity="1.000000" fill-rule="evenodd"/>
</svg>
