<svg width="48.000000" height="48.000000" viewBox="0 0 48 48" fill="none" xmlns="http://www.w3.org/2000/svg" xmlns:xlink="http://www.w3.org/1999/xlink">
	<desc>
			Created with Pixso.
	</desc>
	<defs/>
	<path id="Subtract" d="M24 48C37.2539 48 48 37.2549 48 24C48 10.7451 37.2539 0 24 0C10.7461 0 0 10.7451 0 24C0 37.2549 10.7461 48 24 48ZM17.8008 21.042C14.875 22.3389 11.7422 23.6289 8.9375 25.1738L8.9375 25.1738C7.75781 26.0381 9.32812 26.6484 10.7969 27.2217C11.0312 27.3125 11.2617 27.4023 11.4805 27.4932C11.6602 27.5488 11.8438 27.6074 12.0312 27.666C13.668 28.1875 15.4922 28.7686 17.0781 27.8945C20.543 25.9053 23.7461 23.5029 27.0312 21.2393C27.0703 21.2158 27.1133 21.1875 27.1602 21.1572C27.8477 20.71 29.4023 19.7031 28.8281 21.0898C26.5547 23.5771 24.0078 25.5859 21.6094 27.9502C20.7695 28.6338 19.8945 30.0088 20.8359 30.9658C23.7148 32.9795 26.6484 34.9277 29.5625 36.8955C30.7734 37.8633 32.668 37.0811 32.9336 35.5684C33.707 31.0283 34.5 26.4883 35.1875 21.9336C35.457 19.8623 35.8516 17.791 35.9492 15.707C35.7734 14.2354 33.9883 14.5586 32.9961 14.8896C27.8906 16.832 22.8359 18.9189 17.8008 21.042Z" clip-rule="evenodd" fill="#FFFFFF" fill-opacity="1.000000" fill-rule="evenodd"/>
</svg>
