<svg width="48.000000" height="48.000000" viewBox="0 0 48 48" fill="none" xmlns="http://www.w3.org/2000/svg" xmlns:xlink="http://www.w3.org/1999/xlink">
	<desc>
			Created with Pixso.
	</desc>
	<defs>
		<filter id="filter_571_8045_dd" x="0.000000" y="0.000000" width="48.000000" height="48.000000" filterUnits="userSpaceOnUse" color-interpolation-filters="sRGB">
			<feFlood flood-opacity="0" result="BackgroundImageFix"/>
			<feGaussianBlur in="BackgroundImage" stdDeviation="2"/>
			<feComposite in2="SourceAlpha" operator="in" result="effect_backgroundBlur_1"/>
			<feBlend mode="normal" in="SourceGraphic" in2="effect_backgroundBlur_1" result="shape"/>
		</filter>
	</defs>
	<g filter="url(#filter_571_8045_dd)">
		<rect id="Telegram/black" rx="-0.500000" width="47.000000" height="47.000000" transform="translate(0.500000 0.500000)" fill="#FFFFFF" fill-opacity="0"/>
		<path id="Subtract" d="M48 24C48 37.2548 37.2578 48 24 48C10.7422 48 0 37.2548 0 24C0 10.7452 10.7422 0 24 0C37.2578 0 48 10.7452 48 24Z" clip-rule="evenodd" fill="#BDBDBD" fill-opacity="1.000000" fill-rule="evenodd"/>
		<path id="path13" d="M8.93 25.17C11.74 23.62 14.87 22.33 17.8 21.04C22.83 18.91 27.89 16.83 32.99 14.88C33.98 14.55 35.77 14.23 35.94 15.7C35.85 17.79 35.46 19.86 35.18 21.93C34.5 26.48 33.71 31.02 32.93 35.56C32.66 37.08 30.77 37.86 29.56 36.89C26.64 34.92 23.71 32.97 20.83 30.96C19.89 30 20.76 28.63 21.6 27.95C24 25.58 26.55 23.57 28.82 21.09C29.43 19.6 27.62 20.85 27.03 21.23C23.74 23.5 20.53 25.9 17.07 27.89C15.31 28.86 13.25 28.03 11.47 27.49C9.89 26.83 7.57 26.17 8.93 25.17Z" fill="#FFFFFF" fill-opacity="1.000000" fill-rule="nonzero"/>
	</g>
</svg>
