<svg width="48.000000" height="48.000000" viewBox="0 0 48 48" fill="none" xmlns="http://www.w3.org/2000/svg" xmlns:xlink="http://www.w3.org/1999/xlink">
	<desc>
			Created with Pixso.
	</desc>
	<defs/>
	<path id="Combined-Shape" d="M24 0C10.7461 0 0 10.7451 0 24C0 37.2549 10.7461 48 24 48C37.2539 48 48 37.2549 48 24C48 10.7451 37.2539 0 24 0ZM23.332 20.3379L23.2812 19.5078C23.1289 17.3555 24.457 15.3887 26.5547 14.626C27.3281 14.3555 28.6367 14.3213 29.4922 14.5586C29.8281 14.6602 30.4648 14.999 30.9219 15.3047L31.7422 15.8633L32.6484 15.5752C33.1523 15.4229 33.8242 15.1689 34.125 14.999C34.4102 14.8467 34.6641 14.7617 34.6641 14.8125C34.6641 15.1006 34.043 16.084 33.5234 16.626C32.8164 17.3887 33.0195 17.457 34.4453 16.9482C35.3008 16.6602 35.3164 16.6602 35.1484 16.9824C35.0508 17.1514 34.5273 17.7451 33.9766 18.2871C33.0352 19.2197 32.9844 19.3213 32.9844 20.1006C32.9844 21.3037 32.4141 23.8125 31.8438 25.1855C30.7852 27.7607 28.5195 30.4219 26.2539 31.7607C23.0625 33.6426 18.8164 34.1172 15.2422 33.0146C14.0469 32.6426 12 31.6934 12 31.5234C12 31.4727 12.6211 31.4053 13.3789 31.3877C14.9531 31.3545 16.5312 30.9131 17.875 30.1338L18.7812 29.5918L17.7422 29.2354C16.2656 28.7275 14.9375 27.5576 14.6016 26.4561C14.5 26.1006 14.5352 26.083 15.4766 26.083L16.4492 26.0664L15.625 25.6768C14.6523 25.1855 13.7617 24.3545 13.3281 23.5068C13.0078 22.8975 12.6055 21.3545 12.7227 21.2363C12.7578 21.1855 13.1094 21.2871 13.5117 21.4229C14.668 21.8467 14.8203 21.7451 14.1484 21.0332C12.8906 19.7451 12.5039 17.8301 13.1094 16.0166L13.3945 15.2031L14.5 16.3047C16.7695 18.5244 19.4375 19.8467 22.4922 20.2363L23.332 20.3379Z" clip-rule="evenodd" fill="#FFFFFF" fill-opacity="1.000000" fill-rule="evenodd"/>
</svg>
