<svg width="48.000000" height="48.000000" viewBox="0 0 48 48" fill="none" xmlns="http://www.w3.org/2000/svg" xmlns:xlink="http://www.w3.org/1999/xlink">
	<desc>
			Created with Pixso.
	</desc>
	<defs>
		<filter id="filter_571_8047_dd" x="0.000000" y="0.000000" width="48.000000" height="48.000000" filterUnits="userSpaceOnUse" color-interpolation-filters="sRGB">
			<feFlood flood-opacity="0" result="BackgroundImageFix"/>
			<feGaussianBlur in="BackgroundImage" stdDeviation="2"/>
			<feComposite in2="SourceAlpha" operator="in" result="effect_backgroundBlur_1"/>
			<feBlend mode="normal" in="SourceGraphic" in2="effect_backgroundBlur_1" result="shape"/>
		</filter>
	</defs>
	<g filter="url(#filter_571_8047_dd)">
		<rect id="Twitter/black" rx="-0.500000" width="47.000000" height="47.000000" transform="translate(0.500000 0.500000)" fill="#FFFFFF" fill-opacity="0"/>
		<path id="Combined-Shape" d="M0 24C0 10.7452 10.7422 0 24 0C37.2578 0 48 10.7452 48 24C48 37.2548 37.2578 48 24 48C10.7422 48 0 37.2548 0 24Z" clip-rule="evenodd" fill="#BDBDBD" fill-opacity="1.000000" fill-rule="evenodd"/>
		<path id="Combined-Shape-path" d="M23.28 19.5L23.32 20.33L22.49 20.23C19.43 19.84 16.76 18.52 14.5 16.3L13.39 15.2L13.1 16.01C12.5 17.82 12.89 19.74 14.14 21.03C14.82 21.74 14.67 21.84 13.5 21.42C13.1 21.28 12.75 21.18 12.71 21.23C12.6 21.35 13 22.89 13.32 23.5C13.76 24.35 14.65 25.18 15.62 25.67L16.44 26.06L15.47 26.08C14.53 26.08 14.5 26.1 14.6 26.45C14.93 27.55 16.26 28.72 17.74 29.23L18.78 29.59L17.87 30.13C16.53 30.91 14.95 31.35 13.37 31.38C12.62 31.4 12 31.47 12 31.52C12 31.69 14.04 32.64 15.24 33.01C18.81 34.11 23.06 33.64 26.25 31.76C28.51 30.42 30.78 27.76 31.84 25.18C32.41 23.81 32.98 21.3 32.98 20.1C32.98 19.32 33.03 19.21 33.97 18.28C34.53 17.74 35.04 17.15 35.14 16.98C35.32 16.66 35.3 16.66 34.44 16.94C33.01 17.45 32.82 17.38 33.52 16.62C34.03 16.08 34.66 15.1 34.66 14.81C34.66 14.76 34.41 14.84 34.12 14.99C33.82 15.16 33.14 15.42 32.64 15.57L31.74 15.86L30.92 15.3C30.46 14.99 29.82 14.66 29.49 14.55C28.63 14.32 27.32 14.35 26.55 14.62C24.45 15.38 23.13 17.35 23.28 19.5Z" fill="#FFFFFF" fill-opacity="1.000000" fill-rule="nonzero"/>
	</g>
</svg>
