<svg width="53.000000" height="53.000000" viewBox="0 0 53 53" fill="none" xmlns="http://www.w3.org/2000/svg" xmlns:xlink="http://www.w3.org/1999/xlink">
	<desc>
			Created with Pixso.
	</desc>
	<defs>
		<clipPath id="clip6_4250">
			<rect id="edit_modify_icon_149489 1" rx="-0.500000" width="23.000000" height="23.000000" transform="translate(15.500000 15.500000)" fill="white" fill-opacity="0"/>
		</clipPath>
	</defs>
	<circle id="Ellipse 17" cx="26.500000" cy="26.500000" r="26.500000" fill="#FFFFFF" fill-opacity="1.000000"/>
	<circle id="Ellipse 18" cx="26.500000" cy="26.500000" r="24.000000" stroke="#9D9D9D" stroke-opacity="1.000000" stroke-width="1.000000"/>
	<g clip-path="url(#clip6_4250)">
		<path id="Vector" d="M33.1 17.29L24.38 26.02C24.27 26.12 24.18 26.26 24.14 26.41L23.05 29.68C23 29.83 22.99 29.99 23.01 30.15C23.03 30.3 23.09 30.45 23.18 30.58C23.28 30.71 23.4 30.81 23.54 30.89C23.68 30.96 23.84 31 24 31C24.1 31 24.21 30.98 24.31 30.94L27.58 29.85C27.73 29.8 27.86 29.72 27.97 29.61L36.7 20.88C36.89 20.7 37 20.44 37 20.18C37 19.91 36.89 19.66 36.7 19.47L34.52 17.29C34.33 17.1 34.08 17 33.82 17C33.55 17 33.29 17.1 33.1 17.29ZM26.73 28.03L25.57 28.41L25.96 27.26L31.64 21.59L32.4 22.36L26.73 28.03ZM34.58 20.18L33.82 20.94L33.05 20.18L33.82 19.41L34.58 20.18ZM18 20L26 20C26.26 20 26.52 20.1 26.71 20.29C26.89 20.48 27 20.73 27 21C27 21.26 26.89 21.51 26.71 21.7C26.52 21.89 26.26 22 26 22L19 22L19 35L32 35L32 28C32 27.73 32.1 27.48 32.28 27.29C32.47 27.1 32.73 27 33 27C33.26 27 33.52 27.1 33.71 27.29C33.89 27.48 34 27.73 34 28L34 36C34 36.26 33.89 36.51 33.71 36.7C33.52 36.89 33.26 37 33 37L18 37C17.73 37 17.47 36.89 17.28 36.7C17.1 36.51 17 36.26 17 36L17 21C17 20.73 17.1 20.48 17.28 20.29C17.47 20.1 17.73 20 18 20Z" fill="#9D9D9D" fill-opacity="1.000000" fill-rule="nonzero"/>
	</g>
</svg>
