<svg width="23.273438" height="23.273438" viewBox="0 0 23.2734 23.2734" fill="none" xmlns="http://www.w3.org/2000/svg" xmlns:xlink="http://www.w3.org/1999/xlink">
	<desc>
			Created with Pixso.
	</desc>
	<defs/>
	<path id="Vector" d="M21.66 10.03L13.24 10.03L13.24 1.6C13.24 0.72 12.51 0 11.63 0C10.75 0 10.03 0.72 10.03 1.6L10.03 10.03L1.6 10.03C0.71 10.03 0 10.75 0 11.63C0 12.51 0.71 13.24 1.6 13.24L10.03 13.24L10.03 21.66C10.03 22.55 10.75 23.27 11.63 23.27C12.51 23.27 13.24 22.55 13.24 21.66L13.24 13.24L21.66 13.24C22.54 13.24 23.27 12.51 23.27 11.63C23.27 10.75 22.54 10.03 21.66 10.03Z" fill="#FFFFFF" fill-opacity="1.000000" fill-rule="nonzero"/>
	<path id="Vector" d="M13.24 9.03L13.24 10.03L21.66 10.03C22.54 10.03 23.27 10.75 23.27 11.63C23.27 12.51 22.54 13.24 21.66 13.24L14.24 13.24L13.24 13.24L13.24 14.24L13.24 21.66C13.24 22.55 12.51 23.27 11.63 23.27C10.75 23.27 10.03 22.55 10.03 21.66L10.03 13.24L9.03 13.24L1.6 13.24C0.71 13.24 0 12.51 0 11.63C0 10.75 0.71 10.03 1.6 10.03L10.03 10.03L10.03 1.6C10.03 0.72 10.75 0 11.63 0C12.51 0 13.24 0.72 13.24 1.6L13.24 9.03ZM12.24 1.6L12.24 11.03L21.66 11.03Q21.96 11.03 22.12 11.18Q22.27 11.33 22.27 11.63Q22.27 11.93 22.12 12.08Q21.96 12.24 21.66 12.24L12.24 12.24L12.24 21.66Q12.24 21.97 12.09 22.12Q11.93 22.27 11.63 22.27Q11.33 22.27 11.17 22.12Q11.03 21.97 11.03 21.66L11.03 12.24L1.6 12.24Q1.3 12.24 1.14 12.08Q1 11.93 1 11.63Q1 11.33 1.14 11.18Q1.3 11.03 1.6 11.03L11.03 11.03L11.03 1.6Q11.03 1.3 11.17 1.15Q11.33 1 11.63 1Q11.93 1 12.09 1.15Q12.24 1.3 12.24 1.6Z" fill="#FFFFFF" fill-opacity="1.000000" fill-rule="evenodd"/>
</svg>
