<svg width="44.000000" height="44.000000" viewBox="0 0 44 44" fill="none" xmlns="http://www.w3.org/2000/svg" xmlns:xlink="http://www.w3.org/1999/xlink">
	<desc>
			Created with Pixso.
	</desc>
	<defs>
		<clipPath id="clip16_4611">
			<rect id="account_cog_icon_137995 1" rx="-0.500000" width="15.000000" height="15.000000" transform="translate(14.500000 14.500000)" fill="white" fill-opacity="0"/>
		</clipPath>
		<linearGradient x1="30.922411" y1="13.724141" x2="10.491375" y2="33.120693" id="paint_linear_2_954_0" gradientUnits="userSpaceOnUse">
			<stop offset="0.404729" stop-color="#205BC9" stop-opacity="0.000000"/>
			<stop offset="1.000000" stop-color="#073D95"/>
		</linearGradient>
	</defs>
	<path id="Star 2" d="M14.25 8.59L7.96 12.12C7 12.66 6.42 13.68 6.42 14.78L6.52 22L6.42 29.21C6.42 30.31 7 31.33 7.96 31.87L14.25 35.4L20.46 39.09C21.41 39.65 22.58 39.65 23.53 39.09L29.74 35.4L36.03 31.87C36.99 31.33 37.57 30.31 37.57 29.21L37.47 22L37.57 14.78C37.57 13.68 36.99 12.66 36.03 12.12L29.74 8.59L23.53 4.9C22.58 4.34 21.41 4.34 20.46 4.9L14.25 8.59ZM14.75 9.46L8.45 13C7.81 13.35 7.42 14.03 7.42 14.76L7.52 22L7.42 29.23C7.42 29.96 7.81 30.64 8.45 31L14.75 34.53L20.97 38.23C21.6 38.6 22.39 38.6 23.02 38.23L29.24 34.53L35.54 31C36.18 30.64 36.57 29.96 36.57 29.23L36.47 22L36.57 14.76C36.57 14.03 36.18 13.35 35.54 13L29.24 9.46L23.02 5.76C22.39 5.39 21.6 5.39 20.97 5.76L14.75 9.46Z" fill="#205BC9" fill-opacity="1.000000" fill-rule="evenodd"/>
	<path id="Star 1" d="M20.97 7.6L15.54 10.82L10.04 13.91C9.4 14.27 9.02 14.95 9.02 15.68L9.1 22L9.02 28.31C9.02 29.04 9.4 29.72 10.04 30.08L15.54 33.17L20.97 36.39C21.6 36.76 22.39 36.76 23.02 36.39L28.45 33.17L33.95 30.08C34.59 29.72 34.97 29.04 34.97 28.31L34.89 22L34.97 15.68C34.97 14.95 34.59 14.27 33.95 13.91L28.45 10.82L23.02 7.6C22.39 7.23 21.6 7.23 20.97 7.6Z" fill="#205BC9" fill-opacity="1.000000" fill-rule="evenodd"/>
	<path id="Star 1" d="M20.97 7.6L15.54 10.82L10.04 13.91C9.4 14.27 9.02 14.95 9.02 15.68L9.1 22L9.02 28.31C9.02 29.04 9.4 29.72 10.04 30.08L15.54 33.17L20.97 36.39C21.6 36.76 22.39 36.76 23.02 36.39L28.45 33.17L33.95 30.08C34.59 29.72 34.97 29.04 34.97 28.31L34.89 22L34.97 15.68C34.97 14.95 34.59 14.27 33.95 13.91L28.45 10.82L23.02 7.6C22.39 7.23 21.6 7.23 20.97 7.6Z" fill="url(#paint_linear_2_954_0)" fill-opacity="1.000000" fill-rule="evenodd"/>
	<g clip-path="url(#clip16_4611)">
		<path id="Vector" d="M20.67 16.66C19.96 16.66 19.28 16.94 18.78 17.44C18.28 17.94 18 18.62 18 19.33C18 20.03 18.28 20.71 18.78 21.21C19.28 21.71 19.96 22 20.67 22C21.37 22 22.05 21.71 22.55 21.21C23.05 20.71 23.33 20.03 23.33 19.33C23.33 18.62 23.05 17.94 22.55 17.44C22.05 16.94 21.37 16.66 20.67 16.66ZM25.33 22C25.25 22 25.17 22.05 25.16 22.13L25.03 23.01C24.83 23.1 24.64 23.21 24.46 23.33L23.64 23C23.57 23 23.48 23 23.43 23.08L22.76 24.24C22.72 24.31 22.74 24.39 22.81 24.45L23.51 25C23.5 25.11 23.49 25.21 23.49 25.33C23.49 25.44 23.5 25.55 23.51 25.66L22.81 26.21C22.75 26.26 22.72 26.35 22.76 26.42L23.43 27.58C23.47 27.66 23.56 27.66 23.64 27.66L24.46 27.33C24.64 27.45 24.82 27.56 25.03 27.64L25.16 28.52C25.17 28.6 25.24 28.66 25.33 28.66L26.67 28.66C26.74 28.66 26.81 28.6 26.82 28.52L26.95 27.64C27.15 27.55 27.33 27.45 27.51 27.33L28.33 27.66C28.42 27.66 28.5 27.66 28.55 27.58L29.21 26.42C29.26 26.35 29.24 26.26 29.17 26.21L28.46 25.66C28.48 25.55 28.49 25.44 28.49 25.33C28.49 25.21 28.49 25.11 28.46 25L29.17 24.45C29.23 24.39 29.25 24.31 29.21 24.24L28.54 23.08C28.5 23 28.42 23 28.33 23L27.51 23.33C27.33 23.21 27.15 23.09 26.95 23.01L26.82 22.13C26.81 22.05 26.74 22 26.67 22L25.33 22ZM20.67 23.33C17.71 23.33 15.33 24.52 15.33 26L15.33 27.33L21.78 27.33C21.49 26.7 21.33 26.02 21.33 25.33C21.33 24.66 21.48 24 21.76 23.39C21.4 23.35 21.03 23.33 20.67 23.33ZM26 24.33C26.55 24.33 27 24.77 27 25.33C27 25.88 26.55 26.33 26 26.33C25.44 26.33 25 25.88 25 25.33C25 24.77 25.45 24.33 26 24.33Z" fill="#FFFFFF" fill-opacity="1.000000" fill-rule="nonzero"/>
	</g>
</svg>
