<svg width="68" height="68" viewBox="0 0 68 68" fill="none" xmlns="http://www.w3.org/2000/svg">
<path d="M32.9792 14.6059C33.6085 14.2324 34.3915 14.2324 35.0208 14.6059L42.6 19.1044L50.2854 23.4189C50.9235 23.7771 51.315 24.4552 51.3062 25.187L51.2 34L51.3062 42.813C51.315 43.5448 50.9235 44.2229 50.2854 44.5811L42.6 48.8956L35.0208 53.3941C34.3915 53.7676 33.6085 53.7676 32.9792 53.3941L25.4 48.8956L17.7146 44.5811C17.0765 44.2229 16.685 43.5448 16.6938 42.813L16.8 34L16.6938 25.187C16.685 24.4552 17.0765 23.7771 17.7146 23.4189L25.4 19.1044L32.9792 14.6059Z" fill="#205BC9"/>
<path d="M32.9792 14.6059C33.6085 14.2324 34.3915 14.2324 35.0208 14.6059L42.6 19.1044L50.2854 23.4189C50.9235 23.7771 51.315 24.4552 51.3062 25.187L51.2 34L51.3062 42.813C51.315 43.5448 50.9235 44.2229 50.2854 44.5811L42.6 48.8956L35.0208 53.3941C34.3915 53.7676 33.6085 53.7676 32.9792 53.3941L25.4 48.8956L17.7146 44.5811C17.0765 44.2229 16.685 43.5448 16.6938 42.813L16.8 34L16.6938 25.187C16.685 24.4552 17.0765 23.7771 17.7146 23.4189L25.4 19.1044L32.9792 14.6059Z" fill="url(#paint0_linear_1990_1631)"/>
<path d="M27.6842 32.9121V39.0659H30.2105V32.9121H27.6842ZM32.7368 32.9121V39.0659H35.2632V32.9121H32.7368ZM26 43.4615H42V40.8242H26V43.4615ZM37.7895 32.9121V39.0659H40.3158V32.9121H37.7895ZM34 25L26 29.3956V31.1538H42V29.3956L34 25Z" fill="white"/>
<defs>
<linearGradient id="paint0_linear_1990_1631" x1="45.8966" y1="22.9655" x2="18.6552" y2="48.8276" gradientUnits="userSpaceOnUse">
<stop offset="0.404729" stop-color="#205BC9" stop-opacity="0"/>
<stop offset="1" stop-color="#073D95"/>
</linearGradient>
</defs>
</svg>
