<svg width="68" height="68" viewBox="0 0 68 68" fill="none" xmlns="http://www.w3.org/2000/svg">
<path d="M32.9792 14.6059C33.6085 14.2324 34.3915 14.2324 35.0208 14.6059L42.6 19.1044L50.2854 23.4189C50.9235 23.7771 51.315 24.4552 51.3062 25.187L51.2 34L51.3062 42.813C51.315 43.5448 50.9235 44.2229 50.2854 44.5811L42.6 48.8956L35.0208 53.3941C34.3915 53.7676 33.6085 53.7676 32.9792 53.3941L25.4 48.8956L17.7146 44.5811C17.0765 44.2229 16.685 43.5448 16.6938 42.813L16.8 34L16.6938 25.187C16.685 24.4552 17.0765 23.7771 17.7146 23.4189L25.4 19.1044L32.9792 14.6059Z" fill="#205BC9"/>
<path d="M32.9792 14.6059C33.6085 14.2324 34.3915 14.2324 35.0208 14.6059L42.6 19.1044L50.2854 23.4189C50.9235 23.7771 51.315 24.4552 51.3062 25.187L51.2 34L51.3062 42.813C51.315 43.5448 50.9235 44.2229 50.2854 44.5811L42.6 48.8956L35.0208 53.3941C34.3915 53.7676 33.6085 53.7676 32.9792 53.3941L25.4 48.8956L17.7146 44.5811C17.0765 44.2229 16.685 43.5448 16.6938 42.813L16.8 34L16.6938 25.187C16.685 24.4552 17.0765 23.7771 17.7146 23.4189L25.4 19.1044L32.9792 14.6059Z" fill="url(#paint0_linear_1990_1608)"/>
<path d="M36.6667 39.7778C34.44 39.7778 32.5067 38.5156 31.5422 36.6667H36.6667V34.8889H30.9644C30.92 34.6 30.8889 34.3022 30.8889 34C30.8889 33.6978 30.92 33.4 30.9644 33.1111H36.6667V31.3333H31.5422C32.5067 29.4844 34.4356 28.2222 36.6667 28.2222C38.1022 28.2222 39.4133 28.7467 40.4222 29.6133L42 28.0444C40.5867 26.7778 38.7156 26 36.6667 26C33.1867 26 30.2311 28.2267 29.1333 31.3333H26V33.1111H28.72C28.6844 33.4044 28.6667 33.6978 28.6667 34C28.6667 34.3022 28.6844 34.5956 28.72 34.8889H26V36.6667H29.1333C30.2311 39.7733 33.1867 42 36.6667 42C38.7156 42 40.5867 41.2222 42 39.9556L40.4222 38.3822C39.4133 39.2489 38.1022 39.7778 36.6667 39.7778Z" fill="white"/>
<defs>
<linearGradient id="paint0_linear_1990_1608" x1="45.8966" y1="22.9655" x2="18.6552" y2="48.8276" gradientUnits="userSpaceOnUse">
<stop offset="0.404729" stop-color="#205BC9" stop-opacity="0"/>
<stop offset="1" stop-color="#073D95"/>
</linearGradient>
</defs>
</svg>
