<svg width="68" height="68" viewBox="0 0 68 68" fill="none" xmlns="http://www.w3.org/2000/svg">
<path d="M32.9792 14.6059C33.6085 14.2324 34.3915 14.2324 35.0208 14.6059L42.6 19.1044L50.2854 23.4189C50.9235 23.7771 51.315 24.4552 51.3062 25.187L51.2 34L51.3062 42.813C51.315 43.5448 50.9235 44.2229 50.2854 44.5811L42.6 48.8956L35.0208 53.3941C34.3915 53.7676 33.6085 53.7676 32.9792 53.3941L25.4 48.8956L17.7146 44.5811C17.0765 44.2229 16.685 43.5448 16.6938 42.813L16.8 34L16.6938 25.187C16.685 24.4552 17.0765 23.7771 17.7146 23.4189L25.4 19.1044L32.9792 14.6059Z" fill="#205BC9"/>
<path d="M32.9792 14.6059C33.6085 14.2324 34.3915 14.2324 35.0208 14.6059L42.6 19.1044L50.2854 23.4189C50.9235 23.7771 51.315 24.4552 51.3062 25.187L51.2 34L51.3062 42.813C51.315 43.5448 50.9235 44.2229 50.2854 44.5811L42.6 48.8956L35.0208 53.3941C34.3915 53.7676 33.6085 53.7676 32.9792 53.3941L25.4 48.8956L17.7146 44.5811C17.0765 44.2229 16.685 43.5448 16.6938 42.813L16.8 34L16.6938 25.187C16.685 24.4552 17.0765 23.7771 17.7146 23.4189L25.4 19.1044L32.9792 14.6059Z" fill="url(#paint0_linear_1990_1591)"/>
<path d="M30 38C31.6569 38 33 36.6569 33 35C33 33.3431 31.6569 32 30 32C28.3431 32 27 33.3431 27 35C27 36.6569 28.3431 38 30 38Z" fill="white"/>
<path d="M37 41C38.1046 41 39 40.1046 39 39C39 37.8954 38.1046 37 37 37C35.8954 37 35 37.8954 35 39C35 40.1046 35.8954 41 37 41Z" fill="white"/>
<path d="M38 34C40.2091 34 42 32.2091 42 30C42 27.7909 40.2091 26 38 26C35.7909 26 34 27.7909 34 30C34 32.2091 35.7909 34 38 34Z" fill="white"/>
<defs>
<linearGradient id="paint0_linear_1990_1591" x1="45.8966" y1="22.9655" x2="18.6552" y2="48.8276" gradientUnits="userSpaceOnUse">
<stop offset="0.404729" stop-color="#205BC9" stop-opacity="0"/>
<stop offset="1" stop-color="#073D95"/>
</linearGradient>
</defs>
</svg>
