<svg width="36" height="40" viewBox="0 0 36 40" fill="none" xmlns="http://www.w3.org/2000/svg">
<rect width="36" height="40" fill="#F5F5F5"/>
<g id="Investing black &#208;&#148;&#208;&#190;&#209;&#129;&#209;&#128;&#208;&#190;&#209;&#135;&#208;&#189;&#209;&#139;&#208;&#185; &#208;&#178;&#209;&#139;&#208;&#178;&#208;&#190;&#208;&#180; &#209;&#129;&#209;&#128;&#208;&#181;&#208;&#180;&#209;&#129;&#209;&#130;&#208;&#178;">
<rect width="1920" height="2272" transform="translate(-1358 -435)" fill="#0C0C0C"/>
<rect id="bg Balance" x="-224" y="-83" width="665" height="360" rx="30" fill="#1E1E1E" fill-opacity="0.4"/>
<g id="Name">
<g id="stars_mobile">
<g id="Star 1">
<path d="M16.9792 0.605875C17.6085 0.232375 18.3915 0.232375 19.0208 0.605875L26.6 5.10436L34.2854 9.4189C34.9235 9.77713 35.315 10.4552 35.3062 11.187L35.2 20L35.3062 28.813C35.315 29.5448 34.9235 30.2229 34.2854 30.5811L26.6 34.8956L19.0208 39.3941C18.3915 39.7676 17.6085 39.7676 16.9792 39.3941L9.4 34.8956L1.71459 30.5811C1.07649 30.2229 0.684977 29.5448 0.693795 28.813L0.800001 20L0.693795 11.187C0.684977 10.4552 1.07649 9.77713 1.71459 9.4189L9.4 5.10436L16.9792 0.605875Z" fill="#205BC9"/>
<path d="M16.9792 0.605875C17.6085 0.232375 18.3915 0.232375 19.0208 0.605875L26.6 5.10436L34.2854 9.4189C34.9235 9.77713 35.315 10.4552 35.3062 11.187L35.2 20L35.3062 28.813C35.315 29.5448 34.9235 30.2229 34.2854 30.5811L26.6 34.8956L19.0208 39.3941C18.3915 39.7676 17.6085 39.7676 16.9792 39.3941L9.4 34.8956L1.71459 30.5811C1.07649 30.2229 0.684977 29.5448 0.693795 28.813L0.800001 20L0.693795 11.187C0.684977 10.4552 1.07649 9.77713 1.71459 9.4189L9.4 5.10436L16.9792 0.605875Z" fill="url(#paint0_linear_0_1)"/>
</g>
<g id="Mobile/ ic_equalizer">
<path id="Vector" d="M16.5 24.5C16.5 25.3284 17.1716 26 18 26C18.8284 26 19.5 25.3284 19.5 24.5V15.5C19.5 14.6716 18.8284 14 18 14C17.1716 14 16.5 14.6716 16.5 15.5V24.5ZM12 24.5C12 25.3284 12.6716 26 13.5 26C14.3284 26 15 25.3284 15 24.5V21.5C15 20.6716 14.3284 20 13.5 20C12.6716 20 12 20.6716 12 21.5V24.5ZM22.5 17.75C21.6716 17.75 21 18.4216 21 19.25V24.5C21 25.3284 21.6716 26 22.5 26C23.3284 26 24 25.3284 24 24.5V19.25C24 18.4216 23.3284 17.75 22.5 17.75Z" fill="white"/>
</g>
</g>
</g>
</g>
<defs>
<linearGradient id="paint0_linear_0_1" x1="29.8966" y1="8.96552" x2="2.65517" y2="34.8276" gradientUnits="userSpaceOnUse">
<stop offset="0.404729" stop-color="#205BC9" stop-opacity="0"/>
<stop offset="1" stop-color="#073D95"/>
</linearGradient>
</defs>
</svg>
