<svg width="68" height="68" viewBox="0 0 68 68" fill="none" xmlns="http://www.w3.org/2000/svg">
<path d="M32.9792 14.6059C33.6085 14.2324 34.3915 14.2324 35.0208 14.6059L42.6 19.1044L50.2854 23.4189C50.9235 23.7771 51.315 24.4552 51.3062 25.187L51.2 34L51.3062 42.813C51.315 43.5448 50.9235 44.2229 50.2854 44.5811L42.6 48.8956L35.0208 53.3941C34.3915 53.7676 33.6085 53.7676 32.9792 53.3941L25.4 48.8956L17.7146 44.5811C17.0765 44.2229 16.685 43.5448 16.6938 42.813L16.8 34L16.6938 25.187C16.685 24.4552 17.0765 23.7771 17.7146 23.4189L25.4 19.1044L32.9792 14.6059Z" fill="#205BC9"/>
<path d="M32.9792 14.6059C33.6085 14.2324 34.3915 14.2324 35.0208 14.6059L42.6 19.1044L50.2854 23.4189C50.9235 23.7771 51.315 24.4552 51.3062 25.187L51.2 34L51.3062 42.813C51.315 43.5448 50.9235 44.2229 50.2854 44.5811L42.6 48.8956L35.0208 53.3941C34.3915 53.7676 33.6085 53.7676 32.9792 53.3941L25.4 48.8956L17.7146 44.5811C17.0765 44.2229 16.685 43.5448 16.6938 42.813L16.8 34L16.6938 25.187C16.685 24.4552 17.0765 23.7771 17.7146 23.4189L25.4 19.1044L32.9792 14.6059Z" fill="url(#paint0_linear_1990_1570)"/>
<path d="M32.5 38.5C32.5 39.3284 33.1716 40 34 40C34.8284 40 35.5 39.3284 35.5 38.5V29.5C35.5 28.6716 34.8284 28 34 28C33.1716 28 32.5 28.6716 32.5 29.5V38.5ZM28 38.5C28 39.3284 28.6716 40 29.5 40C30.3284 40 31 39.3284 31 38.5V35.5C31 34.6716 30.3284 34 29.5 34C28.6716 34 28 34.6716 28 35.5V38.5ZM38.5 31.75C37.6716 31.75 37 32.4216 37 33.25V38.5C37 39.3284 37.6716 40 38.5 40C39.3284 40 40 39.3284 40 38.5V33.25C40 32.4216 39.3284 31.75 38.5 31.75Z" fill="white"/>
<defs>
<linearGradient id="paint0_linear_1990_1570" x1="45.8966" y1="22.9655" x2="18.6552" y2="48.8276" gradientUnits="userSpaceOnUse">
<stop offset="0.404729" stop-color="#205BC9" stop-opacity="0"/>
<stop offset="1" stop-color="#073D95"/>
</linearGradient>
</defs>
</svg>
