<svg width="48" height="48" viewBox="0 0 48 48" fill="none" xmlns="http://www.w3.org/2000/svg">
<path d="M0 24C0 10.7452 10.7452 0 24 0C37.2548 0 48 10.7452 48 24C48 37.2548 37.2548 48 24 48C10.7452 48 0 37.2548 0 24Z" fill="#3C3C3C" fill-opacity="0.4"/>
<path d="M23.8012 11C20.3249 11 19.8886 11.0152 18.5233 11.0773C17.1606 11.1397 16.2305 11.3555 15.4166 11.672C14.5747 11.9989 13.8606 12.4363 13.1491 13.148C12.4371 13.8595 11.9997 14.5736 11.6717 15.4152C11.3544 16.2294 11.1384 17.1598 11.0771 18.5219C11.016 19.8873 11 20.3238 11 23.8001C11 27.2764 11.0155 27.7114 11.0773 29.0767C11.14 30.4394 11.3557 31.3695 11.672 32.1834C11.9992 33.0253 12.4365 33.7394 13.1483 34.4509C13.8595 35.1629 14.5736 35.6013 15.415 35.9283C16.2294 36.2448 17.1598 36.4605 18.5222 36.5229C19.8876 36.5851 20.3236 36.6003 23.7996 36.6003C27.2762 36.6003 27.7111 36.5851 29.0765 36.5229C30.4391 36.4605 31.3703 36.2448 32.1848 35.9283C33.0264 35.6013 33.7394 35.1629 34.4506 34.4509C35.1627 33.7394 35.6 33.0253 35.928 32.1837C36.2427 31.3695 36.4587 30.4391 36.5227 29.077C36.584 27.7116 36.6 27.2764 36.6 23.8001C36.6 20.3238 36.584 19.8876 36.5227 18.5222C36.4587 17.1595 36.2427 16.2294 35.928 15.4155C35.6 14.5736 35.1627 13.8595 34.4506 13.148C33.7386 12.436 33.0266 11.9987 32.184 11.672C31.3679 11.3555 30.4373 11.1397 29.0746 11.0773C27.7092 11.0152 27.2746 11 23.7972 11H23.8012Z" fill="white"/>
<path d="M22.853 13.5067C23.1938 13.5062 23.5741 13.5067 24.0013 13.5067C27.4189 13.5067 27.824 13.519 29.1736 13.5803C30.4216 13.6374 31.0989 13.8459 31.5501 14.0211C32.1475 14.2531 32.5733 14.5305 33.0211 14.9785C33.4691 15.4265 33.7464 15.8532 33.979 16.4505C34.1542 16.9012 34.363 17.5785 34.4198 18.8265C34.4811 20.1759 34.4944 20.5812 34.4944 23.9972C34.4944 27.4133 34.4811 27.8186 34.4198 29.168C34.3627 30.416 34.1542 31.0933 33.979 31.544C33.747 32.1413 33.4691 32.5667 33.0211 33.0144C32.5731 33.4624 32.1477 33.7398 31.5501 33.9718C31.0995 34.1478 30.4216 34.3558 29.1736 34.4128C27.8242 34.4742 27.4189 34.4875 24.0013 34.4875C20.5834 34.4875 20.1783 34.4742 18.8289 34.4128C17.5809 34.3552 16.9036 34.1467 16.4521 33.9715C15.8548 33.7395 15.4281 33.4621 14.9801 33.0141C14.5321 32.5661 14.2548 32.1405 14.0222 31.5429C13.847 31.0923 13.6382 30.4149 13.5814 29.1669C13.5201 27.8176 13.5078 27.4122 13.5078 23.994C13.5078 20.5759 13.5201 20.1727 13.5814 18.8233C13.6385 17.5753 13.847 16.898 14.0222 16.4468C14.2542 15.8494 14.5321 15.4228 14.9801 14.9748C15.4281 14.5268 15.8548 14.2494 16.4521 14.0169C16.9033 13.8409 17.5809 13.6329 18.8289 13.5755C20.0097 13.5222 20.4674 13.5062 22.853 13.5035V13.5067Z" fill="#3A3939"/>
<path d="M30.8329 15.6321C29.9849 15.6321 29.2969 16.3193 29.2969 17.1676C29.2969 18.0156 29.9849 18.7036 30.8329 18.7036C31.6809 18.7036 32.3689 18.0156 32.3689 17.1676C32.3689 16.3196 31.6809 15.6316 30.8329 15.6316V15.6321Z" fill="#DADADA"/>
<path d="M24.0031 17.4268C20.3729 17.4268 17.4297 20.37 17.4297 24.0002C17.4297 27.6303 20.3729 30.5722 24.0031 30.5722C27.6333 30.5722 30.5754 27.6303 30.5754 24.0002C30.5754 20.37 27.633 17.4268 24.0028 17.4268H24.0031Z" fill="white"/>
<path d="M24.0011 19.7334C26.3574 19.7334 28.2678 21.6436 28.2678 24.0001C28.2678 26.3564 26.3574 28.2668 24.0011 28.2668C21.6445 28.2668 19.7344 26.3564 19.7344 24.0001C19.7344 21.6436 21.6445 19.7334 24.0011 19.7334Z" fill="#3A3939"/>
</svg>
