<svg width="48" height="48" viewBox="0 0 48 48" fill="none" xmlns="http://www.w3.org/2000/svg">
<path d="M24 48C37.2548 48 48 37.2548 48 24C48 10.7452 37.2548 0 24 0C10.7452 0 0 10.7452 0 24C0 37.2548 10.7452 48 24 48Z" fill="#BDBDBD"/>
<path d="M8.93764 25.174C11.7432 23.6286 14.875 22.3388 17.8012 21.0424C22.8354 18.919 27.8896 16.8324 32.9948 14.8898C33.9881 14.5588 35.7728 14.2351 35.9478 15.7071C35.852 17.7907 35.4578 19.8621 35.1874 21.9335C34.5012 26.4887 33.7079 31.0283 32.9344 35.5685C32.6679 37.0808 30.7734 37.8637 29.5612 36.8959C26.648 34.9281 23.7124 32.9795 20.8364 30.9661C19.8943 30.0088 20.7679 28.6341 21.6093 27.9505C24.0087 25.5859 26.5533 23.5769 28.8273 21.0901C29.4407 19.6088 27.6283 20.8572 27.0305 21.2397C23.7457 23.5033 20.5413 25.9051 17.0781 27.8945C15.3091 28.8683 13.2473 28.0361 11.4791 27.4927C9.8937 26.8363 7.57064 26.1748 8.93764 25.174Z" fill="white" fill-opacity="0.4"/>
</svg>
