<svg width="96" height="96" viewBox="0 0 96 96" fill="none" xmlns="http://www.w3.org/2000/svg">
<path d="M67.8 12H28.2C19.252 12 12 19.252 12 28.2V67.8C12 76.746 19.252 84 28.2 84H67.8C76.748 84 84 76.746 84 67.8V28.2C84 19.252 76.748 12 67.8 12Z" fill="url(#paint0_linear_180_2899)"/>
<path opacity="0.05" d="M24.6016 61.9541C21.8456 61.9541 19.6016 59.7261 19.6016 56.9861C19.6016 54.2461 21.8456 52.0181 24.6016 52.0181H32.1976L41.9356 35.4001L39.0896 30.5421C38.4136 29.3861 38.2276 28.0401 38.5656 26.7481C38.9036 25.4561 39.7256 24.3721 40.8776 23.7001C41.6456 23.2521 42.5176 23.0161 43.4016 23.0161C45.1716 23.0161 46.8256 23.9641 47.7176 25.4901L47.7316 25.5141L47.7436 25.4921C48.6336 23.9661 50.2876 23.0181 52.0596 23.0181C52.9456 23.0181 53.8176 23.2561 54.5856 23.7041C56.9656 25.1001 57.7656 28.1701 56.3696 30.5481L43.7876 52.0201H50.4436L51.0296 52.6101C51.4736 53.0561 51.8796 53.5621 52.2756 54.1581L52.6696 54.8181C53.6476 56.6401 53.8656 58.6541 53.3076 60.5261L52.8856 61.9541H24.6016Z" fill="black"/>
<path opacity="0.07" d="M24.6016 60.9542C22.3956 60.9542 20.6016 59.1742 20.6016 56.9862C20.6016 54.7982 22.3956 53.0182 24.6016 53.0182H32.7696L43.0936 35.4002L39.9496 30.0362C39.4096 29.1142 39.2596 28.0362 39.5316 27.0002C39.8016 25.9662 40.4576 25.1002 41.3796 24.5622C41.9936 24.2042 42.6916 24.0142 43.3996 24.0142C44.8156 24.0142 46.1396 24.7722 46.8536 25.9922L47.7296 27.4902L48.6056 25.9942C49.3176 24.7742 50.6416 24.0162 52.0576 24.0162C52.7656 24.0162 53.4636 24.2062 54.0776 24.5642C55.9816 25.6822 56.6196 28.1382 55.5036 30.0402L42.0416 53.0182H50.0256L50.3176 53.3122C50.7136 53.7102 51.0796 54.1662 51.4376 54.7082L51.8076 55.3282C52.6436 56.8902 52.8296 58.6202 52.3476 60.2402L52.1356 60.9542H24.6016Z" fill="black"/>
<path d="M50.6056 55.2601C50.3096 54.8121 49.9816 54.3921 49.6096 54.0181H40.2976L54.6436 29.5341C55.4816 28.1041 55.0016 26.2661 53.5736 25.4281C52.1416 24.5901 50.3036 25.0701 49.4696 26.5001L47.7296 29.4681L45.9896 26.4981C45.1536 25.0681 43.3156 24.5901 41.8856 25.4261C40.4556 26.2621 39.9756 28.1001 40.8136 29.5301L44.2536 35.4001L33.3436 54.0181H24.6016C22.9436 54.0181 21.6016 55.3481 21.6016 56.9861C21.6016 58.6241 22.9436 59.9541 24.6016 59.9541H51.3896C51.7776 58.6481 51.6716 57.1901 50.9476 55.8381L50.6056 55.2601Z" fill="white"/>
<path opacity="0.05" d="M28.9993 72.358C28.1133 72.358 27.2413 72.12 26.4733 71.67C25.3213 70.994 24.5013 69.91 24.1633 68.618C23.8273 67.326 24.0133 65.978 24.6893 64.826L26.1153 62.39L26.9953 62.214C27.7173 62.072 28.3913 62 29.0553 62L29.2913 62.002C31.4533 62.066 33.4113 62.99 34.8233 64.602L35.7753 65.686L33.3173 69.886C32.4213 71.412 30.7693 72.358 28.9993 72.358Z" fill="black"/>
<path opacity="0.07" d="M28.9996 71.358C28.2916 71.358 27.5916 71.168 26.9796 70.808C26.0596 70.268 25.4016 69.4 25.1316 68.366C24.8616 67.332 25.0096 66.254 25.5516 65.332L26.7516 63.284L27.1916 63.196C27.8496 63.064 28.4596 63 29.0556 63L29.2796 63.002C31.1456 63.058 32.8456 63.86 34.0716 65.26L34.5476 65.802L32.4536 69.38C31.7396 70.6 30.4156 71.358 28.9996 71.358Z" fill="black"/>
<path d="M29.2503 64.0038C28.6163 63.9858 27.9943 64.0558 27.3863 64.1778L26.4123 65.8398C25.5743 67.2698 26.0543 69.1078 27.4843 69.9458C27.9603 70.2258 28.4843 70.3578 28.9983 70.3578C30.0283 70.3578 31.0323 69.8258 31.5883 68.8758L33.3183 65.9218C32.3443 64.8098 30.9383 64.0538 29.2583 64.0038H29.2503Z" fill="white"/>
<path opacity="0.05" d="M66.4588 72.3582C64.6888 72.3582 63.0348 71.4102 62.1428 69.8862L50.0888 49.3162L50.0548 49.2122C49.2208 46.6342 49.3848 43.9762 50.4828 41.6262L53.8208 35.9102L63.2608 52.0202H71.4008C74.1568 52.0202 76.4008 54.2482 76.4008 56.9882C76.4008 59.7282 74.1568 61.9562 71.4008 61.9562H69.0828L70.7668 64.8302C71.4428 65.9822 71.6288 67.3282 71.2928 68.6222C70.9568 69.9162 70.1348 70.9982 68.9828 71.6742C68.2188 72.1202 67.3468 72.3582 66.4588 72.3582Z" fill="black"/>
<path opacity="0.07" d="M66.4595 71.3582C65.0435 71.3582 63.7195 70.6022 63.0055 69.3822L51.0055 48.9062L50.9715 48.8022C50.2495 46.5662 50.3955 44.1682 51.3875 42.0502L53.8195 37.8882L62.6855 53.0182H71.4015C73.6075 53.0182 75.4015 54.7982 75.4015 56.9862C75.4015 59.1742 73.6075 60.9542 71.4015 60.9542H67.3395L69.9055 65.3342C70.4475 66.2562 70.5955 67.3342 70.3255 68.3682C70.0555 69.4022 69.3995 70.2702 68.4775 70.8102C67.8675 71.1682 67.1695 71.3582 66.4595 71.3582Z" fill="black"/>
<path d="M71.4014 54.0182H62.1154L53.8214 39.8662L52.2954 42.4722C51.4074 44.3722 51.2874 46.5202 51.9254 48.4942L63.8694 68.8762C64.4274 69.8282 65.4294 70.3582 66.4594 70.3582C66.9734 70.3582 67.4974 70.2262 67.9734 69.9462C69.4034 69.1082 69.8814 67.2702 69.0434 65.8402L65.5934 59.9542H71.4014C73.0594 59.9542 74.4014 58.6242 74.4014 56.9862C74.4014 55.3482 73.0594 54.0182 71.4014 54.0182Z" fill="white"/>
<defs>
<linearGradient id="paint0_linear_180_2899" x1="48" y1="9.234" x2="48" y2="80.192" gradientUnits="userSpaceOnUse">
<stop stop-color="#33BEF0"/>
<stop offset="1" stop-color="#0A85D9"/>
</linearGradient>
</defs>
</svg>
