<svg width="96" height="96" viewBox="0 0 96 96" fill="none" xmlns="http://www.w3.org/2000/svg">
<path fill-rule="evenodd" clip-rule="evenodd" d="M15.6191 9.21576C14.7191 10.1818 14.2031 11.6698 14.2031 13.6038V82.3718C14.2031 84.3058 14.7191 85.7938 15.6531 86.7258L15.8971 86.9318L54.4291 48.3998V47.5338L15.8631 9.00977L15.6191 9.21576Z" fill="url(#paint0_linear_180_2900)"/>
<path fill-rule="evenodd" clip-rule="evenodd" d="M67.2465 61.2941L54.3945 48.4381V47.5381L67.2505 34.6821L67.5285 34.8541L82.7345 43.4961C87.0885 45.9501 87.0885 49.9941 82.7345 52.4821L67.5285 61.1241C67.5245 61.1221 67.2465 61.2941 67.2465 61.2941Z" fill="url(#paint1_linear_180_2900)"/>
<path fill-rule="evenodd" clip-rule="evenodd" d="M67.5232 61.1218L54.3932 47.9878L15.6172 86.7638C17.0332 88.2858 19.4172 88.4578 22.0812 86.9698L67.5232 61.1218Z" fill="url(#paint2_linear_180_2900)"/>
<path fill-rule="evenodd" clip-rule="evenodd" d="M67.5232 34.8582L22.0812 9.0442C19.4212 7.5222 17.0332 7.7282 15.6172 9.2502L54.3892 47.9882L67.5232 34.8582Z" fill="url(#paint3_linear_180_2900)"/>
<defs>
<linearGradient id="paint0_linear_180_2900" x1="77.3851" y1="-13.5875" x2="-5.76831" y2="8.58443" gradientUnits="userSpaceOnUse">
<stop stop-color="#047ED6"/>
<stop offset="1" stop-color="#50E6FF"/>
</linearGradient>
<linearGradient id="paint1_linear_180_2900" x1="88.4055" y1="47.9851" x2="45.2959" y2="47.9851" gradientUnits="userSpaceOnUse">
<stop stop-color="#FFDA1C"/>
<stop offset="1" stop-color="#FEB705"/>
</linearGradient>
<linearGradient id="paint2_linear_180_2900" x1="60.3723" y1="55.1249" x2="10.8298" y2="138.523" gradientUnits="userSpaceOnUse">
<stop stop-color="#D9414F"/>
<stop offset="1" stop-color="#8C193F"/>
</linearGradient>
<linearGradient id="paint3_linear_180_2900" x1="5.84971" y1="-13.6666" x2="27.9509" y2="23.5838" gradientUnits="userSpaceOnUse">
<stop stop-color="#33C481"/>
<stop offset="1" stop-color="#61E3A7"/>
</linearGradient>
</defs>
</svg>
