<svg width="40" height="40" viewBox="0 0 40 40" fill="none" xmlns="http://www.w3.org/2000/svg">
<path d="M30.5417 31.0007H9.45833C9.20533 31.0007 9 30.7953 9 30.5423C9 30.2893 9.20533 30.084 9.45833 30.084H30.5417C30.7947 30.084 31 30.2893 31 30.5423C31 30.7953 30.7947 31.0007 30.5417 31.0007Z" fill="black"/>
<path d="M13.1263 30.9997H10.3763C10.1233 30.9997 9.91797 30.7943 9.91797 30.5413V25.0413C9.91797 24.7883 10.1233 24.583 10.3763 24.583H13.1263C13.3793 24.583 13.5846 24.7883 13.5846 25.0413V30.5413C13.5846 30.7943 13.3793 30.9997 13.1263 30.9997ZM10.8346 30.083H12.668V25.4997H10.8346V30.083Z" fill="black"/>
<path d="M18.6224 31H15.8724C15.6194 31 15.4141 30.7947 15.4141 30.5417V20.4583C15.4141 20.2053 15.6194 20 15.8724 20H18.6224C18.8754 20 19.0807 20.2053 19.0807 20.4583V30.5417C19.0807 30.7947 18.8754 31 18.6224 31ZM16.3307 30.0833H18.1641V20.9167H16.3307V30.0833Z" fill="black"/>
<path d="M24.1263 31.0007H21.3763C21.1233 31.0007 20.918 30.7953 20.918 30.5423V22.2923C20.918 22.0393 21.1233 21.834 21.3763 21.834H24.1263C24.3793 21.834 24.5846 22.0393 24.5846 22.2923V30.5423C24.5846 30.7953 24.3793 31.0007 24.1263 31.0007ZM21.8346 30.084H23.668V22.7507H21.8346V30.084Z" fill="black"/>
<path d="M29.6263 30.9997H26.8763C26.6233 30.9997 26.418 30.7943 26.418 30.5413V16.7913C26.418 16.5383 26.6233 16.333 26.8763 16.333H29.6263C29.8793 16.333 30.0846 16.5383 30.0846 16.7913V30.5413C30.0846 30.7943 29.8793 30.9997 29.6263 30.9997ZM27.3346 30.083H29.168V17.2497H27.3346V30.083Z" fill="black"/>
<path d="M11.7513 20.9167C10.7402 20.9167 9.91797 20.0944 9.91797 19.0833C9.91797 18.0722 10.7402 17.25 11.7513 17.25C12.7624 17.25 13.5846 18.0722 13.5846 19.0833C13.5846 20.0944 12.7624 20.9167 11.7513 20.9167ZM11.7513 18.1667C11.2453 18.1667 10.8346 18.5783 10.8346 19.0833C10.8346 19.5884 11.2453 20 11.7513 20C12.2573 20 12.668 19.5884 12.668 19.0833C12.668 18.5783 12.2573 18.1667 11.7513 18.1667Z" fill="black"/>
<path d="M17.2474 16.3327C16.2363 16.3327 15.4141 15.5104 15.4141 14.4993C15.4141 13.4883 16.2363 12.666 17.2474 12.666C18.2585 12.666 19.0807 13.4883 19.0807 14.4993C19.0807 15.5104 18.2585 16.3327 17.2474 16.3327ZM17.2474 13.5827C16.7414 13.5827 16.3307 13.9943 16.3307 14.4993C16.3307 15.0044 16.7414 15.416 17.2474 15.416C17.7534 15.416 18.1641 15.0044 18.1641 14.4993C18.1641 13.9943 17.7534 13.5827 17.2474 13.5827Z" fill="black"/>
<path d="M22.7513 18.1667C21.7402 18.1667 20.918 17.3444 20.918 16.3333C20.918 15.3222 21.7402 14.5 22.7513 14.5C23.7624 14.5 24.5846 15.3222 24.5846 16.3333C24.5846 17.3444 23.7624 18.1667 22.7513 18.1667ZM22.7513 15.4167C22.2453 15.4167 21.8346 15.8283 21.8346 16.3333C21.8346 16.8384 22.2453 17.25 22.7513 17.25C23.2573 17.25 23.668 16.8384 23.668 16.3333C23.668 15.8283 23.2573 15.4167 22.7513 15.4167Z" fill="black"/>
<path d="M28.2513 12.6667C27.2402 12.6667 26.418 11.8444 26.418 10.8333C26.418 9.82225 27.2402 9 28.2513 9C29.2624 9 30.0846 9.82225 30.0846 10.8333C30.0846 11.8444 29.2624 12.6667 28.2513 12.6667ZM28.2513 9.91667C27.7453 9.91667 27.3346 10.3283 27.3346 10.8333C27.3346 11.3384 27.7453 11.75 28.2513 11.75C28.7573 11.75 29.168 11.3384 29.168 10.8333C29.168 10.3283 28.7573 9.91667 28.2513 9.91667Z" fill="black"/>
<path d="M23.7242 15.8193C23.6069 15.8193 23.4895 15.7744 23.3997 15.6855C23.2209 15.5067 23.2209 15.2162 23.3997 15.0374L26.9564 11.4807C27.1351 11.302 27.4257 11.302 27.6044 11.4807C27.7832 11.6595 27.7832 11.9501 27.6044 12.1288L24.0478 15.6855C23.9579 15.7753 23.8406 15.8193 23.7242 15.8193Z" fill="black"/>
<path d="M21.5154 16.1753C21.4742 16.1753 21.432 16.1698 21.3898 16.1579L18.4455 15.3182C18.2026 15.2486 18.0614 14.9956 18.1311 14.7517C18.1998 14.5079 18.4501 14.3649 18.6967 14.4364L21.641 15.2761C21.8848 15.3457 22.026 15.5997 21.9563 15.8426C21.8986 16.0442 21.7152 16.1753 21.5154 16.1753Z" fill="black"/>
<path d="M12.7206 18.569C12.5867 18.569 12.4529 18.5103 12.3621 18.3967C12.2036 18.1987 12.2366 17.9108 12.4346 17.7523L15.8904 14.9968C16.0884 14.84 16.3762 14.8721 16.5339 15.0701C16.6925 15.2681 16.6595 15.5559 16.4615 15.7145L13.0056 18.47C12.9213 18.536 12.8205 18.569 12.7206 18.569Z" fill="black"/>
</svg>
