<svg width="40" height="40" viewBox="0 0 40 40" fill="currentColor" xmlns="http://www.w3.org/2000/svg">
<path d="M30.8738 20.1322L20.352 10.1294C20.1712 9.95686 19.8288 9.95686 19.648 10.1294L9.12621 20.1322C8.99708 20.2539 8.96456 20.4306 9.04013 20.5815C9.11665 20.7332 9.28882 20.8308 9.47822 20.8308H11.8695V29.5832C11.8695 29.8133 12.0838 30 12.3478 30H17.1304C17.3944 30 17.6087 29.8133 17.6087 29.5832V23.3315H22.3913V29.5832C22.3913 29.8133 22.6056 30 22.8696 30H27.6522C27.9162 30 28.1305 29.8133 28.1305 29.5832V20.8308H30.5218C30.7112 20.8308 30.8834 20.7332 30.9599 20.5815C31.0354 20.4306 31.0029 20.2539 30.8738 20.1322Z" fill="white"/>
</svg>
