<svg width="40" height="40" viewBox="0 0 40 40" fill="none" xmlns="http://www.w3.org/2000/svg">
<path d="M20 3.5293C19.616 3.5293 19.3043 3.84095 19.3043 4.22495V9.79017C19.3043 10.1742 19.616 10.4858 20 10.4858C24.9864 10.4858 29.0435 14.5429 29.0435 19.5293C29.0435 24.5157 24.9864 28.5728 20 28.5728C15.0136 28.5728 10.9565 24.5157 10.9565 19.5293C10.9565 19.1453 10.6449 18.8336 10.2609 18.8336H4.69565C4.31165 18.8336 4 19.1453 4 19.5293C4 28.3516 11.1777 35.5293 20 35.5293C28.8223 35.5293 36 28.3516 36 19.5293C36 10.707 28.8223 3.5293 20 3.5293ZM20 34.138C12.1781 34.138 5.77252 27.9592 5.408 20.2249H9.58887C9.94643 25.6552 14.4793 29.9641 20 29.9641C25.7544 29.9641 30.4348 25.2837 30.4348 19.5293C30.4348 14.01 26.1259 9.47712 20.6957 9.11817V4.9373C28.4299 5.30043 34.6087 11.7074 34.6087 19.5293C34.6087 27.5849 28.0557 34.138 20 34.138ZM20 24.3989C22.6852 24.3989 24.8696 22.2145 24.8696 19.5293C24.8696 16.8441 22.6852 14.6597 20 14.6597C17.3148 14.6597 15.1304 16.8441 15.1304 19.5293C15.1304 22.2145 17.3148 24.3989 20 24.3989ZM20 16.051C21.9186 16.051 23.4783 17.6121 23.4783 19.5293C23.4783 21.4465 21.9186 23.0076 20 23.0076C18.0814 23.0076 16.5217 21.4465 16.5217 19.5293C16.5217 17.6121 18.0814 16.051 20 16.051Z" fill="white"/>
</svg>
