<svg width="40" height="40" viewBox="0 0 40 40" fill="none" xmlns="http://www.w3.org/2000/svg">
<path d="M25 21.0585C21.6285 21.0585 18 19.963 18 17.5586C18 15.1541 21.6285 14.0586 25 14.0586C28.3715 14.0586 32 15.1541 32 17.5586C32 19.963 28.3715 21.0585 25 21.0585ZM25 15.2637C21.276 15.2637 19.1491 17.0616 19.0524 17.5463C19.1491 18.0066 21.276 19.8305 25 19.8305C28.724 19.8305 30.9379 18.0311 31.0347 17.5463C30.9379 17.0861 29.9947 15.2637 25 15.2637Z" fill="black"/>
<path d="M25 24.5585C21.6285 24.5585 18 23.463 18 21.0586V17.5586C18 17.0756 18.2851 16.6836 18.6364 16.6836C18.9876 16.6836 19.2727 17.0756 19.2727 17.5586V21.0586C19.3682 21.5311 21.276 23.2669 25 23.2669C28.724 23.2669 31.0347 22.4244 31.0347 21.0586V18.6224C31.0347 18.1394 31.0124 16.6836 31.3636 16.6836C31.7149 16.6836 32 17.0756 32 17.5586V21.0586C32 23.463 28.3715 24.5585 25 24.5585Z" fill="black"/>
<path d="M25 28.0585C21.6285 28.0585 18 26.963 18 24.5586V21.0586C18 20.5756 18.2851 20.1836 18.6364 20.1836C18.9876 20.1836 19.2727 20.5756 19.2727 21.0586V24.5586C19.3682 25.0311 21.276 26.9747 25 26.9747C28.724 26.9747 30.7051 25.6293 30.9239 24.5586L31.1795 21.0586C31.1795 20.5756 31.0124 20.1836 31.3636 20.1836C31.7149 20.1836 32 20.5756 32 21.0586V24.5586C32 26.963 28.3715 28.0585 25 28.0585Z" fill="black"/>
<circle cx="18" cy="19.5293" r="9.5" fill="#EFEFEF" stroke="black"/>
<path d="M13.3312 21.1761C12.8572 20.918 12.9176 20.6635 13.0446 20.3988L15.2379 15.9955C15.4901 15.4892 16.0921 15.3003 16.5897 15.5712C16.8596 15.7181 17.0567 15.9803 17.1277 16.2869L18.2207 21.0006L18.5495 22.3194C18.5942 22.4988 18.8246 22.5363 18.9102 22.3781L19.6179 21.0693L21.244 17.893L20.7245 17.5719L22.3033 16.9717L22.6343 18.6117L22.1128 18.366C22.2398 18.1012 19.6657 23.1718 19.1786 23.7384C18.3055 24.2536 17.9149 23.5552 17.6228 22.8913L16.3199 16.9467C16.2788 16.7594 16.037 16.7211 15.9543 16.8887L13.9745 20.905C13.8475 21.1698 13.6741 21.3628 13.3312 21.1761Z" fill="black"/>
</svg>
