<svg width="40" height="40" viewBox="0 0 40 40" fill="none" xmlns="http://www.w3.org/2000/svg">
<path d="M27.7917 28.5293H12.2083C10.4392 28.5293 9 27.0419 9 25.2135V13.8451C9 12.0167 10.4392 10.5293 12.2083 10.5293H27.7917C29.5608 10.5293 31 12.0167 31 13.8451V25.2135C31 27.0419 29.5608 28.5293 27.7917 28.5293ZM12.2083 11.4767C10.9443 11.4767 9.91667 12.5396 9.91667 13.8451V25.2135C9.91667 26.519 10.9443 27.5819 12.2083 27.5819H27.7917C29.0557 27.5819 30.0833 26.519 30.0833 25.2135V13.8451C30.0833 12.5396 29.0557 11.4767 27.7917 11.4767H12.2083Z" fill="black"/>
<path d="M26.875 20.9515C26.1169 20.9515 25.5 20.3139 25.5 19.5304C25.5 18.747 26.1169 18.1094 26.875 18.1094C27.6331 18.1094 28.25 18.747 28.25 19.5304C28.25 20.3139 27.6331 20.9515 26.875 20.9515ZM26.875 19.0567C26.6229 19.0567 26.4167 19.269 26.4167 19.5304C26.4167 19.7919 26.6229 20.0041 26.875 20.0041C27.1271 20.0041 27.3333 19.7919 27.3333 19.5304C27.3333 19.269 27.1271 19.0567 26.875 19.0567Z" fill="black"/>
<path d="M30.5391 22.8454H26.8724C25.1032 22.8454 23.6641 21.3581 23.6641 19.5297C23.6641 17.7012 25.1032 16.2139 26.8724 16.2139H30.5391C30.7921 16.2139 30.9974 16.4261 30.9974 16.6876V22.3718C30.9974 22.6332 30.7921 22.8454 30.5391 22.8454ZM26.8724 17.1612C25.6083 17.1612 24.5807 18.2242 24.5807 19.5297C24.5807 20.8351 25.6083 21.8981 26.8724 21.8981H30.0807V17.1612H26.8724Z" fill="black"/>
</svg>
